<svg width="126" height="103" viewBox="0 0 126 103" fill="none" xmlns="http://www.w3.org/2000/svg">
<rect x="47" width="79" height="79" rx="18.8095" fill="#1B4B63"/>
<path d="M31.875 21.5416V28.625H53.125V21.5416H60.2084V28.625H74.375C76.3311 28.625 77.9167 30.2106 77.9167 32.1666V88.8333C77.9167 90.7894 76.3311 92.375 74.375 92.375H10.625C8.66905 92.375 7.08337 90.7894 7.08337 88.8333V32.1666C7.08337 30.2106 8.66905 28.625 10.625 28.625H24.7917V21.5416H31.875ZM70.8334 56.9583H14.1667V85.2916H70.8334V56.9583ZM38.9584 64.0416V78.2083H21.25V64.0416H38.9584ZM24.7917 35.7083H14.1667V49.875H70.8334V35.7083H60.2084V42.7916H53.125V35.7083H31.875V42.7916H24.7917V35.7083Z" fill="#95C4DC"/>
</svg>
