<svg width="47" height="47" viewBox="0 0 47 47" fill="none" xmlns="http://www.w3.org/2000/svg">
<rect width="47" height="47" rx="23.5" fill="#F8F9FA"/>
<path fill-rule="evenodd" clip-rule="evenodd" d="M18.0108 19.2347L16 21.2455V16H21.2455L19.2347 18.0108L21.7613 20.5199L20.5199 21.7613L18.0108 19.2347ZM28.5019 18.0108L26.4911 16H31.7366V21.2456L29.7258 19.2348L27.2167 21.7614L25.9753 20.5199L28.5019 18.0108ZM21.2456 31.7367L19.2348 29.7259L21.7614 27.2168L20.5199 25.9754L18.0108 28.502L16 26.4912V31.7367H21.2456ZM29.7258 28.502L31.7366 26.4912V31.7367H26.4911L28.5019 29.7259L25.9753 27.2168L27.2167 25.9754L29.7258 28.502Z" fill="#0F2B39"/>
</svg>
