<svg width="126" height="103" viewBox="0 0 126 103" fill="none" xmlns="http://www.w3.org/2000/svg">
<rect x="47" width="79" height="79" rx="18.8095" fill="#1B4B63"/>
<path d="M10.596 92.375C8.65605 92.375 7.08337 90.7993 7.08337 88.8567V32.1433C7.08337 30.2002 8.69593 28.625 10.596 28.625H74.4041C76.3442 28.625 77.9167 30.2009 77.9167 32.1433V88.8567C77.9167 90.7997 76.3042 92.375 74.4041 92.375H10.596ZM70.8334 71.125V35.7083H14.1667V85.2917L49.5834 49.875L70.8334 71.125ZM70.8334 81.1423L49.5834 59.8923L24.1841 85.2917H70.8334V81.1423ZM28.3334 56.9583C24.4214 56.9583 21.25 53.7871 21.25 49.875C21.25 45.963 24.4214 42.7917 28.3334 42.7917C32.2454 42.7917 35.4167 45.963 35.4167 49.875C35.4167 53.7871 32.2454 56.9583 28.3334 56.9583Z" fill="#0F2B39"/>
</svg>
