<svg width="88" height="94" viewBox="0 0 88 94" fill="none" xmlns="http://www.w3.org/2000/svg">
<path d="M26.0766 54.9972C26.3954 54.9972 26.7143 54.9278 27.0331 54.7892C28.1718 54.2577 28.6729 52.8944 28.1491 51.7159C27.1015 49.3821 26.5549 46.9096 26.5549 44.3216C26.5549 34.5472 34.3892 26.6214 44 26.6214C53.6335 26.6214 61.4451 34.5703 61.4451 44.3216C61.4451 46.9327 60.9213 49.4052 59.8509 51.7159C59.3271 52.8713 59.8282 54.2577 60.9669 54.7892C62.1056 55.3207 63.4721 54.8123 63.9959 53.6569C65.3395 50.7454 66 47.6028 66 44.3216C66 32.0054 56.1159 22 44 22C31.8841 22 22 32.0285 22 44.3216C22 47.5797 22.6832 50.7223 24.0041 53.6569C24.3913 54.4888 25.2112 54.9972 26.0766 54.9972Z" fill="#261201"/>
<path d="M19.6831 24C20.284 24 20.8618 23.7692 21.324 23.3307C22.2253 22.4305 22.2253 20.9765 21.324 20.0763L12.9347 11.6751C12.0333 10.775 10.5773 10.775 9.676 11.6751C8.77467 12.5752 8.77467 14.0293 9.676 14.9294L18.0653 23.3076C18.5044 23.7692 19.1053 24 19.6831 24Z" fill="#261201"/>
<path d="M3.2409 47H14.7591C15.9916 47 17 45.875 17 44.5C17 43.125 15.9916 42 14.7591 42H3.2409C2.0084 42 1 43.125 1 44.5C1 45.875 2.0084 47 3.2409 47Z" fill="#261201"/>
<path d="M42.5 16C43.875 16 45 14.9916 45 13.7591V2.2409C45 1.0084 43.875 0 42.5 0C41.125 0 40 1.0084 40 2.2409V13.7591C40 14.9916 41.1 16 42.5 16Z" fill="#261201"/>
<path d="M68.2938 24C68.8947 24 69.4724 23.7688 69.9347 23.3295L78.324 14.9364C79.2253 14.0347 79.2253 12.578 78.324 11.6763C77.4227 10.7746 75.9667 10.7746 75.0653 11.6763L66.676 20.0694C65.7747 20.9711 65.7747 22.4277 66.676 23.3295C67.092 23.7688 67.6929 24 68.2938 24Z" fill="#261201"/>
<path d="M74.2409 47H85.7591C86.9916 47 88 45.875 88 44.5C88 43.125 86.9916 42 85.7591 42H74.2409C73.0084 42 72 43.125 72 44.5C72 45.875 73.0084 47 74.2409 47Z" fill="#261201"/>
<path d="M87.977 61.8812C87.9082 61.7904 87.8393 61.6996 87.7934 61.6088C86.8294 59.7475 84.8555 59.5205 83.3406 60.9732C82.1701 62.1082 80.9077 63.2885 79.4846 64.0149C75.5368 65.9897 71.7726 65.3087 68.3756 62.5848C67.7559 62.0855 67.228 61.4726 66.6771 60.9051C65.5065 59.7021 63.9228 59.7021 62.7522 60.9051C62.1555 61.518 61.5816 62.1536 60.916 62.6983C56.7846 66.0351 51.3907 65.8989 47.3511 62.3352C47.0068 62.0401 46.6854 61.7223 46.3871 61.3818C44.6886 59.5432 43.3344 59.5432 41.6588 61.3591C40.1669 62.9934 38.3996 64.2192 36.2191 64.7639C32.2024 65.7854 28.6907 64.6504 26.0282 61.6542C24.2149 59.634 22.4017 59.634 20.5655 61.6542C16.2504 66.3301 9.77778 66.2394 5.30204 61.7223C5.07251 61.4953 4.88889 61.2683 4.65936 61.0413C3.78717 60.088 2.73135 59.7929 1.65258 60.2015C0.619713 60.61 0.0229568 61.518 0.0229568 62.7437C0.0229568 65.513 0.0229568 68.3049 0.0229568 71.0742C0.0229568 75.9998 0.0459061 80.9255 0 85.8511C0 86.8726 0.321335 87.7124 1.00991 88.4615C3.71831 91.4123 6.97757 93.3417 11.0402 93.8638C11.1549 93.8865 11.2467 93.9546 11.3385 94C12.4173 94 13.519 94 14.5978 94C15.2405 93.8638 15.8602 93.7276 16.5029 93.5687C19.0506 92.9559 21.277 91.7301 23.2739 90.0277C23.5263 90.232 23.7559 90.3909 23.9624 90.5725C25.7527 91.9798 27.7267 93.0013 29.976 93.546C30.6875 93.7049 31.422 93.8638 32.1335 94C33.1664 94 34.1993 94 35.2321 94C36.1043 93.7957 36.9995 93.6368 37.8717 93.3871C40.1669 92.7516 42.1408 91.5712 43.8393 90.1639C45.4001 91.0719 46.8002 92.0706 48.361 92.7289C49.7381 93.3417 51.2989 93.5914 52.7679 94C53.8466 94 54.9484 94 56.0271 94C56.6698 93.8638 57.2895 93.7276 57.9322 93.5687C60.4799 92.9559 62.7063 91.7301 64.7032 90.0277C64.9557 90.232 65.1852 90.3909 65.3918 90.5725C67.1821 91.9798 69.156 93.0013 71.4053 93.546C72.1168 93.7049 72.8513 93.8638 73.5629 94C74.5957 94 75.6286 94 76.6615 94C76.9139 93.9319 77.1435 93.8638 77.3959 93.8184C81.8717 93.0013 85.4523 90.7995 88 87.0315C87.977 78.6556 87.977 70.2797 87.977 61.8812ZM43.977 78.2243C50.8858 83.4678 57.7945 83.4451 64.7032 78.2016C70.3036 82.6506 76.3172 83.377 82.8127 80.0402C82.8127 81.7653 82.8127 83.377 82.7898 84.9886C82.7898 85.2156 82.675 85.5106 82.5143 85.6468C80.0355 88.0302 77.1435 89.2787 73.6547 88.802C70.8086 88.4161 68.6051 86.9407 66.746 84.8524C65.4836 83.4451 63.8998 83.4451 62.5916 84.8297C62.1095 85.3518 61.6275 85.8738 61.0767 86.3278C58.5749 88.3934 55.7287 89.3467 52.4695 88.7339C49.8988 88.2572 47.8331 86.8726 46.1346 84.9432C44.7804 83.4224 43.1737 83.4451 41.7966 84.9432C41.4523 85.3291 41.108 85.6922 40.7178 86.0327C36.9995 89.3921 32.0647 89.8688 28.0021 87.1904C27.061 86.5775 26.2347 85.7603 25.4314 84.9432C23.9624 83.4224 22.4705 83.4224 21.0245 84.9886C20.7261 85.3064 20.4507 85.6241 20.1294 85.8965C15.8602 89.9142 9.89254 89.9142 5.62337 85.8965C5.4168 85.7149 5.14137 85.4652 5.14137 85.2383C5.09546 83.5358 5.11842 81.8334 5.11842 80.0629C11.6599 83.377 17.6505 82.6506 23.205 78.2243C30.1596 83.4678 37.0683 83.4678 43.977 78.2243ZM82.8127 68.146C82.8127 69.8939 82.8127 71.5509 82.7898 73.2079C82.7898 73.4122 82.6521 73.6392 82.4914 73.7754C79.6682 76.4311 76.409 77.6342 72.53 76.6581C70.1659 76.0679 68.3297 74.6833 66.723 72.9128C65.4836 71.5282 63.8998 71.5509 62.6375 72.8901C62.3161 73.2306 61.9948 73.6165 61.6275 73.9342C59.2864 76.136 56.5321 77.271 53.2728 76.9305C50.3349 76.6127 48.0167 75.16 46.0887 72.9809C44.7804 71.5055 43.1508 71.5055 41.8195 72.9809C41.6818 73.1398 41.567 73.276 41.4293 73.4349C37.3897 77.6796 31.5827 78.1789 27.1528 74.6606C26.5331 74.1612 25.9593 73.5938 25.4314 73.0036C24.0313 71.5055 22.4935 71.5055 21.0934 73.0263C20.795 73.3668 20.4737 73.6846 20.1294 74.0023C15.8372 77.9973 9.86959 77.9746 5.62337 73.9342C5.4168 73.73 5.16432 73.4349 5.16432 73.1852C5.11842 71.5282 5.14137 69.8712 5.14137 68.1233C11.6828 71.4601 17.6964 70.711 23.2968 66.2393C26.2806 68.7816 29.7006 70.1889 33.6484 70.1889C37.5962 70.1889 40.9932 68.7362 43.977 66.2167C47.0068 68.7816 50.4267 70.1889 54.3745 70.1889C58.3224 70.1889 61.7194 68.7135 64.6573 66.2393C70.3266 70.7564 76.3172 71.4601 82.8127 68.146Z" fill="#261201"/>
</svg>
