<svg width="46" height="46" viewBox="0 0 46 46" fill="none" xmlns="http://www.w3.org/2000/svg">
<path d="M39.0205 32.6022H7.20704C5.97754 32.6022 4.97266 31.5973 4.97266 30.3678V23.7238C4.97266 21.4894 6.79327 19.6806 9.01583 19.6806H37.2117C39.4461 19.6806 41.2549 21.5012 41.2549 23.7238V30.3678C41.2549 31.5973 40.25 32.6022 39.0205 32.6022ZM7.57353 30.0013H38.654V23.7238C38.654 22.9317 38.0038 22.2814 37.2117 22.2814H9.01583C8.22375 22.2814 7.57353 22.9317 7.57353 23.7238V30.0013Z" fill="#734E20"/>
<path d="M39.954 25.899H6.27271V28.4999H39.954V25.899Z" fill="#734E20"/>
<path d="M37.9922 22.2814H8.23579C7.24273 22.2814 6.427 21.4657 6.427 20.4726V14.5616C6.427 11.6769 8.77961 9.32434 11.6642 9.32434H34.5756C37.4602 9.32434 39.8128 11.6769 39.8128 14.5616V20.4726C39.8009 21.4775 38.9852 22.2814 37.9922 22.2814ZM9.02788 19.6805H37.2001V14.5616C37.2001 13.1074 36.0179 11.9252 34.5637 11.9252H11.6524C10.1983 11.9252 9.01605 13.1074 9.01605 14.5616V19.6805H9.02788Z" fill="#734E20"/>
<path d="M20.2352 22.0449H12.7636C11.7706 22.0449 10.9548 21.2292 10.9548 20.2361V16.3348C10.9548 15.3418 11.7706 14.526 12.7636 14.526H20.2352C21.2283 14.526 22.044 15.3418 22.044 16.3348V20.2361C22.044 21.2292 21.2283 22.0449 20.2352 22.0449ZM13.5675 19.4441H19.4431V17.1387H13.5675V19.4441Z" fill="#734E20"/>
<path d="M33.3457 22.0449H25.8859C24.8929 22.0449 24.0771 21.2292 24.0771 20.2361V16.3348C24.0771 15.3418 24.8929 14.526 25.8859 14.526H33.3575C34.3506 14.526 35.1663 15.3418 35.1663 16.3348V20.2361C35.1545 21.2292 34.3506 22.0449 33.3457 22.0449ZM26.678 19.4441H32.5536V17.1387H26.678V19.4441Z" fill="#734E20"/>
<path d="M11.5342 36.9172H8.4604C7.46734 36.9172 6.65161 36.1014 6.65161 35.1084V31.7982C6.65161 30.8051 7.46734 29.9894 8.4604 29.9894H11.5342C12.5272 29.9894 13.343 30.8051 13.343 31.7982V35.1084C13.343 36.1133 12.5272 36.9172 11.5342 36.9172ZM9.25249 34.3163H10.7421V32.6021H9.25249V34.3163Z" fill="#734E20"/>
<path d="M37.7673 36.9172H34.6936C33.7005 36.9172 32.8848 36.1014 32.8848 35.1084V31.7982C32.8848 30.8051 33.7005 29.9894 34.6936 29.9894H37.7673C38.7604 29.9894 39.5761 30.8051 39.5761 31.7982V35.1084C39.5761 36.1133 38.7604 36.9172 37.7673 36.9172ZM35.4856 34.3163H36.9752V32.6021H35.4856V34.3163Z" fill="#734E20"/>
</svg>
