<svg width="129" height="100" viewBox="0 0 129 100" fill="none" xmlns="http://www.w3.org/2000/svg">
<rect x="50" width="79" height="79" rx="18.8095" fill="#1B4B63"/>
<path d="M21.2431 25.625C33.6029 25.625 43.8501 34.6697 45.7272 46.5014C49.889 42.3554 55.6311 39.7917 61.9721 39.7917H77.9096V48.6458C77.9096 61.3601 67.603 71.6667 54.8887 71.6667H46.0346V89.375H38.9512V61.0417H31.8681C18.176 61.0417 7.07642 49.942 7.07642 36.25V25.625H21.2431ZM70.8262 46.875H61.9721C53.1703 46.875 46.0346 54.0104 46.0346 62.8125V64.5833H54.8887C63.6908 64.5833 70.8262 57.4479 70.8262 48.6458V46.875ZM21.2431 32.7083H14.1597V36.25C14.1597 46.03 22.088 53.9583 31.8681 53.9583H38.9512V50.4167C38.9512 40.6366 31.0231 32.7083 21.2431 32.7083Z" fill="#0F2B39"/>
</svg>
