<svg width="46" height="46" viewBox="0 0 46 46" fill="none" xmlns="http://www.w3.org/2000/svg">
<path d="M33.6226 32.4755H12.3782C11.1487 32.4755 10.1438 31.4706 10.1438 30.2411V23.597C10.1438 21.3627 11.9644 19.5539 14.187 19.5539H31.8138C34.0482 19.5539 35.857 21.3745 35.857 23.597V30.2411C35.8688 31.4706 34.8639 32.4755 33.6226 32.4755ZM12.7447 29.8746H33.2679V23.597C33.2679 22.805 32.6177 22.1547 31.8256 22.1547H14.187C13.3949 22.1547 12.7447 22.805 12.7447 23.597V29.8746Z" fill="#734E20"/>
<path d="M34.568 25.7723H11.4438V28.3732H34.568V25.7723Z" fill="#734E20"/>
<path d="M26.7413 21.9182H19.2697C18.2767 21.9182 17.4609 21.1025 17.4609 20.1094V16.2081C17.4609 15.2151 18.2767 14.3993 19.2697 14.3993H26.7413C27.7344 14.3993 28.5501 15.2151 28.5501 16.2081V20.1094C28.5383 21.1025 27.7344 21.9182 26.7413 21.9182ZM20.0618 19.3173H25.9374V17.012H20.0618V19.3173Z" fill="#734E20"/>
<path d="M32.5697 22.1547H13.4296C12.4366 22.1547 11.6208 21.339 11.6208 20.3459V14.4348C11.6208 11.5502 13.9735 9.19763 16.8581 9.19763H29.1531C32.0377 9.19763 34.3903 11.5502 34.3903 14.4348V20.3459C34.3785 21.3508 33.5746 22.1547 32.5697 22.1547ZM14.2217 19.5538H31.7776V14.4348C31.7776 12.9807 30.5954 11.7985 29.1413 11.7985H16.8462C15.3921 11.7985 14.2099 12.9807 14.2099 14.4348V19.5538H14.2217Z" fill="#734E20"/>
<path d="M16.5149 36.7905H13.4411C12.4481 36.7905 11.6323 35.9748 11.6323 34.9817V31.6715C11.6323 30.6784 12.4481 29.8627 13.4411 29.8627H16.5149C17.5079 29.8627 18.3237 30.6784 18.3237 31.6715V34.9817C18.3237 35.9866 17.5079 36.7905 16.5149 36.7905ZM14.2332 34.1896H15.7228V32.4754H14.2332V34.1896Z" fill="#734E20"/>
<path d="M32.5708 36.7905H29.497C28.504 36.7905 27.6882 35.9748 27.6882 34.9817V31.6715C27.6882 30.6784 28.504 29.8627 29.497 29.8627H32.5708C33.5638 29.8627 34.3796 30.6784 34.3796 31.6715V34.9817C34.3677 35.9866 33.5638 36.7905 32.5708 36.7905ZM30.2773 34.1896H31.7669V32.4754H30.2773V34.1896Z" fill="#734E20"/>
</svg>
