<svg width="94" height="73" viewBox="0 0 94 73" fill="none" xmlns="http://www.w3.org/2000/svg">
<path d="M0 73C0 61.2615 0 49.5255 0 37.787C0.727012 37.787 1.45402 37.787 2.21775 37.787C2.18838 37.5523 2.18348 37.4007 2.14677 37.254C1.27778 33.7209 2.30588 30.8285 5.05726 28.4813C5.32163 28.2563 5.47829 27.7673 5.47829 27.3981C5.50277 21.1952 5.49298 14.9897 5.49788 8.78675C5.50277 3.47864 8.97138 0.00427876 14.2808 0.00183376C36.0936 -0.000611252 57.904 -0.000611252 79.7168 0.00183376C85.0335 0.00183376 88.4948 3.4713 88.4972 8.78675C88.5021 14.9897 88.5046 21.1952 88.4874 27.3981C88.485 27.9312 88.6147 28.2857 89.0578 28.6255C90.5094 29.7429 91.584 31.2124 91.8581 33.007C92.0907 34.54 91.9071 36.1366 91.9071 37.787C92.5435 37.787 93.2705 37.787 94 37.787C94 49.5255 94 61.2615 94 73C92.1788 73 90.36 73 88.4654 73C88.4654 70.1369 88.4654 67.4009 88.4654 64.6552C60.7753 64.6552 33.1611 64.6552 5.47095 64.6552C5.47095 67.4669 5.47095 70.2054 5.47095 73C3.5959 73 1.79917 73 0 73ZM5.54928 59.0072C33.232 59.0072 60.8365 59.0072 88.414 59.0072C88.414 53.7333 88.414 48.5304 88.414 43.3469C60.7557 43.3469 33.1733 43.3469 5.54928 43.3469C5.54928 48.5817 5.54928 53.7651 5.54928 59.0072ZM46.9963 17.8968C48.9252 16.2391 51.0867 15.7428 53.4709 15.7697C58.6089 15.8235 63.7494 15.7819 68.8899 15.7893C73.9447 15.7966 77.4672 19.3247 77.4892 24.3908C77.4917 25.1732 77.4892 25.9556 77.4892 26.7453C79.3814 26.7453 81.1414 26.7453 82.992 26.7453C82.992 26.403 82.992 26.1047 82.992 25.8064C82.992 20.1218 82.9945 14.4372 82.992 8.75496C82.992 6.54223 81.9566 5.50555 79.7388 5.50555C57.8966 5.5031 36.0544 5.5031 14.2122 5.50555C12.0581 5.50555 11.008 6.5569 11.008 8.70851C11.0055 14.4225 11.0055 20.1389 11.008 25.8529C11.008 26.1463 11.0349 26.4397 11.0496 26.7111C12.9124 26.7111 14.6945 26.7111 16.5108 26.7111C16.5108 25.8994 16.5083 25.1659 16.5108 24.4348C16.5279 19.3101 20.0381 15.7941 25.1566 15.7893C30.1429 15.7844 35.1291 15.8357 40.1154 15.7672C42.6416 15.733 44.9842 16.1169 46.9963 17.8968ZM47.0061 37.7943C58.9933 37.7943 70.9828 37.7943 82.97 37.7943C83.3053 37.7943 83.6431 37.8041 83.9785 37.787C85.4129 37.7112 86.5389 36.6329 86.6442 35.2442C86.7495 33.875 85.763 32.6011 84.3701 32.342C84.0128 32.2759 83.6382 32.2955 83.2735 32.2955C59.0838 32.2931 34.8917 32.2931 10.702 32.2931C10.4572 32.2931 10.2124 32.2833 9.96766 32.3004C8.58707 32.3957 7.47574 33.4593 7.3509 34.8016C7.22606 36.1391 8.13421 37.4056 9.48788 37.7136C9.89912 37.8065 10.3373 37.7919 10.7632 37.7919C22.8458 37.7943 34.926 37.7943 47.0061 37.7943ZM71.9718 26.76C71.9718 25.7233 72.0134 24.7771 71.962 23.8382C71.8861 22.4323 70.7527 21.3101 69.311 21.3027C63.6858 21.2734 58.0582 21.2783 52.433 21.3027C51.1136 21.3076 49.9656 22.2783 49.8162 23.5668C49.6939 24.6084 49.7918 25.6769 49.7918 26.7624C57.199 26.76 64.5278 26.76 71.9718 26.76ZM44.2327 26.7478C44.2327 25.716 44.2914 24.7429 44.218 23.7771C44.1128 22.3688 42.9549 21.3052 41.5058 21.2979C35.91 21.2758 30.3142 21.2759 24.7184 21.3003C23.355 21.3052 22.18 22.3248 22.0601 23.6231C21.9646 24.6426 22.0405 25.6793 22.0405 26.7478C29.4452 26.7478 36.7741 26.7478 44.2327 26.7478Z" fill="#F2E8E4"/>
</svg>
