<svg width="24" height="24" viewBox="0 0 24 24" fill="none" xmlns="http://www.w3.org/2000/svg">
<path d="M13.0005 19.938C15.0178 19.6813 16.8616 18.6661 18.1573 17.0988C19.453 15.5314 20.1032 13.5295 19.9759 11.5C19.8485 9.47041 18.9532 7.56549 17.4717 6.17238C15.9903 4.77927 14.034 4.00252 12.0005 4C9.96445 3.99848 8.00444 4.77334 6.51983 6.16668C5.03522 7.56002 4.13773 9.46699 4.01023 11.499C3.88273 13.5311 4.53482 15.5353 5.83363 17.1033C7.13244 18.6712 8.98023 19.685 11.0005 19.938V14H9.00049V12H11.0005V10.346C11.0005 9.009 11.1405 8.524 11.4005 8.035C11.6566 7.55119 12.0524 7.15569 12.5365 6.9C12.9185 6.695 13.3935 6.572 14.2235 6.519C14.5525 6.498 14.9785 6.524 15.5015 6.599V8.499H15.0005C14.0835 8.499 13.7045 8.542 13.4785 8.663C13.3436 8.73236 13.2338 8.84215 13.1645 8.977C13.0445 9.203 13.0005 9.427 13.0005 10.345V12H15.5005L15.0005 14H13.0005V19.938ZM12.0005 22C6.47749 22 2.00049 17.523 2.00049 12C2.00049 6.477 6.47749 2 12.0005 2C17.5235 2 22.0005 6.477 22.0005 12C22.0005 17.523 17.5235 22 12.0005 22Z" fill="white"/>
</svg>
