<svg width="30" height="30" viewBox="0 0 30 30" fill="none" xmlns="http://www.w3.org/2000/svg">
<g clip-path="url(#clip0_1351:18)">
<path d="M24 4H6C4.895 4 4 4.895 4 6V24C4 25.105 4.895 26 6 26H24C25.105 26 26 25.105 26 24V6C26 4.895 25.104 4 24 4ZM21.707 11.707L14.147 19.267C13.959 19.455 13.705 19.56 13.44 19.56C13.175 19.56 12.92 19.455 12.733 19.267L9.28 15.814C8.889 15.423 8.889 14.791 9.28 14.4C9.671 14.009 10.303 14.009 10.694 14.4L13.44 17.146L20.293 10.293C20.684 9.902 21.316 9.902 21.707 10.293C22.098 10.684 22.098 11.316 21.707 11.707Z" fill="#734E20"/>
</g>
<defs>
<clipPath id="clip0_1351:18">
<rect width="30" height="30" fill="white"/>
</clipPath>
</defs>
</svg>
