<svg width="105" height="89" viewBox="0 0 105 89" fill="none" xmlns="http://www.w3.org/2000/svg">
<path d="M0 46.0313C0.356117 44.1417 0.547872 42.1973 1.06835 40.3351C2.30106 35.8438 4.87606 32.5574 9.66994 31.5441C12.0258 31.0512 14.3543 31.2429 16.6827 31.7085C16.9019 31.7632 17.1484 31.7906 17.4771 31.8454C17.4771 31.1607 17.4771 30.5582 17.4771 29.9558C17.5045 27.4089 18.8742 26.0122 21.3944 26.0122C25.5582 25.9848 29.7221 26.0122 33.9133 26.0122C43.3367 26.0122 52.7875 26.0122 62.2109 26.0122C65.1968 26.0122 66.4569 27.2719 66.4569 30.2296C66.4569 36.2819 66.4843 42.3342 66.4295 48.3592C66.4295 49.3724 66.676 49.9202 67.854 49.9475C68.1279 49.3724 68.4566 48.7699 68.758 48.1127C69.1963 47.1816 69.9085 46.5517 70.8947 46.1683C73.7162 45.1002 76.5104 44.0322 79.3045 42.9367C80.3455 42.5259 81.359 42.5533 82.3726 43.0463C82.9205 43.3201 83.4683 43.5392 84.1806 43.8405C84.6463 42.882 85.112 41.9782 85.4681 41.0471C86.0433 39.5682 87.0295 38.5276 88.4814 37.8703C88.7827 37.7334 89.084 37.2678 89.1114 36.9392C89.2484 35.2139 89.1936 33.4612 89.3854 31.7358C89.6319 29.4628 90.7002 27.6827 92.837 26.6147C94.9463 25.574 96.9186 25.9848 98.4252 27.8196C99.9045 29.6819 100.589 31.9002 101.247 34.1184C101.356 34.4471 101.439 34.7757 101.493 35.1043C101.658 36.145 101.959 36.9666 103.055 37.5143C104.123 38.062 104.616 39.2122 104.753 40.4172C105.602 47.8936 104.315 54.9044 100.041 61.2306C99.7128 61.7235 99.7127 62.1069 99.9593 62.6273C100.535 63.8596 100.398 65.0646 99.6306 66.2148C97.3295 69.6655 94.6997 71.9385 89.4128 74.8962C89.9332 74.9236 90.2346 74.951 90.5359 74.951C93.9601 74.951 97.3843 74.951 100.781 74.951C103.411 74.951 104.972 76.4846 104.972 79.1684C104.972 79.7709 104.972 80.4008 104.972 81.0033C104.972 85.0016 102.863 87.7128 98.9183 88.6166C97.8226 88.8631 96.6994 88.9726 95.5763 88.9726C69.1963 89 42.8162 89 16.4362 89C14.0255 89 11.7519 88.5618 9.75213 87.083C7.94415 85.7411 6.95798 83.9336 6.98537 81.6605C6.98537 80.7842 6.98537 79.8805 6.98537 79.0041C7.01276 76.5667 8.60159 74.9784 11.0396 74.9784C15.4226 74.9784 19.7782 74.9784 24.1612 74.9784C24.5173 74.9784 24.8734 74.9784 25.3117 74.8688C22.134 72.3493 19.8604 69.2547 18.5455 65.4754C17.2306 65.6945 15.9979 65.941 14.7378 66.1053C6.49229 67.1733 2.35585 61.9152 0.849202 56.2463C0.465691 54.877 0.273936 53.4256 0 52.0015C0 50.0023 0 48.0305 0 46.0313ZM20.9835 29.5997C20.9835 30.1475 20.9835 30.5583 20.9835 30.969C20.9835 40.0886 20.9835 49.2081 20.9835 58.3277C20.9835 59.2862 21.0383 60.2447 21.1205 61.2032C21.7779 68.3783 28.2154 74.6771 35.3925 74.951C39.7481 75.1153 44.1311 75.1153 48.5141 74.951C52.267 74.814 55.4721 73.1983 58.184 70.5966C58.0745 70.4597 58.0197 70.3775 57.9375 70.3227C54.7324 67.9128 52.1848 64.9003 50.0755 61.5044C49.2811 60.2173 48.9798 58.8206 49.6098 57.4239C49.9112 56.7119 49.829 56.1642 49.5277 55.5069C48.4319 53.1243 47.4731 50.6596 47.2814 48.0031C47.0348 44.9085 48.5689 42.9641 51.637 42.5259C53.5819 42.2247 55.2255 42.9641 56.5404 44.306C57.7183 45.4836 58.7045 46.8529 59.8276 48.0853C60.0468 48.3044 60.4303 48.5509 60.7042 48.5235C61.4439 48.4413 62.1561 48.2222 62.9505 48.0305C62.9505 41.9508 62.9505 35.8164 62.9505 29.6271C48.9524 29.5997 35.0364 29.5997 20.9835 29.5997ZM101.493 78.5112C100.836 78.5112 100.288 78.5112 99.7675 78.5112C70.9221 78.5112 42.104 78.5112 13.2585 78.5112C10.4918 78.5112 10.5465 78.5112 10.4644 81.3319C10.437 83.0299 11.1766 84.2348 12.6832 84.7825C13.916 85.2207 15.2582 85.522 16.5457 85.522C31.941 85.5767 47.3636 85.5494 62.7588 85.5494C73.6888 85.5494 84.6189 85.5494 95.5489 85.5494C97.1377 85.5494 98.754 85.4124 100.014 84.3718C100.672 83.824 101.247 82.9477 101.411 82.1261C101.658 81.0307 101.493 79.8531 101.493 78.5112ZM75.1133 75.1427C79.1675 74.9784 82.9479 73.9377 86.6186 72.2945C90.4263 70.5692 93.8779 68.3509 96.3981 64.9003C96.7816 64.38 96.9186 63.9144 96.5351 63.3393C94.6449 60.3268 92.9465 57.2048 90.892 54.3293C88.5088 51.0156 85.4681 48.277 81.6604 46.5517C81.1673 46.3326 80.455 46.3326 79.9346 46.4969C78.1814 47.072 76.5378 47.9758 74.7572 48.4139C72.237 48.989 71.196 50.6322 70.5112 52.9052C68.3745 59.8339 68.7854 66.7899 70.2098 73.7734C70.2646 74.0746 70.7029 74.458 71.0042 74.5128C72.3465 74.7867 73.7436 74.951 75.1133 75.1427ZM66.676 53.5077C65.4433 52.9052 64.3202 52.2754 63.1697 51.8098C62.7588 51.6455 62.1013 51.6729 61.7452 51.892C58.9237 53.8637 56.1295 55.8903 53.3628 57.9443C52.7327 58.3824 52.6505 58.9849 53.0614 59.6422C55.9651 64.2978 59.6085 68.1045 64.9229 70.0489C65.2516 70.1584 65.5803 70.268 66.0186 70.4049C65.1146 64.6264 65.3885 58.9849 66.676 53.5077ZM97.8774 58.0538C97.8774 58.0538 97.9596 58.0264 97.987 57.9716C101.219 52.7135 101.959 46.9625 101.274 40.9375C101.247 40.6089 100.589 40.116 100.233 40.1434C96.8638 40.3898 93.5218 40.7185 90.1798 41.1292C89.7415 41.184 89.1936 41.6496 88.9744 42.0604C88.317 43.238 87.8239 44.5251 87.5226 45.155C89.4401 47.3459 91.3303 49.3177 93.0287 51.4538C94.7271 53.5351 96.2338 55.8081 97.8774 58.0538ZM17.4771 39.1301C17.4771 38.1168 17.5045 37.1035 17.4497 36.0902C17.4223 35.8438 17.1484 35.4877 16.9019 35.4056C15.9431 35.1591 14.9843 34.9674 13.9981 34.8305C9.20425 34.228 5.88963 36.3915 4.51995 40.9923C3.47899 44.4977 3.36941 48.1127 3.61596 51.755C3.78032 53.9733 4.21862 56.1368 5.25957 58.1633C7.53324 62.5451 13.2859 64.243 17.6689 61.8331C17.5867 60.7376 17.5045 59.6422 17.4223 58.5741C15.9157 58.7932 14.5186 59.0397 13.0941 59.204C11.1218 59.4231 9.61516 58.6015 8.62899 56.931C8.1633 56.1368 7.77979 55.2878 7.56064 54.3841C6.62925 50.4679 6.73883 46.4969 7.58803 42.6081C8.32766 39.2122 10.437 37.8429 13.916 38.3359C15.0939 38.5276 16.2444 38.8562 17.4771 39.1301ZM17.4771 49.0164C17.4771 47.8114 17.4771 46.6338 17.4771 45.4289C17.4771 43.0463 17.258 42.745 14.9021 42.0604C14.5186 41.9508 14.1077 41.8687 13.6968 41.8139C11.834 41.54 11.1218 41.9508 10.9027 43.8405C10.6561 46.1409 10.5191 48.4687 10.5465 50.7691C10.5739 52.0289 10.9574 53.316 11.2862 54.5484C11.5327 55.4247 12.1628 55.9177 13.1489 55.726C14.3269 55.5069 15.4774 55.2604 16.6279 55.014C17.2854 54.877 17.4497 54.4662 17.4497 53.8364C17.4497 52.2206 17.4771 50.6322 17.4771 49.0164ZM98.5074 36.5832C97.6582 34.4471 96.9734 32.4753 96.0694 30.5856C95.4393 29.2711 94.4532 29.2985 93.5492 30.4487C93.2753 30.7773 93.0561 31.2155 93.0013 31.6263C92.837 33.4064 92.7274 35.1865 92.5904 37.0761C94.1792 36.9666 95.5763 36.857 96.946 36.7475C97.3569 36.7201 97.7404 36.6653 98.5074 36.5832ZM57.28 50.5226C56.4582 49.482 55.7186 48.5235 54.8968 47.5923C54.4311 47.072 53.9106 46.5243 53.2806 46.1957C51.9931 45.4836 50.7056 46.1409 50.733 47.4554C50.8152 49.7558 51.6917 51.8098 52.6231 53.9185C54.2394 52.7683 55.7186 51.6729 57.28 50.5226ZM58.5401 74.9236C61.3617 74.9236 64.0463 74.9236 67.0596 74.9236C66.6761 74.5676 66.5117 74.3485 66.3199 74.2663C64.8133 73.6638 63.2792 73.0887 61.7452 72.5136C61.5534 72.4315 61.1973 72.5136 61.0604 72.6505C60.2386 73.3626 59.4441 74.102 58.5401 74.9236Z" fill="#261201"/>
<path d="M56 10.4986C55.9725 12.4722 55.3686 14.2539 54.0235 15.7342C53.0902 16.7758 52.5137 17.8722 52.4588 19.2976C52.4314 20.3119 51.5804 21.052 50.6471 20.9971C49.6863 20.9423 49 20.1748 49 19.1332C49 17.2144 49.6588 15.5423 50.8941 14.0621C53.0627 11.4854 53.0627 9.53917 50.8941 6.9625C49.6588 5.48228 49 3.81019 49 1.89139C49 0.76752 49.7137 0 50.7294 0C51.6902 0 52.4314 0.685285 52.4863 1.75433C52.5412 3.04267 53.0353 4.11171 53.8863 5.07111C55.2863 6.60615 55.9725 8.4153 56 10.4986Z" fill="#261201"/>
<path d="M45.9992 10.8131C45.9165 12.5647 45.3103 14.3162 44.0152 15.7666C43.1058 16.7792 42.5271 17.8465 42.472 19.2423C42.4169 20.337 41.5627 21.0759 40.5982 20.9938C39.6338 20.9117 39 20.1728 39 19.0781C39 17.1076 39.7164 15.4382 40.984 13.933C43.0507 11.5247 43.0231 9.44478 40.9565 7.00909C39.6889 5.53125 39 3.83448 39 1.86404C39 0.796711 39.6889 0.0577937 40.6533 0.00305913C41.6178 -0.0516755 42.4445 0.632507 42.472 1.69983C42.5271 3.12293 43.1334 4.21762 44.0427 5.25758C45.3654 6.79015 46.0267 8.70586 45.9992 10.8131Z" fill="#261201"/>
<path d="M28.0033 18.7526C28.0859 16.8639 28.8013 15.249 30.0121 13.8531C31.9934 11.5812 31.9934 9.33676 30.0121 7.09229C28.7463 5.6416 28.0308 3.99931 28.0033 2.0833C27.9758 0.878946 28.6087 0.0577985 29.6269 0.00305534C30.6175 -0.0516878 31.4156 0.632602 31.4706 1.78221C31.5532 3.12341 32.1035 4.16354 32.9566 5.17628C35.7084 8.37876 35.6809 12.7308 32.874 15.9059C32.0485 16.8366 31.5532 17.8493 31.4706 19.1084C31.388 20.3401 30.6175 21.0518 29.5994 20.9971C28.5812 20.8876 27.9483 20.039 28.0033 18.7526Z" fill="#261201"/>
</svg>
