<svg width="24" height="24" viewBox="0 0 24 24" fill="none" xmlns="http://www.w3.org/2000/svg">
<path d="M12 24C18.6274 24 24 18.6274 24 12C24 5.37258 18.6274 0 12 0C5.37258 0 0 5.37258 0 12C0 18.6274 5.37258 24 12 24Z" fill="white"/>
<path d="M0 12.0001H24C24 10.9126 23.8562 9.85635 23.5812 8.8501H0.41875C0.14375 9.85635 0 10.9126 0 12.0001Z" fill="#D80027"/>
<path d="M1.74365 18.2313H22.2624C22.8499 17.2625 23.3062 16.2063 23.6062 15.0813H0.399902C0.699902 16.2 1.1499 17.2625 1.74365 18.2313Z" fill="#D80027"/>
<path d="M12 23.9999C14.8688 23.9999 17.5063 22.9937 19.575 21.3062H4.42505C6.4938 22.9937 9.1313 23.9999 12 23.9999Z" fill="#D80027"/>
<path d="M19.4874 2.625H4.5124C3.4124 3.5 2.4749 4.5625 1.74365 5.76875H22.2624C21.5249 4.5625 20.5874 3.5 19.4874 2.625Z" fill="#D80027"/>
<path d="M12 0C5.3875 0 0.01875 5.3875 0 12H12V0Z" fill="#0052B4"/>
<path d="M4.99385 4.19385L4.60635 5.3751H3.3501L4.36885 6.1251L3.99385 7.29385L5.00635 6.5751L6.01885 7.29385L5.63135 6.1251L6.59385 5.3751H5.3876L4.99385 4.19385Z" fill="#F0F0F0"/>
<path d="M5.00615 3.03115L6.01865 3.7499L5.6374 2.58115L6.59365 1.8374H5.61865C5.15615 2.13115 4.7124 2.4499 4.2999 2.7999L3.99365 3.7499L5.00615 3.03115Z" fill="#F0F0F0"/>
<path d="M9.3375 0.65625L8.95 1.8375H7.6875L8.70625 2.5875L8.33125 3.75L9.35 3.03125L10.3562 3.75L9.975 2.58125L10.9312 1.8375H9.73125L9.3375 0.65625Z" fill="#F0F0F0"/>
<path d="M9.3375 4.19385L8.95 5.3751H7.6875L8.70625 6.1251L8.33125 7.29385L9.35 6.5751L10.3562 7.29385L9.975 6.1251L10.9312 5.3751H9.73125L9.3375 4.19385Z" fill="#F0F0F0"/>
<path d="M9.73125 8.9188L9.3375 7.73755L8.95 8.9188H7.6875L8.70625 9.6688L8.33125 10.8375L9.35 10.1188L10.3562 10.8375L9.975 9.66255L10.9312 8.9188H9.73125Z" fill="#F0F0F0"/>
<path d="M5.3876 8.9188L4.99385 7.73755L4.60635 8.9188H3.3501L4.36885 9.6688L3.99385 10.8375L5.00635 10.1188L6.01885 10.8375L5.63135 9.66255L6.59385 8.9188H5.3876Z" fill="#F0F0F0"/>
<path d="M1.6749 10.8376L1.29365 9.66885L2.2499 8.91885H1.0499L0.712402 7.9126C0.412402 8.74385 0.199902 9.61885 0.0874023 10.5188L0.662402 10.1126L1.6749 10.8376Z" fill="#F0F0F0"/>
<path d="M2.25005 5.375H1.9938C1.9063 5.50625 1.8188 5.6375 1.73755 5.775L2.25005 5.375Z" fill="#F0F0F0"/>
<path d="M1.38745 6.3999C1.29995 6.56865 1.2187 6.7374 1.13745 6.90615L1.6812 7.29365L1.38745 6.3999Z" fill="#F0F0F0"/>
</svg>
