<svg width="108" height="108" viewBox="0 0 108 108" fill="none" xmlns="http://www.w3.org/2000/svg">
<path d="M29 18.8095C29 8.42131 37.4213 0 47.8095 0H89.1905C99.5787 0 108 8.42131 108 18.8095V60.1905C108 70.5787 99.5787 79 89.1905 79H47.8095C37.4213 79 29 70.5787 29 60.1905V18.8095Z" fill="#1B4B63"/>
<path d="M74.375 93.8333H81.4583V100.917H3.54163V93.8333H10.625V33.625C10.625 31.669 12.2106 30.0833 14.1666 30.0833H70.8333C72.7894 30.0833 74.375 31.669 74.375 33.625V93.8333ZM67.2916 93.8333V37.1667H17.7083V93.8333H67.2916ZM28.3333 61.9583H38.9583V69.0417H28.3333V61.9583ZM28.3333 47.7917H38.9583V54.875H28.3333V47.7917ZM28.3333 76.125H38.9583V83.2083H28.3333V76.125ZM46.0416 76.125H56.6666V83.2083H46.0416V76.125ZM46.0416 61.9583H56.6666V69.0417H46.0416V61.9583ZM46.0416 47.7917H56.6666V54.875H46.0416V47.7917Z" fill="#0F2B39"/>
</svg>
