<svg width="24" height="24" viewBox="0 0 24 24" fill="none" xmlns="http://www.w3.org/2000/svg">
<path d="M12.0005 9C11.2048 9 10.4418 9.31607 9.87917 9.87868C9.31656 10.4413 9.00049 11.2044 9.00049 12C9.00049 12.7956 9.31656 13.5587 9.87917 14.1213C10.4418 14.6839 11.2048 15 12.0005 15C12.7961 15 13.5592 14.6839 14.1218 14.1213C14.6844 13.5587 15.0005 12.7956 15.0005 12C15.0005 11.2044 14.6844 10.4413 14.1218 9.87868C13.5592 9.31607 12.7961 9 12.0005 9ZM12.0005 7C13.3266 7 14.5983 7.52678 15.536 8.46447C16.4737 9.40215 17.0005 10.6739 17.0005 12C17.0005 13.3261 16.4737 14.5979 15.536 15.5355C14.5983 16.4732 13.3266 17 12.0005 17C10.6744 17 9.40264 16.4732 8.46495 15.5355C7.52727 14.5979 7.00049 13.3261 7.00049 12C7.00049 10.6739 7.52727 9.40215 8.46495 8.46447C9.40264 7.52678 10.6744 7 12.0005 7ZM18.5005 6.75C18.5005 7.08152 18.3688 7.39946 18.1344 7.63388C17.9 7.8683 17.582 8 17.2505 8C16.919 8 16.601 7.8683 16.3666 7.63388C16.1322 7.39946 16.0005 7.08152 16.0005 6.75C16.0005 6.41848 16.1322 6.10054 16.3666 5.86612C16.601 5.6317 16.919 5.5 17.2505 5.5C17.582 5.5 17.9 5.6317 18.1344 5.86612C18.3688 6.10054 18.5005 6.41848 18.5005 6.75ZM12.0005 4C9.52649 4 9.12249 4.007 7.97149 4.058C7.18749 4.095 6.66149 4.2 6.17349 4.39C5.73949 4.558 5.42649 4.759 5.09349 5.093C4.7805 5.3954 4.53984 5.76458 4.38949 6.173C4.19949 6.663 4.09449 7.188 4.05849 7.971C4.00649 9.075 4.00049 9.461 4.00049 12C4.00049 14.474 4.00749 14.878 4.05849 16.029C4.09549 16.812 4.20049 17.339 4.38949 17.826C4.55949 18.261 4.75949 18.574 5.09149 18.906C5.42849 19.242 5.74149 19.443 6.17149 19.609C6.66549 19.8 7.19149 19.906 7.97149 19.942C9.07549 19.994 9.46149 20 12.0005 20C14.4745 20 14.8785 19.993 16.0295 19.942C16.8115 19.905 17.3385 19.8 17.8265 19.611C18.2595 19.442 18.5745 19.241 18.9065 18.909C19.2435 18.572 19.4445 18.259 19.6105 17.829C19.8005 17.336 19.9065 16.809 19.9425 16.029C19.9945 14.925 20.0005 14.539 20.0005 12C20.0005 9.526 19.9935 9.122 19.9425 7.971C19.9055 7.189 19.8005 6.661 19.6105 6.173C19.4598 5.765 19.2196 5.39596 18.9075 5.093C18.6052 4.77985 18.236 4.53917 17.8275 4.389C17.3375 4.199 16.8115 4.094 16.0295 4.058C14.9255 4.006 14.5395 4 12.0005 4ZM12.0005 2C14.7175 2 15.0565 2.01 16.1225 2.06C17.1875 2.11 17.9125 2.277 18.5505 2.525C19.2105 2.779 19.7665 3.123 20.3225 3.678C20.831 4.1779 21.2244 4.78259 21.4755 5.45C21.7225 6.087 21.8905 6.813 21.9405 7.878C21.9875 8.944 22.0005 9.283 22.0005 12C22.0005 14.717 21.9905 15.056 21.9405 16.122C21.8905 17.187 21.7225 17.912 21.4755 18.55C21.2252 19.2178 20.8316 19.8226 20.3225 20.322C19.8225 20.8303 19.2178 21.2238 18.5505 21.475C17.9135 21.722 17.1875 21.89 16.1225 21.94C15.0565 21.987 14.7175 22 12.0005 22C9.28349 22 8.94449 21.99 7.87849 21.94C6.81349 21.89 6.08849 21.722 5.45049 21.475C4.78281 21.2245 4.17802 20.8309 3.67849 20.322C3.16989 19.8222 2.77642 19.2175 2.52549 18.55C2.27749 17.913 2.11049 17.187 2.06049 16.122C2.01349 15.056 2.00049 14.717 2.00049 12C2.00049 9.283 2.01049 8.944 2.06049 7.878C2.11049 6.812 2.27749 6.088 2.52549 5.45C2.77572 4.78218 3.16929 4.17732 3.67849 3.678C4.17816 3.16923 4.78292 2.77573 5.45049 2.525C6.08849 2.277 6.81249 2.11 7.87849 2.06C8.94449 2.013 9.28349 2 12.0005 2Z" fill="white"/>
</svg>
