<svg width="24" height="24" viewBox="0 0 24 24" fill="none" xmlns="http://www.w3.org/2000/svg">
<path d="M11.999 24C18.6264 24 23.999 18.6274 23.999 12C23.999 5.37258 18.6264 0 11.999 0C5.37161 0 -0.000976562 5.37258 -0.000976562 12C-0.000976562 18.6274 5.37161 24 11.999 24Z" fill="#009B3A"/>
<path d="M2.09277 11.9999L11.999 19.2749L21.9053 11.9999L11.999 4.6499L2.09277 11.9999Z" fill="#FFDA44"/>
<path d="M11.9991 16.1437C14.3084 16.1437 16.1804 14.2717 16.1804 11.9625C16.1804 9.65326 14.3084 7.78125 11.9991 7.78125C9.68988 7.78125 7.81787 9.65326 7.81787 11.9625C7.81787 14.2717 9.68988 16.1437 11.9991 16.1437Z" fill="#0052B4"/>
<path d="M11.8054 10.7312C11.8054 10.7312 10.0866 10.2187 8.08662 10.4937C7.91787 10.95 7.81787 11.4437 7.81787 11.9625C7.81787 12.0312 7.81787 12.1 7.82412 12.1687C8.73037 11.925 10.2491 11.75 12.0366 12.5062C13.6054 13.1687 14.5179 14.1187 15.0241 14.85C15.4366 14.4187 15.7554 13.9 15.9554 13.325C15.0991 12.5187 13.4929 11.1812 11.8054 10.7312Z" fill="white"/>
</svg>
