<svg width="75" height="75" viewBox="0 0 75 75" fill="none" xmlns="http://www.w3.org/2000/svg">
<path d="M20.1389 18.8095C20.1389 8.42132 28.5602 0 38.9484 0H56.1905C66.5787 0 75 8.42131 75 18.8095V36.0516C75 46.4398 66.5787 54.8611 56.1905 54.8611H38.9484C28.5602 54.8611 20.1389 46.4398 20.1389 36.0516V18.8095Z" fill="#1B4B63"/>
<path d="M51.6493 65.162H56.5683V70.081H2.45947V65.162H7.37845V23.3507C7.37845 21.9924 8.47962 20.8912 9.83794 20.8912H49.1898C50.5482 20.8912 51.6493 21.9924 51.6493 23.3507V65.162ZM46.7303 65.162V25.8102H12.2974V65.162H46.7303ZM19.6759 43.0266H27.0544V47.9456H19.6759V43.0266ZM19.6759 33.1887H27.0544V38.1076H19.6759V33.1887ZM19.6759 52.8646H27.0544V57.7836H19.6759V52.8646ZM31.9734 52.8646H39.3518V57.7836H31.9734V52.8646ZM31.9734 43.0266H39.3518V47.9456H31.9734V43.0266ZM31.9734 33.1887H39.3518V38.1076H31.9734V33.1887Z" fill="#0F2B39"/>
</svg>
