<svg width="170" height="66" viewBox="0 0 170 66" fill="none" xmlns="http://www.w3.org/2000/svg">
<path d="M26.2592 30.2531V30.8416C23.3951 32.6856 20.4919 33.7449 17.0393 33.7449C7.8979 33.7449 6.13239 24.8781 6.13239 17.6984C6.13239 7.22307 11.7036 -2.82071 23.4344 2.67198C22.2181 2.86815 21.1981 3.92745 21.1981 5.30062C21.1981 6.75226 22.4143 7.92927 23.8659 7.92927C25.3176 7.92927 26.4946 6.75226 26.4946 5.30062C26.4946 4.08438 25.7491 3.10355 24.6898 2.78968C19.5895 0.278734 15.2346 -0.231302 8.44717 3.29972C3.54298 6.32069 0.404297 11.7349 0.404297 17.5415C0.835865 26.8398 8.1333 34.1765 17.0393 34.1765C19.9034 34.1765 22.6497 33.4703 26.2592 31.3124V31.9009H26.6123V30.2531H26.2592Z" fill="white"/>
<path d="M54.1282 1.1811H55.3052V0.78877H54.1282H48.9101H47.6939V1.1811H48.9101V17.8161H35.8453V1.1811H36.9831V0.78877H35.8453H30.588H29.4503V1.1811H30.588V33.7057H29.4503V34.098H36.9831V33.7057H35.8453V18.2477H48.9101V33.7057H47.6939V34.098H55.3052V33.7057H54.1282V1.1811Z" fill="white"/>
<path d="M83.7988 33.7057L71.9503 0.631836L59.8664 33.7449H58.9248V34.1373H61.2395V33.7449H60.2979L64.0251 23.6619H74.422L77.6391 33.7057H76.6975V34.1373H84.8189V33.7057H83.7988ZM64.1428 23.2696L69.557 8.55701L74.3435 23.2696H64.1428Z" fill="white"/>
<path d="M112.616 33.1564C112.419 33.2741 112.184 33.3134 111.949 33.3134C109.712 33.3134 109.085 30.0177 109.085 29.3115L109.045 25.4274C109.045 21.5433 106.142 18.0515 102.179 17.1099C106.142 16.1683 109.006 12.9119 109.006 9.06704C109.006 3.92745 104.298 1.14187 100.022 0.828004H88.4477V1.22034H89.5854V33.5095H88.4477V33.9411H95.902V33.5095H94.8427V17.3453H99.0407C102.689 19.0324 103.945 21.9749 103.945 25.5844L103.906 27.2322C103.906 28.1345 104.102 29.0369 104.455 29.9C105.083 31.3517 106.377 32.9995 109.045 33.7842C109.634 33.9411 110.183 34.0196 110.732 34.0196C111.478 34.0196 112.184 33.8626 112.851 33.5488L112.616 33.1564ZM100.1 1.22034C105.397 4.16285 105.514 14.5597 99.8254 16.953H94.8427V1.22034H100.1Z" fill="white"/>
<path d="M145.723 1.10264H146.9V0.749537H139.328V1.10264H140.231L131.207 25.7805L123.243 1.10264H124.223V0.749537H116.298V1.10264H117.279V1.22034V33.7449H116.22V34.1373H118.731V33.7449H117.711V2.35811L128.853 33.4703L140.505 1.61267V33.7057H139.328V34.1373H146.9V33.7057H145.723V1.10264Z" fill="white"/>
<path d="M150.629 0.710302V1.14187H151.767V33.7449H150.629V34.1765H169.305V32.8426H168.991V33.7449H157.024V17.9338H166.872V18.4831H167.264V16.8745H166.872V17.463H157.024V1.14187H168.991V1.96577H169.305V0.710302H150.629Z" fill="white"/>
<path d="M66.5052 53.2123V65.2825H65.2464V59.713H57.694V65.2825H56.418V53.2123H57.694V58.5922H65.2464V53.2123H66.5052Z" fill="white"/>
<path d="M75.9799 65.386C74.7844 65.386 73.698 65.1216 72.7209 64.5928C71.7553 64.0525 70.9966 63.3168 70.4448 62.3857C69.9046 61.4546 69.6344 60.4085 69.6344 59.2474C69.6344 58.0864 69.9046 57.0403 70.4448 56.1092C70.9966 55.1781 71.7553 54.4481 72.7209 53.9193C73.698 53.379 74.7844 53.1089 75.9799 53.1089C77.1754 53.1089 78.2502 53.3733 79.2044 53.9021C80.17 54.4309 80.9287 55.1666 81.4804 56.1092C82.0322 57.0403 82.3081 58.0864 82.3081 59.2474C82.3081 60.4085 82.0322 61.4603 81.4804 62.4029C80.9287 63.3341 80.17 64.064 79.2044 64.5928C78.2502 65.1216 77.1754 65.386 75.9799 65.386ZM75.9799 64.2479C76.934 64.2479 77.7962 64.0353 78.5664 63.61C79.3366 63.1731 79.9401 62.5754 80.3769 61.8167C80.8137 61.0465 81.0321 60.1901 81.0321 59.2474C81.0321 58.3048 80.8137 57.4542 80.3769 56.6955C79.9401 55.9253 79.3366 55.3275 78.5664 54.9022C77.7962 54.4653 76.934 54.2469 75.9799 54.2469C75.0258 54.2469 74.1579 54.4653 73.3762 54.9022C72.606 55.3275 71.9967 55.9253 71.5484 56.6955C71.1116 57.4542 70.8932 58.3048 70.8932 59.2474C70.8932 60.1901 71.1116 61.0465 71.5484 61.8167C71.9967 62.5754 72.606 63.1731 73.3762 63.61C74.1579 64.0353 75.0258 64.2479 75.9799 64.2479Z" fill="white"/>
<path d="M87.6035 54.3159H83.3617V53.2123H93.1213V54.3159H88.8795V65.2825H87.6035V54.3159Z" fill="white"/>
<path d="M103.954 64.179V65.2825H95.4184V53.2123H103.695V54.3159H96.6944V58.6094H102.936V59.6958H96.6944V64.179H103.954Z" fill="white"/>
<path d="M107.212 53.2123H108.488V64.179H115.247V65.2825H107.212V53.2123Z" fill="white"/>
</svg>
