<svg width="78" height="24" viewBox="0 0 78 24" fill="none" xmlns="http://www.w3.org/2000/svg">
<path d="M56.3922 1.23224C54.5946 0.577199 52.6944 0.248495 50.7811 0.261608C44.5938 0.261608 40.224 3.37847 40.1931 7.85267C40.1544 11.1397 43.2983 12.992 45.6766 14.0903C48.1167 15.2194 48.9327 15.931 48.9249 16.9403C48.9095 18.4755 46.9759 19.1716 45.1777 19.1716C42.7067 19.1716 41.3571 18.8274 39.2804 17.9651L38.5109 17.6054L37.6331 22.7564C39.1374 23.3828 41.8482 23.9204 44.6479 23.9668C51.2258 23.9668 55.526 20.8692 55.5763 16.1089C55.6304 13.4831 53.9289 11.4993 50.348 9.85968C48.1708 8.79624 46.8212 8.0847 46.8212 7.00578C46.8212 6.05062 47.9775 5.02971 50.3944 5.02971C52.003 4.99079 53.6015 5.29258 55.0852 5.91527L55.6652 6.17436L56.5431 1.19744L56.3922 1.23224ZM72.4483 0.679251H67.6145C66.1102 0.679251 64.9772 1.09303 64.3198 2.58572L55.0233 23.6458H61.6012L62.916 20.1925L70.9441 20.2002C71.1335 21.0085 71.7136 23.6458 71.7136 23.6458H77.5142L72.4483 0.679251ZM31.2949 0.485897H37.5635L33.6423 23.4641H27.3815L31.2949 0.478163V0.485897ZM15.3819 13.1506L16.0316 16.3409L22.157 0.679251H28.7968L18.9319 23.6149H12.3076L6.89371 4.19442C6.80602 3.87419 6.6001 3.59917 6.31751 3.42487C4.36619 2.41687 2.29864 1.65193 0.161133 1.14716L0.246208 0.66378H10.3354C11.7043 0.717919 12.8065 1.14717 13.1738 2.60892L15.3781 13.1622V13.1506H15.3819ZM64.7142 15.494L67.2123 9.06693C67.1814 9.13654 67.7266 7.74053 68.0437 6.87817L68.473 8.86198L69.9231 15.4901H64.7103V15.494H64.7142Z" fill="#F8F9FA"/>
</svg>
