<svg width="66" height="40" viewBox="0 0 66 40" fill="none" xmlns="http://www.w3.org/2000/svg">
<path d="M24.3613 4.26924H41.8245V35.6476H24.3613V4.26924Z" fill="#E0E5EB"/>
<path d="M25.4697 19.9585C25.4697 13.5832 28.4633 7.9283 33.0646 4.26925C29.6831 1.60823 25.4144 0.000564575 20.7575 0.000564575C9.72483 0.000564575 0.799316 8.92608 0.799316 19.9585C0.799316 30.9907 9.72483 39.9165 20.7573 39.9165C25.4141 39.9165 29.6828 38.3088 33.0646 35.6476C28.4633 32.0441 25.4697 26.3339 25.4697 19.9585Z" fill="#F8F9FA"/>
<path d="M65.3854 19.958C65.3854 30.9902 56.4599 39.916 45.4274 39.916C40.7706 39.916 36.5019 38.3083 33.1201 35.647C37.777 31.9882 40.7153 26.3333 40.7153 19.958C40.7153 13.5826 37.7214 7.92773 33.1201 4.26868C36.5016 1.60767 40.7706 0 45.4274 0C56.4599 0 65.3856 8.98108 65.3856 19.958H65.3854Z" fill="#202833"/>
</svg>
