<svg width="111" height="101" viewBox="0 0 111 101" fill="none" xmlns="http://www.w3.org/2000/svg">
<path d="M8.60817 89.425L10.9964 83.1176C11.2326 82.4965 11.4163 81.9978 11.5563 81.6042C11.6963 81.2105 11.8012 80.8868 11.88 80.6419C11.95 80.3882 12.0024 80.187 12.0287 80.0382C12.0549 79.8895 12.0637 79.7408 12.0637 79.6008C12.0637 79.2946 11.95 79.1022 11.7313 79.006C11.5125 78.9097 11.0664 78.866 10.4103 78.866V78.1049H15.6242V78.866C14.6094 78.866 13.9008 79.3734 13.5159 80.3969L8.6869 92.8805H7.33094L2.93937 81.8054C2.69443 81.2105 2.47572 80.7293 2.27452 80.3444C2.08206 79.9683 1.8721 79.6621 1.6534 79.4434C1.43469 79.2247 1.18975 79.0672 0.927302 78.9885C0.664858 78.9097 0.358674 78.866 0 78.866V78.0874H6.93727V78.866C6.62234 78.8747 6.35115 78.901 6.14119 78.9185C5.93124 78.9447 5.75627 78.9885 5.6338 79.041C5.51133 79.1022 5.42384 79.1722 5.3801 79.2684C5.32762 79.3646 5.31012 79.4784 5.31012 79.6183C5.31012 79.7933 5.33636 80.0032 5.3976 80.2394C5.45884 80.4756 5.55507 80.7731 5.66879 81.1143L8.60817 89.425Z" fill="white"/>
<path d="M21.984 91.4195H16.8838V90.8334C17.2075 90.8247 17.4699 90.7897 17.6624 90.7372C17.8548 90.6847 18.0036 90.5797 18.1085 90.431C18.2135 90.2823 18.2835 90.0723 18.3272 89.8011C18.3622 89.5299 18.3885 89.1625 18.3885 88.6989V82.7676C18.3885 82.3565 18.371 82.0153 18.336 81.7441C18.301 81.4729 18.2398 81.263 18.1435 81.1055C18.0473 80.948 17.9161 80.8343 17.7324 80.7731C17.5574 80.7118 17.3212 80.6681 17.0238 80.6506V80.0645H21.844V80.6506C21.5465 80.6681 21.3103 80.7118 21.1354 80.7731C20.9604 80.8343 20.8205 80.948 20.7242 81.1055C20.628 81.263 20.5668 81.4729 20.5318 81.7441C20.4968 82.0153 20.4793 82.3565 20.4793 82.7676V88.6989C20.4793 89.1625 20.4968 89.5299 20.5318 89.8011C20.5668 90.0723 20.6367 90.2823 20.7417 90.431C20.8554 90.5797 21.0042 90.6759 21.1966 90.7372C21.3891 90.7897 21.6515 90.8247 21.9752 90.8334V91.4195H21.984Z" fill="white"/>
<path d="M33.6976 91.4196H23.856V90.8334C24.1709 90.8247 24.4246 90.7897 24.6258 90.746C24.827 90.6935 24.9757 90.6147 25.0807 90.4923C25.1857 90.3698 25.2557 90.2036 25.2994 89.9936C25.3344 89.7749 25.3606 89.495 25.3606 89.1538V82.339C25.3606 81.9978 25.3431 81.7179 25.3081 81.5079C25.2732 81.298 25.2119 81.1318 25.1157 81.0093C25.0195 80.8868 24.8882 80.7993 24.7045 80.7556C24.5296 80.7119 24.2934 80.6769 24.0134 80.6594V80.0732H28.9474V80.6594C28.6237 80.6681 28.3612 80.7031 28.1688 80.7468C27.9763 80.7993 27.8189 80.8868 27.7139 81.0093C27.6089 81.1405 27.5389 81.3155 27.5039 81.5429C27.4689 81.7704 27.4514 82.0678 27.4514 82.444V88.6202C27.4514 89.0313 27.4952 89.3725 27.5739 89.6262C27.6526 89.8887 27.7926 90.0899 27.9938 90.2298C28.195 90.3698 28.4575 90.4748 28.7899 90.5273C29.1223 90.5798 29.5335 90.606 30.0321 90.606C30.5833 90.606 31.0469 90.571 31.4143 90.501C31.7818 90.431 32.0967 90.2998 32.3504 90.1073C32.6041 89.9149 32.8053 89.6612 32.954 89.3288C33.1027 89.0051 33.234 88.5852 33.3389 88.0603H33.9076L33.6976 91.4196Z" fill="white"/>
<path d="M45.3504 91.4196H35.5V90.8334C35.8149 90.8247 36.0686 90.7897 36.2698 90.746C36.471 90.6935 36.6198 90.6147 36.7247 90.4923C36.8297 90.3698 36.8997 90.2036 36.9434 89.9936C36.9784 89.7749 37.0047 89.495 37.0047 89.1538V82.339C37.0047 81.9978 36.9872 81.7179 36.9522 81.5079C36.9172 81.298 36.856 81.1318 36.7597 81.0093C36.6635 80.8868 36.5323 80.7993 36.3486 80.7556C36.1736 80.7119 35.9374 80.6769 35.6575 80.6594V80.0732H40.5914V80.6594C40.2677 80.6681 40.0053 80.7031 39.8128 80.7468C39.6204 80.7993 39.4629 80.8868 39.3579 81.0093C39.253 81.1405 39.183 81.3155 39.148 81.5429C39.113 81.7704 39.0955 82.0678 39.0955 82.444V88.6202C39.0955 89.0313 39.1392 89.3725 39.218 89.6262C39.2967 89.8887 39.4367 90.0899 39.6379 90.2298C39.8391 90.3698 40.1015 90.4748 40.4339 90.5273C40.7664 90.5798 41.1775 90.606 41.6762 90.606C42.2273 90.606 42.691 90.571 43.0584 90.501C43.4258 90.431 43.7407 90.2998 43.9944 90.1073C44.2481 89.9149 44.4493 89.6612 44.5981 89.3288C44.7468 89.0051 44.878 88.5852 44.983 88.0603H45.5516L45.3504 91.4196Z" fill="white"/>
<path d="M53.8099 87.9815H49.7682C49.3221 89.0225 49.0946 89.7486 49.0946 90.151C49.0946 90.4485 49.1996 90.6322 49.4183 90.7109C49.6283 90.7897 49.9519 90.8334 50.3806 90.8334V91.4195H46.4614V90.8334C46.6889 90.8072 46.8901 90.7634 47.0563 90.7109C47.2225 90.6584 47.3712 90.5885 47.5025 90.501C47.6337 90.4135 47.7474 90.2998 47.8349 90.151C47.9311 90.0111 48.0186 89.8361 48.1061 89.6262L51.8678 79.907H52.9263L56.3381 88.5239C56.5393 89.0225 56.7055 89.4162 56.8455 89.7049C56.9854 89.9936 57.1341 90.2123 57.2916 90.361C57.4491 90.5097 57.6328 90.6147 57.834 90.6759C58.0352 90.7372 58.3064 90.7809 58.6301 90.8072V91.4108H53.2237V90.8072C53.6786 90.7897 54.0111 90.7372 54.2123 90.6584C54.4135 90.5797 54.5097 90.4222 54.5097 90.186C54.5097 90.0461 54.4747 89.8711 54.4135 89.6524C54.3435 89.4337 54.256 89.1713 54.1423 88.8563L53.8099 87.9815ZM50.0919 87.098H53.4949L51.8503 82.6277H51.789L50.0919 87.098Z" fill="white"/>
<path d="M69.0052 82.9076C69.0052 83.7212 68.7777 84.4036 68.3228 84.9547C67.8679 85.5058 67.1331 85.8733 66.1358 86.057L69.4514 89.9761C69.6788 90.2561 69.95 90.4573 70.2649 90.606C70.5799 90.746 70.8948 90.816 71.2185 90.816V91.4021H67.833L64.29 86.9143C64.0538 86.6169 63.8438 86.4244 63.6688 86.3194C63.4939 86.2144 63.3277 86.1619 63.1789 86.1619V89.0488C63.1789 89.4163 63.2052 89.7137 63.2489 89.9411C63.2927 90.1686 63.3889 90.3523 63.5376 90.4835C63.6863 90.6147 63.8875 90.6935 64.1587 90.746C64.4299 90.7897 64.7973 90.816 65.2522 90.816V91.4021H59.5747V90.816C59.8896 90.816 60.1433 90.7897 60.3358 90.746C60.5283 90.7022 60.6857 90.6147 60.7907 90.4923C60.9044 90.3698 60.9744 90.1948 61.0094 89.9761C61.0444 89.7574 61.0706 89.4687 61.0706 89.1276V82.3128C61.0706 81.9716 61.0531 81.6916 61.0269 81.4817C61.0007 81.2717 60.9394 81.1055 60.8432 80.983C60.747 80.8606 60.6157 80.7731 60.432 80.7294C60.2571 80.6856 60.0209 80.6506 59.7234 80.6331V80.047H64.6661C66.0483 80.047 67.1156 80.3007 67.8679 80.7993C68.6203 81.298 69.0052 82.0153 69.0052 82.9076ZM63.1702 85.3046H64.0975C64.9898 85.3046 65.6634 85.1297 66.1096 84.7622C66.5557 84.4036 66.7744 83.8087 66.7744 82.9864C66.7744 82.3565 66.5907 81.8491 66.2145 81.4642C65.8471 81.0793 65.331 80.8868 64.6749 80.8868H63.4239C63.2489 80.8868 63.1702 80.9743 63.1702 81.1405V85.3046Z" fill="white"/>
<path d="M75.6799 85.1384C76.2923 85.1384 76.7822 85.1209 77.1496 85.0771C77.5258 85.0421 77.8057 84.9547 78.0157 84.8322C78.2256 84.7097 78.3656 84.526 78.4531 84.2898C78.5406 84.0536 78.6018 83.7387 78.6543 83.3275H79.1792V87.6491H78.6543C78.593 87.2554 78.5231 86.9405 78.4268 86.7043C78.3306 86.4681 78.1819 86.2931 77.9719 86.1619C77.762 86.0394 77.482 85.9607 77.1234 85.9257C76.7647 85.8907 76.2835 85.8732 75.6887 85.8732V88.9088C75.6887 89.2238 75.7324 89.4862 75.8111 89.7049C75.8899 89.9236 76.0298 90.0986 76.2223 90.2298C76.4148 90.361 76.6685 90.4572 76.9834 90.5097C77.2983 90.5622 77.6832 90.5885 78.1381 90.5885C78.6805 90.5885 79.1442 90.5535 79.5203 90.4747C79.8965 90.396 80.2115 90.256 80.4564 90.0636C80.7013 89.8624 80.9026 89.5999 81.06 89.2762C81.2087 88.9438 81.34 88.5327 81.4449 88.034H82.0136L81.7861 91.4108H72.0757V90.8247C72.3906 90.8159 72.6443 90.7809 72.8455 90.7372C73.0467 90.6847 73.1954 90.606 73.3004 90.4835C73.4054 90.361 73.4754 90.1948 73.5191 89.9848C73.5541 89.7661 73.5804 89.4862 73.5804 89.145V82.3302C73.5804 81.989 73.5629 81.7091 73.5279 81.4991C73.4929 81.2892 73.4316 81.123 73.3354 81.0005C73.2392 80.878 73.108 80.7905 72.9243 80.7468C72.7493 80.7031 72.5131 80.6681 72.2332 80.6506V80.0645H81.27L81.3662 82.9513H80.7538C80.7013 82.5402 80.6051 82.199 80.4826 81.9278C80.3602 81.6566 80.1852 81.4379 79.9665 81.2804C79.7478 81.1142 79.4679 81.0093 79.1179 80.9393C78.768 80.878 78.3394 80.843 77.8407 80.843H76.2223C75.9774 80.843 75.8199 80.878 75.7674 80.9393C75.7062 81.0005 75.6799 81.1492 75.6799 81.3854V85.1384V85.1384Z" fill="white"/>
<path d="M90.5081 87.9815H86.4665C86.0203 89.0225 85.7929 89.7486 85.7929 90.151C85.7929 90.4485 85.8978 90.6322 86.1165 90.7109C86.3265 90.7897 86.6502 90.8334 87.0788 90.8334V91.4195H83.1597V90.8334C83.3871 90.8072 83.5883 90.7634 83.7545 90.7109C83.9208 90.6584 84.0695 90.5885 84.2007 90.501C84.3319 90.4135 84.4456 90.2998 84.5331 90.151C84.6294 90.0111 84.7168 89.8361 84.8043 89.6262L88.566 79.907H89.6245L93.0363 88.5239C93.2375 89.0225 93.4037 89.4162 93.5437 89.7049C93.6837 89.9936 93.8324 90.2123 93.9899 90.361C94.1473 90.5097 94.331 90.6147 94.5322 90.6759C94.7335 90.7372 95.0046 90.7809 95.3283 90.8072V91.4108H89.922V90.8072C90.3769 90.7897 90.7093 90.7372 90.9105 90.6584C91.1117 90.5797 91.208 90.4222 91.208 90.186C91.208 90.0461 91.173 89.8711 91.1117 89.6524C91.0417 89.4337 90.9543 89.1713 90.8405 88.8563L90.5081 87.9815ZM86.7989 87.098H90.2019L88.5573 82.6277H88.496L86.7989 87.098Z" fill="white"/>
<path d="M109.912 92.8805H97.2617V92.1194C97.6641 92.1106 97.9966 92.0669 98.2503 92.0057C98.504 91.9444 98.7052 91.8394 98.8364 91.682C98.9676 91.5333 99.0638 91.3145 99.1076 91.0346C99.1601 90.7547 99.1776 90.396 99.1776 89.9586V81.2104C99.1776 80.773 99.1601 80.4144 99.1163 80.1432C99.0726 79.872 98.9938 79.6533 98.8714 79.4958C98.7489 79.3383 98.5739 79.2334 98.3465 79.1721C98.119 79.1196 97.8216 79.0759 97.4542 79.0497V78.2886H103.788V79.0497C103.368 79.0584 103.035 79.1022 102.791 79.1634C102.537 79.2246 102.344 79.3384 102.213 79.5046C102.082 79.6708 101.986 79.8982 101.951 80.1869C101.907 80.4756 101.889 80.8605 101.889 81.3417V89.285C101.889 89.8186 101.942 90.2473 102.047 90.5797C102.152 90.9121 102.336 91.1746 102.589 91.3583C102.843 91.542 103.193 91.6645 103.622 91.7345C104.05 91.8044 104.584 91.8394 105.223 91.8394C105.931 91.8394 106.526 91.7957 107.007 91.7082C107.488 91.6207 107.882 91.4545 108.206 91.2096C108.529 90.9646 108.792 90.6322 108.984 90.2123C109.177 89.7924 109.343 89.25 109.483 88.5851H110.218L109.912 92.8805Z" fill="white"/>
<path d="M12.3257 15.8006H12.7019C12.7456 16.1505 12.8418 16.4567 12.973 16.7367C13.1043 17.0166 13.2705 17.2528 13.4717 17.4453C13.6729 17.6377 13.9091 17.7864 14.1715 17.8914C14.434 17.9964 14.7227 18.0489 15.0289 18.0489C15.5362 18.0489 15.9299 17.9177 16.2274 17.6465C16.5248 17.3753 16.6648 17.0079 16.6648 16.553C16.6648 16.3605 16.6385 16.1855 16.5773 16.0193C16.516 15.8618 16.4198 15.7044 16.2886 15.5557C16.1486 15.4069 15.9737 15.2582 15.7375 15.1095C15.5013 14.9608 15.2213 14.7858 14.8714 14.6196C14.4515 14.4097 14.0928 14.2085 13.8041 14.016C13.5154 13.8235 13.288 13.6223 13.1218 13.4124C12.9468 13.2024 12.8331 12.9837 12.7543 12.7475C12.6844 12.5113 12.6494 12.2489 12.6494 11.9427C12.6494 11.5928 12.7019 11.2603 12.8156 10.9629C12.9293 10.6655 13.0868 10.403 13.288 10.1843C13.4892 9.9656 13.7341 9.79939 14.0141 9.67692C14.294 9.55444 14.6002 9.50195 14.9326 9.50195C15.2301 9.50195 15.51 9.55444 15.7724 9.65942C16.0349 9.7644 16.2973 9.93936 16.5598 10.1756L16.8222 9.65942H17.0584L17.1722 11.9602H16.796C16.6298 11.3303 16.3936 10.8579 16.0874 10.5517C15.7812 10.2455 15.405 10.0881 14.9676 10.0881C14.5477 10.0881 14.224 10.2018 13.9703 10.438C13.7254 10.6655 13.6029 10.9804 13.6029 11.3741C13.6029 11.5578 13.6292 11.724 13.6816 11.8727C13.7341 12.0214 13.8216 12.1614 13.9441 12.3014C14.0666 12.4326 14.224 12.5725 14.4252 12.7038C14.6264 12.835 14.8714 12.975 15.1601 13.1237C15.6675 13.3774 16.0874 13.6136 16.4198 13.8323C16.7522 14.051 17.0234 14.2697 17.2159 14.4884C17.4171 14.7071 17.5571 14.9345 17.6358 15.1795C17.7145 15.4244 17.7583 15.6956 17.7583 15.9931C17.7583 16.378 17.6883 16.7367 17.5571 17.0516C17.4171 17.3753 17.2334 17.6552 16.9797 17.8827C16.7347 18.1101 16.4373 18.2938 16.0961 18.4163C15.755 18.5475 15.3788 18.6088 14.9676 18.6088C14.5827 18.6088 14.2328 18.5475 13.9178 18.4251C13.6117 18.3026 13.288 18.0926 12.973 17.8039L12.6844 18.3726H12.4482L12.3257 15.8006Z" fill="white"/>
<path d="M26.2091 9.6156H26.4978L26.594 12.275H26.2178C26.0691 11.6014 25.7804 11.0678 25.3518 10.6829C24.9056 10.298 24.3895 10.1055 23.7859 10.1055C23.366 10.1055 22.9985 10.2017 22.6661 10.3854C22.3424 10.5691 22.0625 10.8316 21.835 11.1815C21.6076 11.5314 21.4414 11.9514 21.3189 12.45C21.1964 12.9486 21.1439 13.5173 21.1439 14.1471C21.1439 15.3894 21.3714 16.3429 21.8263 17.0078C22.2812 17.6726 22.946 18.0051 23.8121 18.0051C25.1331 18.0051 25.9729 17.2177 26.3491 15.6343H26.769V18.5125H26.4103L26.1741 17.6026C25.4568 18.285 24.5907 18.6349 23.5759 18.6349C22.9985 18.6349 22.4736 18.5299 22.0012 18.32C21.5376 18.11 21.1352 17.8214 20.8027 17.4364C20.4703 17.0515 20.2166 16.5879 20.0329 16.0455C19.8492 15.4943 19.7617 14.8907 19.7617 14.2171C19.7617 13.5173 19.8579 12.8787 20.0504 12.3013C20.2429 11.7239 20.5053 11.2253 20.8552 10.8141C21.1964 10.3942 21.6163 10.0792 22.0975 9.8518C22.5786 9.62435 23.1123 9.51062 23.6896 9.51062C24.1008 9.51062 24.4857 9.57186 24.8444 9.70308C25.2031 9.8343 25.5967 10.0443 26.0254 10.3417L26.2091 9.6156Z" fill="white"/>
<path d="M88.4165 11.8465C88.4165 12.2577 88.3552 12.6163 88.2415 12.94C88.1278 13.2637 87.9441 13.5349 87.6904 13.7623C87.4454 13.9898 87.113 14.156 86.7193 14.2785C86.3169 14.401 85.8358 14.4622 85.2584 14.4622H84.3398V16.693C84.3398 16.9817 84.3573 17.2091 84.3836 17.3928C84.4186 17.5765 84.4798 17.7165 84.576 17.8127C84.6723 17.909 84.821 17.9789 85.0047 18.0139C85.1884 18.0489 85.4421 18.0664 85.7483 18.0664V18.5038H82.144V18.0664C82.3802 18.0577 82.5727 18.0314 82.7214 17.9964C82.8701 17.9614 82.9839 17.8915 83.0626 17.804C83.1413 17.7077 83.2026 17.5853 83.2288 17.4103C83.2551 17.2441 83.2726 17.0254 83.2726 16.7542V11.3741C83.2726 11.1029 83.2638 10.8842 83.2376 10.718C83.2113 10.5518 83.1676 10.4206 83.0976 10.3243C83.0276 10.2281 82.9226 10.1669 82.7827 10.1319C82.6427 10.0969 82.4677 10.0706 82.249 10.0531V9.61572H85.4683C86.4131 9.61572 87.1392 9.80818 87.6554 10.2018C88.1628 10.6043 88.4165 11.1466 88.4165 11.8465ZM84.3398 13.8936H85.0659C85.7483 13.8936 86.2557 13.7448 86.5881 13.4474C86.9205 13.15 87.0867 12.6601 87.0867 11.9865C87.0867 11.3304 86.9555 10.8667 86.6931 10.5868C86.4306 10.3068 86.0195 10.1669 85.4596 10.1669H84.5148C84.4011 10.1669 84.3398 10.2281 84.3398 10.3593V13.8936V13.8936Z" fill="white"/>
<path d="M96.2729 11.8465C96.2729 12.4589 96.1067 12.975 95.783 13.3862C95.4593 13.7974 94.9344 14.0686 94.2171 14.2085L96.4829 17.2791C96.6666 17.5328 96.8678 17.7165 97.0952 17.8303C97.3139 17.944 97.5851 18.0227 97.8913 18.0752V18.5126H95.9142L93.4035 14.8821C93.316 14.7509 93.2286 14.6459 93.1498 14.5672C93.0711 14.4885 92.9924 14.4272 92.9049 14.3922C92.8174 14.3485 92.7212 14.3223 92.6074 14.3135C92.4937 14.3048 92.3625 14.296 92.205 14.296V16.7018C92.205 16.9904 92.2225 17.2179 92.2488 17.4016C92.2838 17.5853 92.345 17.7253 92.4412 17.8215C92.5374 17.9177 92.6862 17.9877 92.8699 18.0227C93.0536 18.0577 93.3073 18.0752 93.6135 18.0752V18.5126H90.0005V18.0752C90.2367 18.0665 90.4292 18.0402 90.5779 18.0052C90.7266 17.9702 90.8403 17.9002 90.919 17.8128C90.9978 17.7165 91.059 17.5941 91.0853 17.4191C91.1115 17.2529 91.129 17.0342 91.129 16.763V11.3829C91.129 11.1117 91.1202 10.893 91.094 10.7268C91.0678 10.5606 91.024 10.4293 90.954 10.3331C90.8841 10.2369 90.7791 10.1756 90.6391 10.1407C90.4991 10.1057 90.3242 10.0794 90.1055 10.0619V9.62451H93.3248C94.2696 9.62451 94.9957 9.81697 95.5118 10.2106C96.0105 10.6043 96.2729 11.1467 96.2729 11.8465ZM92.1963 13.7186H92.9224C93.6047 13.7186 94.1121 13.5787 94.4445 13.2987C94.777 13.0188 94.9432 12.5551 94.9432 11.9078C94.9432 11.2867 94.812 10.8405 94.5495 10.5693C94.2871 10.2981 93.8759 10.1669 93.316 10.1669H92.3712C92.2575 10.1669 92.1963 10.2281 92.1963 10.3594V13.7186V13.7186Z" fill="white"/>
<path d="M93.1753 36.4375C92.9303 37.531 92.6416 38.5983 92.318 39.6481C91.9943 40.6978 91.6181 41.7214 91.2157 42.7099C90.4196 44.6957 89.4223 46.5591 88.2938 48.2475C87.7339 49.0873 87.1391 49.8921 86.5092 50.6445C84.6371 52.884 82.4413 54.7386 80.2368 56.392C78.7496 57.503 77.2187 58.5353 75.7052 59.6113C75.5128 59.7425 75.3291 59.8825 75.1366 60.0225C73.8069 60.9935 72.5034 62.0346 71.2874 63.2331C70.5876 63.9154 70.1064 64.6502 69.2666 65.2451C66.6597 67.126 62.8892 68.6744 57.5791 70.5815C57.6316 70.6515 58.279 70.7215 58.3664 70.6952C60.5797 69.9604 62.8017 69.4355 64.3502 68.9193C65.5049 68.5344 69.1529 67.021 69.8177 66.3386C70.4826 65.6563 71.165 64.9739 71.8736 64.3616C72.5734 63.7317 73.2908 63.1281 74.0081 62.5419L74.5505 62.1045L75.1016 61.6671C75.469 61.3784 75.8365 61.0898 76.2039 60.8011C77.6736 59.6463 79.1695 58.5178 80.6479 57.3456C81.759 56.462 82.8612 55.5347 83.911 54.5374L84.1734 54.2837C84.9695 53.5226 85.7219 52.7003 86.448 51.8342L86.9204 51.2219C87.5415 50.417 88.1363 49.5685 88.6875 48.6849C90.3234 46.0167 91.6356 42.9811 92.5192 39.7443C92.8166 38.6683 93.0615 37.5748 93.2715 36.4637L93.1753 36.4375Z" fill="white"/>
<path d="M73.8599 62.9706C72.9413 63.0494 72.1015 63.3993 71.4016 63.8192C70.6581 64.7815 69.8882 65.4026 69.4771 65.7088C70.0282 66.4174 72.1452 68.8581 74.0873 67.5721C76.7643 65.8138 78.8026 65.2801 78.8026 65.2801C78.8026 64.9827 76.4231 62.7519 73.8599 62.9706ZM73.1338 66.2424C72.0665 66.951 70.8855 65.2714 70.8855 65.2714C70.8855 65.2714 71.8128 64.1691 73.0288 64.0641C74.236 63.9592 75.3646 65.0177 75.3733 65.1577C75.3733 65.1577 74.4023 65.4114 73.1338 66.2424Z" fill="white"/>
<path d="M79.3363 58.1941C76.7818 58.4216 74.8135 60.7398 74.8135 60.7398C74.8135 60.7398 77.3067 64.2828 79.5637 62.7869C82.2406 61.0285 84.279 60.4949 84.279 60.4949C84.279 60.1974 81.8995 57.9667 79.3363 58.1941ZM78.7152 61.5709C77.6479 62.2795 76.4669 60.5998 76.4669 60.5998C76.4669 60.5998 77.3942 59.4976 78.6102 59.3926C79.8174 59.2876 80.9459 60.3461 80.9547 60.4861C80.9547 60.4861 79.9836 60.7398 78.7152 61.5709Z" fill="white"/>
<path d="M84.5415 54.2749C83.6405 54.3536 82.8356 54.756 82.197 55.1934C81.6109 56.0157 81.0685 56.4619 81.0685 56.4619C81.0685 56.4619 81.0335 56.3832 80.9723 56.2519C80.8498 56.3832 80.7886 56.4619 80.7886 56.4619C80.7886 56.4619 82.8619 59.515 84.7427 58.2378C86.9648 56.7331 88.6619 56.2782 88.6619 56.2782C88.6444 56.0245 86.6673 54.0911 84.5415 54.2749ZM84.0341 57.3717C83.1418 57.9753 82.162 56.5319 82.162 56.5319C82.162 56.5319 82.9319 55.5871 83.9379 55.4996C84.9439 55.4121 85.88 56.3219 85.8887 56.4444C85.8887 56.4444 85.0839 56.6544 84.0341 57.3717Z" fill="white"/>
<path d="M88.7492 49.831C87.8744 49.9097 87.0958 50.3121 86.4922 50.7408C86.1335 51.6944 85.7486 52.2892 85.7486 52.2892C85.7486 52.2892 85.5736 52.0968 85.3374 51.7643C85.2762 51.8343 85.2412 51.8693 85.2412 51.8693C85.2412 51.8693 87.1746 54.7212 88.9329 53.5315C91.0062 52.123 92.5896 51.7031 92.5896 51.7031C92.5809 51.4669 90.735 49.6648 88.7492 49.831ZM88.0669 52.7791C87.2358 53.3477 86.3172 51.9918 86.3172 51.9918C86.3172 51.9918 87.0346 51.1082 87.9794 51.0295C88.9154 50.9508 89.799 51.7993 89.799 51.9131C89.799 51.9131 89.0466 52.1143 88.0669 52.7791Z" fill="white"/>
<path d="M91.1729 46.0254C90.298 46.2266 89.5632 46.8127 89.0558 47.3201C88.8808 47.9062 88.7146 48.2649 88.7146 48.2649C88.7146 48.2649 88.6097 48.1774 88.4522 48.0287C88.391 48.1162 88.356 48.1687 88.356 48.1687C88.356 48.1687 90.1843 50.3382 91.5753 49.1222C93.2199 47.6875 94.5321 47.1452 94.5321 47.1452C94.5146 46.9352 92.835 45.6405 91.1729 46.0254ZM91.0154 48.4224C90.3505 48.9998 89.4932 47.9675 89.4932 47.9675C89.4932 47.9675 90.0443 47.1364 90.8229 46.9527C91.6103 46.769 92.4063 47.3814 92.4151 47.4776C92.4151 47.4776 91.794 47.74 91.0154 48.4224Z" fill="white"/>
<path d="M92.7123 41.9577C92.1174 42.2464 91.6362 42.7363 91.2776 43.1912C91.1376 43.9523 90.9451 44.4597 90.9451 44.4597C90.9451 44.4597 90.8139 44.3722 90.6302 44.2147C90.604 44.2672 90.5952 44.2935 90.5952 44.2935C90.5952 44.2935 92.3623 45.7544 93.3859 44.4684C94.6019 42.9463 95.6341 42.2377 95.6341 42.2377C95.5992 42.0714 94.0507 41.3191 92.7123 41.9577ZM92.756 43.9785C92.2661 44.5909 91.435 43.8998 91.435 43.8998C91.435 43.8998 91.8025 43.1037 92.4323 42.7975C93.0709 42.4913 93.797 42.85 93.8233 42.9288C93.8233 42.9288 93.3334 43.2612 92.756 43.9785Z" fill="white"/>
<path d="M92.1786 39.9805C92.1699 40.0067 92.1611 40.0242 92.1611 40.0242C92.1611 40.0242 93.6658 41.3889 94.5406 40.2866C95.5729 38.9832 96.4565 38.3883 96.4565 38.3883C96.4215 38.2396 95.1005 37.5135 93.9633 38.0296C93.3334 38.3183 92.8522 38.8869 92.5548 39.3506C92.4848 39.8055 92.3886 40.0942 92.3886 40.0942C92.3886 40.0942 92.3011 40.0592 92.1786 39.9805ZM93.797 38.7557C94.3394 38.5108 94.9605 38.8519 94.978 38.9219C94.978 38.9219 94.5581 39.2019 94.0682 39.823C93.6571 40.3479 92.9397 39.7005 92.9397 39.7005C92.9397 39.7005 93.2547 39.0007 93.797 38.7557Z" fill="white"/>
<path d="M71.4104 63.8192C71.9003 63.1806 72.3902 62.402 72.7576 61.4747C73.9561 58.4654 73.3875 54.6599 73.1863 54.5287C73.1863 54.5287 71.9878 56.7945 69.687 59.3227C67.7449 61.4572 69.1621 65.9275 69.1621 65.9275C69.1621 65.9275 69.2846 65.8575 69.4858 65.7088C69.3983 65.5951 69.3458 65.5251 69.3458 65.5251C69.3458 65.5251 70.1507 64.5628 71.4104 63.8192ZM70.0544 61.3435C71.1392 60.145 71.7078 59.069 71.7078 59.069C71.8041 59.1302 72.0753 60.9323 71.5066 62.3583C70.938 63.7842 69.8007 64.4666 69.8007 64.4666C69.8007 64.4666 69.1359 62.3583 70.0544 61.3435Z" fill="white"/>
<path d="M69.3374 65.5252C69.3374 65.5252 69.3899 65.5952 69.4774 65.7089C69.8973 65.4027 70.6584 64.7816 71.402 63.8193C70.151 64.5629 69.3374 65.5252 69.3374 65.5252Z" fill="white"/>
<path d="M78.5843 56.5933C80.0452 53.8027 79.8352 49.936 79.6515 49.7698C79.6515 49.7698 78.2518 51.8256 75.7411 53.9601C73.6153 55.7622 74.6126 60.425 74.6126 60.425C74.6126 60.425 77.1233 59.3927 78.5843 56.5933ZM75.9248 55.9372C77.1146 54.9224 77.7794 53.9514 77.7794 53.9514C77.8669 54.0301 77.9719 55.8585 77.272 57.1794C76.5809 58.5004 75.3912 58.9991 75.3912 58.9991C75.3912 58.9991 74.9188 56.7945 75.9248 55.9372Z" fill="white"/>
<path d="M83.4211 52.6304C84.0597 50.2071 83.2724 47.4252 83.1062 47.3552C83.1062 47.3552 82.3976 49.2273 80.8579 51.4319C79.7644 53.0153 80.6654 55.5085 80.9716 56.2521C81.1991 56.0071 81.6277 55.5872 82.1964 55.2023C82.66 54.5549 83.1412 53.6889 83.4211 52.6304ZM81.1291 52.7616C81.8552 51.7118 82.1964 50.8282 82.1964 50.8282C82.2751 50.8632 82.6513 52.1754 82.3451 53.3302C82.0389 54.4762 81.2253 55.1498 81.2253 55.1498C81.2253 55.1498 80.508 53.6539 81.1291 52.7616Z" fill="white"/>
<path d="M82.1969 55.2023C81.6283 55.5959 81.1996 56.0158 80.9722 56.252C81.0334 56.392 81.0684 56.462 81.0684 56.462C81.0684 56.462 81.6108 56.0158 82.1969 55.2023Z" fill="white"/>
<path d="M87.14 47.5563C87.1925 44.9144 85.7578 42.5349 85.5828 42.5349C85.5828 42.5349 85.3291 44.6607 84.3581 47.4689C83.7632 49.1747 84.743 50.9244 85.3466 51.7729C85.5216 51.5805 85.9328 51.1518 86.5014 50.7494C86.8076 49.9096 87.1138 48.7898 87.14 47.5563ZM85.1192 48.3087C85.5828 46.979 85.6966 45.9729 85.6966 45.9729C85.784 45.9729 86.4576 47.1014 86.4402 48.3524C86.4139 49.6034 85.784 50.5919 85.784 50.5919C85.784 50.5919 84.7343 49.4284 85.1192 48.3087Z" fill="white"/>
<path d="M86.4922 50.7407C85.9235 51.1431 85.5124 51.5718 85.3374 51.7643C85.5736 52.0967 85.7486 52.2891 85.7486 52.2891C85.7486 52.2891 86.1247 51.6943 86.4922 50.7407Z" fill="white"/>
<path d="M89.4224 44.0572C89.2037 41.8351 87.7778 40.0855 87.6203 40.1205C87.6203 40.1205 87.6203 41.9401 87.0779 44.4596C86.7193 46.113 87.909 47.4864 88.4601 48.0201C88.5739 47.8714 88.7838 47.6089 89.0638 47.3202C89.2912 46.5329 89.5449 45.3344 89.4224 44.0572ZM87.769 45.2382C88.0227 44.0484 88.0227 43.1824 88.0227 43.1824C88.0927 43.1649 88.7751 43.9959 88.8713 45.0457C88.9763 46.0955 88.5389 47.0403 88.5389 47.0403C88.5389 47.0403 87.5503 46.2442 87.769 45.2382Z" fill="white"/>
<path d="M88.7229 48.265C88.7229 48.265 88.8891 47.9063 89.0641 47.3202C88.7754 47.6089 88.5742 47.8713 88.4604 48.02C88.6092 48.1775 88.7229 48.265 88.7229 48.265Z" fill="white"/>
<path d="M91.2772 43.191C91.3909 42.5349 91.4696 41.7038 91.3384 40.8465C91.0497 38.9919 89.755 37.6272 89.6325 37.6709C89.6325 37.6709 89.72 39.2106 89.3788 41.3889C89.1689 42.7449 90.1224 43.7771 90.6386 44.2233C90.7173 44.0483 90.936 43.6372 91.2772 43.191ZM89.79 41.7476C89.9475 40.7153 89.9125 39.9892 89.9125 39.9892C89.9737 39.9717 90.5861 40.6103 90.7173 41.4939C90.8573 42.3774 90.5336 43.2085 90.5336 43.2085C90.5336 43.2085 89.65 42.6136 89.79 41.7476Z" fill="white"/>
<path d="M91.2777 43.191C90.9366 43.6372 90.7179 44.0484 90.6304 44.2146C90.8141 44.372 90.9453 44.4595 90.9453 44.4595C90.9453 44.4595 91.1465 43.9521 91.2777 43.191Z" fill="white"/>
<path d="M92.1779 39.9805C92.2216 39.8843 92.3441 39.6393 92.5453 39.3419C92.6415 38.7645 92.7028 37.9334 92.5016 37.1111C92.1516 35.6502 90.9706 34.7229 90.8657 34.7666C90.8657 34.7666 91.0231 36.0001 90.8657 37.8022C90.7607 39.0007 91.7492 39.7268 92.1779 39.9805ZM91.4868 38.0909C91.5655 37.2336 91.4868 36.6475 91.4868 36.6475C91.5393 36.6212 92.0904 37.0674 92.2654 37.7585C92.4316 38.4496 92.2041 39.1669 92.2041 39.1669C92.2041 39.1669 91.4255 38.8083 91.4868 38.0909Z" fill="white"/>
<path d="M92.1787 39.9805C92.3012 40.0505 92.3799 40.0855 92.3799 40.0855C92.3799 40.0855 92.4761 39.7968 92.5461 39.3419C92.3537 39.6394 92.2225 39.8931 92.1787 39.9805Z" fill="white"/>
<path d="M94.6454 35.2216C95.1878 33.6819 94.9429 31.8623 94.8554 31.8098C94.8554 31.8098 94.6542 32.5184 93.6219 33.8919C92.7471 35.0554 93.027 37.6186 93.027 37.6186C93.027 37.6186 94.103 36.7613 94.6454 35.2216ZM93.5169 36.0877C93.5169 36.0877 93.3857 34.8804 93.7968 34.3205C94.2867 33.6644 94.383 33.332 94.383 33.332C94.4267 33.3582 94.5404 34.2156 94.2867 34.9504C94.033 35.6852 93.5169 36.0877 93.5169 36.0877Z" fill="white"/>
<path d="M16.6382 36.4375C16.8832 37.531 17.1719 38.5983 17.4955 39.6481C17.8192 40.6978 18.1954 41.7214 18.5978 42.7099C19.3939 44.6957 20.3912 46.5591 21.5197 48.2475C22.0796 49.0873 22.6744 49.8921 23.3043 50.6445C25.1764 52.884 27.3722 54.7386 29.5767 56.392C31.0639 57.503 32.5948 58.5353 34.1083 59.6113C34.3007 59.7425 34.4844 59.8825 34.6769 60.0225C36.0066 60.9935 37.3101 62.0346 38.5261 63.2331C39.2259 63.9154 39.7071 64.6502 40.5469 65.2451C43.1538 67.126 46.9243 68.6744 52.2344 70.5815C52.1819 70.6515 51.5345 70.7215 51.4471 70.6952C49.2338 69.9604 47.0118 69.4355 45.4633 68.9193C44.3086 68.5344 40.6606 67.021 39.9958 66.3386C39.3309 65.6563 38.6485 64.9739 37.9399 64.3616C37.2401 63.7317 36.5227 63.1281 35.8054 62.5419L35.263 62.1045L34.7119 61.6671C34.3445 61.3784 33.977 61.0898 33.6096 60.8011C32.1399 59.6463 30.644 58.5178 29.1656 57.3456C28.0545 56.462 26.9523 55.5347 25.9025 54.5374L25.6401 54.2837C24.844 53.5226 24.0916 52.7003 23.3655 51.8342L22.8931 51.2219C22.272 50.417 21.6771 49.5685 21.126 48.6849C19.4901 46.0167 18.1779 42.9811 17.2943 39.7443C16.9969 38.6683 16.7519 37.5748 16.542 36.4637L16.6382 36.4375Z" fill="white"/>
<path d="M31.0024 65.28C31.0024 65.28 33.0495 65.8137 35.7177 67.572C37.6598 68.8493 39.7768 66.4173 40.328 65.7087C39.908 65.4025 39.147 64.7814 38.4034 63.8191C37.7035 63.3992 36.8637 63.0492 35.9451 62.9705C33.3994 62.7518 31.0112 64.9826 31.0024 65.28ZM34.4492 65.1575C34.458 65.0176 35.5777 63.959 36.7937 64.064C38.001 64.169 38.937 65.2713 38.937 65.2713C38.937 65.2713 37.756 66.9509 36.6887 66.2423C35.4115 65.4112 34.4492 65.1575 34.4492 65.1575Z" fill="white"/>
<path d="M25.5259 60.5037C25.5259 60.5037 27.5729 61.0373 30.2411 62.7957C32.5069 64.2829 34.9914 60.7486 34.9914 60.7486C34.9914 60.7486 33.023 58.4216 30.4686 58.2029C27.9229 57.9667 25.5346 60.1975 25.5259 60.5037ZM28.8589 60.4862C28.8677 60.3462 29.9874 59.2877 31.2034 59.3926C32.4107 59.4976 33.3467 60.5999 33.3467 60.5999C33.3467 60.5999 32.1657 62.2795 31.0984 61.5709C29.83 60.7399 28.8589 60.4862 28.8589 60.4862Z" fill="white"/>
<path d="M21.1611 56.2783C21.1611 56.2783 22.8583 56.7332 25.0803 58.2379C26.9611 59.5151 29.0345 56.462 29.0345 56.462C29.0345 56.462 28.9645 56.3833 28.8507 56.2521C28.7895 56.392 28.7545 56.462 28.7545 56.462C28.7545 56.462 28.2121 56.0159 27.626 55.1935C26.9874 54.7561 26.1826 54.3537 25.2815 54.275C23.1557 54.0913 21.1699 56.0246 21.1611 56.2783ZM23.9255 56.4445C23.9255 56.322 24.8703 55.4035 25.8764 55.4997C26.8824 55.5872 27.6523 56.532 27.6523 56.532C27.6523 56.532 26.6725 57.9754 25.7801 57.3718C24.7304 56.6545 23.9255 56.4445 23.9255 56.4445Z" fill="white"/>
<path d="M17.2246 51.7031C17.2246 51.7031 18.808 52.123 20.8813 53.5315C22.631 54.7212 24.573 51.8693 24.573 51.8693C24.573 51.8693 24.5381 51.8256 24.4768 51.7643C24.2406 52.0968 24.0657 52.2892 24.0657 52.2892C24.0657 52.2892 23.6895 51.6944 23.3221 50.7408C22.7184 50.3121 21.9399 49.9097 21.065 49.831C19.088 49.6648 17.2334 51.4669 17.2246 51.7031ZM20.0153 51.9131C20.0153 51.7993 20.8988 50.942 21.8349 51.0295C22.7709 51.1082 23.497 51.9918 23.497 51.9918C23.497 51.9918 22.5785 53.339 21.7474 52.7791C20.7676 52.1143 20.0153 51.9131 20.0153 51.9131Z" fill="white"/>
<path d="M15.2817 47.1364C15.2817 47.1364 16.594 47.6788 18.2386 49.1135C19.6383 50.3295 21.4579 48.1599 21.4579 48.1599C21.4579 48.1599 21.4229 48.1074 21.3617 48.02C21.2042 48.1774 21.0993 48.2562 21.0993 48.2562C21.0993 48.2562 20.933 47.8975 20.7581 47.3114C20.2594 46.804 19.5246 46.2178 18.641 46.0166C16.9876 45.6405 15.2992 46.9352 15.2817 47.1364ZM17.3988 47.4776C17.4075 47.3813 18.2036 46.769 18.9909 46.9527C19.7783 47.1364 20.3207 47.9675 20.3207 47.9675C20.3207 47.9675 19.4546 48.9997 18.7985 48.4224C18.0199 47.74 17.3988 47.4776 17.3988 47.4776Z" fill="white"/>
<path d="M14.1709 42.2375C14.1709 42.2375 15.2032 42.9461 16.4192 44.4683C17.4514 45.7543 19.2098 44.2933 19.2098 44.2933C19.2098 44.2933 19.2011 44.2671 19.1748 44.2146C18.9911 44.3721 18.8599 44.4596 18.8599 44.4596C18.8599 44.4596 18.6674 43.9522 18.5275 43.1911C18.1775 42.7362 17.6876 42.2463 17.0928 41.9576C15.7631 41.319 14.2146 42.0713 14.1709 42.2375ZM15.9905 42.9286C16.008 42.8499 16.7429 42.4912 17.3815 42.7974C18.0201 43.1036 18.3788 43.8997 18.3788 43.8997C18.3788 43.8997 17.5477 44.5908 17.0578 43.9784C16.4804 43.2611 15.9905 42.9286 15.9905 42.9286Z" fill="white"/>
<path d="M17.4341 40.0942C17.4341 40.0942 17.3379 39.8055 17.2679 39.3506C16.9617 38.8957 16.4805 38.3184 15.8594 38.0297C14.7134 37.5048 13.4012 38.2396 13.3662 38.3883C13.3662 38.3883 14.241 38.9832 15.2821 40.2867C16.1569 41.389 17.6615 40.0242 17.6615 40.0242C17.6615 40.0242 17.6528 40.0068 17.6441 39.9805C17.5128 40.0592 17.4341 40.0942 17.4341 40.0942ZM16.8655 39.7006C16.8655 39.7006 16.1569 40.3479 15.737 39.823C15.2471 39.2019 14.8272 38.922 14.8272 38.922C14.8446 38.852 15.4658 38.5021 16.0081 38.7558C16.5593 39.0007 16.8655 39.7006 16.8655 39.7006Z" fill="white"/>
<path d="M40.477 65.5251C40.477 65.5251 40.4245 65.5951 40.337 65.7088C40.5382 65.8575 40.6607 65.9275 40.6607 65.9275C40.6607 65.9275 42.0779 61.466 40.1358 59.3227C37.835 56.7945 36.6365 54.5287 36.6365 54.5287C36.4353 54.6599 35.8667 58.4654 37.0652 61.4747C37.4326 62.402 37.9225 63.1893 38.4124 63.8192C39.6634 64.5628 40.477 65.5251 40.477 65.5251ZM40.0046 64.4753C40.0046 64.4753 38.8673 63.793 38.2987 62.367C37.7301 60.9411 38.0013 59.139 38.0975 59.0777C38.0975 59.0777 38.6661 60.1537 39.7509 61.3522C40.6782 62.3583 40.0046 64.4753 40.0046 64.4753Z" fill="white"/>
<path d="M40.4767 65.5251C40.4767 65.5251 40.4242 65.5951 40.3367 65.7088C39.9168 65.4026 39.1557 64.7815 38.4121 63.8192C39.6631 64.5628 40.4767 65.5251 40.4767 65.5251Z" fill="white"/>
<path d="M35.2104 60.425C35.2104 60.425 36.2076 55.7622 34.0818 53.9601C31.5711 51.8256 30.1714 49.7698 30.1714 49.7698C29.9877 49.936 29.769 53.8027 31.2387 56.5933C32.6996 59.3927 35.2104 60.425 35.2104 60.425ZM34.423 58.9991C34.423 58.9991 33.2333 58.5092 32.5422 57.1794C31.8511 55.8585 31.9473 54.0214 32.0348 53.9514C32.0348 53.9514 32.6996 54.9224 33.8894 55.9372C34.8954 56.7945 34.423 58.9991 34.423 58.9991Z" fill="white"/>
<path d="M27.6167 55.2022C28.1854 55.5958 28.614 56.0158 28.8415 56.252C29.1477 55.5084 30.0487 53.0151 28.9552 51.4317C27.4155 49.2185 26.7069 47.3551 26.7069 47.3551C26.5407 47.4251 25.7534 50.207 26.392 52.6302C26.6719 53.6888 27.1618 54.5548 27.6167 55.2022ZM28.5878 55.1497C28.5878 55.1497 27.7742 54.4848 27.468 53.3301C27.1618 52.1841 27.538 50.8631 27.6167 50.8281C27.6167 50.8281 27.9579 51.7117 28.684 52.7614C29.3051 53.6538 28.5878 55.1497 28.5878 55.1497Z" fill="white"/>
<path d="M27.6167 55.2023C28.1853 55.5959 28.614 56.0158 28.8414 56.252C28.7802 56.392 28.7452 56.462 28.7452 56.462C28.7452 56.462 28.2028 56.0158 27.6167 55.2023Z" fill="white"/>
<path d="M23.3217 50.7406C23.8903 51.143 24.3015 51.5717 24.4764 51.7642C25.0713 50.9156 26.0598 49.166 25.465 47.4601C24.4939 44.6519 24.2402 42.5261 24.2402 42.5261C24.0565 42.5261 22.6306 44.9144 22.6831 47.5476C22.7006 48.7898 23.0067 49.9095 23.3217 50.7406ZM24.0303 50.5919C24.0303 50.5919 23.3917 49.6034 23.3742 48.3524C23.3479 47.1014 24.0303 45.9729 24.109 45.9729C24.109 45.9729 24.2315 46.9789 24.6864 48.3086C25.08 49.4284 24.0303 50.5919 24.0303 50.5919Z" fill="white"/>
<path d="M23.3213 50.7407C23.8899 51.1431 24.3011 51.5718 24.476 51.7643C24.2398 52.0967 24.0649 52.2891 24.0649 52.2891C24.0649 52.2891 23.6887 51.6943 23.3213 50.7407Z" fill="white"/>
<path d="M20.7583 47.3202C21.047 47.6089 21.2482 47.8714 21.3619 48.0201C21.9131 47.4864 23.0941 46.113 22.7441 44.4596C22.2018 41.9401 22.2018 40.1205 22.2018 40.1205C22.053 40.0855 20.6183 41.8351 20.3996 44.0572C20.2684 45.3344 20.5221 46.5329 20.7583 47.3202ZM21.2657 47.0403C21.2657 47.0403 20.8283 46.0955 20.9333 45.0457C21.0383 43.9959 21.7119 43.1649 21.7818 43.1824C21.7818 43.1824 21.7818 44.0484 22.0355 45.2382C22.263 46.2442 21.2657 47.0403 21.2657 47.0403Z" fill="white"/>
<path d="M21.1 48.265C21.1 48.265 20.9338 47.9063 20.7588 47.3202C21.0475 47.6089 21.2487 47.8713 21.3624 48.02C21.2049 48.1775 21.1 48.265 21.1 48.265Z" fill="white"/>
<path d="M19.184 44.2146C19.7002 43.7685 20.6537 42.7362 20.4437 41.3802C20.1026 39.202 20.1901 37.6623 20.1901 37.6623C20.0588 37.6273 18.7729 38.9833 18.4842 40.8379C18.3529 41.6952 18.4229 42.535 18.5454 43.1824C18.8778 43.6373 19.0965 44.0484 19.184 44.2146ZM19.2802 43.1999C19.2802 43.1999 18.9566 42.3688 19.0965 41.4852C19.2365 40.6017 19.8489 39.963 19.9014 39.9805C19.9014 39.9805 19.8576 40.7066 20.0238 41.7389C20.1638 42.6137 19.2802 43.1999 19.2802 43.1999Z" fill="white"/>
<path d="M18.5366 43.191C18.8778 43.6372 19.0965 44.0484 19.184 44.2146C19.0003 44.372 18.869 44.4595 18.869 44.4595C18.869 44.4595 18.6678 43.9521 18.5366 43.191Z" fill="white"/>
<path d="M18.9479 37.811C18.7817 36.0089 18.9479 34.7754 18.9479 34.7754C18.8429 34.7317 17.6619 35.659 17.312 37.1199C17.1108 37.9422 17.1808 38.7733 17.2682 39.3507C17.4607 39.6481 17.5919 39.8931 17.6357 39.9893C18.0731 39.7269 19.0529 39.0008 18.9479 37.811ZM17.6094 39.167C17.6094 39.167 17.382 38.4496 17.5482 37.7585C17.7144 37.0674 18.2743 36.6213 18.3268 36.6475C18.3268 36.6475 18.248 37.2336 18.3268 38.091C18.388 38.8083 17.6094 39.167 17.6094 39.167Z" fill="white"/>
<path d="M17.635 39.9805C17.5125 40.0505 17.4338 40.0855 17.4338 40.0855C17.4338 40.0855 17.3376 39.7968 17.2676 39.3419C17.4688 39.6394 17.5913 39.8931 17.635 39.9805Z" fill="white"/>
<path d="M16.7869 37.6185C16.7869 37.6185 17.0669 35.064 16.192 33.8917C15.1598 32.5095 14.9586 31.8097 14.9586 31.8097C14.8711 31.8622 14.6261 33.673 15.1685 35.2215C15.7109 36.7611 16.7869 37.6185 16.7869 37.6185ZM15.5272 34.9503C15.2735 34.2154 15.3872 33.3581 15.4309 33.3319C15.4309 33.3319 15.5272 33.6643 16.0171 34.3204C16.4282 34.8715 16.297 36.0875 16.297 36.0875C16.297 36.0875 15.7896 35.6851 15.5272 34.9503Z" fill="white"/>
<path d="M12.3257 15.8006H12.7019C12.7456 16.1505 12.8418 16.4567 12.973 16.7367C13.1043 17.0166 13.2705 17.2528 13.4717 17.4453C13.6729 17.6377 13.9091 17.7864 14.1715 17.8914C14.434 17.9964 14.7227 18.0489 15.0289 18.0489C15.5362 18.0489 15.9299 17.9177 16.2274 17.6465C16.5248 17.3753 16.6648 17.0079 16.6648 16.553C16.6648 16.3605 16.6385 16.1855 16.5773 16.0193C16.516 15.8618 16.4198 15.7044 16.2886 15.5557C16.1486 15.4069 15.9737 15.2582 15.7375 15.1095C15.5013 14.9608 15.2213 14.7858 14.8714 14.6196C14.4515 14.4097 14.0928 14.2085 13.8041 14.016C13.5154 13.8235 13.288 13.6223 13.1218 13.4124C12.9468 13.2024 12.8331 12.9837 12.7543 12.7475C12.6844 12.5113 12.6494 12.2489 12.6494 11.9427C12.6494 11.5928 12.7019 11.2603 12.8156 10.9629C12.9293 10.6655 13.0868 10.403 13.288 10.1843C13.4892 9.9656 13.7341 9.79939 14.0141 9.67692C14.294 9.55444 14.6002 9.50195 14.9326 9.50195C15.2301 9.50195 15.51 9.55444 15.7724 9.65942C16.0349 9.7644 16.2973 9.93936 16.5598 10.1756L16.8222 9.65942H17.0584L17.1722 11.9602H16.796C16.6298 11.3303 16.3936 10.8579 16.0874 10.5517C15.7812 10.2455 15.405 10.0881 14.9676 10.0881C14.5477 10.0881 14.224 10.2018 13.9703 10.438C13.7254 10.6655 13.6029 10.9804 13.6029 11.3741C13.6029 11.5578 13.6292 11.724 13.6816 11.8727C13.7341 12.0214 13.8216 12.1614 13.9441 12.3014C14.0666 12.4326 14.224 12.5725 14.4252 12.7038C14.6264 12.835 14.8714 12.975 15.1601 13.1237C15.6675 13.3774 16.0874 13.6136 16.4198 13.8323C16.7522 14.051 17.0234 14.2697 17.2159 14.4884C17.4171 14.7071 17.5571 14.9345 17.6358 15.1795C17.7145 15.4244 17.7583 15.6956 17.7583 15.9931C17.7583 16.378 17.6883 16.7367 17.5571 17.0516C17.4171 17.3753 17.2334 17.6552 16.9797 17.8827C16.7347 18.1101 16.4373 18.2938 16.0961 18.4163C15.755 18.5475 15.3788 18.6088 14.9676 18.6088C14.5827 18.6088 14.2328 18.5475 13.9178 18.4251C13.6117 18.3026 13.288 18.0926 12.973 17.8039L12.6844 18.3726H12.4482L12.3257 15.8006Z" fill="white"/>
<path d="M26.2091 9.6156H26.4978L26.594 12.275H26.2178C26.0691 11.6014 25.7804 11.0678 25.3518 10.6829C24.9056 10.298 24.3895 10.1055 23.7859 10.1055C23.366 10.1055 22.9985 10.2017 22.6661 10.3854C22.3424 10.5691 22.0625 10.8316 21.835 11.1815C21.6076 11.5314 21.4414 11.9514 21.3189 12.45C21.1964 12.9486 21.1439 13.5173 21.1439 14.1471C21.1439 15.3894 21.3714 16.3429 21.8263 17.0078C22.2812 17.6726 22.946 18.0051 23.8121 18.0051C25.1331 18.0051 25.9729 17.2177 26.3491 15.6343H26.769V18.5125H26.4103L26.1741 17.6026C25.4568 18.285 24.5907 18.6349 23.5759 18.6349C22.9985 18.6349 22.4736 18.5299 22.0012 18.32C21.5376 18.11 21.1352 17.8214 20.8027 17.4364C20.4703 17.0515 20.2166 16.5879 20.0329 16.0455C19.8492 15.4943 19.7617 14.8907 19.7617 14.2171C19.7617 13.5173 19.8579 12.8787 20.0504 12.3013C20.2429 11.7239 20.5053 11.2253 20.8552 10.8141C21.1964 10.3942 21.6163 10.0792 22.0975 9.8518C22.5786 9.62435 23.1123 9.51062 23.6896 9.51062C24.1008 9.51062 24.4857 9.57186 24.8444 9.70308C25.2031 9.8343 25.5967 10.0443 26.0254 10.3417L26.2091 9.6156Z" fill="white"/>
<path d="M88.4165 11.8465C88.4165 12.2577 88.3552 12.6163 88.2415 12.94C88.1278 13.2637 87.9441 13.5349 87.6904 13.7623C87.4454 13.9898 87.113 14.156 86.7193 14.2785C86.3169 14.401 85.8358 14.4622 85.2584 14.4622H84.3398V16.693C84.3398 16.9817 84.3573 17.2091 84.3836 17.3928C84.4186 17.5765 84.4798 17.7165 84.576 17.8127C84.6723 17.909 84.821 17.9789 85.0047 18.0139C85.1884 18.0489 85.4421 18.0664 85.7483 18.0664V18.5038H82.144V18.0664C82.3802 18.0577 82.5727 18.0314 82.7214 17.9964C82.8701 17.9614 82.9839 17.8915 83.0626 17.804C83.1413 17.7077 83.2026 17.5853 83.2288 17.4103C83.2551 17.2441 83.2726 17.0254 83.2726 16.7542V11.3741C83.2726 11.1029 83.2638 10.8842 83.2376 10.718C83.2113 10.5518 83.1676 10.4206 83.0976 10.3243C83.0276 10.2281 82.9226 10.1669 82.7827 10.1319C82.6427 10.0969 82.4677 10.0706 82.249 10.0531V9.61572H85.4683C86.4131 9.61572 87.1392 9.80818 87.6554 10.2018C88.1628 10.6043 88.4165 11.1466 88.4165 11.8465ZM84.3398 13.8936H85.0659C85.7483 13.8936 86.2557 13.7448 86.5881 13.4474C86.9205 13.15 87.0867 12.6601 87.0867 11.9865C87.0867 11.3304 86.9555 10.8667 86.6931 10.5868C86.4306 10.3068 86.0195 10.1669 85.4596 10.1669H84.5148C84.4011 10.1669 84.3398 10.2281 84.3398 10.3593V13.8936V13.8936Z" fill="white"/>
<path d="M96.2729 11.8465C96.2729 12.4589 96.1067 12.975 95.783 13.3862C95.4593 13.7974 94.9344 14.0686 94.2171 14.2085L96.4829 17.2791C96.6666 17.5328 96.8678 17.7165 97.0952 17.8303C97.3139 17.944 97.5851 18.0227 97.8913 18.0752V18.5126H95.9142L93.4035 14.8821C93.316 14.7509 93.2286 14.6459 93.1498 14.5672C93.0711 14.4885 92.9924 14.4272 92.9049 14.3922C92.8174 14.3485 92.7212 14.3223 92.6074 14.3135C92.4937 14.3048 92.3625 14.296 92.205 14.296V16.7018C92.205 16.9904 92.2225 17.2179 92.2488 17.4016C92.2838 17.5853 92.345 17.7253 92.4412 17.8215C92.5374 17.9177 92.6862 17.9877 92.8699 18.0227C93.0536 18.0577 93.3073 18.0752 93.6135 18.0752V18.5126H90.0005V18.0752C90.2367 18.0665 90.4292 18.0402 90.5779 18.0052C90.7266 17.9702 90.8403 17.9002 90.919 17.8128C90.9978 17.7165 91.059 17.5941 91.0853 17.4191C91.1115 17.2529 91.129 17.0342 91.129 16.763V11.3829C91.129 11.1117 91.1202 10.893 91.094 10.7268C91.0678 10.5606 91.024 10.4293 90.954 10.3331C90.8841 10.2369 90.7791 10.1756 90.6391 10.1407C90.4991 10.1057 90.3242 10.0794 90.1055 10.0619V9.62451H93.3248C94.2696 9.62451 94.9957 9.81697 95.5118 10.2106C96.0105 10.6043 96.2729 11.1467 96.2729 11.8465ZM92.1963 13.7186H92.9224C93.6047 13.7186 94.1121 13.5787 94.4445 13.2987C94.777 13.0188 94.9432 12.5551 94.9432 11.9078C94.9432 11.2867 94.812 10.8405 94.5495 10.5693C94.2871 10.2981 93.8759 10.1669 93.316 10.1669H92.3712C92.2575 10.1669 92.1963 10.2281 92.1963 10.3594V13.7186V13.7186Z" fill="white"/>
<path d="M62.1552 18.4076C60.7293 14.1648 58.9796 10.0356 57.2388 5.89776C56.7401 4.16563 56.2502 2.39851 55.6991 1.00755C55.5854 0.710118 55.4279 0.482666 55.0167 0.482666C54.6056 0.482666 54.4394 0.701369 54.3169 0.998806C53.8795 2.10107 53.4596 3.41329 53.0484 4.7605C51.7799 7.52492 50.5114 10.2893 49.173 13.0275C46.601 18.3114 47.4758 23.499 49.8291 28.8266C51.3775 32.3346 52.471 37.7235 53.8795 41.2927C54.0369 41.6951 54.2556 42.0013 54.8068 42.0013C55.3579 42.0013 55.5941 41.7039 55.7516 41.3102C57.2125 37.636 58.4985 32.2122 59.9332 28.5204C61.2104 25.2399 63.2925 21.7844 62.1552 18.4076ZM59.3208 26.7096C58.2885 29.439 57.2825 33.1132 56.3115 37.5485C56.2415 37.8547 56.0315 38.0647 55.6291 38.0647C55.2267 38.0647 55.078 37.8372 54.9555 37.5398C53.9407 34.8891 53.1534 29.544 52.0336 26.9458C50.3365 23.0004 49.7066 19.1599 51.5612 15.2495C52.5235 13.22 53.4333 11.1729 54.3519 9.12582C54.6493 8.12854 54.9467 7.14875 55.2617 6.33517C55.3492 6.11647 55.4716 5.95025 55.7603 5.959C56.0578 5.959 56.1715 6.12521 56.259 6.35267C56.6526 7.38495 57.0026 8.68842 57.37 9.97439C58.621 13.0362 59.8894 16.0981 60.913 19.2387C61.7266 21.7231 60.2306 24.2863 59.3208 26.7096Z" fill="white"/>
<path d="M65.0596 47.4338C65.1033 49.3147 64.3335 50.7056 62.5313 50.9768C60.6068 51.2655 58.411 50.6269 57.7636 49.1222C57.5974 48.7461 57.5362 48.4399 57.1337 48.5099H57.125C57.1862 51.9041 58.5072 53.9774 60.9392 54.6773C62.9163 55.2459 64.8496 54.6248 65.7857 53.1289C66.8879 51.3705 66.643 49.2185 65.0596 47.4338ZM60.808 54.2574C58.6209 53.8287 57.3262 50.7056 57.4574 49.4022C57.4574 49.4022 57.9211 50.8106 58.4022 51.4142C59.0671 52.2366 61.1666 52.9014 62.89 52.7702C64.2547 52.6652 65.3307 51.3443 65.6632 50.277C66.4505 51.9566 65.147 55.1147 60.808 54.2574Z" fill="white"/>
<path d="M52.6372 48.5012C52.2348 48.4312 52.1648 48.7286 52.0073 49.1136C51.3599 50.6182 49.1642 51.2569 47.2396 50.9682C45.4462 50.697 44.6676 49.306 44.7114 47.4252C43.1192 49.2098 42.883 51.3618 43.9853 53.129C44.9213 54.6249 46.8546 55.246 48.8317 54.6774C51.2725 53.9775 52.5934 51.9042 52.6459 48.5099L52.6372 48.5012ZM48.8755 54.2312C44.5364 55.0885 43.2329 51.9305 44.0115 50.2508C44.3527 51.3181 45.42 52.6391 46.7847 52.744C48.508 52.8753 50.6076 52.2191 51.2725 51.3881C51.7536 50.7845 52.2173 49.376 52.2173 49.376C52.366 50.6795 51.0625 53.7938 48.8755 54.2312Z" fill="white"/>
<path d="M75.3474 25.3887C71.9094 23.4466 68.3314 23.884 65.2083 26.1585C60.598 29.5265 58.6122 36.1489 57.7549 41.8264C58.6297 41.6165 59.0234 39.6831 59.3296 39.0533C60.7642 36.1226 63.8523 34.618 66.8704 33.9618C71.3058 32.9996 74.3414 36.1751 73.2478 40.5317C73.1604 40.8904 73.0029 41.2403 72.8542 41.669C76.6334 40.9429 79.6865 37.5486 79.8614 33.9618C80.0539 30.2264 78.5754 27.217 75.3474 25.3887ZM73.7465 40.1993C73.8952 39.8581 74.0264 39.307 74.1139 39.027C75.1724 35.5715 71.6382 32.2997 67.3603 33.0608C64.456 33.5769 61.5253 35.1691 59.8632 37.3736C59.5133 37.8373 59.0846 38.6071 58.4897 40.0505C59.6182 35.4578 61.8578 30.7075 66.6342 28.6867C73.6065 25.7299 77.4732 30.3926 77.4557 33.367C77.4469 34.3468 77.2632 37.3561 73.7465 40.1993Z" fill="white"/>
<path d="M44.6058 26.176C41.4915 23.9014 37.9047 23.464 34.4667 25.4061C31.2387 27.2345 29.7602 30.2438 29.9439 33.988C30.1276 37.566 33.172 40.9603 36.9512 41.6952C36.8025 41.2665 36.645 40.9166 36.5575 40.5579C35.464 36.2013 38.4996 33.0258 42.9349 33.988C45.953 34.6442 49.0411 36.1576 50.4758 39.0795C50.782 39.7093 51.1757 41.6427 52.0505 41.8526C51.2019 36.1751 49.2161 29.544 44.6058 26.176ZM49.9422 37.3911C48.28 35.1778 45.3494 33.5944 42.445 33.0782C38.1672 32.3172 34.6417 35.589 35.6915 39.0445C35.7789 39.3332 35.9102 39.8843 36.0589 40.2167C32.5421 37.3823 32.3584 34.373 32.3497 33.3757C32.3322 30.4013 36.1901 25.7386 43.1711 28.6954C47.9476 30.725 49.9509 35.3878 51.3156 40.0593C50.7208 38.6246 50.2921 37.8547 49.9422 37.3911Z" fill="white"/>
<path d="M60.1514 57.153C60.0726 56.803 59.8364 56.9605 59.539 56.8643C58.9704 56.6893 58.6817 56.4619 58.4542 56.1294C57.4482 53.7587 56.3372 51.5279 55.3661 49.2184C55.2962 48.9734 55.2262 48.746 55.1562 48.536C55.0949 48.3611 55.0162 48.2299 54.8063 48.2299C54.5963 48.2299 54.5176 48.3523 54.4563 48.5273C54.3951 48.7198 54.3251 48.921 54.2639 49.1222C53.7827 50.1719 52.6892 52.5689 51.7707 54.6772C51.237 55.6308 51.1583 56.1294 50.1173 56.4444C49.8198 56.5318 49.5749 56.3831 49.5049 56.733V56.7418C50.9833 57.4679 52.1643 57.2229 53.1704 56.6456C53.634 58.054 54.1239 59.5237 54.7363 61.3608C55.2612 60.1273 55.6461 59.3662 55.9173 58.5614C56.0922 58.0365 56.2759 57.4154 56.3897 56.8905C57.4307 57.5379 58.6029 57.9315 60.1689 57.1617L60.1514 57.153ZM57.7369 56.733C57.2557 56.6543 56.5821 56.1469 56.0397 55.727C55.7685 56.4531 55.4886 57.8091 55.1299 58.8326C55.0949 58.9288 54.92 58.9201 54.885 58.8239C54.6225 58.1415 54.2989 57.3717 54.1501 56.9692C54.0452 56.6718 53.739 56.1207 53.5203 55.7358C52.7417 56.7418 51.2983 56.7943 51.2283 56.6456C51.2283 56.6456 51.6919 56.4094 52.0418 56.1469C52.6367 55.692 53.1529 54.2836 53.5465 53.3475C53.9664 52.359 54.7188 50.6093 54.9987 50.6093C55.2699 50.6093 55.9173 52.4727 56.3984 53.7937C56.5121 54.0999 57.002 55.0709 57.1595 55.3508C57.3782 55.7533 57.6931 56.3481 57.9993 56.5843C58.1655 56.7155 58.0168 56.7768 57.7369 56.733Z" fill="white"/>
<path d="M93.1753 36.4375C92.9303 37.531 92.6416 38.5983 92.318 39.6481C91.9943 40.6978 91.6181 41.7214 91.2157 42.7099C90.4196 44.6957 89.4223 46.5591 88.2938 48.2475C87.7339 49.0873 87.1391 49.8921 86.5092 50.6445C84.6371 52.884 82.4413 54.7386 80.2368 56.392C78.7496 57.503 77.2187 58.5353 75.7052 59.6113C75.5128 59.7425 75.3291 59.8825 75.1366 60.0225C73.8069 60.9935 72.5034 62.0346 71.2874 63.2331C70.5876 63.9154 70.1064 64.6502 69.2666 65.2451C66.6597 67.126 62.8892 68.6744 57.5791 70.5815C57.6316 70.6515 58.279 70.7215 58.3664 70.6952C60.5797 69.9604 62.8017 69.4355 64.3502 68.9193C65.5049 68.5344 69.1529 67.021 69.8177 66.3386C70.4826 65.6563 71.165 64.9739 71.8736 64.3616C72.5734 63.7317 73.2908 63.1281 74.0081 62.5419L74.5505 62.1045L75.1016 61.6671C75.469 61.3784 75.8365 61.0898 76.2039 60.8011C77.6736 59.6463 79.1695 58.5178 80.6479 57.3456C81.759 56.462 82.8612 55.5347 83.911 54.5374L84.1734 54.2837C84.9695 53.5226 85.7219 52.7003 86.448 51.8342L86.9204 51.2219C87.5415 50.417 88.1363 49.5685 88.6875 48.6849C90.3234 46.0167 91.6356 42.9811 92.5192 39.7443C92.8166 38.6683 93.0615 37.5748 93.2715 36.4637L93.1753 36.4375Z" fill="white"/>
<path d="M73.8599 62.9706C72.9413 63.0494 72.1015 63.3993 71.4016 63.8192C70.6581 64.7815 69.8882 65.4026 69.4771 65.7088C70.0282 66.4174 72.1452 68.8581 74.0873 67.5721C76.7643 65.8138 78.8026 65.2801 78.8026 65.2801C78.8026 64.9827 76.4231 62.7519 73.8599 62.9706ZM73.1338 66.2424C72.0665 66.951 70.8855 65.2714 70.8855 65.2714C70.8855 65.2714 71.8128 64.1691 73.0288 64.0641C74.236 63.9592 75.3646 65.0177 75.3733 65.1577C75.3733 65.1577 74.4023 65.4114 73.1338 66.2424Z" fill="white"/>
<path d="M79.3363 58.1941C76.7818 58.4216 74.8135 60.7398 74.8135 60.7398C74.8135 60.7398 77.3067 64.2828 79.5637 62.7869C82.2406 61.0285 84.279 60.4949 84.279 60.4949C84.279 60.1974 81.8995 57.9667 79.3363 58.1941ZM78.7152 61.5709C77.6479 62.2795 76.4669 60.5998 76.4669 60.5998C76.4669 60.5998 77.3942 59.4976 78.6102 59.3926C79.8174 59.2876 80.9459 60.3461 80.9547 60.4861C80.9547 60.4861 79.9836 60.7398 78.7152 61.5709Z" fill="white"/>
<path d="M84.5415 54.2749C83.6405 54.3536 82.8356 54.756 82.197 55.1934C81.6109 56.0157 81.0685 56.4619 81.0685 56.4619C81.0685 56.4619 81.0335 56.3832 80.9723 56.2519C80.8498 56.3832 80.7886 56.4619 80.7886 56.4619C80.7886 56.4619 82.8619 59.515 84.7427 58.2378C86.9648 56.7331 88.6619 56.2782 88.6619 56.2782C88.6444 56.0245 86.6673 54.0911 84.5415 54.2749ZM84.0341 57.3717C83.1418 57.9753 82.162 56.5319 82.162 56.5319C82.162 56.5319 82.9319 55.5871 83.9379 55.4996C84.9439 55.4121 85.88 56.3219 85.8887 56.4444C85.8887 56.4444 85.0839 56.6544 84.0341 57.3717Z" fill="white"/>
<path d="M88.7492 49.831C87.8744 49.9097 87.0958 50.3121 86.4922 50.7408C86.1335 51.6944 85.7486 52.2892 85.7486 52.2892C85.7486 52.2892 85.5736 52.0968 85.3374 51.7643C85.2762 51.8343 85.2412 51.8693 85.2412 51.8693C85.2412 51.8693 87.1746 54.7212 88.9329 53.5315C91.0062 52.123 92.5896 51.7031 92.5896 51.7031C92.5809 51.4669 90.735 49.6648 88.7492 49.831ZM88.0669 52.7791C87.2358 53.3477 86.3172 51.9918 86.3172 51.9918C86.3172 51.9918 87.0346 51.1082 87.9794 51.0295C88.9154 50.9508 89.799 51.7993 89.799 51.9131C89.799 51.9131 89.0466 52.1143 88.0669 52.7791Z" fill="white"/>
<path d="M91.1729 46.0254C90.298 46.2266 89.5632 46.8127 89.0558 47.3201C88.8808 47.9062 88.7146 48.2649 88.7146 48.2649C88.7146 48.2649 88.6097 48.1774 88.4522 48.0287C88.391 48.1162 88.356 48.1687 88.356 48.1687C88.356 48.1687 90.1843 50.3382 91.5753 49.1222C93.2199 47.6875 94.5321 47.1452 94.5321 47.1452C94.5146 46.9352 92.835 45.6405 91.1729 46.0254ZM91.0154 48.4224C90.3505 48.9998 89.4932 47.9675 89.4932 47.9675C89.4932 47.9675 90.0443 47.1364 90.8229 46.9527C91.6103 46.769 92.4063 47.3814 92.4151 47.4776C92.4151 47.4776 91.794 47.74 91.0154 48.4224Z" fill="white"/>
<path d="M92.7123 41.9577C92.1174 42.2464 91.6362 42.7363 91.2776 43.1912C91.1376 43.9523 90.9451 44.4597 90.9451 44.4597C90.9451 44.4597 90.8139 44.3722 90.6302 44.2147C90.604 44.2672 90.5952 44.2935 90.5952 44.2935C90.5952 44.2935 92.3623 45.7544 93.3859 44.4684C94.6019 42.9463 95.6341 42.2377 95.6341 42.2377C95.5992 42.0714 94.0507 41.3191 92.7123 41.9577ZM92.756 43.9785C92.2661 44.5909 91.435 43.8998 91.435 43.8998C91.435 43.8998 91.8025 43.1037 92.4323 42.7975C93.0709 42.4913 93.797 42.85 93.8233 42.9288C93.8233 42.9288 93.3334 43.2612 92.756 43.9785Z" fill="white"/>
<path d="M92.1786 39.9805C92.1699 40.0067 92.1611 40.0242 92.1611 40.0242C92.1611 40.0242 93.6658 41.3889 94.5406 40.2866C95.5729 38.9832 96.4565 38.3883 96.4565 38.3883C96.4215 38.2396 95.1005 37.5135 93.9633 38.0296C93.3334 38.3183 92.8522 38.8869 92.5548 39.3506C92.4848 39.8055 92.3886 40.0942 92.3886 40.0942C92.3886 40.0942 92.3011 40.0592 92.1786 39.9805ZM93.797 38.7557C94.3394 38.5108 94.9605 38.8519 94.978 38.9219C94.978 38.9219 94.5581 39.2019 94.0682 39.823C93.6571 40.3479 92.9397 39.7005 92.9397 39.7005C92.9397 39.7005 93.2547 39.0007 93.797 38.7557Z" fill="white"/>
<path d="M71.4104 63.8192C71.9003 63.1806 72.3902 62.402 72.7576 61.4747C73.9561 58.4654 73.3875 54.6599 73.1863 54.5287C73.1863 54.5287 71.9878 56.7945 69.687 59.3227C67.7449 61.4572 69.1621 65.9275 69.1621 65.9275C69.1621 65.9275 69.2846 65.8575 69.4858 65.7088C69.3983 65.5951 69.3458 65.5251 69.3458 65.5251C69.3458 65.5251 70.1507 64.5628 71.4104 63.8192ZM70.0544 61.3435C71.1392 60.145 71.7078 59.069 71.7078 59.069C71.8041 59.1302 72.0753 60.9323 71.5066 62.3583C70.938 63.7842 69.8007 64.4666 69.8007 64.4666C69.8007 64.4666 69.1359 62.3583 70.0544 61.3435Z" fill="white"/>
<path d="M69.3374 65.5252C69.3374 65.5252 69.3899 65.5952 69.4774 65.7089C69.8973 65.4027 70.6584 64.7816 71.402 63.8193C70.151 64.5629 69.3374 65.5252 69.3374 65.5252Z" fill="white"/>
<path d="M78.5843 56.5933C80.0452 53.8027 79.8352 49.936 79.6515 49.7698C79.6515 49.7698 78.2518 51.8256 75.7411 53.9601C73.6153 55.7622 74.6126 60.425 74.6126 60.425C74.6126 60.425 77.1233 59.3927 78.5843 56.5933ZM75.9248 55.9372C77.1146 54.9224 77.7794 53.9514 77.7794 53.9514C77.8669 54.0301 77.9719 55.8585 77.272 57.1794C76.5809 58.5004 75.3912 58.9991 75.3912 58.9991C75.3912 58.9991 74.9188 56.7945 75.9248 55.9372Z" fill="white"/>
<path d="M83.4211 52.6304C84.0597 50.2071 83.2724 47.4252 83.1062 47.3552C83.1062 47.3552 82.3976 49.2273 80.8579 51.4319C79.7644 53.0153 80.6654 55.5085 80.9716 56.2521C81.1991 56.0071 81.6277 55.5872 82.1964 55.2023C82.66 54.5549 83.1412 53.6889 83.4211 52.6304ZM81.1291 52.7616C81.8552 51.7118 82.1964 50.8282 82.1964 50.8282C82.2751 50.8632 82.6513 52.1754 82.3451 53.3302C82.0389 54.4762 81.2253 55.1498 81.2253 55.1498C81.2253 55.1498 80.508 53.6539 81.1291 52.7616Z" fill="white"/>
<path d="M82.1969 55.2023C81.6283 55.5959 81.1996 56.0158 80.9722 56.252C81.0334 56.392 81.0684 56.462 81.0684 56.462C81.0684 56.462 81.6108 56.0158 82.1969 55.2023Z" fill="white"/>
<path d="M87.14 47.5563C87.1925 44.9144 85.7578 42.5349 85.5828 42.5349C85.5828 42.5349 85.3291 44.6607 84.3581 47.4689C83.7632 49.1747 84.743 50.9244 85.3466 51.7729C85.5216 51.5805 85.9328 51.1518 86.5014 50.7494C86.8076 49.9096 87.1138 48.7898 87.14 47.5563ZM85.1192 48.3087C85.5828 46.979 85.6966 45.9729 85.6966 45.9729C85.784 45.9729 86.4576 47.1014 86.4402 48.3524C86.4139 49.6034 85.784 50.5919 85.784 50.5919C85.784 50.5919 84.7343 49.4284 85.1192 48.3087Z" fill="white"/>
<path d="M86.4922 50.7407C85.9235 51.1431 85.5124 51.5718 85.3374 51.7643C85.5736 52.0967 85.7486 52.2891 85.7486 52.2891C85.7486 52.2891 86.1247 51.6943 86.4922 50.7407Z" fill="white"/>
<path d="M89.4224 44.0572C89.2037 41.8351 87.7778 40.0855 87.6203 40.1205C87.6203 40.1205 87.6203 41.9401 87.0779 44.4596C86.7193 46.113 87.909 47.4864 88.4601 48.0201C88.5739 47.8714 88.7838 47.6089 89.0638 47.3202C89.2912 46.5329 89.5449 45.3344 89.4224 44.0572ZM87.769 45.2382C88.0227 44.0484 88.0227 43.1824 88.0227 43.1824C88.0927 43.1649 88.7751 43.9959 88.8713 45.0457C88.9763 46.0955 88.5389 47.0403 88.5389 47.0403C88.5389 47.0403 87.5503 46.2442 87.769 45.2382Z" fill="white"/>
<path d="M88.7229 48.265C88.7229 48.265 88.8891 47.9063 89.0641 47.3202C88.7754 47.6089 88.5742 47.8713 88.4604 48.02C88.6092 48.1775 88.7229 48.265 88.7229 48.265Z" fill="white"/>
<path d="M91.2772 43.191C91.3909 42.5349 91.4696 41.7038 91.3384 40.8465C91.0497 38.9919 89.755 37.6272 89.6325 37.6709C89.6325 37.6709 89.72 39.2106 89.3788 41.3889C89.1689 42.7449 90.1224 43.7771 90.6386 44.2233C90.7173 44.0483 90.936 43.6372 91.2772 43.191ZM89.79 41.7476C89.9475 40.7153 89.9125 39.9892 89.9125 39.9892C89.9737 39.9717 90.5861 40.6103 90.7173 41.4939C90.8573 42.3774 90.5336 43.2085 90.5336 43.2085C90.5336 43.2085 89.65 42.6136 89.79 41.7476Z" fill="white"/>
<path d="M91.2777 43.191C90.9366 43.6372 90.7179 44.0484 90.6304 44.2146C90.8141 44.372 90.9453 44.4595 90.9453 44.4595C90.9453 44.4595 91.1465 43.9521 91.2777 43.191Z" fill="white"/>
<path d="M92.1779 39.9805C92.2216 39.8843 92.3441 39.6393 92.5453 39.3419C92.6415 38.7645 92.7028 37.9334 92.5016 37.1111C92.1516 35.6502 90.9706 34.7229 90.8657 34.7666C90.8657 34.7666 91.0231 36.0001 90.8657 37.8022C90.7607 39.0007 91.7492 39.7268 92.1779 39.9805ZM91.4868 38.0909C91.5655 37.2336 91.4868 36.6475 91.4868 36.6475C91.5393 36.6212 92.0904 37.0674 92.2654 37.7585C92.4316 38.4496 92.2041 39.1669 92.2041 39.1669C92.2041 39.1669 91.4255 38.8083 91.4868 38.0909Z" fill="white"/>
<path d="M92.1787 39.9805C92.3012 40.0505 92.3799 40.0855 92.3799 40.0855C92.3799 40.0855 92.4761 39.7968 92.5461 39.3419C92.3537 39.6394 92.2225 39.8931 92.1787 39.9805Z" fill="white"/>
<path d="M94.6454 35.2216C95.1878 33.6819 94.9429 31.8623 94.8554 31.8098C94.8554 31.8098 94.6542 32.5184 93.6219 33.8919C92.7471 35.0554 93.027 37.6186 93.027 37.6186C93.027 37.6186 94.103 36.7613 94.6454 35.2216ZM93.5169 36.0877C93.5169 36.0877 93.3857 34.8804 93.7968 34.3205C94.2867 33.6644 94.383 33.332 94.383 33.332C94.4267 33.3582 94.5404 34.2156 94.2867 34.9504C94.033 35.6852 93.5169 36.0877 93.5169 36.0877Z" fill="white"/>
<path d="M16.6382 36.4375C16.8832 37.531 17.1719 38.5983 17.4955 39.6481C17.8192 40.6978 18.1954 41.7214 18.5978 42.7099C19.3939 44.6957 20.3912 46.5591 21.5197 48.2475C22.0796 49.0873 22.6744 49.8921 23.3043 50.6445C25.1764 52.884 27.3722 54.7386 29.5767 56.392C31.0639 57.503 32.5948 58.5353 34.1083 59.6113C34.3007 59.7425 34.4844 59.8825 34.6769 60.0225C36.0066 60.9935 37.3101 62.0346 38.5261 63.2331C39.2259 63.9154 39.7071 64.6502 40.5469 65.2451C43.1538 67.126 46.9243 68.6744 52.2344 70.5815C52.1819 70.6515 51.5345 70.7215 51.4471 70.6952C49.2338 69.9604 47.0118 69.4355 45.4633 68.9193C44.3086 68.5344 40.6606 67.021 39.9958 66.3386C39.3309 65.6563 38.6485 64.9739 37.9399 64.3616C37.2401 63.7317 36.5227 63.1281 35.8054 62.5419L35.263 62.1045L34.7119 61.6671C34.3445 61.3784 33.977 61.0898 33.6096 60.8011C32.1399 59.6463 30.644 58.5178 29.1656 57.3456C28.0545 56.462 26.9523 55.5347 25.9025 54.5374L25.6401 54.2837C24.844 53.5226 24.0916 52.7003 23.3655 51.8342L22.8931 51.2219C22.272 50.417 21.6771 49.5685 21.126 48.6849C19.4901 46.0167 18.1779 42.9811 17.2943 39.7443C16.9969 38.6683 16.7519 37.5748 16.542 36.4637L16.6382 36.4375Z" fill="white"/>
<path d="M31.0024 65.28C31.0024 65.28 33.0495 65.8137 35.7177 67.572C37.6598 68.8493 39.7768 66.4173 40.328 65.7087C39.908 65.4025 39.147 64.7814 38.4034 63.8191C37.7035 63.3992 36.8637 63.0492 35.9451 62.9705C33.3994 62.7518 31.0112 64.9826 31.0024 65.28ZM34.4492 65.1575C34.458 65.0176 35.5777 63.959 36.7937 64.064C38.001 64.169 38.937 65.2713 38.937 65.2713C38.937 65.2713 37.756 66.9509 36.6887 66.2423C35.4115 65.4112 34.4492 65.1575 34.4492 65.1575Z" fill="white"/>
<path d="M25.5259 60.5037C25.5259 60.5037 27.5729 61.0373 30.2411 62.7957C32.5069 64.2829 34.9914 60.7486 34.9914 60.7486C34.9914 60.7486 33.023 58.4216 30.4686 58.2029C27.9229 57.9667 25.5346 60.1975 25.5259 60.5037ZM28.8589 60.4862C28.8677 60.3462 29.9874 59.2877 31.2034 59.3926C32.4107 59.4976 33.3467 60.5999 33.3467 60.5999C33.3467 60.5999 32.1657 62.2795 31.0984 61.5709C29.83 60.7399 28.8589 60.4862 28.8589 60.4862Z" fill="white"/>
<path d="M21.1611 56.2783C21.1611 56.2783 22.8583 56.7332 25.0803 58.2379C26.9611 59.5151 29.0345 56.462 29.0345 56.462C29.0345 56.462 28.9645 56.3833 28.8507 56.2521C28.7895 56.392 28.7545 56.462 28.7545 56.462C28.7545 56.462 28.2121 56.0159 27.626 55.1935C26.9874 54.7561 26.1826 54.3537 25.2815 54.275C23.1557 54.0913 21.1699 56.0246 21.1611 56.2783ZM23.9255 56.4445C23.9255 56.322 24.8703 55.4035 25.8764 55.4997C26.8824 55.5872 27.6523 56.532 27.6523 56.532C27.6523 56.532 26.6725 57.9754 25.7801 57.3718C24.7304 56.6545 23.9255 56.4445 23.9255 56.4445Z" fill="white"/>
<path d="M17.2246 51.7031C17.2246 51.7031 18.808 52.123 20.8813 53.5315C22.631 54.7212 24.573 51.8693 24.573 51.8693C24.573 51.8693 24.5381 51.8256 24.4768 51.7643C24.2406 52.0968 24.0657 52.2892 24.0657 52.2892C24.0657 52.2892 23.6895 51.6944 23.3221 50.7408C22.7184 50.3121 21.9399 49.9097 21.065 49.831C19.088 49.6648 17.2334 51.4669 17.2246 51.7031ZM20.0153 51.9131C20.0153 51.7993 20.8988 50.942 21.8349 51.0295C22.7709 51.1082 23.497 51.9918 23.497 51.9918C23.497 51.9918 22.5785 53.339 21.7474 52.7791C20.7676 52.1143 20.0153 51.9131 20.0153 51.9131Z" fill="white"/>
<path d="M15.2817 47.1364C15.2817 47.1364 16.594 47.6788 18.2386 49.1135C19.6383 50.3295 21.4579 48.1599 21.4579 48.1599C21.4579 48.1599 21.4229 48.1074 21.3617 48.02C21.2042 48.1774 21.0993 48.2562 21.0993 48.2562C21.0993 48.2562 20.933 47.8975 20.7581 47.3114C20.2594 46.804 19.5246 46.2178 18.641 46.0166C16.9876 45.6405 15.2992 46.9352 15.2817 47.1364ZM17.3988 47.4776C17.4075 47.3813 18.2036 46.769 18.9909 46.9527C19.7783 47.1364 20.3207 47.9675 20.3207 47.9675C20.3207 47.9675 19.4546 48.9997 18.7985 48.4224C18.0199 47.74 17.3988 47.4776 17.3988 47.4776Z" fill="white"/>
<path d="M14.1709 42.2375C14.1709 42.2375 15.2032 42.9461 16.4192 44.4683C17.4514 45.7543 19.2098 44.2933 19.2098 44.2933C19.2098 44.2933 19.2011 44.2671 19.1748 44.2146C18.9911 44.3721 18.8599 44.4596 18.8599 44.4596C18.8599 44.4596 18.6674 43.9522 18.5275 43.1911C18.1775 42.7362 17.6876 42.2463 17.0928 41.9576C15.7631 41.319 14.2146 42.0713 14.1709 42.2375ZM15.9905 42.9286C16.008 42.8499 16.7429 42.4912 17.3815 42.7974C18.0201 43.1036 18.3788 43.8997 18.3788 43.8997C18.3788 43.8997 17.5477 44.5908 17.0578 43.9784C16.4804 43.2611 15.9905 42.9286 15.9905 42.9286Z" fill="white"/>
<path d="M17.4341 40.0942C17.4341 40.0942 17.3379 39.8055 17.2679 39.3506C16.9617 38.8957 16.4805 38.3184 15.8594 38.0297C14.7134 37.5048 13.4012 38.2396 13.3662 38.3883C13.3662 38.3883 14.241 38.9832 15.2821 40.2867C16.1569 41.389 17.6615 40.0242 17.6615 40.0242C17.6615 40.0242 17.6528 40.0068 17.6441 39.9805C17.5128 40.0592 17.4341 40.0942 17.4341 40.0942ZM16.8655 39.7006C16.8655 39.7006 16.1569 40.3479 15.737 39.823C15.2471 39.2019 14.8272 38.922 14.8272 38.922C14.8446 38.852 15.4658 38.5021 16.0081 38.7558C16.5593 39.0007 16.8655 39.7006 16.8655 39.7006Z" fill="white"/>
<path d="M40.477 65.5251C40.477 65.5251 40.4245 65.5951 40.337 65.7088C40.5382 65.8575 40.6607 65.9275 40.6607 65.9275C40.6607 65.9275 42.0779 61.466 40.1358 59.3227C37.835 56.7945 36.6365 54.5287 36.6365 54.5287C36.4353 54.6599 35.8667 58.4654 37.0652 61.4747C37.4326 62.402 37.9225 63.1893 38.4124 63.8192C39.6634 64.5628 40.477 65.5251 40.477 65.5251ZM40.0046 64.4753C40.0046 64.4753 38.8673 63.793 38.2987 62.367C37.7301 60.9411 38.0013 59.139 38.0975 59.0777C38.0975 59.0777 38.6661 60.1537 39.7509 61.3522C40.6782 62.3583 40.0046 64.4753 40.0046 64.4753Z" fill="white"/>
<path d="M40.4767 65.5251C40.4767 65.5251 40.4242 65.5951 40.3367 65.7088C39.9168 65.4026 39.1557 64.7815 38.4121 63.8192C39.6631 64.5628 40.4767 65.5251 40.4767 65.5251Z" fill="white"/>
<path d="M35.2104 60.425C35.2104 60.425 36.2076 55.7622 34.0818 53.9601C31.5711 51.8256 30.1714 49.7698 30.1714 49.7698C29.9877 49.936 29.769 53.8027 31.2387 56.5933C32.6996 59.3927 35.2104 60.425 35.2104 60.425ZM34.423 58.9991C34.423 58.9991 33.2333 58.5092 32.5422 57.1794C31.8511 55.8585 31.9473 54.0214 32.0348 53.9514C32.0348 53.9514 32.6996 54.9224 33.8894 55.9372C34.8954 56.7945 34.423 58.9991 34.423 58.9991Z" fill="white"/>
<path d="M27.6167 55.2022C28.1854 55.5958 28.614 56.0158 28.8415 56.252C29.1477 55.5084 30.0487 53.0151 28.9552 51.4317C27.4155 49.2185 26.7069 47.3551 26.7069 47.3551C26.5407 47.4251 25.7534 50.207 26.392 52.6302C26.6719 53.6888 27.1618 54.5548 27.6167 55.2022ZM28.5878 55.1497C28.5878 55.1497 27.7742 54.4848 27.468 53.3301C27.1618 52.1841 27.538 50.8631 27.6167 50.8281C27.6167 50.8281 27.9579 51.7117 28.684 52.7614C29.3051 53.6538 28.5878 55.1497 28.5878 55.1497Z" fill="white"/>
<path d="M27.6167 55.2023C28.1853 55.5959 28.614 56.0158 28.8414 56.252C28.7802 56.392 28.7452 56.462 28.7452 56.462C28.7452 56.462 28.2028 56.0158 27.6167 55.2023Z" fill="white"/>
<path d="M23.3217 50.7406C23.8903 51.143 24.3015 51.5717 24.4764 51.7642C25.0713 50.9156 26.0598 49.166 25.465 47.4601C24.4939 44.6519 24.2402 42.5261 24.2402 42.5261C24.0565 42.5261 22.6306 44.9144 22.6831 47.5476C22.7006 48.7898 23.0067 49.9095 23.3217 50.7406ZM24.0303 50.5919C24.0303 50.5919 23.3917 49.6034 23.3742 48.3524C23.3479 47.1014 24.0303 45.9729 24.109 45.9729C24.109 45.9729 24.2315 46.9789 24.6864 48.3086C25.08 49.4284 24.0303 50.5919 24.0303 50.5919Z" fill="white"/>
<path d="M23.3213 50.7407C23.8899 51.1431 24.3011 51.5718 24.476 51.7643C24.2398 52.0967 24.0649 52.2891 24.0649 52.2891C24.0649 52.2891 23.6887 51.6943 23.3213 50.7407Z" fill="white"/>
<path d="M20.7583 47.3202C21.047 47.6089 21.2482 47.8714 21.3619 48.0201C21.9131 47.4864 23.0941 46.113 22.7441 44.4596C22.2018 41.9401 22.2018 40.1205 22.2018 40.1205C22.053 40.0855 20.6183 41.8351 20.3996 44.0572C20.2684 45.3344 20.5221 46.5329 20.7583 47.3202ZM21.2657 47.0403C21.2657 47.0403 20.8283 46.0955 20.9333 45.0457C21.0383 43.9959 21.7119 43.1649 21.7818 43.1824C21.7818 43.1824 21.7818 44.0484 22.0355 45.2382C22.263 46.2442 21.2657 47.0403 21.2657 47.0403Z" fill="white"/>
<path d="M21.1 48.265C21.1 48.265 20.9338 47.9063 20.7588 47.3202C21.0475 47.6089 21.2487 47.8713 21.3624 48.02C21.2049 48.1775 21.1 48.265 21.1 48.265Z" fill="white"/>
<path d="M19.184 44.2146C19.7002 43.7685 20.6537 42.7362 20.4437 41.3802C20.1026 39.202 20.1901 37.6623 20.1901 37.6623C20.0588 37.6273 18.7729 38.9833 18.4842 40.8379C18.3529 41.6952 18.4229 42.535 18.5454 43.1824C18.8778 43.6373 19.0965 44.0484 19.184 44.2146ZM19.2802 43.1999C19.2802 43.1999 18.9566 42.3688 19.0965 41.4852C19.2365 40.6017 19.8489 39.963 19.9014 39.9805C19.9014 39.9805 19.8576 40.7066 20.0238 41.7389C20.1638 42.6137 19.2802 43.1999 19.2802 43.1999Z" fill="white"/>
<path d="M18.5366 43.191C18.8778 43.6372 19.0965 44.0484 19.184 44.2146C19.0003 44.372 18.869 44.4595 18.869 44.4595C18.869 44.4595 18.6678 43.9521 18.5366 43.191Z" fill="white"/>
<path d="M18.9479 37.811C18.7817 36.0089 18.9479 34.7754 18.9479 34.7754C18.8429 34.7317 17.6619 35.659 17.312 37.1199C17.1108 37.9422 17.1808 38.7733 17.2682 39.3507C17.4607 39.6481 17.5919 39.8931 17.6357 39.9893C18.0731 39.7269 19.0529 39.0008 18.9479 37.811ZM17.6094 39.167C17.6094 39.167 17.382 38.4496 17.5482 37.7585C17.7144 37.0674 18.2743 36.6213 18.3268 36.6475C18.3268 36.6475 18.248 37.2336 18.3268 38.091C18.388 38.8083 17.6094 39.167 17.6094 39.167Z" fill="white"/>
<path d="M17.635 39.9805C17.5125 40.0505 17.4338 40.0855 17.4338 40.0855C17.4338 40.0855 17.3376 39.7968 17.2676 39.3419C17.4688 39.6394 17.5913 39.8931 17.635 39.9805Z" fill="white"/>
<path d="M16.7869 37.6185C16.7869 37.6185 17.0669 35.064 16.192 33.8917C15.1598 32.5095 14.9586 31.8097 14.9586 31.8097C14.8711 31.8622 14.6261 33.673 15.1685 35.2215C15.7109 36.7611 16.7869 37.6185 16.7869 37.6185ZM15.5272 34.9503C15.2735 34.2154 15.3872 33.3581 15.4309 33.3319C15.4309 33.3319 15.5272 33.6643 16.0171 34.3204C16.4282 34.8715 16.297 36.0875 16.297 36.0875C16.297 36.0875 15.7896 35.6851 15.5272 34.9503Z" fill="white"/>
<path d="M22.1855 100.43V97.0271H23.0254V98.3918H24.3988V97.0271H25.2386V100.43H24.3988V99.0654H23.0254V100.43H22.1855Z" fill="white"/>
<path d="M30.4082 98.733C30.4082 99.1092 30.3382 99.4241 30.1895 99.6866C30.0408 99.949 29.8396 100.141 29.5859 100.281C29.3322 100.413 29.0523 100.483 28.7373 100.483C28.4224 100.483 28.1425 100.413 27.8888 100.281C27.6351 100.15 27.4426 99.949 27.2939 99.6866C27.1452 99.4241 27.0752 99.1092 27.0752 98.733C27.0752 98.3569 27.1452 98.0419 27.2939 97.7795C27.4426 97.517 27.6438 97.3246 27.8888 97.1846C28.1425 97.0534 28.4224 96.9834 28.7373 96.9834C29.0523 96.9834 29.3322 97.0534 29.5859 97.1846C29.8396 97.3158 30.0408 97.517 30.1895 97.7795C30.3382 98.0419 30.4082 98.3569 30.4082 98.733ZM29.5509 98.733C29.5509 98.5143 29.5159 98.3219 29.4547 98.1731C29.3934 98.0244 29.2972 97.902 29.1747 97.8232C29.0523 97.7445 28.9123 97.7095 28.7461 97.7095C28.5799 97.7095 28.4312 97.7445 28.3174 97.8232C28.2037 97.902 28.1075 98.0157 28.0375 98.1731C27.9675 98.3306 27.9413 98.5143 27.9413 98.733C27.9413 98.9517 27.9763 99.1442 28.0375 99.2929C28.0987 99.4416 28.195 99.5641 28.3174 99.6428C28.4399 99.7216 28.5799 99.7653 28.7461 99.7653C28.9123 99.7653 29.061 99.7216 29.1747 99.6428C29.2972 99.5641 29.3847 99.4504 29.4547 99.2929C29.5247 99.1354 29.5509 98.9517 29.5509 98.733Z" fill="white"/>
<path d="M31.9741 97.7009V97.036H34.9222V97.7009H33.8637V100.439H33.0326V97.7009H31.9741Z" fill="white"/>
<path d="M36.6812 100.43V97.0271H39.1131V97.692H37.521V98.3918H38.9907V99.0654H37.521V99.7653H39.1131V100.43H36.6812Z" fill="white"/>
<path d="M40.9844 100.43V97.0271H41.8242V99.7653H43.2764V100.43H40.9844Z" fill="white"/>
<path d="M48.7352 100.43H47.4404V97.0271H48.7264C49.0851 97.0271 49.3913 97.0971 49.645 97.2283C49.8987 97.3595 50.0999 97.5607 50.2398 97.8144C50.3798 98.0681 50.4498 98.3743 50.4498 98.7242C50.4498 99.0829 50.3798 99.3803 50.2398 99.634C50.0999 99.8877 49.8987 100.08 49.645 100.22C49.3913 100.36 49.0851 100.43 48.7352 100.43ZM48.2802 99.7303H48.6914C48.8839 99.7303 49.0501 99.6953 49.1901 99.634C49.33 99.5728 49.4263 99.4591 49.4962 99.3191C49.5662 99.1704 49.6012 98.9779 49.6012 98.733C49.6012 98.488 49.5662 98.2956 49.4962 98.1469C49.4263 97.9981 49.3213 97.8932 49.1813 97.8319C49.0413 97.7707 48.8751 97.7357 48.6739 97.7357H48.2715V99.7303H48.2802Z" fill="white"/>
<path d="M52.2876 100.43V97.0271H54.7196V97.692H53.1274V98.3918H54.5971V99.0654H53.1274V99.7653H54.7196V100.43H52.2876Z" fill="white"/>
<path d="M62.1378 98.2606H61.2893C61.2805 98.1731 61.2543 98.0944 61.2193 98.0332C61.1843 97.9632 61.1406 97.902 61.0793 97.8582C61.0181 97.8057 60.9568 97.7707 60.8781 97.7445C60.7994 97.7182 60.7119 97.7095 60.6157 97.7095C60.4495 97.7095 60.3007 97.7532 60.1783 97.832C60.0558 97.9107 59.9596 98.0332 59.8983 98.1819C59.8283 98.3306 59.8021 98.5231 59.8021 98.733C59.8021 98.9605 59.8371 99.1442 59.8983 99.3017C59.9683 99.4504 60.0558 99.5728 60.1783 99.6428C60.3007 99.7128 60.4407 99.7566 60.6069 99.7566C60.7032 99.7566 60.7819 99.7478 60.8606 99.7216C60.9394 99.6953 61.0093 99.6603 61.0618 99.6166C61.1231 99.5728 61.1668 99.5204 61.2105 99.4504C61.2455 99.3891 61.2718 99.3104 61.2893 99.2317L62.1378 99.2404C62.1204 99.3891 62.0766 99.5379 62.0066 99.6866C61.9366 99.8353 61.8317 99.9665 61.7004 100.089C61.5692 100.211 61.4118 100.308 61.228 100.378C61.0443 100.448 60.8256 100.483 60.5894 100.483C60.2745 100.483 59.9946 100.413 59.7409 100.281C59.4872 100.15 59.2947 99.949 59.1547 99.6866C59.006 99.4241 58.936 99.1092 58.936 98.733C58.936 98.3569 59.006 98.0419 59.1547 97.7795C59.3035 97.517 59.4959 97.3246 59.7496 97.1846C60.0033 97.0534 60.2832 96.9834 60.5894 96.9834C60.7994 96.9834 60.9918 97.0096 61.1756 97.0709C61.3593 97.1321 61.5167 97.2108 61.648 97.3246C61.7879 97.4296 61.8929 97.5695 61.9804 97.727C62.0679 97.8845 62.1204 98.0594 62.1378 98.2606Z" fill="white"/>
<path d="M63.9663 100.43V97.0271H64.8061V98.3918H66.1796V97.0271H67.0194V100.43H66.1796V99.0654H64.8061V100.43H63.9663Z" fill="white"/>
<path d="M69.6525 100.43H68.7427L69.9237 97.0271H71.0434L72.2244 100.43H71.3146L70.4923 97.8844H70.4661L69.6525 100.43ZM69.53 99.0917H71.4284V99.7128H69.53V99.0917Z" fill="white"/>
<path d="M73.9478 100.43V97.0271H75.3912C75.6536 97.0271 75.8811 97.0708 76.0648 97.1671C76.2573 97.2545 76.406 97.3858 76.5022 97.5607C76.5984 97.7357 76.6597 97.9282 76.6597 98.1644C76.6597 98.4006 76.6072 98.6018 76.5022 98.768C76.3972 98.9342 76.2485 99.0567 76.0561 99.1441C75.8636 99.2316 75.6361 99.2754 75.365 99.2754H74.4551V98.628H75.2075C75.3387 98.628 75.4437 98.6105 75.5312 98.5755C75.6186 98.5405 75.6799 98.4968 75.7236 98.4268C75.7674 98.3568 75.7936 98.2693 75.7936 98.1644C75.7936 98.0594 75.7674 97.9719 75.7236 97.9019C75.6799 97.8319 75.6099 97.7794 75.5312 97.7444C75.4437 97.7095 75.3387 97.692 75.2162 97.692H74.7963V100.43H73.9478ZM75.9161 98.873L76.7821 100.43H75.8636L75.015 98.873H75.9161Z" fill="white"/>
<path d="M78.4707 97.0271H79.5117L80.3953 99.1354H80.439L81.3226 97.0271H82.3636V100.43H81.5413V98.3393H81.5151L80.6752 100.404H80.1504L79.3105 98.3218H79.2843V100.421H78.4707V97.0271Z" fill="white"/>
<path d="M84.2446 100.43V97.0271H86.6766V97.692H85.0844V98.3918H86.5541V99.0654H85.0844V99.7653H86.6766V100.43H84.2446Z" fill="white"/>
</svg>
