<svg width="61" height="23" viewBox="0 0 61 23" fill="none" xmlns="http://www.w3.org/2000/svg">
<path d="M33.3953 14.1046C33.3953 14.2156 33.389 14.3259 33.3759 14.4351L39.175 16.5246C39.4018 15.7403 39.524 14.9121 39.524 14.0556C39.524 9.9358 36.7112 6.46739 32.8842 5.42969L31.8359 11.5833C32.7773 12.0579 33.3953 13.0236 33.3953 14.1046Z" fill="white"/>
<path d="M27.6836 14.1048C27.6836 13.0272 28.2992 12.0627 29.2372 11.5869L28.1912 5.40625C24.3193 6.41468 21.4639 9.90447 21.4639 14.0559C21.4639 14.9314 21.5918 15.7777 21.8283 16.5778L27.6904 14.3002C27.6859 14.2355 27.6836 14.1702 27.6836 14.1048Z" fill="white"/>
<path d="M30.5403 16.9338C29.9672 16.9338 29.409 16.761 28.94 16.4468L24.1943 20.4625C25.8213 22.0323 28.0435 23.0001 30.4942 23.0001C32.9591 23.0001 35.1927 22.0216 36.8225 20.4354L31.9859 16.5447C31.5504 16.7981 31.053 16.9338 30.5403 16.9338Z" fill="white"/>
<path d="M43.1075 19.338C42.8733 18.8099 42.4191 18.4079 41.8751 18.2007L32.5947 14.8567C32.6822 14.6225 32.73 14.3697 32.73 14.105C32.73 13.0949 32.033 12.2464 31.0893 12.0054L32.7015 2.54049C32.83 1.74096 32.5236 0.919464 31.8687 0.434676C31.4992 0.162159 31.0404 0 30.5442 0C29.8182 0 29.1736 0.346277 28.7699 0.881177C28.4215 1.34344 28.2918 1.93296 28.3777 2.50333L29.9859 12.0077C29.0456 12.2509 28.3521 13.0977 28.3521 14.105C28.3521 14.3179 28.3839 14.5239 28.4414 14.7182L19.1234 18.3386C18.3651 18.641 17.8125 19.3245 17.7301 20.1302C17.6835 20.5846 17.7796 21.057 18.0348 21.4788C18.4089 22.0953 19.0404 22.4641 19.7112 22.5311C20.2905 22.5891 20.8675 22.3954 21.3172 22.0289L28.9376 15.5808C29.3373 16.0065 29.9075 16.2733 30.5407 16.2733C31.1058 16.2733 31.6209 16.0611 32.0091 15.7125L39.712 21.9089C40.351 22.4134 41.2241 22.5536 41.9723 22.2282C42.3946 22.0446 42.7624 21.7293 43.0069 21.3014C43.3656 20.6753 43.3787 19.9495 43.1075 19.338Z" fill="white"/>
<path d="M60.4291 7.67188H37.7314C38.0504 8.02716 38.342 8.4061 38.6052 8.80417H40.1344L46.4564 18.7032H43.46C43.5424 18.8265 43.6146 18.956 43.6743 19.0906C43.7806 19.3299 43.85 19.5804 43.8852 19.8349H53.3453C53.6608 19.8349 53.9166 19.5816 53.9166 19.2691C53.9166 18.9566 53.6608 18.7032 53.3453 18.7032H48.8168L55.1388 8.80361H60.4285C60.744 8.80361 60.9998 8.55024 60.9998 8.23774C61.0004 7.92525 60.7446 7.67188 60.4291 7.67188ZM47.6372 18.4341L41.4874 8.80417H53.7875L47.6372 18.4341Z" fill="white"/>
<path d="M0.57132 7.67202C0.255815 7.67202 0 7.9254 0 8.23789C0 8.55039 0.255815 8.80376 0.57132 8.80376H5.90648L12.2285 18.7033H7.69435C7.37884 18.7033 7.12303 18.9567 7.12303 19.2692C7.12303 19.5817 7.37884 19.8351 7.69435 19.8351H17.1498C17.2294 19.4207 17.4045 19.035 17.6569 18.7028H14.59L20.912 8.8032H22.3764C22.6391 8.40456 22.9324 8.02675 23.2513 7.6709H0.57132V7.67202ZM13.4093 18.4342L7.25946 8.80432H19.559L13.4093 18.4342Z" fill="white"/>
</svg>
