<svg width="42" height="41" viewBox="0 0 42 41" fill="none" xmlns="http://www.w3.org/2000/svg">
<path fill-rule="evenodd" clip-rule="evenodd" d="M20.9479 0C32.1465 0 41.2249 9.0784 41.2249 20.277C41.2249 31.4758 32.1465 40.554 20.9479 40.554C9.7493 40.554 0.670898 31.4758 0.670898 20.277C0.670898 9.0784 9.7493 0 20.9479 0Z" fill="#F8F9FA"/>
<path fill-rule="evenodd" clip-rule="evenodd" d="M14.9313 18.818L8.71166 21.4984C8.70216 21.3911 8.69677 21.2826 8.69677 21.173C8.69677 19.2055 10.2915 17.6107 12.2589 17.6107C13.3234 17.6107 14.2787 18.0779 14.9313 18.818ZM12.2589 14.9467C15.1938 14.9467 17.654 16.9775 18.3119 19.7105L15.8026 20.8077L15.802 20.8024L13.2345 21.9304L7.07588 24.6234C6.39392 23.602 6.03084 22.4011 6.03272 21.173C6.03272 17.7343 8.82018 14.9467 12.2589 14.9467ZM16.6096 25.627C14.3804 27.7427 11.431 27.9504 8.83966 26.3772L10.3039 24.151C11.7784 25.0324 13.2599 24.8895 14.748 23.7211L16.6096 25.6268V25.627ZM19.1448 24.0856L19.129 12.3114H21.3598V23.7678C21.3598 23.8776 21.3734 23.9744 21.5176 24.0305L23.4581 24.7851L22.5838 27.0584L20.3106 26.0967C19.4487 25.7318 19.1463 25.2034 19.1447 24.0856H19.1448Z" fill="#202833"/>
<path fill-rule="evenodd" clip-rule="evenodd" d="M27.5435 23.8878C26.7074 23.2375 26.1689 22.2228 26.1689 21.0816C26.1689 20.0671 26.5948 19.1526 27.2767 18.5052L25.8359 16.1701C24.3876 17.3175 23.4575 19.0905 23.4575 21.0816C23.4575 23.228 24.5373 25.1213 26.1827 26.2503L27.5435 23.8878Z" fill="#202833"/>
<path fill-rule="evenodd" clip-rule="evenodd" d="M28.5208 17.7376C28.9065 17.5989 29.3133 17.5282 29.7231 17.5285C31.2444 17.5285 32.5418 18.4852 33.0486 19.8293L35.8094 19.5987C35.143 16.8549 32.6717 14.8172 29.7231 14.8172C28.9158 14.8167 28.1161 14.9727 27.3682 15.2766L28.5208 17.7376Z" fill="#202833"/>
<path fill-rule="evenodd" clip-rule="evenodd" d="M33.2714 21.2537C33.1814 23.1363 31.627 24.6351 29.7223 24.6351C29.4237 24.6351 29.1339 24.5975 28.857 24.5283L27.7739 27.0358C28.4029 27.2417 29.0606 27.3465 29.7224 27.3463C33.0959 27.3463 35.8451 24.6794 35.9804 21.3391L33.2714 21.2537Z" fill="#202833"/>
</svg>
