<svg width="90" height="40" viewBox="0 0 90 40" fill="none" xmlns="http://www.w3.org/2000/svg">
<path d="M25.0768 0.751465H15.8018C11.7037 0.945302 8.3538 2.5958 7.38653 5.99958C6.88228 7.77488 6.60471 9.72426 6.21022 11.5646C4.20543 20.9214 2.42751 30.5356 0.509766 39.7054H72.7172C78.2997 39.7054 82.1324 38.5258 83.1683 34.0955C83.6495 32.0372 84.1104 29.7059 84.5708 27.4447C86.3655 18.6282 88.1618 9.812 90 0.751465H25.0768Z" fill="#F8F9FA"/>
<path d="M62.3311 24.0244C61.3296 25.0048 58.5185 25.2832 58.8062 22.9399C59.045 20.9935 61.1641 20.5799 63.4608 20.861C63.29 21.9256 63.0942 23.2774 62.3311 24.0246V24.0244ZM59.1675 16.4323C59.0721 16.9692 58.9252 17.4551 58.8062 17.9686C59.9528 17.6813 63.5237 16.7998 63.8677 18.3302C63.982 18.8389 63.7848 19.379 63.6417 19.7764C60.4127 19.4705 57.7809 20.0071 57.089 22.3071C56.6252 23.8477 57.1409 25.3638 58.1284 25.7871C60.0302 26.6016 62.3437 25.6683 63.1446 24.386C63.0614 24.83 62.9825 25.2783 63.0089 25.8322H64.6809C64.6988 24.2308 64.9318 22.9346 65.178 21.4937C65.3881 20.2667 65.7831 19.0518 65.7202 17.9688C65.5769 15.4886 61.4677 16.3658 59.1675 16.4324V16.4323ZM75.9336 24.7926C74.6254 24.8206 73.975 24.0111 73.9451 22.6688C73.893 20.3179 74.9242 17.7059 77.0182 17.4717C77.9931 17.3626 78.6989 17.5893 79.4133 17.8333C78.7576 20.474 78.9943 24.7269 75.9336 24.7926ZM80.2718 12.3652C80.1054 13.8253 79.8827 15.2297 79.5942 16.5677C74.8276 15.0591 71.9043 18.566 71.9567 22.8946C71.9671 23.7318 72.1111 24.5621 72.6347 25.1541C73.537 26.1748 76.1207 26.4188 77.4249 25.561C77.6776 25.3949 77.9355 25.0929 78.1031 24.8831C78.2286 24.7253 78.4282 24.3123 78.4642 24.431C78.3958 24.8898 78.2932 25.3147 78.2836 25.8322H80.0462C80.3856 20.9597 81.4361 16.7979 82.2153 12.365H80.272L80.2718 12.3652ZM30.5166 24.0697C29.4768 25.1708 26.9209 25.1539 26.7206 23.3013C26.6333 22.4952 26.9337 21.65 27.0821 20.8159C27.2324 19.9717 27.3404 19.1617 27.4887 18.4206C28.5127 17.1702 31.5218 17.0194 31.8272 19.0986C32.0922 20.9038 31.3776 23.1578 30.5166 24.0697ZM32.0532 16.4323C30.4084 15.8146 28.4038 16.552 27.535 17.2536C27.5379 17.2843 27.5143 17.2885 27.4887 17.291C27.5035 17.2784 27.5196 17.266 27.535 17.2536C27.5349 17.251 27.5345 17.2484 27.5339 17.2459C27.5486 16.944 27.6549 16.7339 27.6696 16.4323H25.9976C25.3007 21.0681 24.4745 25.5742 23.6023 30.0348H25.5456C25.8268 28.2974 26.0126 26.4649 26.4043 24.8379C26.8481 26.549 29.7457 26.2222 30.9685 25.561C33.4915 24.1968 35.4375 17.7036 32.0532 16.4323ZM41.2721 19.6861H36.7079C36.8523 18.6368 37.7963 17.4834 39.2837 17.4266C40.6836 17.3729 41.6858 17.9405 41.2721 19.6861ZM39.4193 16.2515C38.0151 16.3597 36.8283 16.7636 35.9848 17.6524C34.9501 18.7424 34.1123 21.1522 34.3577 23.3466C34.708 26.4774 38.6061 26.3651 41.7241 25.606C41.777 25.0567 41.91 24.5871 41.9952 24.0697C40.7107 24.5503 38.4807 25.2212 37.1597 24.386C36.1624 23.7554 36.1564 22.1584 36.4819 20.7706C38.5774 20.704 40.7554 20.7168 42.8537 20.7706C42.9869 19.7869 43.3679 18.7144 43.0344 17.743C42.5948 16.4602 41.0209 16.1283 39.4193 16.2515ZM22.337 16.4323C22.2844 16.4399 22.2879 16.5039 22.2916 16.5677C21.8635 19.77 21.2841 22.821 20.6648 25.8322H22.6081C23.075 22.6083 23.6098 19.4527 24.2801 16.4323H22.337ZM73.0416 16.4773C71.3242 15.6188 69.8944 17.0596 69.3362 17.9235C69.4951 17.4803 69.504 16.8869 69.6522 16.4323H67.9349C67.4721 19.66 66.9136 22.7924 66.2629 25.8322H68.2513C68.2639 24.5864 68.5086 23.6649 68.7031 22.4428C69.1187 19.8339 69.7287 16.973 72.7704 17.8333C72.8714 17.392 72.9133 16.8916 73.0416 16.4773ZM51.2141 23.6177C51.0351 23.155 50.9886 22.3907 51.0333 21.8101C51.1338 20.5041 51.6096 18.9144 52.3439 18.1948C53.3573 17.2015 55.3579 17.3658 56.9533 17.9235C57.003 17.3857 57.111 16.9061 57.1795 16.3872C54.5624 15.9598 52.0791 16.2257 50.7622 17.6072C49.4734 18.9598 48.6283 22.0684 49.2257 24.0244C49.9248 26.3132 53.0594 26.4377 55.5979 25.561C55.7101 25.1009 55.7695 24.5881 55.8689 24.1148C54.482 24.8354 51.8305 25.21 51.2141 23.6177ZM50.1297 16.4323C48.4065 15.7364 47.0521 16.9124 46.4242 18.0141C46.5663 17.524 46.6252 16.95 46.7402 16.4323H45.023C44.6031 19.6882 43.9844 22.745 43.3961 25.8322H45.3395C45.6118 23.9996 45.7293 21.5293 46.3335 19.7764C46.8164 18.3757 48.0801 17.1823 49.9037 17.8333C49.9292 17.3165 50.0772 16.922 50.1297 16.4323ZM18.8119 12.6363C18.5344 14.4374 18.2217 16.2036 17.9081 17.9688C15.8949 17.9899 13.8395 18.0682 11.8978 17.9233C12.2645 16.1966 12.5275 14.3658 12.8918 12.6361H10.7227C9.94612 17.0419 9.23998 21.5175 8.37305 25.8324H10.5872C10.9347 23.6187 11.2595 21.3827 11.7169 19.2797C13.6051 19.233 15.868 19.1521 17.6823 19.3248C17.3083 21.5115 16.8561 23.6201 16.5074 25.8324H18.7218C19.4331 21.3619 20.183 16.9297 21.0717 12.6364H18.8121L18.8119 12.6363ZM24.3252 14.6246C24.7127 14.3579 25.2115 13.1423 24.6416 12.6363C24.461 12.476 24.159 12.4295 23.7379 12.5008C23.3469 12.5667 23.1222 12.6994 22.9696 12.9074C22.7238 13.2417 22.4989 14.2501 22.879 14.6246C23.2492 14.9894 24.0788 14.7942 24.3252 14.6246Z" fill="#202833"/>
</svg>
