<svg width="68" height="63" viewBox="0 0 68 63" fill="none" xmlns="http://www.w3.org/2000/svg">
<path d="M5.3109 55.3701L6.78434 51.4787C6.93007 51.0955 7.04341 50.7878 7.12977 50.5449C7.21612 50.3021 7.28089 50.1024 7.32947 49.9512C7.37265 49.7947 7.40503 49.6706 7.42122 49.5788C7.43741 49.4871 7.44281 49.3953 7.44281 49.309C7.44281 49.1201 7.37265 49.0013 7.23771 48.942C7.10278 48.8826 6.82752 48.8556 6.42273 48.8556V48.386H9.63949V48.8556C9.01341 48.8556 8.57623 49.1686 8.33875 49.8001L5.35947 57.502H4.5229L1.81348 50.6691C1.66235 50.3021 1.52742 50.0052 1.40329 49.7677C1.28455 49.5357 1.15501 49.3468 1.02008 49.2118C0.885149 49.0769 0.734026 48.9797 0.572109 48.9312C0.410191 48.8826 0.221287 48.8556 0 48.8556V48.3752H4.28002V48.8556C4.08572 48.861 3.9184 48.8772 3.78887 48.888C3.65934 48.9042 3.55139 48.9312 3.47583 48.9635C3.40027 49.0013 3.3463 49.0445 3.31931 49.1039C3.28693 49.1632 3.27613 49.2334 3.27613 49.3198C3.27613 49.4277 3.29232 49.5572 3.3301 49.703C3.36788 49.8487 3.42725 50.0322 3.49742 50.2427L5.3109 55.3701Z" fill="white"/>
<path d="M13.5633 56.6006H10.4167V56.239C10.6164 56.2336 10.7784 56.212 10.8971 56.1796C11.0158 56.1472 11.1076 56.0825 11.1724 55.9907C11.2371 55.899 11.2803 55.7694 11.3073 55.6021C11.3289 55.4348 11.3451 55.2081 11.3451 54.9221V51.2627C11.3451 51.009 11.3343 50.7986 11.3127 50.6312C11.2911 50.4639 11.2533 50.3344 11.194 50.2372C11.1346 50.1401 11.0536 50.0699 10.9403 50.0321C10.8323 49.9944 10.6866 49.9674 10.5031 49.9566V49.595H13.477V49.9566C13.2935 49.9674 13.1478 49.9944 13.0398 50.0321C12.9319 50.0699 12.8455 50.1401 12.7861 50.2372C12.7268 50.3344 12.689 50.4639 12.6674 50.6312C12.6458 50.7986 12.635 51.009 12.635 51.2627V54.9221C12.635 55.2081 12.6458 55.4348 12.6674 55.6021C12.689 55.7694 12.7322 55.899 12.7969 55.9907C12.8671 56.0825 12.9589 56.1418 13.0776 56.1796C13.1963 56.212 13.3583 56.2336 13.5579 56.239V56.6006H13.5633Z" fill="white"/>
<path d="M20.7903 56.6008H14.7184V56.2392C14.9127 56.2338 15.0692 56.2122 15.1933 56.1852C15.3175 56.1528 15.4092 56.1043 15.474 56.0287C15.5388 55.9531 15.5819 55.8506 15.6089 55.7211C15.6305 55.5861 15.6467 55.4134 15.6467 55.2029V50.9985C15.6467 50.788 15.6359 50.6153 15.6143 50.4857C15.5927 50.3562 15.555 50.2537 15.4956 50.1781C15.4362 50.1025 15.3553 50.0486 15.2419 50.0216C15.134 49.9946 14.9882 49.973 14.8155 49.9622V49.6006H17.8596V49.9622C17.6599 49.9676 17.498 49.9892 17.3792 50.0162C17.2605 50.0486 17.1633 50.1025 17.0986 50.1781C17.0338 50.2591 16.9906 50.367 16.969 50.5073C16.9474 50.6477 16.9367 50.8312 16.9367 51.0632V54.8737C16.9367 55.1274 16.9636 55.3379 17.0122 55.4944C17.0608 55.6563 17.1471 55.7804 17.2713 55.8668C17.3954 55.9531 17.5573 56.0179 17.7624 56.0503C17.9675 56.0827 18.2212 56.0989 18.5288 56.0989C18.8689 56.0989 19.1549 56.0773 19.3816 56.0341C19.6083 55.9909 19.8026 55.91 19.9591 55.7912C20.1156 55.6725 20.2398 55.516 20.3315 55.3109C20.4233 55.1112 20.5042 54.8521 20.569 54.5283H20.9198L20.7903 56.6008Z" fill="white"/>
<path d="M27.9794 56.6008H21.9021V56.2392C22.0964 56.2338 22.2529 56.2122 22.3771 56.1852C22.5012 56.1528 22.5929 56.1043 22.6577 56.0287C22.7225 55.9531 22.7657 55.8506 22.7926 55.7211C22.8142 55.5861 22.8304 55.4134 22.8304 55.2029V50.9985C22.8304 50.788 22.8196 50.6153 22.798 50.4857C22.7765 50.3562 22.7387 50.2537 22.6793 50.1781C22.6199 50.1025 22.539 50.0486 22.4256 50.0216C22.3177 49.9946 22.172 49.973 21.9992 49.9622V49.6006H25.0433V49.9622C24.8436 49.9676 24.6817 49.9892 24.5629 50.0162C24.4442 50.0486 24.3471 50.1025 24.2823 50.1781C24.2175 50.2591 24.1743 50.367 24.1528 50.5073C24.1312 50.6477 24.1204 50.8312 24.1204 51.0632V54.8737C24.1204 55.1274 24.1474 55.3379 24.1959 55.4944C24.2445 55.6563 24.3309 55.7804 24.455 55.8668C24.5791 55.9531 24.7411 56.0179 24.9461 56.0503C25.1512 56.0827 25.4049 56.0989 25.7126 56.0989C26.0526 56.0989 26.3386 56.0773 26.5653 56.0341C26.792 55.9909 26.9863 55.91 27.1428 55.7912C27.2994 55.6725 27.4235 55.516 27.5152 55.3109C27.607 55.1112 27.688 54.8521 27.7527 54.5283H28.1035L27.9794 56.6008Z" fill="white"/>
<path d="M33.1986 54.4797H30.7051C30.4298 55.122 30.2895 55.57 30.2895 55.8182C30.2895 56.0017 30.3543 56.1151 30.4892 56.1637C30.6187 56.2122 30.8184 56.2392 31.0829 56.2392V56.6008H28.6649V56.2392C28.8052 56.223 28.9294 56.196 29.0319 56.1637C29.1345 56.1313 29.2262 56.0881 29.3072 56.0341C29.3881 55.9801 29.4583 55.91 29.5123 55.8182C29.5717 55.7319 29.6256 55.6239 29.6796 55.4944L32.0004 49.498H32.6535L34.7584 54.8143C34.8826 55.122 34.9851 55.3649 35.0715 55.543C35.1578 55.7211 35.2496 55.856 35.3467 55.9478C35.4439 56.0395 35.5572 56.1043 35.6813 56.1421C35.8055 56.1798 35.9728 56.2068 36.1725 56.223V56.5954H32.837V56.223C33.1176 56.2122 33.3227 56.1798 33.4469 56.1313C33.571 56.0827 33.6304 55.9855 33.6304 55.8398C33.6304 55.7535 33.6088 55.6455 33.571 55.5106C33.5278 55.3757 33.4739 55.2137 33.4037 55.0194L33.1986 54.4797ZM30.9048 53.9346H33.0043L31.9896 51.1766H31.9518L30.9048 53.9346Z" fill="white"/>
<path d="M42.5735 51.3491C42.5735 51.8511 42.4332 52.2721 42.1525 52.6121C41.8718 52.9521 41.4185 53.1788 40.8032 53.2921L42.8487 55.7101C42.9891 55.8828 43.1564 56.007 43.3507 56.0987C43.545 56.1851 43.7393 56.2282 43.939 56.2282V56.5899H41.8503L39.6644 53.8211C39.5186 53.6376 39.3891 53.5188 39.2812 53.4541C39.1732 53.3893 39.0707 53.3569 38.9789 53.3569V55.138C38.9789 55.3647 38.9951 55.5482 39.0221 55.6885C39.0491 55.8289 39.1084 55.9422 39.2002 56.0231C39.292 56.1041 39.4161 56.1527 39.5834 56.1851C39.7507 56.2121 39.9774 56.2282 40.2581 56.2282V56.5899H36.7552V56.2282C36.9496 56.2282 37.1061 56.2121 37.2248 56.1851C37.3436 56.1581 37.4407 56.1041 37.5055 56.0285C37.5756 55.953 37.6188 55.845 37.6404 55.7101C37.662 55.5752 37.6782 55.3971 37.6782 55.1866V50.9821C37.6782 50.7716 37.6674 50.5989 37.6512 50.4694C37.635 50.3398 37.5972 50.2373 37.5379 50.1617C37.4785 50.0862 37.3975 50.0322 37.2842 50.0052C37.1762 49.9782 37.0305 49.9566 36.847 49.9458V49.5842H39.8964C40.7492 49.5842 41.4077 49.7407 41.8718 50.0484C42.336 50.356 42.5735 50.7986 42.5735 51.3491ZM38.9735 52.828H39.5456C40.0961 52.828 40.5117 52.72 40.787 52.4933C41.0623 52.2721 41.1972 51.905 41.1972 51.3977C41.1972 51.0091 41.0838 50.6961 40.8518 50.4586C40.6251 50.2211 40.3066 50.1024 39.9018 50.1024H39.13C39.0221 50.1024 38.9735 50.1563 38.9735 50.2589V52.828Z" fill="white"/>
<path d="M46.6917 52.7254C47.0695 52.7254 47.3717 52.7146 47.5984 52.6876C47.8305 52.666 48.0032 52.612 48.1328 52.5365C48.2623 52.4609 48.3486 52.3476 48.4026 52.2018C48.4566 52.0561 48.4944 51.8618 48.5268 51.6081H48.8506V54.2744H48.5268C48.489 54.0315 48.4458 53.8372 48.3864 53.6915C48.3271 53.5458 48.2353 53.4378 48.1058 53.3569C47.9762 53.2813 47.8035 53.2327 47.5822 53.2111C47.3609 53.1895 47.0641 53.1787 46.6971 53.1787V55.0516C46.6971 55.2459 46.7241 55.4078 46.7726 55.5427C46.8212 55.6777 46.9076 55.7856 47.0263 55.8666C47.1451 55.9475 47.3016 56.0069 47.4959 56.0393C47.6902 56.0717 47.9277 56.0879 48.2083 56.0879C48.5429 56.0879 48.829 56.0663 49.0611 56.0177C49.2932 55.9691 49.4875 55.8828 49.6386 55.764C49.7897 55.6399 49.9138 55.478 50.011 55.2783C50.1028 55.0732 50.1837 54.8195 50.2485 54.5119H50.5993L50.459 56.5952H44.468V56.2336C44.6623 56.2282 44.8188 56.2066 44.943 56.1796C45.0671 56.1472 45.1589 56.0987 45.2236 56.0231C45.2884 55.9475 45.3316 55.845 45.3586 55.7155C45.3802 55.5805 45.3963 55.4078 45.3963 55.1973V50.9929C45.3963 50.7824 45.3856 50.6097 45.364 50.4801C45.3424 50.3506 45.3046 50.248 45.2452 50.1725C45.1859 50.0969 45.1049 50.0429 44.9916 50.016C44.8836 49.989 44.7379 49.9674 44.5652 49.9566V49.595H50.1405L50.1999 51.3761H49.8221C49.7897 51.1224 49.7303 50.9119 49.6548 50.7446C49.5792 50.5773 49.4713 50.4423 49.3363 50.3452C49.2014 50.2426 49.0287 50.1779 48.8128 50.1347C48.5969 50.0969 48.3325 50.0753 48.0248 50.0753H47.0263C46.8752 50.0753 46.778 50.0969 46.7457 50.1347C46.7079 50.1725 46.6917 50.2642 46.6917 50.41V52.7254V52.7254Z" fill="white"/>
<path d="M55.84 54.4797H53.3464C53.0712 55.122 52.9308 55.57 52.9308 55.8182C52.9308 56.0017 52.9956 56.1151 53.1305 56.1637C53.2601 56.2122 53.4598 56.2392 53.7242 56.2392V56.6008H51.3063V56.2392C51.4466 56.223 51.5707 56.196 51.6733 56.1637C51.7758 56.1313 51.8676 56.0881 51.9485 56.0341C52.0295 55.9801 52.0997 55.91 52.1536 55.8182C52.213 55.7319 52.267 55.6239 52.321 55.4944L54.6418 49.498H55.2948L57.3998 54.8143C57.5239 55.122 57.6265 55.3649 57.7128 55.543C57.7992 55.7211 57.8909 55.856 57.9881 55.9478C58.0852 56.0395 58.1986 56.1043 58.3227 56.1421C58.4468 56.1798 58.6142 56.2068 58.8139 56.223V56.5954H55.4784V56.223C55.759 56.2122 55.9641 56.1798 56.0882 56.1313C56.2124 56.0827 56.2717 55.9855 56.2717 55.8398C56.2717 55.7535 56.2502 55.6455 56.2124 55.5106C56.1692 55.3757 56.1152 55.2137 56.0451 55.0194L55.84 54.4797ZM53.5515 53.9346H55.6511L54.6364 51.1766H54.5986L53.5515 53.9346Z" fill="white"/>
<path d="M67.8111 57.5021H60.0067V57.0326C60.255 57.0272 60.4601 57.0002 60.6166 56.9624C60.7731 56.9246 60.8973 56.8599 60.9782 56.7627C61.0592 56.6709 61.1185 56.536 61.1455 56.3633C61.1779 56.1906 61.1887 55.9693 61.1887 55.6994V50.3022C61.1887 50.0323 61.1779 49.811 61.1509 49.6437C61.1239 49.4764 61.0754 49.3415 60.9998 49.2443C60.9242 49.1472 60.8163 49.0824 60.676 49.0446C60.5356 49.0122 60.3521 48.9853 60.1255 48.9691V48.4995H64.0331V48.9691C63.774 48.9745 63.5689 49.0015 63.4178 49.0392C63.2613 49.077 63.1425 49.1472 63.0616 49.2497C62.9806 49.3523 62.9212 49.4926 62.8996 49.6707C62.8727 49.8488 62.8619 50.0863 62.8619 50.3832V55.2839C62.8619 55.6131 62.8942 55.8776 62.959 56.0826C63.0238 56.2877 63.1371 56.4497 63.2936 56.563C63.4502 56.6763 63.666 56.7519 63.9305 56.7951C64.195 56.8383 64.5242 56.8599 64.9182 56.8599C65.3554 56.8599 65.7224 56.8329 66.0193 56.7789C66.3161 56.7249 66.559 56.6224 66.7587 56.4713C66.9584 56.3201 67.1203 56.115 67.239 55.856C67.3578 55.5969 67.4603 55.2623 67.5467 54.8521H68L67.8111 57.5021Z" fill="white"/>
<path d="M7.60461 9.94681H7.8367C7.86368 10.1627 7.92305 10.3516 8.00401 10.5243C8.08497 10.697 8.18752 10.8428 8.31165 10.9615C8.43579 11.0802 8.58152 11.172 8.74343 11.2368C8.90535 11.3015 9.08346 11.3339 9.27236 11.3339C9.58541 11.3339 9.82828 11.2529 10.0118 11.0856C10.1953 10.9183 10.2817 10.6916 10.2817 10.411C10.2817 10.2922 10.2655 10.1843 10.2277 10.0817C10.1899 9.98459 10.1305 9.88744 10.0496 9.79569C9.96321 9.70394 9.85527 9.61218 9.70954 9.52043C9.56382 9.42868 9.3911 9.32073 9.17521 9.21818C8.91615 9.08865 8.69486 8.96451 8.51675 8.84577C8.33864 8.72703 8.19831 8.6029 8.09576 8.47336C7.98782 8.34383 7.91765 8.2089 7.86908 8.06317C7.8259 7.91745 7.80431 7.75553 7.80431 7.56662C7.80431 7.35073 7.8367 7.14564 7.90686 6.96213C7.97702 6.77862 8.07417 6.61671 8.19831 6.48178C8.32245 6.34685 8.47357 6.2443 8.64628 6.16874C8.819 6.09317 9.0079 6.06079 9.21299 6.06079C9.3965 6.06079 9.56921 6.09317 9.73113 6.15794C9.89305 6.22271 10.055 6.33065 10.2169 6.47638L10.3788 6.15794H10.5245L10.5947 7.57742H10.3626C10.2601 7.18882 10.1143 6.89736 9.92543 6.70846C9.73653 6.51956 9.50445 6.42241 9.23458 6.42241C8.97552 6.42241 8.77582 6.49257 8.6193 6.6383C8.46817 6.77863 8.39261 6.97293 8.39261 7.2158C8.39261 7.32914 8.4088 7.43169 8.44119 7.52345C8.47357 7.6152 8.52754 7.70156 8.60311 7.78791C8.67867 7.86887 8.77582 7.95523 8.89995 8.03618C9.02409 8.11714 9.17521 8.2035 9.35332 8.29525C9.66636 8.45177 9.92543 8.5975 10.1305 8.73243C10.3356 8.86736 10.5029 9.00229 10.6217 9.13722C10.7458 9.27216 10.8322 9.41248 10.8807 9.56361C10.9293 9.71473 10.9563 9.88204 10.9563 10.0656C10.9563 10.303 10.9131 10.5243 10.8322 10.7186C10.7458 10.9183 10.6325 11.091 10.476 11.2314C10.3248 11.3717 10.1413 11.485 9.93083 11.5606C9.72034 11.6415 9.48826 11.6793 9.23458 11.6793C8.99711 11.6793 8.78121 11.6415 8.58691 11.566C8.39801 11.4904 8.19831 11.3609 8.00401 11.1828L7.8259 11.5336H7.68018L7.60461 9.94681Z" fill="white"/>
<path d="M16.17 6.13117H16.3481L16.4075 7.77194H16.1754C16.0837 7.35635 15.9056 7.02712 15.6411 6.78964C15.3658 6.55216 15.0474 6.43342 14.675 6.43342C14.4159 6.43342 14.1892 6.49279 13.9841 6.60613C13.7844 6.71947 13.6117 6.88139 13.4714 7.09728C13.3311 7.31317 13.2285 7.57224 13.153 7.87988C13.0774 8.18753 13.045 8.53835 13.045 8.92695C13.045 9.69336 13.1854 10.2817 13.466 10.6919C13.7467 11.102 14.1569 11.3071 14.6912 11.3071C15.5062 11.3071 16.0243 10.8214 16.2564 9.84448H16.5155V11.6202H16.2942L16.1484 11.0589C15.7059 11.4798 15.1715 11.6957 14.5455 11.6957C14.1892 11.6957 13.8654 11.631 13.574 11.5014C13.2879 11.3719 13.0396 11.1938 12.8345 10.9563C12.6294 10.7188 12.4729 10.4328 12.3596 10.0982C12.2462 9.75813 12.1923 9.38572 12.1923 8.97013C12.1923 8.53835 12.2516 8.14435 12.3704 7.78813C12.4891 7.43191 12.651 7.12427 12.8669 6.8706C13.0774 6.61153 13.3365 6.41723 13.6333 6.2769C13.9302 6.13657 14.2594 6.06641 14.6156 6.06641C14.8693 6.06641 15.1068 6.10419 15.3281 6.18515C15.5494 6.2661 15.7922 6.39564 16.0567 6.57915L16.17 6.13117Z" fill="white"/>
<path d="M54.5499 7.5074C54.5499 7.76107 54.5121 7.98236 54.4419 8.18206C54.3718 8.38176 54.2584 8.54907 54.1019 8.6894C53.9508 8.82973 53.7457 8.93228 53.5028 9.00784C53.2545 9.0834 52.9577 9.12118 52.6015 9.12118H52.0348V10.4975C52.0348 10.6756 52.0456 10.8159 52.0617 10.9293C52.0833 11.0426 52.1211 11.129 52.1805 11.1883C52.2399 11.2477 52.3316 11.2909 52.445 11.3125C52.5583 11.3341 52.7148 11.3448 52.9037 11.3448V11.6147H50.6801V11.3448C50.8258 11.3395 50.9445 11.3233 51.0363 11.3017C51.128 11.2801 51.1982 11.2369 51.2468 11.1829C51.2953 11.1236 51.3331 11.048 51.3493 10.9401C51.3655 10.8375 51.3763 10.7026 51.3763 10.5353V7.21595C51.3763 7.04864 51.3709 6.91371 51.3547 6.81116C51.3385 6.70861 51.3115 6.62765 51.2684 6.56828C51.2252 6.50891 51.1604 6.47113 51.0741 6.44954C50.9877 6.42795 50.8797 6.41176 50.7448 6.40097V6.1311H52.731C53.3139 6.1311 53.7619 6.24984 54.0803 6.49272C54.3934 6.74099 54.5499 7.07562 54.5499 7.5074ZM52.0348 8.77036H52.4827C52.9037 8.77036 53.2168 8.67861 53.4219 8.4951C53.627 8.31159 53.7295 8.00935 53.7295 7.59376C53.7295 7.18896 53.6485 6.90291 53.4866 6.7302C53.3247 6.55749 53.071 6.47113 52.7256 6.47113H52.1427C52.0725 6.47113 52.0348 6.50891 52.0348 6.58987V8.77036V8.77036Z" fill="white"/>
<path d="M59.3966 7.50738C59.3966 7.88518 59.294 8.20362 59.0943 8.45729C58.8946 8.71096 58.5708 8.87828 58.1282 8.96463L59.5261 10.8591C59.6394 11.0156 59.7636 11.1289 59.9039 11.1991C60.0388 11.2693 60.2062 11.3178 60.3951 11.3502V11.6201H59.1753L57.6263 9.38022C57.5723 9.29926 57.5183 9.2345 57.4697 9.18592C57.4212 9.13735 57.3726 9.09957 57.3186 9.07798C57.2646 9.05099 57.2053 9.0348 57.1351 9.0294C57.065 9.024 56.984 9.01861 56.8868 9.01861V10.5029C56.8868 10.681 56.8976 10.8213 56.9138 10.9346C56.9354 11.048 56.9732 11.1343 57.0326 11.1937C57.0919 11.2531 57.1837 11.2962 57.297 11.3178C57.4104 11.3394 57.5669 11.3502 57.7558 11.3502V11.6201H55.5267V11.3502C55.6725 11.3448 55.7912 11.3286 55.883 11.307C55.9747 11.2855 56.0449 11.2423 56.0934 11.1883C56.142 11.1289 56.1798 11.0534 56.196 10.9454C56.2122 10.8429 56.223 10.7079 56.223 10.5406V7.22132C56.223 7.05401 56.2176 6.91908 56.2014 6.81653C56.1852 6.71398 56.1582 6.63302 56.115 6.57365C56.0719 6.51428 56.0071 6.4765 55.9207 6.45491C55.8344 6.43332 55.7264 6.41713 55.5915 6.40634V6.13647H57.5777C58.1606 6.13647 58.6086 6.25521 58.927 6.49809C59.2346 6.74097 59.3966 7.0756 59.3966 7.50738ZM56.8814 8.66239H57.3294C57.7504 8.66239 58.0634 8.57603 58.2685 8.40332C58.4736 8.23061 58.5762 7.94455 58.5762 7.54516C58.5762 7.16195 58.4952 6.88669 58.3333 6.71938C58.1714 6.55206 57.9177 6.4711 57.5723 6.4711H56.9894C56.9192 6.4711 56.8814 6.50889 56.8814 6.58984V8.66239V8.66239Z" fill="white"/>
<path d="M57.4861 22.6792C57.335 23.3539 57.1568 24.0123 56.9571 24.66C56.7574 25.3077 56.5254 25.9391 56.2771 26.549C55.7859 27.7742 55.1707 28.9238 54.4744 29.9655C54.129 30.4836 53.762 30.9802 53.3734 31.4443C52.2184 32.826 50.8636 33.9702 49.5035 34.9903C48.586 35.6758 47.6415 36.3127 46.7078 36.9765C46.589 37.0575 46.4757 37.1438 46.3569 37.2302C45.5366 37.8293 44.7324 38.4716 43.9822 39.211C43.5504 39.632 43.2535 40.0853 42.7354 40.4523C41.127 41.6128 38.8008 42.5681 35.5247 43.7447C35.557 43.7878 35.9564 43.831 36.0104 43.8148C37.3759 43.3615 38.7468 43.0376 39.7021 42.7192C40.4146 42.4817 42.6652 41.548 43.0754 41.127C43.4856 40.706 43.9066 40.285 44.3438 39.9072C44.7756 39.5186 45.2181 39.1462 45.6607 38.7846L45.9953 38.5147L46.3354 38.2449C46.562 38.0668 46.7887 37.8887 47.0154 37.7105C47.9221 36.9981 48.8451 36.3019 49.7572 35.5786C50.4427 35.0335 51.1227 34.4614 51.7704 33.8461L51.9323 33.6896C52.4235 33.22 52.8876 32.7127 53.3356 32.1784L53.627 31.8006C54.0102 31.304 54.3773 30.7805 54.7173 30.2354C55.7266 28.5892 56.5362 26.7163 57.0813 24.7194C57.2648 24.0555 57.4159 23.3808 57.5454 22.6954L57.4861 22.6792Z" fill="white"/>
<path d="M45.5691 39.0488C45.0024 39.0974 44.4843 39.3133 44.0525 39.5724C43.5937 40.1661 43.1188 40.5493 42.8651 40.7382C43.2051 41.1754 44.5113 42.6812 45.7095 41.8878C47.361 40.803 48.6186 40.4737 48.6186 40.4737C48.6186 40.2902 47.1505 38.9139 45.5691 39.0488ZM45.1212 41.0674C44.4627 41.5046 43.7341 40.4683 43.7341 40.4683C43.7341 40.4683 44.3062 39.7883 45.0564 39.7235C45.8012 39.6587 46.4975 40.3118 46.5029 40.3982C46.5029 40.3982 45.9038 40.5547 45.1212 41.0674Z" fill="white"/>
<path d="M48.9477 36.1021C47.3717 36.2424 46.1573 37.6727 46.1573 37.6727C46.1573 37.6727 47.6956 39.8586 49.0881 38.9356C50.7396 37.8508 51.9972 37.5215 51.9972 37.5215C51.9972 37.338 50.5291 35.9617 48.9477 36.1021ZM48.5645 38.1854C47.9061 38.6226 47.1774 37.5863 47.1774 37.5863C47.1774 37.5863 47.7495 36.9063 48.4998 36.8415C49.2446 36.7767 49.9408 37.4298 49.9462 37.5161C49.9462 37.5161 49.3471 37.6727 48.5645 38.1854Z" fill="white"/>
<path d="M52.1593 33.6841C51.6034 33.7327 51.1068 33.9809 50.7128 34.2508C50.3512 34.7581 50.0166 35.0334 50.0166 35.0334C50.0166 35.0334 49.995 34.9848 49.9572 34.9039C49.8817 34.9848 49.8439 35.0334 49.8439 35.0334C49.8439 35.0334 51.123 36.917 52.2834 36.129C53.6543 35.2007 54.7014 34.9201 54.7014 34.9201C54.6906 34.7635 53.4708 33.5708 52.1593 33.6841ZM51.8463 35.5947C51.2957 35.9671 50.6912 35.0766 50.6912 35.0766C50.6912 35.0766 51.1662 34.4937 51.7869 34.4397C52.4076 34.3857 52.9851 34.9471 52.9905 35.0226C52.9905 35.0226 52.4939 35.1521 51.8463 35.5947Z" fill="white"/>
<path d="M54.7554 30.9422C54.2156 30.9908 53.7353 31.2391 53.3629 31.5035C53.1416 32.0918 52.9041 32.4588 52.9041 32.4588C52.9041 32.4588 52.7962 32.3401 52.6504 32.135C52.6127 32.1782 52.5911 32.1998 52.5911 32.1998C52.5911 32.1998 53.7839 33.9593 54.8687 33.2253C56.1479 32.3563 57.1248 32.0972 57.1248 32.0972C57.1194 31.9515 55.9805 30.8397 54.7554 30.9422ZM54.3344 32.7611C53.8216 33.1119 53.2549 32.2753 53.2549 32.2753C53.2549 32.2753 53.6975 31.7302 54.2804 31.6816C54.8579 31.6331 55.403 32.1566 55.403 32.2268C55.403 32.2268 54.9389 32.3509 54.3344 32.7611Z" fill="white"/>
<path d="M56.2504 28.5944C55.7106 28.7185 55.2573 29.0801 54.9442 29.3932C54.8363 29.7548 54.7337 29.9761 54.7337 29.9761C54.7337 29.9761 54.669 29.9221 54.5718 29.8303C54.534 29.8843 54.5125 29.9167 54.5125 29.9167C54.5125 29.9167 55.6405 31.2552 56.4986 30.505C57.5133 29.6198 58.3229 29.2852 58.3229 29.2852C58.3121 29.1557 57.2758 28.3569 56.2504 28.5944ZM56.1532 30.0732C55.743 30.4294 55.2141 29.7926 55.2141 29.7926C55.2141 29.7926 55.5541 29.2798 56.0345 29.1665C56.5202 29.0531 57.0114 29.4309 57.0168 29.4903C57.0168 29.4903 56.6336 29.6522 56.1532 30.0732Z" fill="white"/>
<path d="M57.2003 26.0847C56.8333 26.2628 56.5364 26.5651 56.3152 26.8457C56.2288 27.3153 56.1101 27.6283 56.1101 27.6283C56.1101 27.6283 56.0291 27.5744 55.9158 27.4772C55.8996 27.5096 55.8942 27.5258 55.8942 27.5258C55.8942 27.5258 56.9844 28.4271 57.6159 27.6337C58.3661 26.6946 59.003 26.2574 59.003 26.2574C58.9814 26.1549 58.0261 25.6907 57.2003 26.0847ZM57.2273 27.3315C56.925 27.7093 56.4123 27.2829 56.4123 27.2829C56.4123 27.2829 56.639 26.7918 57.0276 26.6029C57.4216 26.414 57.8696 26.6352 57.8858 26.6838C57.8858 26.6838 57.5835 26.8889 57.2273 27.3315Z" fill="white"/>
<path d="M56.8711 24.8649C56.8658 24.8811 56.8604 24.8919 56.8604 24.8919C56.8604 24.8919 57.7887 25.7338 58.3284 25.0538C58.9653 24.2496 59.5104 23.8826 59.5104 23.8826C59.4888 23.7908 58.6738 23.3429 57.9722 23.6613C57.5836 23.8394 57.2867 24.1902 57.1032 24.4763C57.0601 24.7569 57.0007 24.935 57.0007 24.935C57.0007 24.935 56.9467 24.9135 56.8711 24.8649ZM57.8696 24.1093C58.2043 23.9581 58.5875 24.1686 58.5983 24.2118C58.5983 24.2118 58.3392 24.3845 58.037 24.7677C57.7833 25.0916 57.3407 24.6922 57.3407 24.6922C57.3407 24.6922 57.535 24.2604 57.8696 24.1093Z" fill="white"/>
<path d="M44.0579 39.5725C44.3601 39.1785 44.6624 38.6981 44.8891 38.126C45.6285 36.2693 45.2777 33.9215 45.1535 33.8406C45.1535 33.8406 44.4141 35.2385 42.9946 36.7983C41.7964 38.1152 42.6708 40.8732 42.6708 40.8732C42.6708 40.8732 42.7464 40.83 42.8705 40.7383C42.8165 40.6681 42.7841 40.6249 42.7841 40.6249C42.7841 40.6249 43.2807 40.0312 44.0579 39.5725ZM43.2213 38.045C43.8906 37.3056 44.2414 36.6418 44.2414 36.6418C44.3008 36.6795 44.4681 37.7914 44.1173 38.6711C43.7664 39.5509 43.0648 39.9719 43.0648 39.9719C43.0648 39.9719 42.6546 38.6711 43.2213 38.045Z" fill="white"/>
<path d="M42.7788 40.625C42.7788 40.625 42.8112 40.6681 42.8652 40.7383C43.1242 40.5494 43.5938 40.1662 44.0526 39.5725C43.2808 40.0313 42.7788 40.625 42.7788 40.625Z" fill="white"/>
<path d="M48.4837 35.1144C49.385 33.3927 49.2555 31.0071 49.1422 30.9045C49.1422 30.9045 48.2786 32.1729 46.7296 33.4898C45.4181 34.6017 46.0333 37.4784 46.0333 37.4784C46.0333 37.4784 47.5824 36.8415 48.4837 35.1144ZM46.8429 34.7096C47.577 34.0835 47.9871 33.4844 47.9871 33.4844C48.0411 33.533 48.1059 34.661 47.6741 35.476C47.2477 36.291 46.5137 36.5986 46.5137 36.5986C46.5137 36.5986 46.2222 35.2385 46.8429 34.7096Z" fill="white"/>
<path d="M51.4683 32.6693C51.8623 31.1743 51.3765 29.458 51.274 29.4148C51.274 29.4148 50.8368 30.5698 49.8869 31.9299C49.2122 32.9068 49.7681 34.445 49.957 34.9038C50.0974 34.7527 50.3618 34.4936 50.7127 34.2561C50.9987 33.8567 51.2956 33.3224 51.4683 32.6693ZM50.0542 32.7503C50.5022 32.1026 50.7127 31.5575 50.7127 31.5575C50.7612 31.5791 50.9933 32.3887 50.8044 33.1011C50.6155 33.8082 50.1136 34.2237 50.1136 34.2237C50.1136 34.2237 49.671 33.3008 50.0542 32.7503Z" fill="white"/>
<path d="M50.7128 34.2561C50.3619 34.499 50.0975 34.758 49.9572 34.9038C49.9949 34.9901 50.0165 35.0333 50.0165 35.0333C50.0165 35.0333 50.3512 34.758 50.7128 34.2561Z" fill="white"/>
<path d="M53.7622 29.5389C53.7946 27.909 52.9094 26.4409 52.8015 26.4409C52.8015 26.4409 52.645 27.7524 52.0459 29.485C51.6789 30.5374 52.2833 31.6169 52.6558 32.1404C52.7637 32.0217 53.0174 31.7572 53.3682 31.5089C53.5571 30.9908 53.746 30.3 53.7622 29.5389ZM52.5154 30.0031C52.8015 29.1827 52.8717 28.562 52.8717 28.562C52.9256 28.562 53.3412 29.2583 53.3304 30.0301C53.3142 30.8019 52.9256 31.4118 52.9256 31.4118C52.9256 31.4118 52.278 30.694 52.5154 30.0031Z" fill="white"/>
<path d="M53.3627 31.5037C53.0119 31.7519 52.7582 32.0164 52.6503 32.1351C52.796 32.3402 52.9039 32.459 52.9039 32.459C52.9039 32.459 53.136 32.092 53.3627 31.5037Z" fill="white"/>
<path d="M55.1708 27.38C55.0359 26.0091 54.1561 24.9297 54.059 24.9512C54.059 24.9512 54.059 26.0739 53.7243 27.6283C53.503 28.6484 54.2371 29.4957 54.5771 29.825C54.6473 29.7332 54.7768 29.5713 54.9495 29.3932C55.0898 28.9074 55.2463 28.168 55.1708 27.38ZM54.1507 28.1086C54.3072 27.3746 54.3072 26.8403 54.3072 26.8403C54.3504 26.8295 54.7714 27.3422 54.8308 27.9899C54.8955 28.6376 54.6257 29.2205 54.6257 29.2205C54.6257 29.2205 54.0158 28.7293 54.1507 28.1086Z" fill="white"/>
<path d="M54.7392 29.9762C54.7392 29.9762 54.8417 29.7549 54.9497 29.3933C54.7716 29.5714 54.6474 29.7333 54.5773 29.8251C54.669 29.9222 54.7392 29.9762 54.7392 29.9762Z" fill="white"/>
<path d="M56.315 26.8458C56.3852 26.441 56.4338 25.9282 56.3528 25.3993C56.1747 24.2551 55.3759 23.4131 55.3003 23.4401C55.3003 23.4401 55.3543 24.39 55.1438 25.7339C55.0143 26.5705 55.6026 27.2074 55.921 27.4826C55.9696 27.3747 56.1045 27.121 56.315 26.8458ZM55.3975 25.9552C55.4946 25.3183 55.4731 24.8704 55.4731 24.8704C55.5108 24.8596 55.8886 25.2536 55.9696 25.7987C56.056 26.3438 55.8563 26.8565 55.8563 26.8565C55.8563 26.8565 55.3111 26.4895 55.3975 25.9552Z" fill="white"/>
<path d="M56.315 26.8457C56.1046 27.121 55.9696 27.3746 55.9156 27.4772C56.029 27.5743 56.11 27.6283 56.11 27.6283C56.11 27.6283 56.2341 27.3153 56.315 26.8457Z" fill="white"/>
<path d="M56.871 24.8649C56.898 24.8055 56.9736 24.6544 57.0977 24.4709C57.1571 24.1147 57.1948 23.6019 57.0707 23.0946C56.8548 22.1933 56.1262 21.6211 56.0614 21.6481C56.0614 21.6481 56.1586 22.4091 56.0614 23.521C55.9967 24.2604 56.6065 24.7084 56.871 24.8649ZM56.4446 23.6991C56.4932 23.1702 56.4446 22.8085 56.4446 22.8085C56.477 22.7923 56.817 23.0676 56.925 23.494C57.0275 23.9204 56.8872 24.363 56.8872 24.363C56.8872 24.363 56.4068 24.1417 56.4446 23.6991Z" fill="white"/>
<path d="M56.8711 24.8649C56.9467 24.9081 56.9952 24.9297 56.9952 24.9297C56.9952 24.9297 57.0546 24.7516 57.0978 24.4709C56.979 24.6545 56.8981 24.811 56.8711 24.8649Z" fill="white"/>
<path d="M58.3931 21.9289C58.7277 20.979 58.5766 19.8564 58.5226 19.824C58.5226 19.824 58.3985 20.2612 57.7616 21.1085C57.2219 21.8264 57.3946 23.4077 57.3946 23.4077C57.3946 23.4077 58.0585 22.8788 58.3931 21.9289ZM57.6968 22.4632C57.6968 22.4632 57.6159 21.7184 57.8695 21.373C58.1718 20.9682 58.2312 20.7631 58.2312 20.7631C58.2582 20.7793 58.3283 21.3082 58.1718 21.7616C58.0153 22.215 57.6968 22.4632 57.6968 22.4632Z" fill="white"/>
<path d="M10.2654 22.6792C10.4165 23.3539 10.5947 24.0123 10.7944 24.66C10.9941 25.3077 11.2261 25.9391 11.4744 26.549C11.9656 27.7742 12.5808 28.9238 13.2771 29.9655C13.6225 30.4836 13.9895 30.9802 14.3781 31.4443C15.5331 32.826 16.8879 33.9702 18.248 34.9903C19.1655 35.6758 20.11 36.3127 21.0437 36.9765C21.1625 37.0575 21.2758 37.1438 21.3946 37.2302C22.2149 37.8293 23.0191 38.4716 23.7693 39.211C24.2011 39.632 24.498 40.0853 25.0161 40.4523C26.6245 41.6128 28.9507 42.5681 32.2268 43.7447C32.1945 43.7878 31.7951 43.831 31.7411 43.8148C30.3756 43.3615 29.0047 43.0376 28.0494 42.7192C27.3369 42.4817 25.0863 41.548 24.6761 41.127C24.2659 40.706 23.8449 40.285 23.4077 39.9072C22.976 39.5186 22.5334 39.1462 22.0908 38.7846L21.7562 38.5147L21.4161 38.2449C21.1895 38.0668 20.9628 37.8887 20.7361 37.7105C19.8294 36.9981 18.9064 36.3019 17.9943 35.5786C17.3088 35.0335 16.6288 34.4614 15.9811 33.8461L15.8192 33.6896C15.328 33.22 14.8639 32.7127 14.4159 32.1784L14.1245 31.8006C13.7413 31.304 13.3742 30.7805 13.0342 30.2354C12.0249 28.5892 11.2153 26.7163 10.6702 24.7194C10.4867 24.0555 10.3356 23.3808 10.2061 22.6954L10.2654 22.6792Z" fill="white"/>
<path d="M19.1277 40.474C19.1277 40.474 20.3906 40.8032 22.0368 41.888C23.235 42.676 24.5411 41.1756 24.8812 40.7384C24.6221 40.5495 24.1525 40.1663 23.6938 39.5726C23.262 39.3136 22.7438 39.0977 22.1771 39.0491C20.6065 38.9142 19.1331 40.2905 19.1277 40.474ZM21.2542 40.3984C21.2596 40.312 21.9504 39.659 22.7007 39.7237C23.4455 39.7885 24.023 40.4686 24.023 40.4686C24.023 40.4686 23.2944 41.5048 22.6359 41.0677C21.8479 40.5549 21.2542 40.3984 21.2542 40.3984Z" fill="white"/>
<path d="M15.749 37.5269C15.749 37.5269 17.012 37.8562 18.6581 38.941C20.056 39.8586 21.5888 37.6781 21.5888 37.6781C21.5888 37.6781 20.3745 36.2424 18.7985 36.1075C17.2279 35.9617 15.7544 37.338 15.749 37.5269ZM17.8054 37.5161C17.8108 37.4298 18.5016 36.7767 19.2518 36.8415C19.9967 36.9063 20.5742 37.5863 20.5742 37.5863C20.5742 37.5863 19.8455 38.6226 19.1871 38.1854C18.4045 37.6727 17.8054 37.5161 17.8054 37.5161Z" fill="white"/>
<path d="M13.0558 34.9201C13.0558 34.9201 14.1029 35.2007 15.4738 36.129C16.6342 36.917 17.9133 35.0334 17.9133 35.0334C17.9133 35.0334 17.8701 34.9848 17.8 34.9039C17.7622 34.9902 17.7406 35.0334 17.7406 35.0334C17.7406 35.0334 17.406 34.7581 17.0444 34.2508C16.6504 33.9809 16.1538 33.7327 15.5979 33.6841C14.2864 33.5708 13.0612 34.7635 13.0558 34.9201ZM14.7613 35.0226C14.7613 34.9471 15.3442 34.3803 15.9649 34.4397C16.5856 34.4937 17.0605 35.0766 17.0605 35.0766C17.0605 35.0766 16.4561 35.9671 15.9055 35.5947C15.2579 35.1521 14.7613 35.0226 14.7613 35.0226Z" fill="white"/>
<path d="M10.627 32.0972C10.627 32.0972 11.6039 32.3563 12.883 33.2253C13.9625 33.9593 15.1606 32.1998 15.1606 32.1998C15.1606 32.1998 15.1391 32.1728 15.1013 32.135C14.9555 32.3401 14.8476 32.4588 14.8476 32.4588C14.8476 32.4588 14.6155 32.0918 14.3888 31.5035C14.0164 31.2391 13.5361 30.9908 12.9963 30.9422C11.7766 30.8397 10.6324 31.9515 10.627 32.0972ZM12.3487 32.2268C12.3487 32.1566 12.8938 31.6277 13.4713 31.6816C14.0488 31.7302 14.4968 32.2753 14.4968 32.2753C14.4968 32.2753 13.9301 33.1065 13.4173 32.7611C12.8128 32.3509 12.3487 32.2268 12.3487 32.2268Z" fill="white"/>
<path d="M9.42883 29.28C9.42883 29.28 10.2384 29.6146 11.2531 30.4998C12.1167 31.25 13.2393 29.9115 13.2393 29.9115C13.2393 29.9115 13.2177 29.8791 13.1799 29.8251C13.0828 29.9223 13.018 29.9709 13.018 29.9709C13.018 29.9709 12.9155 29.7496 12.8075 29.388C12.4999 29.0749 12.0465 28.7133 11.5014 28.5892C10.4813 28.3571 9.43963 29.1559 9.42883 29.28ZM10.735 29.4905C10.7404 29.4311 11.2315 29.0533 11.7173 29.1667C12.203 29.28 12.5376 29.7927 12.5376 29.7927C12.5376 29.7927 12.0033 30.4296 11.5985 30.0734C11.1182 29.6524 10.735 29.4905 10.735 29.4905Z" fill="white"/>
<path d="M8.74329 26.2577C8.74329 26.2577 9.38016 26.6949 10.1304 27.634C10.7673 28.4274 11.8521 27.526 11.8521 27.526C11.8521 27.526 11.8467 27.5098 11.8305 27.4775C11.7172 27.5746 11.6362 27.6286 11.6362 27.6286C11.6362 27.6286 11.5175 27.3155 11.4311 26.846C11.2152 26.5653 10.913 26.2631 10.546 26.085C9.72559 25.691 8.77027 26.1551 8.74329 26.2577ZM9.86591 26.6841C9.87671 26.6355 10.3301 26.4142 10.7241 26.6031C11.1181 26.792 11.3394 27.2832 11.3394 27.2832C11.3394 27.2832 10.8266 27.7095 10.5244 27.3317C10.1682 26.8892 9.86591 26.6841 9.86591 26.6841Z" fill="white"/>
<path d="M10.7565 24.9351C10.7565 24.9351 10.6972 24.757 10.654 24.4764C10.4651 24.1957 10.1682 23.8395 9.78504 23.6614C9.078 23.3376 8.26842 23.7909 8.24683 23.8827C8.24683 23.8827 8.78655 24.2497 9.42882 25.0539C9.96855 25.7339 10.8969 24.892 10.8969 24.892C10.8969 24.892 10.8915 24.8812 10.8861 24.865C10.8051 24.9136 10.7565 24.9351 10.7565 24.9351ZM10.4057 24.6923C10.4057 24.6923 9.96855 25.0917 9.70948 24.7678C9.40724 24.3846 9.14817 24.2119 9.14817 24.2119C9.15896 24.1687 9.54217 23.9528 9.8768 24.1094C10.2168 24.2605 10.4057 24.6923 10.4057 24.6923Z" fill="white"/>
<path d="M24.9729 40.6249C24.9729 40.6249 24.9405 40.6681 24.8866 40.7383C25.0107 40.83 25.0863 40.8732 25.0863 40.8732C25.0863 40.8732 25.9606 38.1206 24.7624 36.7983C23.3429 35.2385 22.6035 33.8406 22.6035 33.8406C22.4794 33.9215 22.1286 36.2693 22.868 38.126C23.0947 38.6981 23.3969 39.1839 23.6992 39.5725C24.471 40.0312 24.9729 40.6249 24.9729 40.6249ZM24.6815 39.9773C24.6815 39.9773 23.9798 39.5563 23.629 38.6765C23.2782 37.7968 23.4455 36.6849 23.5049 36.6471C23.5049 36.6471 23.8557 37.311 24.5249 38.0504C25.0971 38.6711 24.6815 39.9773 24.6815 39.9773Z" fill="white"/>
<path d="M24.9728 40.625C24.9728 40.625 24.9405 40.6681 24.8865 40.7383C24.6274 40.5494 24.1579 40.1662 23.6991 39.5725C24.4709 40.0313 24.9728 40.625 24.9728 40.625Z" fill="white"/>
<path d="M21.7237 37.4784C21.7237 37.4784 22.339 34.6017 21.0275 33.4898C19.4785 32.1729 18.6149 30.9045 18.6149 30.9045C18.5016 31.0071 18.3667 33.3927 19.2734 35.1144C20.1747 36.8415 21.7237 37.4784 21.7237 37.4784ZM21.238 36.5986C21.238 36.5986 20.504 36.2964 20.0776 35.476C19.6512 34.661 19.7106 33.5276 19.7645 33.4844C19.7645 33.4844 20.1747 34.0835 20.9088 34.7096C21.5294 35.2385 21.238 36.5986 21.238 36.5986Z" fill="white"/>
<path d="M17.039 34.2561C17.3898 34.499 17.6543 34.7581 17.7946 34.9038C17.9835 34.445 18.5394 32.9068 17.8648 31.9299C16.9148 30.5644 16.4777 29.4148 16.4777 29.4148C16.3751 29.458 15.8894 31.1743 16.2834 32.6693C16.4561 33.3224 16.7583 33.8567 17.039 34.2561ZM17.6381 34.2237C17.6381 34.2237 17.1361 33.8136 16.9472 33.1011C16.7583 32.3941 16.9904 31.5791 17.039 31.5575C17.039 31.5575 17.2495 32.1026 17.6974 32.7503C18.0806 33.3008 17.6381 34.2237 17.6381 34.2237Z" fill="white"/>
<path d="M17.0389 34.2563C17.3898 34.4992 17.6542 34.7583 17.7946 34.904C17.7568 34.9904 17.7352 35.0336 17.7352 35.0336C17.7352 35.0336 17.4006 34.7583 17.0389 34.2563Z" fill="white"/>
<path d="M14.3889 31.5036C14.7397 31.7518 14.9934 32.0163 15.1013 32.135C15.4683 31.6115 16.0782 30.5321 15.7112 29.4796C15.1121 27.7471 14.9556 26.4355 14.9556 26.4355C14.8423 26.4355 13.9625 27.909 13.9949 29.5336C14.0057 30.3 14.1946 30.9908 14.3889 31.5036ZM14.8261 31.4118C14.8261 31.4118 14.4321 30.8019 14.4213 30.0301C14.4051 29.2583 14.8261 28.5621 14.8746 28.5621C14.8746 28.5621 14.9502 29.1827 15.2309 30.0031C15.4737 30.694 14.8261 31.4118 14.8261 31.4118Z" fill="white"/>
<path d="M14.3889 31.5037C14.7397 31.7519 14.9934 32.0164 15.1014 32.1351C14.9556 32.3402 14.8477 32.459 14.8477 32.459C14.8477 32.459 14.6156 32.092 14.3889 31.5037Z" fill="white"/>
<path d="M12.8075 29.3934C12.9856 29.5715 13.1098 29.7335 13.1799 29.8252C13.5199 29.496 14.2486 28.6486 14.0327 27.6285C13.6981 26.0741 13.6981 24.9515 13.6981 24.9515C13.6063 24.9299 12.7211 26.0094 12.5862 27.3803C12.5053 28.1683 12.6618 28.9077 12.8075 29.3934ZM13.1205 29.2207C13.1205 29.2207 12.8507 28.6378 12.9155 27.9901C12.9802 27.3425 13.3958 26.8297 13.439 26.8405C13.439 26.8405 13.439 27.3749 13.5955 28.1089C13.7358 28.7296 13.1205 29.2207 13.1205 29.2207Z" fill="white"/>
<path d="M13.018 29.9762C13.018 29.9762 12.9154 29.7549 12.8075 29.3933C12.9856 29.5714 13.1097 29.7333 13.1799 29.8251C13.0828 29.9222 13.018 29.9762 13.018 29.9762Z" fill="white"/>
<path d="M11.8359 27.4773C12.1544 27.202 12.7427 26.5651 12.6131 25.7286C12.4026 24.3847 12.4566 23.4347 12.4566 23.4347C12.3757 23.4131 11.5823 24.2497 11.4041 25.3939C11.3232 25.9229 11.3664 26.441 11.4419 26.8404C11.647 27.1211 11.782 27.3747 11.8359 27.4773ZM11.8953 26.8512C11.8953 26.8512 11.6956 26.3385 11.782 25.7933C11.8683 25.2482 12.2461 24.8542 12.2785 24.865C12.2785 24.865 12.2515 25.313 12.3541 25.9499C12.4404 26.4896 11.8953 26.8512 11.8953 26.8512Z" fill="white"/>
<path d="M11.4365 26.8457C11.647 27.121 11.7819 27.3746 11.8359 27.4772C11.7226 27.5743 11.6416 27.6283 11.6416 27.6283C11.6416 27.6283 11.5175 27.3153 11.4365 26.8457Z" fill="white"/>
<path d="M11.6903 23.5266C11.5877 22.4148 11.6903 21.6537 11.6903 21.6537C11.6255 21.6268 10.8969 22.1989 10.681 23.1002C10.5569 23.6076 10.6 24.1203 10.654 24.4765C10.7728 24.66 10.8537 24.8111 10.8807 24.8705C11.1506 24.7086 11.7551 24.2606 11.6903 23.5266ZM10.8645 24.3632C10.8645 24.3632 10.7242 23.9206 10.8267 23.4942C10.9293 23.0678 11.2747 22.7926 11.3071 22.8088C11.3071 22.8088 11.2585 23.1704 11.3071 23.6993C11.3449 24.1419 10.8645 24.3632 10.8645 24.3632Z" fill="white"/>
<path d="M10.8806 24.8649C10.8051 24.9081 10.7565 24.9297 10.7565 24.9297C10.7565 24.9297 10.6971 24.7516 10.6539 24.4709C10.7781 24.6545 10.8536 24.811 10.8806 24.8649Z" fill="white"/>
<path d="M10.3572 23.4077C10.3572 23.4077 10.5299 21.8318 9.99015 21.1085C9.35328 20.2558 9.22914 19.824 9.22914 19.824C9.17517 19.8564 9.02405 20.9736 9.35867 21.9289C9.6933 22.8788 10.3572 23.4077 10.3572 23.4077ZM9.57996 21.7616C9.42344 21.3082 9.49361 20.7793 9.52059 20.7631C9.52059 20.7631 9.57996 20.9682 9.88221 21.373C10.1359 21.713 10.0549 22.4632 10.0549 22.4632C10.0549 22.4632 9.74188 22.215 9.57996 21.7616Z" fill="white"/>
<path d="M7.60461 9.94681H7.8367C7.86368 10.1627 7.92305 10.3516 8.00401 10.5243C8.08497 10.697 8.18752 10.8428 8.31165 10.9615C8.43579 11.0802 8.58152 11.172 8.74343 11.2368C8.90535 11.3015 9.08346 11.3339 9.27236 11.3339C9.58541 11.3339 9.82828 11.2529 10.0118 11.0856C10.1953 10.9183 10.2817 10.6916 10.2817 10.411C10.2817 10.2922 10.2655 10.1843 10.2277 10.0817C10.1899 9.98459 10.1305 9.88744 10.0496 9.79569C9.96321 9.70394 9.85527 9.61218 9.70954 9.52043C9.56382 9.42868 9.3911 9.32073 9.17521 9.21818C8.91615 9.08865 8.69486 8.96451 8.51675 8.84577C8.33864 8.72703 8.19831 8.6029 8.09576 8.47336C7.98782 8.34383 7.91765 8.2089 7.86908 8.06317C7.8259 7.91745 7.80431 7.75553 7.80431 7.56662C7.80431 7.35073 7.8367 7.14564 7.90686 6.96213C7.97702 6.77862 8.07417 6.61671 8.19831 6.48178C8.32245 6.34685 8.47357 6.2443 8.64628 6.16874C8.819 6.09317 9.0079 6.06079 9.21299 6.06079C9.3965 6.06079 9.56921 6.09317 9.73113 6.15794C9.89305 6.22271 10.055 6.33065 10.2169 6.47638L10.3788 6.15794H10.5245L10.5947 7.57742H10.3626C10.2601 7.18882 10.1143 6.89736 9.92543 6.70846C9.73653 6.51956 9.50445 6.42241 9.23458 6.42241C8.97552 6.42241 8.77582 6.49257 8.6193 6.6383C8.46817 6.77863 8.39261 6.97293 8.39261 7.2158C8.39261 7.32914 8.4088 7.43169 8.44119 7.52345C8.47357 7.6152 8.52754 7.70156 8.60311 7.78791C8.67867 7.86887 8.77582 7.95523 8.89995 8.03618C9.02409 8.11714 9.17521 8.2035 9.35332 8.29525C9.66636 8.45177 9.92543 8.5975 10.1305 8.73243C10.3356 8.86736 10.5029 9.00229 10.6217 9.13722C10.7458 9.27216 10.8322 9.41248 10.8807 9.56361C10.9293 9.71473 10.9563 9.88204 10.9563 10.0656C10.9563 10.303 10.9131 10.5243 10.8322 10.7186C10.7458 10.9183 10.6325 11.091 10.476 11.2314C10.3248 11.3717 10.1413 11.485 9.93083 11.5606C9.72034 11.6415 9.48826 11.6793 9.23458 11.6793C8.99711 11.6793 8.78121 11.6415 8.58691 11.566C8.39801 11.4904 8.19831 11.3609 8.00401 11.1828L7.8259 11.5336H7.68018L7.60461 9.94681Z" fill="white"/>
<path d="M16.17 6.13117H16.3481L16.4075 7.77194H16.1754C16.0837 7.35635 15.9056 7.02712 15.6411 6.78964C15.3658 6.55216 15.0474 6.43342 14.675 6.43342C14.4159 6.43342 14.1892 6.49279 13.9841 6.60613C13.7844 6.71947 13.6117 6.88139 13.4714 7.09728C13.3311 7.31317 13.2285 7.57224 13.153 7.87988C13.0774 8.18753 13.045 8.53835 13.045 8.92695C13.045 9.69336 13.1854 10.2817 13.466 10.6919C13.7467 11.102 14.1569 11.3071 14.6912 11.3071C15.5062 11.3071 16.0243 10.8214 16.2564 9.84448H16.5155V11.6202H16.2942L16.1484 11.0589C15.7059 11.4798 15.1715 11.6957 14.5455 11.6957C14.1892 11.6957 13.8654 11.631 13.574 11.5014C13.2879 11.3719 13.0396 11.1938 12.8345 10.9563C12.6294 10.7188 12.4729 10.4328 12.3596 10.0982C12.2462 9.75813 12.1923 9.38572 12.1923 8.97013C12.1923 8.53835 12.2516 8.14435 12.3704 7.78813C12.4891 7.43191 12.651 7.12427 12.8669 6.8706C13.0774 6.61153 13.3365 6.41723 13.6333 6.2769C13.9302 6.13657 14.2594 6.06641 14.6156 6.06641C14.8693 6.06641 15.1068 6.10419 15.3281 6.18515C15.5494 6.2661 15.7922 6.39564 16.0567 6.57915L16.17 6.13117Z" fill="white"/>
<path d="M54.5499 7.5074C54.5499 7.76107 54.5121 7.98236 54.4419 8.18206C54.3718 8.38176 54.2584 8.54907 54.1019 8.6894C53.9508 8.82973 53.7457 8.93228 53.5028 9.00784C53.2545 9.0834 52.9577 9.12118 52.6015 9.12118H52.0348V10.4975C52.0348 10.6756 52.0456 10.8159 52.0617 10.9293C52.0833 11.0426 52.1211 11.129 52.1805 11.1883C52.2399 11.2477 52.3316 11.2909 52.445 11.3125C52.5583 11.3341 52.7148 11.3448 52.9037 11.3448V11.6147H50.6801V11.3448C50.8258 11.3395 50.9445 11.3233 51.0363 11.3017C51.128 11.2801 51.1982 11.2369 51.2468 11.1829C51.2953 11.1236 51.3331 11.048 51.3493 10.9401C51.3655 10.8375 51.3763 10.7026 51.3763 10.5353V7.21595C51.3763 7.04864 51.3709 6.91371 51.3547 6.81116C51.3385 6.70861 51.3115 6.62765 51.2684 6.56828C51.2252 6.50891 51.1604 6.47113 51.0741 6.44954C50.9877 6.42795 50.8797 6.41176 50.7448 6.40097V6.1311H52.731C53.3139 6.1311 53.7619 6.24984 54.0803 6.49272C54.3934 6.74099 54.5499 7.07562 54.5499 7.5074ZM52.0348 8.77036H52.4827C52.9037 8.77036 53.2168 8.67861 53.4219 8.4951C53.627 8.31159 53.7295 8.00935 53.7295 7.59376C53.7295 7.18896 53.6485 6.90291 53.4866 6.7302C53.3247 6.55749 53.071 6.47113 52.7256 6.47113H52.1427C52.0725 6.47113 52.0348 6.50891 52.0348 6.58987V8.77036V8.77036Z" fill="white"/>
<path d="M59.3966 7.50738C59.3966 7.88518 59.294 8.20362 59.0943 8.45729C58.8946 8.71096 58.5708 8.87828 58.1282 8.96463L59.5261 10.8591C59.6394 11.0156 59.7636 11.1289 59.9039 11.1991C60.0388 11.2693 60.2062 11.3178 60.3951 11.3502V11.6201H59.1753L57.6263 9.38022C57.5723 9.29926 57.5183 9.2345 57.4697 9.18592C57.4212 9.13735 57.3726 9.09957 57.3186 9.07798C57.2646 9.05099 57.2053 9.0348 57.1351 9.0294C57.065 9.024 56.984 9.01861 56.8868 9.01861V10.5029C56.8868 10.681 56.8976 10.8213 56.9138 10.9346C56.9354 11.048 56.9732 11.1343 57.0326 11.1937C57.0919 11.2531 57.1837 11.2962 57.297 11.3178C57.4104 11.3394 57.5669 11.3502 57.7558 11.3502V11.6201H55.5267V11.3502C55.6725 11.3448 55.7912 11.3286 55.883 11.307C55.9747 11.2855 56.0449 11.2423 56.0934 11.1883C56.142 11.1289 56.1798 11.0534 56.196 10.9454C56.2122 10.8429 56.223 10.7079 56.223 10.5406V7.22132C56.223 7.05401 56.2176 6.91908 56.2014 6.81653C56.1852 6.71398 56.1582 6.63302 56.115 6.57365C56.0719 6.51428 56.0071 6.4765 55.9207 6.45491C55.8344 6.43332 55.7264 6.41713 55.5915 6.40634V6.13647H57.5777C58.1606 6.13647 58.6086 6.25521 58.927 6.49809C59.2346 6.74097 59.3966 7.0756 59.3966 7.50738ZM56.8814 8.66239H57.3294C57.7504 8.66239 58.0634 8.57603 58.2685 8.40332C58.4736 8.23061 58.5762 7.94455 58.5762 7.54516C58.5762 7.16195 58.4952 6.88669 58.3333 6.71938C58.1714 6.55206 57.9177 6.4711 57.5723 6.4711H56.9894C56.9192 6.4711 56.8814 6.50889 56.8814 6.58984V8.66239V8.66239Z" fill="white"/>
<path d="M38.3474 11.5553C37.4676 8.93764 36.3882 6.39014 35.3141 3.83724C35.0065 2.76858 34.7042 1.67834 34.3642 0.820173C34.294 0.636666 34.1969 0.496338 33.9432 0.496338C33.6895 0.496338 33.587 0.631269 33.5114 0.814776C33.2416 1.49483 32.9825 2.30442 32.7288 3.13559C31.9462 4.84113 31.1636 6.54666 30.3379 8.236C28.7511 11.4959 29.2908 14.6965 30.7427 17.9834C31.698 20.1477 32.3726 23.4724 33.2416 25.6745C33.3387 25.9228 33.4737 26.1117 33.8137 26.1117C34.1537 26.1117 34.2994 25.9282 34.3966 25.6853C35.2979 23.4185 36.0913 20.0722 36.9765 17.7945C37.7645 15.7706 39.049 13.6386 38.3474 11.5553ZM36.5987 16.6773C35.9618 18.3612 35.3411 20.6281 34.742 23.3645C34.6988 23.5534 34.5693 23.6829 34.321 23.6829C34.0728 23.6829 33.981 23.5426 33.9054 23.3591C33.2794 21.7237 32.7936 18.426 32.1028 16.823C31.0557 14.3889 30.6671 12.0195 31.8113 9.6069C32.405 8.35474 32.9663 7.09178 33.533 5.82882C33.7165 5.21354 33.9 4.60904 34.0943 4.1071C34.1483 3.97217 34.2239 3.86962 34.402 3.87502C34.5855 3.87502 34.6557 3.97756 34.7096 4.11789C34.9525 4.75477 35.1684 5.55896 35.3951 6.35236C36.1669 8.24139 36.9495 10.1304 37.581 12.068C38.0829 13.6009 37.16 15.1823 36.5987 16.6773Z" fill="white"/>
<path d="M40.1393 29.4634C40.1663 30.6238 39.6914 31.482 38.5795 31.6493C37.3921 31.8274 36.0374 31.4334 35.638 30.505C35.5355 30.273 35.4977 30.0841 35.2494 30.1272H35.244C35.2818 32.2214 36.0968 33.5005 37.5972 33.9323C38.817 34.2831 40.0098 33.8999 40.5873 32.977C41.2673 31.8921 41.1162 30.5644 40.1393 29.4634ZM37.5163 33.6732C36.1669 33.4088 35.3682 31.482 35.4491 30.6778C35.4491 30.6778 35.7352 31.5467 36.032 31.9191C36.4422 32.4265 37.7375 32.8367 38.8008 32.7557C39.6428 32.6909 40.3066 31.876 40.5117 31.2175C40.9975 32.2538 40.1933 34.2022 37.5163 33.6732Z" fill="white"/>
<path d="M32.4753 30.1219C32.227 30.0787 32.1839 30.2622 32.0867 30.4997C31.6873 31.428 30.3326 31.822 29.1452 31.6439C28.0388 31.4766 27.5584 30.6184 27.5854 29.458C26.6031 30.559 26.4574 31.8868 27.1374 32.977C27.7149 33.8999 28.9077 34.2832 30.1275 33.9323C31.6333 33.5005 32.4483 32.2214 32.4807 30.1273L32.4753 30.1219ZM30.1545 33.6571C27.4774 34.186 26.6733 32.2376 27.1536 31.2013C27.3641 31.8598 28.0226 32.6748 28.8645 32.7395C29.9278 32.8205 31.2231 32.4157 31.6333 31.903C31.9302 31.5306 32.2162 30.6616 32.2162 30.6616C32.308 31.4658 31.5038 33.3872 30.1545 33.6571Z" fill="white"/>
<path d="M46.4864 15.8622C44.3653 14.664 42.1578 14.9339 40.231 16.3372C37.3867 18.4151 36.1615 22.5008 35.6326 26.0036C36.1723 25.8741 36.4152 24.6813 36.6041 24.2927C37.4892 22.4846 39.3945 21.5563 41.2565 21.1515C43.9929 20.5578 45.8658 22.517 45.1911 25.2048C45.1371 25.4261 45.04 25.642 44.9482 25.9065C47.2798 25.4585 49.1635 23.3644 49.2714 21.1515C49.3902 18.8469 48.478 16.9902 46.4864 15.8622ZM45.4987 24.9997C45.5905 24.7892 45.6715 24.4492 45.7254 24.2765C46.3785 22.1446 44.198 20.126 41.5588 20.5956C39.7669 20.914 37.9588 21.8963 36.9333 23.2564C36.7174 23.5425 36.453 24.0174 36.0859 24.908C36.7822 22.0744 38.1639 19.1437 41.1108 17.897C45.4124 16.0727 47.798 18.9494 47.7872 20.7845C47.7818 21.389 47.6684 23.2456 45.4987 24.9997Z" fill="white"/>
<path d="M27.5205 16.3481C25.5991 14.9449 23.3862 14.675 21.2651 15.8732C19.2735 17.0012 18.3614 18.8579 18.4747 21.1679C18.5881 23.3754 20.4663 25.4695 22.7979 25.9229C22.7062 25.6584 22.609 25.4425 22.555 25.2212C21.8804 22.5334 23.7532 20.5742 26.4896 21.1679C28.3517 21.5727 30.2569 22.5064 31.1421 24.3091C31.331 24.6977 31.5738 25.8905 32.1136 26.02C31.59 22.5172 30.3649 18.4261 27.5205 16.3481ZM30.8128 23.2674C29.7874 21.9019 27.9793 20.925 26.1874 20.6066C23.5481 20.137 21.373 22.1556 22.0207 24.2875C22.0747 24.4656 22.1556 24.8056 22.2474 25.0107C20.0777 23.262 19.9644 21.4054 19.959 20.7901C19.9482 18.955 22.3284 16.0783 26.6354 17.9025C29.5823 19.1547 30.8182 22.0314 31.6602 24.9136C31.2932 24.0284 31.0287 23.5535 30.8128 23.2674Z" fill="white"/>
<path d="M37.1114 35.4595C37.0629 35.2437 36.9171 35.3408 36.7336 35.2814C36.3828 35.1735 36.2047 35.0332 36.0644 34.8281C35.4437 33.3654 34.7582 31.9891 34.1591 30.5642C34.1159 30.4131 34.0728 30.2728 34.0296 30.1432C33.9918 30.0353 33.9432 29.9543 33.8137 29.9543C33.6842 29.9543 33.6356 30.0299 33.5978 30.1379C33.56 30.2566 33.5169 30.3807 33.4791 30.5049C33.1822 31.1525 32.5076 32.6314 31.9409 33.9321C31.6116 34.5204 31.563 34.8281 30.9208 35.0224C30.7373 35.0763 30.5861 34.9846 30.543 35.2005V35.2059C31.4551 35.6538 32.1837 35.5027 32.8044 35.1465C33.0905 36.0155 33.3927 36.9222 33.7705 38.0556C34.0944 37.2946 34.3318 36.825 34.4992 36.3285C34.6071 36.0047 34.7204 35.6215 34.7906 35.2976C35.4329 35.697 36.1561 35.9399 37.1222 35.4649L37.1114 35.4595ZM35.6218 35.2005C35.3249 35.1519 34.9093 34.8389 34.5747 34.5798C34.4074 35.0278 34.2347 35.8643 34.0134 36.4958C33.9918 36.5552 33.8839 36.5498 33.8623 36.4904C33.7004 36.0694 33.5007 35.5945 33.4089 35.3462C33.3441 35.1627 33.1552 34.8227 33.0203 34.5852C32.54 35.2059 31.6494 35.2383 31.6062 35.1465C31.6062 35.1465 31.8923 35.0008 32.1082 34.8389C32.4752 34.5582 32.7936 33.6892 33.0365 33.1117C33.2956 32.5018 33.7597 31.4224 33.9324 31.4224C34.0998 31.4224 34.4992 32.572 34.796 33.387C34.8662 33.5759 35.1684 34.175 35.2656 34.3477C35.4005 34.596 35.5948 34.963 35.7837 35.1087C35.8862 35.1897 35.7945 35.2275 35.6218 35.2005Z" fill="white"/>
<path d="M57.4861 22.6792C57.335 23.3539 57.1568 24.0123 56.9571 24.66C56.7574 25.3077 56.5254 25.9391 56.2771 26.549C55.7859 27.7742 55.1707 28.9238 54.4744 29.9655C54.129 30.4836 53.762 30.9802 53.3734 31.4443C52.2184 32.826 50.8636 33.9702 49.5035 34.9903C48.586 35.6758 47.6415 36.3127 46.7078 36.9765C46.589 37.0575 46.4757 37.1438 46.3569 37.2302C45.5366 37.8293 44.7324 38.4716 43.9822 39.211C43.5504 39.632 43.2535 40.0853 42.7354 40.4523C41.127 41.6128 38.8008 42.5681 35.5247 43.7447C35.557 43.7878 35.9564 43.831 36.0104 43.8148C37.3759 43.3615 38.7468 43.0376 39.7021 42.7192C40.4146 42.4817 42.6652 41.548 43.0754 41.127C43.4856 40.706 43.9066 40.285 44.3438 39.9072C44.7756 39.5186 45.2181 39.1462 45.6607 38.7846L45.9953 38.5147L46.3354 38.2449C46.562 38.0668 46.7887 37.8887 47.0154 37.7105C47.9221 36.9981 48.8451 36.3019 49.7572 35.5786C50.4427 35.0335 51.1227 34.4614 51.7704 33.8461L51.9323 33.6896C52.4235 33.22 52.8876 32.7127 53.3356 32.1784L53.627 31.8006C54.0102 31.304 54.3773 30.7805 54.7173 30.2354C55.7266 28.5892 56.5362 26.7163 57.0813 24.7194C57.2648 24.0555 57.4159 23.3808 57.5454 22.6954L57.4861 22.6792Z" fill="white"/>
<path d="M45.5691 39.0488C45.0024 39.0974 44.4843 39.3133 44.0525 39.5724C43.5937 40.1661 43.1188 40.5493 42.8651 40.7382C43.2051 41.1754 44.5113 42.6812 45.7095 41.8878C47.361 40.803 48.6186 40.4737 48.6186 40.4737C48.6186 40.2902 47.1505 38.9139 45.5691 39.0488ZM45.1212 41.0674C44.4627 41.5046 43.7341 40.4683 43.7341 40.4683C43.7341 40.4683 44.3062 39.7883 45.0564 39.7235C45.8012 39.6587 46.4975 40.3118 46.5029 40.3982C46.5029 40.3982 45.9038 40.5547 45.1212 41.0674Z" fill="white"/>
<path d="M48.9477 36.1021C47.3717 36.2424 46.1573 37.6727 46.1573 37.6727C46.1573 37.6727 47.6956 39.8586 49.0881 38.9356C50.7396 37.8508 51.9972 37.5215 51.9972 37.5215C51.9972 37.338 50.5291 35.9617 48.9477 36.1021ZM48.5645 38.1854C47.9061 38.6226 47.1774 37.5863 47.1774 37.5863C47.1774 37.5863 47.7495 36.9063 48.4998 36.8415C49.2446 36.7767 49.9408 37.4298 49.9462 37.5161C49.9462 37.5161 49.3471 37.6727 48.5645 38.1854Z" fill="white"/>
<path d="M52.1593 33.6841C51.6034 33.7327 51.1068 33.9809 50.7128 34.2508C50.3512 34.7581 50.0166 35.0334 50.0166 35.0334C50.0166 35.0334 49.995 34.9848 49.9572 34.9039C49.8817 34.9848 49.8439 35.0334 49.8439 35.0334C49.8439 35.0334 51.123 36.917 52.2834 36.129C53.6543 35.2007 54.7014 34.9201 54.7014 34.9201C54.6906 34.7635 53.4708 33.5708 52.1593 33.6841ZM51.8463 35.5947C51.2957 35.9671 50.6912 35.0766 50.6912 35.0766C50.6912 35.0766 51.1662 34.4937 51.7869 34.4397C52.4076 34.3857 52.9851 34.9471 52.9905 35.0226C52.9905 35.0226 52.4939 35.1521 51.8463 35.5947Z" fill="white"/>
<path d="M54.7554 30.9422C54.2156 30.9908 53.7353 31.2391 53.3629 31.5035C53.1416 32.0918 52.9041 32.4588 52.9041 32.4588C52.9041 32.4588 52.7962 32.3401 52.6504 32.135C52.6127 32.1782 52.5911 32.1998 52.5911 32.1998C52.5911 32.1998 53.7839 33.9593 54.8687 33.2253C56.1479 32.3563 57.1248 32.0972 57.1248 32.0972C57.1194 31.9515 55.9805 30.8397 54.7554 30.9422ZM54.3344 32.7611C53.8216 33.1119 53.2549 32.2753 53.2549 32.2753C53.2549 32.2753 53.6975 31.7302 54.2804 31.6816C54.8579 31.6331 55.403 32.1566 55.403 32.2268C55.403 32.2268 54.9389 32.3509 54.3344 32.7611Z" fill="white"/>
<path d="M56.2504 28.5944C55.7106 28.7185 55.2573 29.0801 54.9442 29.3932C54.8363 29.7548 54.7337 29.9761 54.7337 29.9761C54.7337 29.9761 54.669 29.9221 54.5718 29.8303C54.534 29.8843 54.5125 29.9167 54.5125 29.9167C54.5125 29.9167 55.6405 31.2552 56.4986 30.505C57.5133 29.6198 58.3229 29.2852 58.3229 29.2852C58.3121 29.1557 57.2758 28.3569 56.2504 28.5944ZM56.1532 30.0732C55.743 30.4294 55.2141 29.7926 55.2141 29.7926C55.2141 29.7926 55.5541 29.2798 56.0345 29.1665C56.5202 29.0531 57.0114 29.4309 57.0168 29.4903C57.0168 29.4903 56.6336 29.6522 56.1532 30.0732Z" fill="white"/>
<path d="M57.2003 26.0847C56.8333 26.2628 56.5364 26.5651 56.3152 26.8457C56.2288 27.3153 56.1101 27.6283 56.1101 27.6283C56.1101 27.6283 56.0291 27.5744 55.9158 27.4772C55.8996 27.5096 55.8942 27.5258 55.8942 27.5258C55.8942 27.5258 56.9844 28.4271 57.6159 27.6337C58.3661 26.6946 59.003 26.2574 59.003 26.2574C58.9814 26.1549 58.0261 25.6907 57.2003 26.0847ZM57.2273 27.3315C56.925 27.7093 56.4123 27.2829 56.4123 27.2829C56.4123 27.2829 56.639 26.7918 57.0276 26.6029C57.4216 26.414 57.8696 26.6352 57.8858 26.6838C57.8858 26.6838 57.5835 26.8889 57.2273 27.3315Z" fill="white"/>
<path d="M56.8711 24.8649C56.8658 24.8811 56.8604 24.8919 56.8604 24.8919C56.8604 24.8919 57.7887 25.7338 58.3284 25.0538C58.9653 24.2496 59.5104 23.8826 59.5104 23.8826C59.4888 23.7908 58.6738 23.3429 57.9722 23.6613C57.5836 23.8394 57.2867 24.1902 57.1032 24.4763C57.0601 24.7569 57.0007 24.935 57.0007 24.935C57.0007 24.935 56.9467 24.9135 56.8711 24.8649ZM57.8696 24.1093C58.2043 23.9581 58.5875 24.1686 58.5983 24.2118C58.5983 24.2118 58.3392 24.3845 58.037 24.7677C57.7833 25.0916 57.3407 24.6922 57.3407 24.6922C57.3407 24.6922 57.535 24.2604 57.8696 24.1093Z" fill="white"/>
<path d="M44.0579 39.5725C44.3601 39.1785 44.6624 38.6981 44.8891 38.126C45.6285 36.2693 45.2777 33.9215 45.1535 33.8406C45.1535 33.8406 44.4141 35.2385 42.9946 36.7983C41.7964 38.1152 42.6708 40.8732 42.6708 40.8732C42.6708 40.8732 42.7464 40.83 42.8705 40.7383C42.8165 40.6681 42.7841 40.6249 42.7841 40.6249C42.7841 40.6249 43.2807 40.0312 44.0579 39.5725ZM43.2213 38.045C43.8906 37.3056 44.2414 36.6418 44.2414 36.6418C44.3008 36.6795 44.4681 37.7914 44.1173 38.6711C43.7664 39.5509 43.0648 39.9719 43.0648 39.9719C43.0648 39.9719 42.6546 38.6711 43.2213 38.045Z" fill="white"/>
<path d="M42.7788 40.625C42.7788 40.625 42.8112 40.6681 42.8652 40.7383C43.1242 40.5494 43.5938 40.1662 44.0526 39.5725C43.2808 40.0313 42.7788 40.625 42.7788 40.625Z" fill="white"/>
<path d="M48.4837 35.1144C49.385 33.3927 49.2555 31.0071 49.1422 30.9045C49.1422 30.9045 48.2786 32.1729 46.7296 33.4898C45.4181 34.6017 46.0333 37.4784 46.0333 37.4784C46.0333 37.4784 47.5824 36.8415 48.4837 35.1144ZM46.8429 34.7096C47.577 34.0835 47.9871 33.4844 47.9871 33.4844C48.0411 33.533 48.1059 34.661 47.6741 35.476C47.2477 36.291 46.5137 36.5986 46.5137 36.5986C46.5137 36.5986 46.2222 35.2385 46.8429 34.7096Z" fill="white"/>
<path d="M51.4683 32.6693C51.8623 31.1743 51.3765 29.458 51.274 29.4148C51.274 29.4148 50.8368 30.5698 49.8869 31.9299C49.2122 32.9068 49.7681 34.445 49.957 34.9038C50.0974 34.7527 50.3618 34.4936 50.7127 34.2561C50.9987 33.8567 51.2956 33.3224 51.4683 32.6693ZM50.0542 32.7503C50.5022 32.1026 50.7127 31.5575 50.7127 31.5575C50.7612 31.5791 50.9933 32.3887 50.8044 33.1011C50.6155 33.8082 50.1136 34.2237 50.1136 34.2237C50.1136 34.2237 49.671 33.3008 50.0542 32.7503Z" fill="white"/>
<path d="M50.7128 34.2561C50.3619 34.499 50.0975 34.758 49.9572 34.9038C49.9949 34.9901 50.0165 35.0333 50.0165 35.0333C50.0165 35.0333 50.3512 34.758 50.7128 34.2561Z" fill="white"/>
<path d="M53.7622 29.5389C53.7946 27.909 52.9094 26.4409 52.8015 26.4409C52.8015 26.4409 52.645 27.7524 52.0459 29.485C51.6789 30.5374 52.2833 31.6169 52.6558 32.1404C52.7637 32.0217 53.0174 31.7572 53.3682 31.5089C53.5571 30.9908 53.746 30.3 53.7622 29.5389ZM52.5154 30.0031C52.8015 29.1827 52.8717 28.562 52.8717 28.562C52.9256 28.562 53.3412 29.2583 53.3304 30.0301C53.3142 30.8019 52.9256 31.4118 52.9256 31.4118C52.9256 31.4118 52.278 30.694 52.5154 30.0031Z" fill="white"/>
<path d="M53.3627 31.5037C53.0119 31.7519 52.7582 32.0164 52.6503 32.1351C52.796 32.3402 52.9039 32.459 52.9039 32.459C52.9039 32.459 53.136 32.092 53.3627 31.5037Z" fill="white"/>
<path d="M55.1708 27.38C55.0359 26.0091 54.1561 24.9297 54.059 24.9512C54.059 24.9512 54.059 26.0739 53.7243 27.6283C53.503 28.6484 54.2371 29.4957 54.5771 29.825C54.6473 29.7332 54.7768 29.5713 54.9495 29.3932C55.0898 28.9074 55.2463 28.168 55.1708 27.38ZM54.1507 28.1086C54.3072 27.3746 54.3072 26.8403 54.3072 26.8403C54.3504 26.8295 54.7714 27.3422 54.8308 27.9899C54.8955 28.6376 54.6257 29.2205 54.6257 29.2205C54.6257 29.2205 54.0158 28.7293 54.1507 28.1086Z" fill="white"/>
<path d="M54.7392 29.9762C54.7392 29.9762 54.8417 29.7549 54.9497 29.3933C54.7716 29.5714 54.6474 29.7333 54.5773 29.8251C54.669 29.9222 54.7392 29.9762 54.7392 29.9762Z" fill="white"/>
<path d="M56.315 26.8458C56.3852 26.441 56.4338 25.9282 56.3528 25.3993C56.1747 24.2551 55.3759 23.4131 55.3003 23.4401C55.3003 23.4401 55.3543 24.39 55.1438 25.7339C55.0143 26.5705 55.6026 27.2074 55.921 27.4826C55.9696 27.3747 56.1045 27.121 56.315 26.8458ZM55.3975 25.9552C55.4946 25.3183 55.4731 24.8704 55.4731 24.8704C55.5108 24.8596 55.8886 25.2536 55.9696 25.7987C56.056 26.3438 55.8563 26.8565 55.8563 26.8565C55.8563 26.8565 55.3111 26.4895 55.3975 25.9552Z" fill="white"/>
<path d="M56.315 26.8457C56.1046 27.121 55.9696 27.3746 55.9156 27.4772C56.029 27.5743 56.11 27.6283 56.11 27.6283C56.11 27.6283 56.2341 27.3153 56.315 26.8457Z" fill="white"/>
<path d="M56.871 24.8649C56.898 24.8055 56.9736 24.6544 57.0977 24.4709C57.1571 24.1147 57.1948 23.6019 57.0707 23.0946C56.8548 22.1933 56.1262 21.6211 56.0614 21.6481C56.0614 21.6481 56.1586 22.4091 56.0614 23.521C55.9967 24.2604 56.6065 24.7084 56.871 24.8649ZM56.4446 23.6991C56.4932 23.1702 56.4446 22.8085 56.4446 22.8085C56.477 22.7923 56.817 23.0676 56.925 23.494C57.0275 23.9204 56.8872 24.363 56.8872 24.363C56.8872 24.363 56.4068 24.1417 56.4446 23.6991Z" fill="white"/>
<path d="M56.8711 24.8649C56.9467 24.9081 56.9952 24.9297 56.9952 24.9297C56.9952 24.9297 57.0546 24.7516 57.0978 24.4709C56.979 24.6545 56.8981 24.811 56.8711 24.8649Z" fill="white"/>
<path d="M58.3931 21.9289C58.7277 20.979 58.5766 19.8564 58.5226 19.824C58.5226 19.824 58.3985 20.2612 57.7616 21.1085C57.2219 21.8264 57.3946 23.4077 57.3946 23.4077C57.3946 23.4077 58.0585 22.8788 58.3931 21.9289ZM57.6968 22.4632C57.6968 22.4632 57.6159 21.7184 57.8695 21.373C58.1718 20.9682 58.2312 20.7631 58.2312 20.7631C58.2582 20.7793 58.3283 21.3082 58.1718 21.7616C58.0153 22.215 57.6968 22.4632 57.6968 22.4632Z" fill="white"/>
<path d="M10.2654 22.6792C10.4165 23.3539 10.5947 24.0123 10.7944 24.66C10.9941 25.3077 11.2261 25.9391 11.4744 26.549C11.9656 27.7742 12.5808 28.9238 13.2771 29.9655C13.6225 30.4836 13.9895 30.9802 14.3781 31.4443C15.5331 32.826 16.8879 33.9702 18.248 34.9903C19.1655 35.6758 20.11 36.3127 21.0437 36.9765C21.1625 37.0575 21.2758 37.1438 21.3946 37.2302C22.2149 37.8293 23.0191 38.4716 23.7693 39.211C24.2011 39.632 24.498 40.0853 25.0161 40.4523C26.6245 41.6128 28.9507 42.5681 32.2268 43.7447C32.1945 43.7878 31.7951 43.831 31.7411 43.8148C30.3756 43.3615 29.0047 43.0376 28.0494 42.7192C27.3369 42.4817 25.0863 41.548 24.6761 41.127C24.2659 40.706 23.8449 40.285 23.4077 39.9072C22.976 39.5186 22.5334 39.1462 22.0908 38.7846L21.7562 38.5147L21.4161 38.2449C21.1895 38.0668 20.9628 37.8887 20.7361 37.7105C19.8294 36.9981 18.9064 36.3019 17.9943 35.5786C17.3088 35.0335 16.6288 34.4614 15.9811 33.8461L15.8192 33.6896C15.328 33.22 14.8639 32.7127 14.4159 32.1784L14.1245 31.8006C13.7413 31.304 13.3742 30.7805 13.0342 30.2354C12.0249 28.5892 11.2153 26.7163 10.6702 24.7194C10.4867 24.0555 10.3356 23.3808 10.2061 22.6954L10.2654 22.6792Z" fill="white"/>
<path d="M19.1277 40.474C19.1277 40.474 20.3906 40.8032 22.0368 41.888C23.235 42.676 24.5411 41.1756 24.8812 40.7384C24.6221 40.5495 24.1525 40.1663 23.6938 39.5726C23.262 39.3136 22.7438 39.0977 22.1771 39.0491C20.6065 38.9142 19.1331 40.2905 19.1277 40.474ZM21.2542 40.3984C21.2596 40.312 21.9504 39.659 22.7007 39.7237C23.4455 39.7885 24.023 40.4686 24.023 40.4686C24.023 40.4686 23.2944 41.5048 22.6359 41.0677C21.8479 40.5549 21.2542 40.3984 21.2542 40.3984Z" fill="white"/>
<path d="M15.749 37.5269C15.749 37.5269 17.012 37.8562 18.6581 38.941C20.056 39.8586 21.5888 37.6781 21.5888 37.6781C21.5888 37.6781 20.3745 36.2424 18.7985 36.1075C17.2279 35.9617 15.7544 37.338 15.749 37.5269ZM17.8054 37.5161C17.8108 37.4298 18.5016 36.7767 19.2518 36.8415C19.9967 36.9063 20.5742 37.5863 20.5742 37.5863C20.5742 37.5863 19.8455 38.6226 19.1871 38.1854C18.4045 37.6727 17.8054 37.5161 17.8054 37.5161Z" fill="white"/>
<path d="M13.0558 34.9201C13.0558 34.9201 14.1029 35.2007 15.4738 36.129C16.6342 36.917 17.9133 35.0334 17.9133 35.0334C17.9133 35.0334 17.8701 34.9848 17.8 34.9039C17.7622 34.9902 17.7406 35.0334 17.7406 35.0334C17.7406 35.0334 17.406 34.7581 17.0444 34.2508C16.6504 33.9809 16.1538 33.7327 15.5979 33.6841C14.2864 33.5708 13.0612 34.7635 13.0558 34.9201ZM14.7613 35.0226C14.7613 34.9471 15.3442 34.3803 15.9649 34.4397C16.5856 34.4937 17.0605 35.0766 17.0605 35.0766C17.0605 35.0766 16.4561 35.9671 15.9055 35.5947C15.2579 35.1521 14.7613 35.0226 14.7613 35.0226Z" fill="white"/>
<path d="M10.627 32.0972C10.627 32.0972 11.6039 32.3563 12.883 33.2253C13.9625 33.9593 15.1606 32.1998 15.1606 32.1998C15.1606 32.1998 15.1391 32.1728 15.1013 32.135C14.9555 32.3401 14.8476 32.4588 14.8476 32.4588C14.8476 32.4588 14.6155 32.0918 14.3888 31.5035C14.0164 31.2391 13.5361 30.9908 12.9963 30.9422C11.7766 30.8397 10.6324 31.9515 10.627 32.0972ZM12.3487 32.2268C12.3487 32.1566 12.8938 31.6277 13.4713 31.6816C14.0488 31.7302 14.4968 32.2753 14.4968 32.2753C14.4968 32.2753 13.9301 33.1065 13.4173 32.7611C12.8128 32.3509 12.3487 32.2268 12.3487 32.2268Z" fill="white"/>
<path d="M9.42883 29.28C9.42883 29.28 10.2384 29.6146 11.2531 30.4998C12.1167 31.25 13.2393 29.9115 13.2393 29.9115C13.2393 29.9115 13.2177 29.8791 13.1799 29.8251C13.0828 29.9223 13.018 29.9709 13.018 29.9709C13.018 29.9709 12.9155 29.7496 12.8075 29.388C12.4999 29.0749 12.0465 28.7133 11.5014 28.5892C10.4813 28.3571 9.43963 29.1559 9.42883 29.28ZM10.735 29.4905C10.7404 29.4311 11.2315 29.0533 11.7173 29.1667C12.203 29.28 12.5376 29.7927 12.5376 29.7927C12.5376 29.7927 12.0033 30.4296 11.5985 30.0734C11.1182 29.6524 10.735 29.4905 10.735 29.4905Z" fill="white"/>
<path d="M8.74329 26.2577C8.74329 26.2577 9.38016 26.6949 10.1304 27.634C10.7673 28.4274 11.8521 27.526 11.8521 27.526C11.8521 27.526 11.8467 27.5098 11.8305 27.4775C11.7172 27.5746 11.6362 27.6286 11.6362 27.6286C11.6362 27.6286 11.5175 27.3155 11.4311 26.846C11.2152 26.5653 10.913 26.2631 10.546 26.085C9.72559 25.691 8.77027 26.1551 8.74329 26.2577ZM9.86591 26.6841C9.87671 26.6355 10.3301 26.4142 10.7241 26.6031C11.1181 26.792 11.3394 27.2832 11.3394 27.2832C11.3394 27.2832 10.8266 27.7095 10.5244 27.3317C10.1682 26.8892 9.86591 26.6841 9.86591 26.6841Z" fill="white"/>
<path d="M10.7565 24.9351C10.7565 24.9351 10.6972 24.757 10.654 24.4764C10.4651 24.1957 10.1682 23.8395 9.78504 23.6614C9.078 23.3376 8.26842 23.7909 8.24683 23.8827C8.24683 23.8827 8.78655 24.2497 9.42882 25.0539C9.96855 25.7339 10.8969 24.892 10.8969 24.892C10.8969 24.892 10.8915 24.8812 10.8861 24.865C10.8051 24.9136 10.7565 24.9351 10.7565 24.9351ZM10.4057 24.6923C10.4057 24.6923 9.96855 25.0917 9.70948 24.7678C9.40724 24.3846 9.14817 24.2119 9.14817 24.2119C9.15896 24.1687 9.54217 23.9528 9.8768 24.1094C10.2168 24.2605 10.4057 24.6923 10.4057 24.6923Z" fill="white"/>
<path d="M24.9729 40.6249C24.9729 40.6249 24.9405 40.6681 24.8866 40.7383C25.0107 40.83 25.0863 40.8732 25.0863 40.8732C25.0863 40.8732 25.9606 38.1206 24.7624 36.7983C23.3429 35.2385 22.6035 33.8406 22.6035 33.8406C22.4794 33.9215 22.1286 36.2693 22.868 38.126C23.0947 38.6981 23.3969 39.1839 23.6992 39.5725C24.471 40.0312 24.9729 40.6249 24.9729 40.6249ZM24.6815 39.9773C24.6815 39.9773 23.9798 39.5563 23.629 38.6765C23.2782 37.7968 23.4455 36.6849 23.5049 36.6471C23.5049 36.6471 23.8557 37.311 24.5249 38.0504C25.0971 38.6711 24.6815 39.9773 24.6815 39.9773Z" fill="white"/>
<path d="M24.9728 40.625C24.9728 40.625 24.9405 40.6681 24.8865 40.7383C24.6274 40.5494 24.1579 40.1662 23.6991 39.5725C24.4709 40.0313 24.9728 40.625 24.9728 40.625Z" fill="white"/>
<path d="M21.7237 37.4784C21.7237 37.4784 22.339 34.6017 21.0275 33.4898C19.4785 32.1729 18.6149 30.9045 18.6149 30.9045C18.5016 31.0071 18.3667 33.3927 19.2734 35.1144C20.1747 36.8415 21.7237 37.4784 21.7237 37.4784ZM21.238 36.5986C21.238 36.5986 20.504 36.2964 20.0776 35.476C19.6512 34.661 19.7106 33.5276 19.7645 33.4844C19.7645 33.4844 20.1747 34.0835 20.9088 34.7096C21.5294 35.2385 21.238 36.5986 21.238 36.5986Z" fill="white"/>
<path d="M17.039 34.2561C17.3898 34.499 17.6543 34.7581 17.7946 34.9038C17.9835 34.445 18.5394 32.9068 17.8648 31.9299C16.9148 30.5644 16.4777 29.4148 16.4777 29.4148C16.3751 29.458 15.8894 31.1743 16.2834 32.6693C16.4561 33.3224 16.7583 33.8567 17.039 34.2561ZM17.6381 34.2237C17.6381 34.2237 17.1361 33.8136 16.9472 33.1011C16.7583 32.3941 16.9904 31.5791 17.039 31.5575C17.039 31.5575 17.2495 32.1026 17.6974 32.7503C18.0806 33.3008 17.6381 34.2237 17.6381 34.2237Z" fill="white"/>
<path d="M17.0389 34.2563C17.3898 34.4992 17.6542 34.7583 17.7946 34.904C17.7568 34.9904 17.7352 35.0336 17.7352 35.0336C17.7352 35.0336 17.4006 34.7583 17.0389 34.2563Z" fill="white"/>
<path d="M14.3889 31.5036C14.7397 31.7518 14.9934 32.0163 15.1013 32.135C15.4683 31.6115 16.0782 30.5321 15.7112 29.4796C15.1121 27.7471 14.9556 26.4355 14.9556 26.4355C14.8423 26.4355 13.9625 27.909 13.9949 29.5336C14.0057 30.3 14.1946 30.9908 14.3889 31.5036ZM14.8261 31.4118C14.8261 31.4118 14.4321 30.8019 14.4213 30.0301C14.4051 29.2583 14.8261 28.5621 14.8746 28.5621C14.8746 28.5621 14.9502 29.1827 15.2309 30.0031C15.4737 30.694 14.8261 31.4118 14.8261 31.4118Z" fill="white"/>
<path d="M14.3889 31.5037C14.7397 31.7519 14.9934 32.0164 15.1014 32.1351C14.9556 32.3402 14.8477 32.459 14.8477 32.459C14.8477 32.459 14.6156 32.092 14.3889 31.5037Z" fill="white"/>
<path d="M12.8075 29.3934C12.9856 29.5715 13.1098 29.7335 13.1799 29.8252C13.5199 29.496 14.2486 28.6486 14.0327 27.6285C13.6981 26.0741 13.6981 24.9515 13.6981 24.9515C13.6063 24.9299 12.7211 26.0094 12.5862 27.3803C12.5053 28.1683 12.6618 28.9077 12.8075 29.3934ZM13.1205 29.2207C13.1205 29.2207 12.8507 28.6378 12.9155 27.9901C12.9802 27.3425 13.3958 26.8297 13.439 26.8405C13.439 26.8405 13.439 27.3749 13.5955 28.1089C13.7358 28.7296 13.1205 29.2207 13.1205 29.2207Z" fill="white"/>
<path d="M13.018 29.9762C13.018 29.9762 12.9154 29.7549 12.8075 29.3933C12.9856 29.5714 13.1097 29.7333 13.1799 29.8251C13.0828 29.9222 13.018 29.9762 13.018 29.9762Z" fill="white"/>
<path d="M11.8359 27.4773C12.1544 27.202 12.7427 26.5651 12.6131 25.7286C12.4026 24.3847 12.4566 23.4347 12.4566 23.4347C12.3757 23.4131 11.5823 24.2497 11.4041 25.3939C11.3232 25.9229 11.3664 26.441 11.4419 26.8404C11.647 27.1211 11.782 27.3747 11.8359 27.4773ZM11.8953 26.8512C11.8953 26.8512 11.6956 26.3385 11.782 25.7933C11.8683 25.2482 12.2461 24.8542 12.2785 24.865C12.2785 24.865 12.2515 25.313 12.3541 25.9499C12.4404 26.4896 11.8953 26.8512 11.8953 26.8512Z" fill="white"/>
<path d="M11.4365 26.8457C11.647 27.121 11.7819 27.3746 11.8359 27.4772C11.7226 27.5743 11.6416 27.6283 11.6416 27.6283C11.6416 27.6283 11.5175 27.3153 11.4365 26.8457Z" fill="white"/>
<path d="M11.6903 23.5266C11.5877 22.4148 11.6903 21.6537 11.6903 21.6537C11.6255 21.6268 10.8969 22.1989 10.681 23.1002C10.5569 23.6076 10.6 24.1203 10.654 24.4765C10.7728 24.66 10.8537 24.8111 10.8807 24.8705C11.1506 24.7086 11.7551 24.2606 11.6903 23.5266ZM10.8645 24.3632C10.8645 24.3632 10.7242 23.9206 10.8267 23.4942C10.9293 23.0678 11.2747 22.7926 11.3071 22.8088C11.3071 22.8088 11.2585 23.1704 11.3071 23.6993C11.3449 24.1419 10.8645 24.3632 10.8645 24.3632Z" fill="white"/>
<path d="M10.8806 24.8649C10.8051 24.9081 10.7565 24.9297 10.7565 24.9297C10.7565 24.9297 10.6971 24.7516 10.6539 24.4709C10.7781 24.6545 10.8536 24.811 10.8806 24.8649Z" fill="white"/>
<path d="M10.3572 23.4077C10.3572 23.4077 10.5299 21.8318 9.99015 21.1085C9.35328 20.2558 9.22914 19.824 9.22914 19.824C9.17517 19.8564 9.02405 20.9736 9.35867 21.9289C9.6933 22.8788 10.3572 23.4077 10.3572 23.4077ZM9.57996 21.7616C9.42344 21.3082 9.49361 20.7793 9.52059 20.7631C9.52059 20.7631 9.57996 20.9682 9.88221 21.373C10.1359 21.713 10.0549 22.4632 10.0549 22.4632C10.0549 22.4632 9.74188 22.215 9.57996 21.7616Z" fill="white"/>
<path d="M13.6874 62.1601V60.0605H14.2055V60.9025H15.0529V60.0605H15.571V62.1601H15.0529V61.3181H14.2055V62.1601H13.6874Z" fill="white"/>
<path d="M18.7608 61.1129C18.7608 61.345 18.7176 61.5393 18.6259 61.7012C18.5341 61.8631 18.41 61.9819 18.2535 62.0682C18.097 62.1492 17.9242 62.1923 17.7299 62.1923C17.5356 62.1923 17.3629 62.1492 17.2064 62.0682C17.0499 61.9873 16.9312 61.8631 16.8394 61.7012C16.7476 61.5393 16.7045 61.345 16.7045 61.1129C16.7045 60.8808 16.7476 60.6865 16.8394 60.5246C16.9312 60.3627 17.0553 60.2439 17.2064 60.1576C17.3629 60.0766 17.5356 60.0334 17.7299 60.0334C17.9242 60.0334 18.097 60.0766 18.2535 60.1576C18.41 60.2385 18.5341 60.3627 18.6259 60.5246C18.7176 60.6865 18.7608 60.8808 18.7608 61.1129ZM18.2319 61.1129C18.2319 60.978 18.2103 60.8592 18.1725 60.7675C18.1347 60.6757 18.0754 60.6002 17.9998 60.5516C17.9242 60.503 17.8379 60.4814 17.7353 60.4814C17.6328 60.4814 17.541 60.503 17.4709 60.5516C17.4007 60.6002 17.3413 60.6703 17.2982 60.7675C17.255 60.8646 17.2388 60.978 17.2388 61.1129C17.2388 61.2478 17.2604 61.3666 17.2982 61.4583C17.3359 61.5501 17.3953 61.6256 17.4709 61.6742C17.5464 61.7228 17.6328 61.7498 17.7353 61.7498C17.8379 61.7498 17.9296 61.7228 17.9998 61.6742C18.0754 61.6256 18.1293 61.5555 18.1725 61.4583C18.2157 61.3612 18.2319 61.2478 18.2319 61.1129Z" fill="white"/>
<path d="M19.7268 60.4759V60.0657H21.5457V60.4759H20.8926V62.1652H20.3799V60.4759H19.7268Z" fill="white"/>
<path d="M22.6306 62.1601V60.0605H24.1311V60.4707H23.1488V60.9025H24.0555V61.3181H23.1488V61.7499H24.1311V62.1601H22.6306Z" fill="white"/>
<path d="M25.286 62.1601V60.0605H25.8041V61.7499H26.7001V62.1601H25.286Z" fill="white"/>
<path d="M30.068 62.1601H29.2692V60.0605H30.0626C30.2838 60.0605 30.4728 60.1037 30.6293 60.1847C30.7858 60.2656 30.9099 60.3898 30.9963 60.5463C31.0826 60.7028 31.1258 60.8917 31.1258 61.1076C31.1258 61.3289 31.0826 61.5124 30.9963 61.6689C30.9099 61.8254 30.7858 61.9442 30.6293 62.0305C30.4728 62.1169 30.2838 62.1601 30.068 62.1601ZM29.7873 61.7283H30.041C30.1597 61.7283 30.2623 61.7067 30.3486 61.6689C30.435 61.6311 30.4943 61.561 30.5375 61.4746C30.5807 61.3829 30.6023 61.2641 30.6023 61.113C30.6023 60.9619 30.5807 60.8431 30.5375 60.7514C30.4943 60.6596 30.4296 60.5949 30.3432 60.5571C30.2569 60.5193 30.1543 60.4977 30.0302 60.4977H29.7819V61.7283H29.7873Z" fill="white"/>
<path d="M32.2593 62.1601V60.0605H33.7597V60.4707H32.7774V60.9025H33.6842V61.3181H32.7774V61.7499H33.7597V62.1601H32.2593Z" fill="white"/>
<path d="M38.3367 60.8214H37.8132C37.8078 60.7675 37.7916 60.7189 37.77 60.6811C37.7484 60.6379 37.7214 60.6002 37.6837 60.5732C37.6459 60.5408 37.6081 60.5192 37.5595 60.503C37.5109 60.4868 37.457 60.4814 37.3976 60.4814C37.2951 60.4814 37.2033 60.5084 37.1277 60.557C37.0522 60.6056 36.9928 60.6811 36.955 60.7729C36.9118 60.8646 36.8957 60.9834 36.8957 61.1129C36.8957 61.2532 36.9172 61.3666 36.955 61.4637C36.9982 61.5555 37.0522 61.631 37.1277 61.6742C37.2033 61.7174 37.2897 61.7444 37.3922 61.7444C37.4516 61.7444 37.5001 61.739 37.5487 61.7228C37.5973 61.7066 37.6405 61.685 37.6729 61.658C37.7106 61.631 37.7376 61.5986 37.7646 61.5555C37.7862 61.5177 37.8024 61.4691 37.8132 61.4205L38.3367 61.4259C38.3259 61.5177 38.2989 61.6094 38.2558 61.7012C38.2126 61.793 38.1478 61.8739 38.0669 61.9495C37.9859 62.025 37.8887 62.0844 37.7754 62.1276C37.6621 62.1708 37.5271 62.1923 37.3814 62.1923C37.1871 62.1923 37.0144 62.1492 36.8579 62.0682C36.7014 61.9873 36.5826 61.8631 36.4963 61.7012C36.4045 61.5393 36.3613 61.345 36.3613 61.1129C36.3613 60.8808 36.4045 60.6865 36.4963 60.5246C36.588 60.3627 36.7068 60.2439 36.8633 60.1576C37.0198 60.0766 37.1925 60.0334 37.3814 60.0334C37.5109 60.0334 37.6297 60.0496 37.743 60.0874C37.8564 60.1252 37.9535 60.1738 38.0345 60.2439C38.1208 60.3087 38.1856 60.3951 38.2396 60.4922C38.2935 60.5894 38.3259 60.6973 38.3367 60.8214Z" fill="white"/>
<path d="M39.4647 62.1601V60.0605H39.9829V60.9025H40.8302V60.0605H41.3484V62.1601H40.8302V61.3181H39.9829V62.1601H39.4647Z" fill="white"/>
<path d="M42.9728 62.1601H42.4115L43.1401 60.0605H43.831L44.5596 62.1601H43.9983L43.4909 60.5895H43.4748L42.9728 62.1601ZM42.8973 61.3343H44.0685V61.7175H42.8973V61.3343Z" fill="white"/>
<path d="M45.6229 62.1601V60.0605H46.5135C46.6754 60.0605 46.8157 60.0875 46.9291 60.1469C47.0478 60.2009 47.1396 60.2818 47.1989 60.3898C47.2583 60.4977 47.2961 60.6165 47.2961 60.7622C47.2961 60.9079 47.2637 61.0321 47.1989 61.1346C47.1342 61.2371 47.0424 61.3127 46.9237 61.3667C46.8049 61.4207 46.6646 61.4476 46.4973 61.4476H45.936V61.0482H46.4001C46.4811 61.0482 46.5459 61.0374 46.5998 61.0159C46.6538 60.9943 46.6916 60.9673 46.7186 60.9241C46.7456 60.8809 46.7617 60.827 46.7617 60.7622C46.7617 60.6974 46.7456 60.6435 46.7186 60.6003C46.6916 60.5571 46.6484 60.5247 46.5998 60.5031C46.5459 60.4815 46.4811 60.4707 46.4055 60.4707H46.1465V62.1601H45.6229ZM46.8373 61.1994L47.3716 62.1601H46.8049L46.2814 61.1994H46.8373Z" fill="white"/>
<path d="M48.4133 60.0605H49.0556L49.6007 61.3613H49.6277L50.1728 60.0605H50.8151V62.1601H50.3078V60.8701H50.2916L49.7734 62.1439H49.4496L48.9315 60.8593H48.9153V62.1547H48.4133V60.0605Z" fill="white"/>
<path d="M51.9755 62.1601V60.0605H53.4759V60.4707H52.4936V60.9025H53.4003V61.3181H52.4936V61.7499H53.4759V62.1601H51.9755Z" fill="white"/>
</svg>
