<svg width="187" height="170" viewBox="0 0 187 170" fill="none" xmlns="http://www.w3.org/2000/svg">
<path d="M14.5645 150.484L18.6052 139.812C19.0048 138.761 19.3157 137.917 19.5525 137.251C19.7893 136.585 19.9669 136.038 20.1001 135.623C20.2185 135.194 20.3073 134.854 20.3517 134.602C20.3961 134.35 20.4109 134.099 20.4109 133.862C20.4109 133.344 20.2185 133.018 19.8485 132.855C19.4785 132.693 18.7236 132.619 17.6135 132.619V131.331H26.435V132.619C24.7181 132.619 23.5192 133.477 22.8679 135.209L14.6977 156.33H12.4035L4.97332 137.592C4.55889 136.585 4.18886 135.771 3.84843 135.12C3.5228 134.484 3.16757 133.965 2.79754 133.595C2.42752 133.225 2.01308 132.959 1.56905 132.826C1.12501 132.693 0.60697 132.619 0.00012207 132.619V131.301H11.7375V132.619C11.2046 132.633 10.7458 132.678 10.3905 132.707C10.0353 132.752 9.7393 132.826 9.53208 132.915C9.32487 133.018 9.17685 133.137 9.10285 133.299C9.01404 133.462 8.98444 133.655 8.98444 133.891C8.98444 134.187 9.02884 134.543 9.13245 134.942C9.23606 135.342 9.39887 135.845 9.59129 136.422L14.5645 150.484Z" fill="white"/>
<path d="M37.1954 153.858H28.5663V152.866C29.1139 152.852 29.558 152.792 29.8836 152.704C30.2092 152.615 30.4608 152.437 30.6385 152.186C30.8161 151.934 30.9345 151.579 31.0085 151.12C31.0677 150.661 31.1121 150.039 31.1121 149.255V139.22C31.1121 138.524 31.0825 137.947 31.0233 137.488C30.9641 137.029 30.8605 136.674 30.6977 136.408C30.5348 136.141 30.3128 135.949 30.002 135.845C29.706 135.742 29.3063 135.668 28.8031 135.638V134.646H36.9586V135.638C36.4553 135.668 36.0557 135.742 35.7597 135.845C35.4636 135.949 35.2268 136.141 35.064 136.408C34.9012 136.674 34.7976 137.029 34.7384 137.488C34.6792 137.947 34.6496 138.524 34.6496 139.22V149.255C34.6496 150.039 34.6792 150.661 34.7384 151.12C34.7976 151.579 34.916 151.934 35.0936 152.186C35.286 152.437 35.5376 152.6 35.8633 152.704C36.1889 152.792 36.6329 152.852 37.1806 152.866V153.858H37.1954Z" fill="white"/>
<path d="M57.0144 153.858H40.363V152.867C40.8959 152.852 41.3251 152.793 41.6655 152.719C42.006 152.63 42.2576 152.497 42.4352 152.289C42.6128 152.082 42.7312 151.801 42.8052 151.446C42.8644 151.076 42.9088 150.602 42.9088 150.025V138.495C42.9088 137.917 42.8792 137.444 42.82 137.089C42.7608 136.733 42.6572 136.452 42.4944 136.245C42.3316 136.038 42.1096 135.89 41.7988 135.816C41.5027 135.742 41.1031 135.682 40.6295 135.653V134.661H48.9773V135.653C48.4297 135.668 47.9856 135.727 47.66 135.801C47.3344 135.89 47.068 136.038 46.8904 136.245C46.7127 136.467 46.5943 136.763 46.5351 137.148C46.4759 137.533 46.4463 138.036 46.4463 138.672V149.122C46.4463 149.818 46.5203 150.395 46.6535 150.824C46.7867 151.268 47.0236 151.608 47.364 151.845C47.7044 152.082 48.1485 152.26 48.7109 152.349C49.2733 152.437 49.969 152.482 50.8127 152.482C51.7451 152.482 52.5296 152.423 53.1513 152.304C53.7729 152.186 54.3057 151.964 54.735 151.638C55.1642 151.312 55.5046 150.883 55.7563 150.321C56.0079 149.773 56.2299 149.063 56.4075 148.175H57.3696L57.0144 153.858Z" fill="white"/>
<path d="M76.7294 153.858H60.0632V152.867C60.5961 152.852 61.0253 152.793 61.3657 152.719C61.7062 152.63 61.9578 152.497 62.1354 152.289C62.313 152.082 62.4314 151.801 62.5054 151.446C62.5646 151.076 62.609 150.602 62.609 150.025V138.495C62.609 137.917 62.5794 137.444 62.5202 137.089C62.461 136.733 62.3574 136.452 62.1946 136.245C62.0318 136.038 61.8098 135.89 61.4989 135.816C61.2029 135.742 60.8033 135.682 60.3296 135.653V134.661H68.6775V135.653C68.1299 135.668 67.6858 135.727 67.3602 135.801C67.0346 135.89 66.7682 136.038 66.5906 136.245C66.4129 136.467 66.2945 136.763 66.2353 137.148C66.1761 137.533 66.1465 138.036 66.1465 138.672V149.122C66.1465 149.818 66.2205 150.395 66.3537 150.824C66.4869 151.268 66.7238 151.608 67.0642 151.845C67.4046 152.082 67.8487 152.26 68.4111 152.349C68.9735 152.437 69.6692 152.482 70.5129 152.482C71.4453 152.482 72.2298 152.423 72.8515 152.304C73.4731 152.186 74.0059 151.964 74.4352 151.638C74.8644 151.312 75.2048 150.883 75.4565 150.321C75.7081 149.773 75.9301 149.063 76.1077 148.175H77.0698L76.7294 153.858Z" fill="white"/>
<path d="M91.0422 148.041H84.2041C83.4492 149.803 83.0644 151.031 83.0644 151.712C83.0644 152.215 83.242 152.526 83.6121 152.659C83.9673 152.793 84.5149 152.867 85.2402 152.867V153.858H78.6093V152.867C78.9941 152.822 79.3345 152.748 79.6157 152.659C79.897 152.571 80.1486 152.452 80.3706 152.304C80.5926 152.156 80.785 151.964 80.933 151.712C81.0959 151.475 81.2439 151.179 81.3919 150.824L87.7564 134.38H89.5473L95.3198 148.959C95.6602 149.803 95.9414 150.469 96.1783 150.957C96.4151 151.446 96.6667 151.816 96.9331 152.067C97.1995 152.319 97.5104 152.497 97.8508 152.6C98.1912 152.704 98.65 152.778 99.1977 152.822V153.843H90.0506V152.822C90.8202 152.793 91.3827 152.704 91.7231 152.571C92.0635 152.437 92.2263 152.171 92.2263 151.771C92.2263 151.534 92.1671 151.238 92.0635 150.868C91.9451 150.498 91.7971 150.054 91.6047 149.521L91.0422 148.041ZM84.7517 146.546H90.5094L87.7268 138.983H87.6232L84.7517 146.546Z" fill="white"/>
<path d="M116.752 139.457C116.752 140.833 116.367 141.988 115.597 142.92C114.828 143.853 113.584 144.474 111.897 144.785L117.507 151.416C117.891 151.89 118.35 152.23 118.883 152.482C119.416 152.719 119.949 152.837 120.496 152.837V153.829H114.768L108.774 146.236C108.374 145.732 108.019 145.407 107.723 145.229C107.427 145.052 107.146 144.963 106.894 144.963V149.847C106.894 150.469 106.939 150.972 107.013 151.357C107.087 151.742 107.249 152.052 107.501 152.275C107.753 152.497 108.093 152.63 108.552 152.719C109.011 152.793 109.632 152.837 110.402 152.837V153.829H100.796V152.837C101.329 152.837 101.758 152.793 102.084 152.719C102.409 152.645 102.676 152.497 102.853 152.289C103.046 152.082 103.164 151.786 103.223 151.416C103.283 151.046 103.327 150.558 103.327 149.98V138.45C103.327 137.873 103.297 137.399 103.253 137.044C103.209 136.689 103.105 136.408 102.942 136.2C102.779 135.993 102.557 135.845 102.247 135.771C101.951 135.697 101.551 135.638 101.048 135.608V134.617H109.41C111.749 134.617 113.555 135.046 114.828 135.89C116.1 136.733 116.752 137.947 116.752 139.457ZM106.879 143.512H108.448C109.958 143.512 111.098 143.216 111.853 142.595C112.607 141.988 112.977 140.981 112.977 139.59C112.977 138.524 112.667 137.666 112.03 137.014C111.408 136.363 110.535 136.038 109.425 136.038H107.309C107.013 136.038 106.879 136.186 106.879 136.467V143.512Z" fill="white"/>
<path d="M128.045 143.231C129.081 143.231 129.91 143.201 130.532 143.127C131.168 143.068 131.642 142.92 131.997 142.713C132.352 142.506 132.589 142.195 132.737 141.795C132.885 141.396 132.989 140.863 133.078 140.167H133.966V147.479H133.078C132.974 146.813 132.856 146.28 132.693 145.88C132.53 145.481 132.278 145.185 131.923 144.963C131.568 144.755 131.094 144.622 130.487 144.563C129.881 144.504 129.067 144.474 128.06 144.474V149.61C128.06 150.143 128.134 150.587 128.267 150.957C128.4 151.327 128.637 151.623 128.963 151.845C129.289 152.067 129.718 152.23 130.251 152.319C130.783 152.408 131.435 152.452 132.204 152.452C133.122 152.452 133.906 152.393 134.543 152.26C135.179 152.126 135.712 151.89 136.127 151.564C136.541 151.224 136.882 150.78 137.148 150.232C137.4 149.669 137.622 148.974 137.799 148.13H138.761L138.376 153.843H121.947V152.852C122.48 152.837 122.909 152.778 123.25 152.704C123.59 152.615 123.842 152.482 124.019 152.274C124.197 152.067 124.315 151.786 124.389 151.431C124.449 151.061 124.493 150.587 124.493 150.01V138.48C124.493 137.902 124.463 137.429 124.404 137.074C124.345 136.718 124.241 136.437 124.079 136.23C123.916 136.023 123.694 135.875 123.383 135.801C123.087 135.727 122.687 135.668 122.214 135.638V134.646H137.503L137.666 139.531H136.63C136.541 138.835 136.378 138.258 136.171 137.799C135.964 137.34 135.668 136.97 135.298 136.704C134.928 136.422 134.454 136.245 133.862 136.126C133.27 136.023 132.545 135.964 131.701 135.964H128.963C128.548 135.964 128.282 136.023 128.193 136.126C128.09 136.23 128.045 136.482 128.045 136.881V143.231Z" fill="white"/>
<path d="M153.133 148.041H146.295C145.54 149.803 145.155 151.031 145.155 151.712C145.155 152.215 145.333 152.526 145.703 152.659C146.058 152.793 146.606 152.867 147.331 152.867V153.858H140.7V152.867C141.085 152.822 141.425 152.748 141.707 152.659C141.988 152.571 142.239 152.452 142.461 152.304C142.683 152.156 142.876 151.964 143.024 151.712C143.187 151.475 143.335 151.179 143.483 150.824L149.847 134.38H151.638L157.411 148.959C157.751 149.803 158.032 150.469 158.269 150.957C158.506 151.446 158.758 151.816 159.024 152.067C159.29 152.319 159.601 152.497 159.942 152.6C160.282 152.704 160.741 152.778 161.289 152.822V153.843H152.141V152.822C152.911 152.793 153.473 152.704 153.814 152.571C154.154 152.437 154.317 152.171 154.317 151.771C154.317 151.534 154.258 151.238 154.154 150.868C154.036 150.498 153.888 150.054 153.696 149.521L153.133 148.041ZM146.857 146.546H152.615L149.832 138.983H149.729L146.857 146.546Z" fill="white"/>
<path d="M185.962 156.33H164.56V155.043C165.241 155.028 165.803 154.954 166.232 154.85C166.661 154.746 167.002 154.569 167.224 154.302C167.446 154.051 167.609 153.681 167.683 153.207C167.772 152.734 167.801 152.127 167.801 151.387V136.585C167.801 135.845 167.772 135.239 167.698 134.78C167.624 134.321 167.49 133.951 167.283 133.684C167.076 133.418 166.78 133.24 166.395 133.137C166.01 133.048 165.507 132.974 164.885 132.93V131.642H175.601V132.93C174.891 132.944 174.328 133.018 173.914 133.122C173.485 133.226 173.159 133.418 172.937 133.699C172.715 133.98 172.552 134.365 172.493 134.854C172.419 135.342 172.39 135.993 172.39 136.807V150.247C172.39 151.15 172.478 151.875 172.656 152.437C172.834 153 173.144 153.444 173.574 153.755C174.003 154.066 174.595 154.273 175.32 154.391C176.045 154.51 176.948 154.569 178.029 154.569C179.228 154.569 180.234 154.495 181.048 154.347C181.862 154.199 182.528 153.918 183.076 153.503C183.624 153.089 184.068 152.526 184.393 151.816C184.719 151.105 185 150.188 185.237 149.063H186.48L185.962 156.33Z" fill="white"/>
<path d="M20.8546 25.9169H21.4911C21.5651 26.5089 21.7279 27.0269 21.9499 27.5006C22.1719 27.9742 22.4531 28.3739 22.7936 28.6995C23.134 29.0251 23.5336 29.2767 23.9777 29.4543C24.4217 29.632 24.9101 29.7208 25.4282 29.7208C26.2866 29.7208 26.9527 29.4987 27.4559 29.0399C27.9592 28.5811 28.196 27.9594 28.196 27.1898C28.196 26.8641 28.1516 26.5681 28.048 26.2869C27.9444 26.0205 27.7816 25.754 27.5595 25.5024C27.3227 25.2508 27.0267 24.9992 26.6271 24.7476C26.2274 24.4959 25.7538 24.1999 25.1618 23.9187C24.4513 23.5635 23.8445 23.223 23.356 22.8974C22.8676 22.5718 22.4827 22.2314 22.2015 21.8761C21.9055 21.5209 21.7131 21.1509 21.5799 20.7512C21.4615 20.3516 21.4023 19.9076 21.4023 19.3895C21.4023 18.7975 21.4911 18.235 21.6835 17.7318C21.8759 17.2286 22.1423 16.7845 22.4827 16.4145C22.8232 16.0445 23.2376 15.7632 23.7112 15.556C24.1849 15.3488 24.7029 15.26 25.2654 15.26C25.7686 15.26 26.2422 15.3488 26.6863 15.5264C27.1303 15.704 27.5743 16.0001 28.0184 16.3997L28.4624 15.5264H28.8621L29.0545 19.4191H28.418C28.1368 18.3535 27.7372 17.5542 27.2191 17.0362C26.7011 16.5181 26.0646 16.2517 25.3246 16.2517C24.6141 16.2517 24.0665 16.4441 23.6372 16.8437C23.2228 17.2286 23.0156 17.7614 23.0156 18.4275C23.0156 18.7383 23.06 19.0195 23.1488 19.2711C23.2376 19.5227 23.3856 19.7596 23.5928 19.9964C23.8 20.2184 24.0665 20.4552 24.4069 20.6772C24.7473 20.8993 25.1618 21.1361 25.6502 21.3877C26.5087 21.8169 27.2191 22.2166 27.7816 22.5866C28.344 22.9566 28.8028 23.3267 29.1285 23.6967C29.4689 24.0667 29.7057 24.4515 29.8389 24.866C29.9721 25.2804 30.0461 25.7392 30.0461 26.2425C30.0461 26.8937 29.9277 27.5006 29.7057 28.0334C29.4689 28.5811 29.1581 29.0547 28.7288 29.4395C28.3144 29.8244 27.8112 30.1352 27.2339 30.3424C26.6567 30.5644 26.0202 30.668 25.3246 30.668C24.6733 30.668 24.0813 30.5644 23.5484 30.3572C23.0304 30.15 22.4827 29.7948 21.9499 29.3063L21.4615 30.2684H21.0618L20.8546 25.9169Z" fill="white"/>
<path d="M44.344 15.4525H44.8325L44.9953 19.9521H44.3588C44.1072 18.8124 43.6188 17.9095 42.8935 17.2583C42.1386 16.607 41.2654 16.2814 40.2441 16.2814C39.5336 16.2814 38.912 16.4442 38.3495 16.755C37.8019 17.0658 37.3283 17.5099 36.9434 18.1019C36.5586 18.694 36.2774 19.4044 36.0702 20.2481C35.8629 21.0918 35.7741 22.0538 35.7741 23.1195C35.7741 25.2213 36.159 26.8346 36.9286 27.9595C37.6983 29.0844 38.8232 29.6468 40.2885 29.6468C42.5235 29.6468 43.9444 28.3147 44.5808 25.6357H45.2913V30.5053H44.6844L44.2848 28.966C43.0711 30.1205 41.6058 30.7125 39.8889 30.7125C38.912 30.7125 38.0239 30.5349 37.2246 30.1797C36.4402 29.8245 35.7593 29.336 35.1969 28.6848C34.6344 28.0335 34.2052 27.2491 33.8944 26.3314C33.5836 25.3989 33.4355 24.3776 33.4355 23.2379C33.4355 22.0538 33.5984 20.9734 33.924 19.9965C34.2496 19.0196 34.6936 18.1759 35.2857 17.4803C35.8629 16.7698 36.5734 16.237 37.3875 15.8521C38.2015 15.4673 39.1044 15.2749 40.0813 15.2749C40.7769 15.2749 41.4282 15.3785 42.035 15.6005C42.6419 15.8225 43.3079 16.1778 44.0332 16.681L44.344 15.4525Z" fill="white"/>
<path d="M149.595 19.2267C149.595 19.9223 149.492 20.5292 149.299 21.0768C149.107 21.6245 148.796 22.0833 148.367 22.4682C147.952 22.853 147.39 23.1342 146.724 23.3414C146.043 23.5486 145.229 23.6522 144.252 23.6522H142.698V27.4265C142.698 27.915 142.727 28.2998 142.772 28.6106C142.831 28.9215 142.935 29.1583 143.097 29.3211C143.26 29.4839 143.512 29.6023 143.823 29.6615C144.133 29.7207 144.563 29.7503 145.081 29.7503V30.4904H138.983V29.7503C139.382 29.7355 139.708 29.6911 139.96 29.6319C140.211 29.5727 140.404 29.4543 140.537 29.3063C140.67 29.1435 140.774 28.9363 140.818 28.6402C140.862 28.359 140.892 27.989 140.892 27.5302V18.4274C140.892 17.9686 140.877 17.5986 140.833 17.3173C140.788 17.0361 140.714 16.8141 140.596 16.6513C140.478 16.4885 140.3 16.3849 140.063 16.3257C139.826 16.2665 139.53 16.2221 139.16 16.1925V15.4524H144.607C146.206 15.4524 147.434 15.778 148.307 16.4441C149.166 17.1249 149.595 18.0426 149.595 19.2267ZM142.698 22.6902H143.926C145.081 22.6902 145.939 22.4385 146.502 21.9353C147.064 21.4321 147.345 20.6032 147.345 19.4635C147.345 18.3534 147.123 17.569 146.679 17.0953C146.235 16.6217 145.54 16.3849 144.592 16.3849H142.994C142.801 16.3849 142.698 16.4885 142.698 16.7105V22.6902Z" fill="white"/>
<path d="M162.887 19.2268C162.887 20.2629 162.605 21.1361 162.058 21.8318C161.51 22.5274 160.622 22.9863 159.408 23.2231L163.242 28.4183C163.553 28.8476 163.893 29.1584 164.278 29.3508C164.648 29.5432 165.107 29.6764 165.625 29.7652V30.5053H162.28L158.032 24.3628C157.884 24.1408 157.736 23.9632 157.603 23.83C157.469 23.6967 157.336 23.5931 157.188 23.5339C157.04 23.4599 156.877 23.4155 156.685 23.4007C156.493 23.3859 156.27 23.3711 156.004 23.3711V27.4414C156.004 27.9299 156.034 28.3147 156.078 28.6255C156.137 28.9364 156.241 29.1732 156.404 29.336C156.567 29.4988 156.818 29.6172 157.129 29.6764C157.44 29.7356 157.869 29.7652 158.387 29.7652V30.5053H152.274V29.7652C152.674 29.7504 152.999 29.706 153.251 29.6468C153.503 29.5876 153.695 29.4692 153.828 29.3212C153.962 29.1584 154.065 28.9512 154.11 28.6551C154.154 28.3739 154.184 28.0039 154.184 27.545V18.4423C154.184 17.9835 154.169 17.6135 154.124 17.3322C154.08 17.051 154.006 16.829 153.888 16.6662C153.769 16.5034 153.591 16.3998 153.355 16.3406C153.118 16.2814 152.822 16.2369 152.452 16.2073V15.4673H157.899C159.497 15.4673 160.726 15.7929 161.599 16.459C162.443 17.125 162.887 18.0427 162.887 19.2268ZM155.989 22.3942H157.218C158.372 22.3942 159.231 22.1574 159.793 21.6838C160.356 21.2101 160.637 20.4257 160.637 19.3304C160.637 18.2795 160.415 17.5246 159.971 17.0658C159.527 16.607 158.831 16.385 157.884 16.385H156.285C156.093 16.385 155.989 16.4886 155.989 16.7106V22.3942Z" fill="white"/>
<path d="M157.647 60.833C157.233 62.6832 156.745 64.4889 156.197 66.265C155.649 68.0412 155.013 69.7729 154.332 71.4455C152.985 74.8053 151.298 77.958 149.388 80.8146C148.441 82.2355 147.435 83.5972 146.369 84.8701C143.201 88.6592 139.486 91.7971 135.756 94.5945C133.24 96.4743 130.65 98.2208 128.089 100.041C127.764 100.263 127.453 100.5 127.127 100.737C124.878 102.38 122.672 104.141 120.615 106.169C119.431 107.324 118.617 108.567 117.196 109.573C112.785 112.756 106.406 115.375 97.4214 118.602C97.5102 118.72 98.6055 118.839 98.7535 118.794C102.498 117.551 106.258 116.663 108.877 115.79C110.831 115.139 117.003 112.578 118.128 111.423C119.253 110.269 120.408 109.114 121.607 108.078C122.791 107.013 124.004 105.991 125.218 105L126.136 104.26L127.068 103.52C127.69 103.031 128.311 102.543 128.933 102.054C131.42 100.101 133.951 98.1912 136.452 96.2078C138.332 94.7129 140.197 93.144 141.973 91.4567L142.417 91.0274C143.764 89.7397 145.037 88.3484 146.265 86.8831L147.065 85.847C148.115 84.4853 149.122 83.0496 150.054 81.5547C152.822 77.0403 155.042 71.9043 156.537 66.4279C157.041 64.6073 157.455 62.7572 157.81 60.8774L157.647 60.833Z" fill="white"/>
<path d="M124.967 105.725C123.413 105.858 121.992 106.45 120.808 107.161C119.55 108.789 118.247 109.84 117.552 110.358C118.484 111.557 122.066 115.686 125.352 113.51C129.881 110.535 133.33 109.632 133.33 109.632C133.33 109.129 129.304 105.355 124.967 105.725ZM123.738 111.261C121.933 112.459 119.935 109.618 119.935 109.618C119.935 109.618 121.503 107.753 123.561 107.575C125.603 107.397 127.513 109.188 127.528 109.425C127.528 109.425 125.885 109.854 123.738 111.261Z" fill="white"/>
<path d="M134.232 97.6435C129.91 98.0283 126.58 101.951 126.58 101.951C126.58 101.951 130.798 107.945 134.617 105.414C139.146 102.439 142.595 101.536 142.595 101.536C142.595 101.033 138.569 97.2586 134.232 97.6435ZM133.181 103.357C131.376 104.556 129.377 101.714 129.377 101.714C129.377 101.714 130.946 99.8488 133.004 99.6712C135.046 99.4936 136.956 101.285 136.97 101.521C136.97 101.521 135.327 101.951 133.181 103.357Z" fill="white"/>
<path d="M143.039 91.0125C141.515 91.1457 140.153 91.8266 139.072 92.5666C138.081 93.9579 137.163 94.7128 137.163 94.7128C137.163 94.7128 137.104 94.5796 137 94.3576C136.793 94.5796 136.689 94.7128 136.689 94.7128C136.689 94.7128 140.197 99.8784 143.38 97.7174C147.139 95.1716 150.011 94.402 150.011 94.402C149.981 93.9727 146.636 90.7017 143.039 91.0125ZM142.181 96.2521C140.671 97.2734 139.013 94.8312 139.013 94.8312C139.013 94.8312 140.316 93.2327 142.018 93.0846C143.72 92.9366 145.304 94.476 145.319 94.6832C145.319 94.6832 143.957 95.0384 142.181 96.2521Z" fill="white"/>
<path d="M150.159 83.4936C148.678 83.6268 147.361 84.3077 146.34 85.033C145.733 86.6463 145.082 87.6528 145.082 87.6528C145.082 87.6528 144.786 87.3271 144.386 86.7647C144.282 86.8831 144.223 86.9423 144.223 86.9423C144.223 86.9423 147.494 91.7675 150.469 89.7545C153.977 87.3715 156.656 86.6611 156.656 86.6611C156.641 86.2615 153.518 83.2124 150.159 83.4936ZM149.004 88.4816C147.598 89.4437 146.044 87.1495 146.044 87.1495C146.044 87.1495 147.258 85.6546 148.856 85.5214C150.44 85.3882 151.935 86.8239 151.935 87.0163C151.935 87.0163 150.662 87.3567 149.004 88.4816Z" fill="white"/>
<path d="M154.258 77.055C152.778 77.3954 151.535 78.3871 150.677 79.2456C150.381 80.2373 150.099 80.8441 150.099 80.8441C150.099 80.8441 149.922 80.6961 149.655 80.4445C149.552 80.5925 149.492 80.6813 149.492 80.6813C149.492 80.6813 152.586 84.352 154.939 82.2946C157.722 79.8672 159.942 78.9496 159.942 78.9496C159.912 78.5943 157.071 76.4038 154.258 77.055ZM153.992 81.1105C152.867 82.0874 151.417 80.3409 151.417 80.3409C151.417 80.3409 152.349 78.9348 153.666 78.6239C154.998 78.3131 156.345 79.3492 156.36 79.512C156.36 79.512 155.309 79.9561 153.992 81.1105Z" fill="white"/>
<path d="M156.864 70.1725C155.857 70.6609 155.043 71.4898 154.436 72.2594C154.199 73.5471 153.874 74.4056 153.874 74.4056C153.874 74.4056 153.652 74.2576 153.341 73.9912C153.296 74.08 153.282 74.1244 153.282 74.1244C153.282 74.1244 156.271 76.5962 158.003 74.4204C160.061 71.845 161.807 70.6461 161.807 70.6461C161.748 70.3649 159.128 69.092 156.864 70.1725ZM156.938 73.5916C156.109 74.6276 154.703 73.4583 154.703 73.4583C154.703 73.4583 155.324 72.1114 156.39 71.5934C157.47 71.0754 158.699 71.6822 158.743 71.8154C158.743 71.8154 157.914 72.3779 156.938 73.5916Z" fill="white"/>
<path d="M155.961 66.8275C155.946 66.8719 155.931 66.9015 155.931 66.9015C155.931 66.9015 158.477 69.2105 159.957 67.3456C161.704 65.1402 163.199 64.1337 163.199 64.1337C163.139 63.8821 160.904 62.6536 158.98 63.5269C157.915 64.0153 157.1 64.9774 156.597 65.7619C156.479 66.5315 156.316 67.02 156.316 67.02C156.316 67.02 156.168 66.9607 155.961 66.8275ZM158.699 64.7554C159.617 64.3409 160.668 64.9182 160.697 65.0366C160.697 65.0366 159.987 65.5102 159.158 66.5611C158.462 67.4492 157.248 66.3539 157.248 66.3539C157.248 66.3539 157.781 65.1698 158.699 64.7554Z" fill="white"/>
<path d="M120.822 107.161C121.651 106.08 122.48 104.763 123.102 103.194C125.13 98.1024 124.168 91.6639 123.827 91.4419C123.827 91.4419 121.799 95.2754 117.907 99.5529C114.621 103.164 117.019 110.728 117.019 110.728C117.019 110.728 117.226 110.609 117.566 110.358C117.418 110.165 117.329 110.047 117.329 110.047C117.329 110.047 118.691 108.419 120.822 107.161ZM118.528 102.972C120.364 100.944 121.326 99.1237 121.326 99.1237C121.488 99.2273 121.947 102.276 120.985 104.689C120.023 107.102 118.099 108.256 118.099 108.256C118.099 108.256 116.974 104.689 118.528 102.972Z" fill="white"/>
<path d="M117.315 110.047C117.315 110.047 117.403 110.165 117.552 110.358C118.262 109.84 119.55 108.789 120.808 107.161C118.691 108.419 117.315 110.047 117.315 110.047Z" fill="white"/>
<path d="M132.96 94.9351C135.431 90.2135 135.076 83.6714 134.765 83.3901C134.765 83.3901 132.397 86.8684 128.149 90.4799C124.553 93.5289 126.24 101.418 126.24 101.418C126.24 101.418 130.488 99.6714 132.96 94.9351ZM128.46 93.825C130.473 92.108 131.598 90.4651 131.598 90.4651C131.746 90.5983 131.924 93.6918 130.739 95.9267C129.57 98.1617 127.557 99.0054 127.557 99.0054C127.557 99.0054 126.758 95.2755 128.46 93.825Z" fill="white"/>
<path d="M141.144 88.23C142.225 84.1301 140.893 79.4233 140.612 79.3049C140.612 79.3049 139.413 82.4724 136.808 86.2023C134.958 88.8813 136.482 93.0996 137 94.3577C137.385 93.9433 138.11 93.2328 139.072 92.5816C139.857 91.4863 140.671 90.021 141.144 88.23ZM137.267 88.4521C138.495 86.6759 139.072 85.181 139.072 85.181C139.205 85.2402 139.842 87.4604 139.324 89.4141C138.806 91.3531 137.429 92.4928 137.429 92.4928C137.429 92.4928 136.216 89.9618 137.267 88.4521Z" fill="white"/>
<path d="M139.072 92.5815C138.11 93.2476 137.385 93.9581 137 94.3577C137.104 94.5945 137.163 94.7129 137.163 94.7129C137.163 94.7129 138.081 93.9581 139.072 92.5815Z" fill="white"/>
<path d="M147.435 79.6453C147.524 75.1753 145.096 71.1494 144.8 71.1494C144.8 71.1494 144.371 74.7461 142.728 79.4973C141.722 82.3835 143.379 85.3437 144.401 86.7795C144.697 86.4538 145.392 85.7286 146.355 85.0477C146.873 83.6268 147.391 81.7323 147.435 79.6453ZM144.016 80.9182C144.8 78.6684 144.993 76.9663 144.993 76.9663C145.141 76.9663 146.281 78.8756 146.251 80.9922C146.207 83.1088 145.141 84.7813 145.141 84.7813C145.141 84.7813 143.365 82.8127 144.016 80.9182Z" fill="white"/>
<path d="M146.339 85.033C145.377 85.7138 144.682 86.4391 144.386 86.7647C144.785 87.3271 145.081 87.6528 145.081 87.6528C145.081 87.6528 145.718 86.6463 146.339 85.033Z" fill="white"/>
<path d="M151.298 73.7249C150.928 69.9654 148.515 67.0051 148.249 67.0643C148.249 67.0643 148.249 70.143 147.331 74.4057C146.724 77.2032 148.737 79.5269 149.67 80.4298C149.862 80.1782 150.217 79.7342 150.691 79.2457C151.076 77.9136 151.505 75.8859 151.298 73.7249ZM148.501 75.723C148.93 73.7101 148.93 72.2448 148.93 72.2448C149.048 72.2152 150.203 73.6213 150.365 75.3974C150.543 77.1736 149.803 78.7721 149.803 78.7721C149.803 78.7721 148.131 77.4252 148.501 75.723Z" fill="white"/>
<path d="M150.114 80.8441C150.114 80.8441 150.396 80.2373 150.692 79.2456C150.203 79.734 149.863 80.1781 149.67 80.4297C149.922 80.6961 150.114 80.8441 150.114 80.8441Z" fill="white"/>
<path d="M154.436 72.2595C154.628 71.1494 154.762 69.7433 154.54 68.2928C154.051 65.1549 151.861 62.8459 151.653 62.9199C151.653 62.9199 151.801 65.525 151.224 69.2104C150.869 71.5046 152.482 73.2512 153.355 74.006C153.489 73.71 153.859 73.0143 154.436 72.2595ZM151.92 69.8173C152.186 68.0708 152.127 66.8423 152.127 66.8423C152.231 66.8127 153.267 67.8931 153.489 69.3881C153.726 70.883 153.178 72.2891 153.178 72.2891C153.178 72.2891 151.683 71.2826 151.92 69.8173Z" fill="white"/>
<path d="M154.436 72.2595C153.859 73.0144 153.489 73.71 153.341 73.9913C153.651 74.2577 153.873 74.4057 153.873 74.4057C153.873 74.4057 154.214 73.5472 154.436 72.2595Z" fill="white"/>
<path d="M155.96 66.8274C156.034 66.6646 156.242 66.2502 156.582 65.7469C156.745 64.7701 156.849 63.364 156.508 61.9726C155.916 59.5008 153.918 57.9319 153.74 58.0059C153.74 58.0059 154.007 60.0929 153.74 63.1419C153.563 65.1697 155.235 66.3982 155.96 66.8274ZM154.791 63.6304C154.924 62.1799 154.791 61.1882 154.791 61.1882C154.88 61.1438 155.812 61.8986 156.108 63.0679C156.39 64.2372 156.005 65.4509 156.005 65.4509C156.005 65.4509 154.688 64.8441 154.791 63.6304Z" fill="white"/>
<path d="M155.961 66.8276C156.168 66.946 156.301 67.0052 156.301 67.0052C156.301 67.0052 156.464 66.5167 156.582 65.7471C156.257 66.2503 156.035 66.6795 155.961 66.8276Z" fill="white"/>
<path d="M160.135 58.7756C161.052 56.1706 160.638 53.092 160.49 53.0032C160.49 53.0032 160.149 54.2021 158.403 56.5259C156.923 58.4944 157.396 62.8312 157.396 62.8312C157.396 62.8312 159.217 61.3806 160.135 58.7756ZM158.225 60.241C158.225 60.241 158.003 58.1984 158.699 57.2511C159.528 56.141 159.691 55.5786 159.691 55.5786C159.765 55.623 159.957 57.0735 159.528 58.3168C159.099 59.5601 158.225 60.241 158.225 60.241Z" fill="white"/>
<path d="M28.1518 60.8328C28.5663 62.6829 29.0547 64.4887 29.6023 66.2648C30.15 68.0409 30.7864 69.7727 31.4673 71.4452C32.8142 74.8051 34.5015 77.9577 36.4109 80.8144C37.3582 82.2353 38.3646 83.597 39.4303 84.8699C42.5978 88.659 46.3129 91.7968 50.0428 94.5943C52.559 96.474 55.1492 98.2205 57.7098 100.041C58.0354 100.263 58.3462 100.5 58.6719 100.737C60.9216 102.38 63.127 104.141 65.1844 106.169C66.3685 107.323 67.1825 108.567 68.6035 109.573C73.0142 112.755 79.3935 115.375 88.3778 118.602C88.289 118.72 87.1937 118.839 87.0457 118.794C83.301 117.551 79.5415 116.663 76.9217 115.79C74.968 115.138 68.7959 112.578 67.671 111.423C66.5461 110.269 65.3916 109.114 64.1927 108.078C63.0086 107.012 61.7949 105.991 60.5812 104.999L59.6635 104.259L58.7311 103.519C58.1094 103.031 57.4878 102.542 56.8661 102.054C54.3795 100.1 51.8485 98.1909 49.3471 96.2076C47.4674 94.7127 45.6024 93.1437 43.8263 91.4564L43.3822 91.0272C42.0353 89.7395 40.7624 88.3482 39.5339 86.8828L38.7347 85.8468C37.6838 84.4851 36.6773 83.0493 35.7448 81.5544C32.977 77.0401 30.7568 71.9041 29.2619 66.4276C28.7587 64.6071 28.3442 62.7569 27.989 60.8772L28.1518 60.8328Z" fill="white"/>
<path d="M52.4551 109.632C52.4551 109.632 55.9186 110.535 60.4329 113.51C63.7188 115.671 67.3007 111.556 68.2331 110.357C67.5227 109.839 66.235 108.789 64.9769 107.16C63.7928 106.45 62.3719 105.858 60.8177 105.725C56.5106 105.355 52.4699 109.129 52.4551 109.632ZM58.2867 109.425C58.3015 109.188 60.1961 107.397 62.2535 107.575C64.296 107.752 65.8797 109.617 65.8797 109.617C65.8797 109.617 63.8816 112.459 62.0758 111.26C59.9149 109.854 58.2867 109.425 58.2867 109.425Z" fill="white"/>
<path d="M43.1897 101.551C43.1897 101.551 46.6532 102.454 51.1675 105.429C55.001 107.945 59.2046 101.965 59.2046 101.965C59.2046 101.965 55.8743 98.0283 51.5524 97.6582C47.2452 97.2586 43.2045 101.033 43.1897 101.551ZM48.8289 101.521C48.8437 101.285 50.7383 99.4936 52.7957 99.6712C54.8382 99.8488 56.4219 101.714 56.4219 101.714C56.4219 101.714 54.4238 104.556 52.618 103.357C50.4719 101.951 48.8289 101.521 48.8289 101.521Z" fill="white"/>
<path d="M35.8038 94.402C35.8038 94.402 38.6753 95.1716 42.4348 97.7174C45.617 99.8784 49.1249 94.7128 49.1249 94.7128C49.1249 94.7128 49.0065 94.5796 48.8141 94.3576C48.7105 94.5944 48.6513 94.7128 48.6513 94.7128C48.6513 94.7128 47.7336 93.9579 46.7419 92.5666C45.6614 91.8266 44.2997 91.1457 42.7752 91.0125C39.1785 90.7017 35.8186 93.9727 35.8038 94.402ZM40.481 94.6832C40.481 94.476 42.0795 92.9218 43.7817 93.0846C45.4838 93.2327 46.7863 94.8312 46.7863 94.8312C46.7863 94.8312 45.1286 97.2734 43.6189 96.2521C41.8427 95.0384 40.481 94.6832 40.481 94.6832Z" fill="white"/>
<path d="M29.1432 86.6608C29.1432 86.6608 31.8222 87.3713 35.3301 89.7543C38.2903 91.7672 41.5762 86.9421 41.5762 86.9421C41.5762 86.9421 41.517 86.8681 41.4134 86.7644C41.0137 87.3269 40.7177 87.6525 40.7177 87.6525C40.7177 87.6525 40.0813 86.646 39.4596 85.0327C38.4383 84.3075 37.121 83.6266 35.6409 83.4934C32.2958 83.2122 29.158 86.2612 29.1432 86.6608ZM33.8648 87.0161C33.8648 86.8237 35.3597 85.3731 36.9434 85.5211C38.5271 85.6544 39.7556 87.1493 39.7556 87.1493C39.7556 87.1493 38.2015 89.4287 36.7954 88.4814C35.1377 87.3565 33.8648 87.0161 33.8648 87.0161Z" fill="white"/>
<path d="M25.8573 78.9346C25.8573 78.9346 28.0775 79.8523 30.8601 82.2797C33.2283 84.3371 36.3069 80.6664 36.3069 80.6664C36.3069 80.6664 36.2477 80.5776 36.1441 80.4296C35.8777 80.696 35.7001 80.8292 35.7001 80.8292C35.7001 80.8292 35.4189 80.2223 35.1228 79.2307C34.2792 78.3722 33.0359 77.3805 31.541 77.0401C28.7435 76.4036 25.8869 78.5942 25.8573 78.9346ZM29.4392 79.5119C29.454 79.3491 30.8009 78.313 32.133 78.6238C33.4651 78.9346 34.3828 80.3408 34.3828 80.3408C34.3828 80.3408 32.9175 82.0873 31.8074 81.1104C30.4901 79.9559 29.4392 79.5119 29.4392 79.5119Z" fill="white"/>
<path d="M23.9775 70.6461C23.9775 70.6461 25.7241 71.845 27.7814 74.4204C29.528 76.5962 32.503 74.1244 32.503 74.1244C32.503 74.1244 32.4882 74.08 32.4438 73.9912C32.133 74.2576 31.911 74.4056 31.911 74.4056C31.911 74.4056 31.5853 73.5471 31.3485 72.2594C30.7565 71.4898 29.9276 70.6609 28.9211 70.1725C26.6714 69.092 24.0515 70.3649 23.9775 70.6461ZM27.0562 71.8154C27.0858 71.6822 28.3291 71.0754 29.4096 71.5934C30.4901 72.1114 31.0969 73.4583 31.0969 73.4583C31.0969 73.4583 29.6908 74.6276 28.8619 73.5916C27.885 72.3779 27.0562 71.8154 27.0562 71.8154Z" fill="white"/>
<path d="M29.4985 67.0197C29.4985 67.0197 29.3357 66.5312 29.2173 65.7616C28.6993 64.9919 27.8852 64.015 26.8343 63.5266C24.8953 62.6385 22.6752 63.8818 22.616 64.1334C22.616 64.1334 24.0961 65.1399 25.8574 67.3453C27.3375 69.2102 29.8833 66.9012 29.8833 66.9012C29.8833 66.9012 29.8685 66.8716 29.8537 66.8272C29.6317 66.9605 29.4985 67.0197 29.4985 67.0197ZM28.5364 66.3536C28.5364 66.3536 27.3375 67.4489 26.6271 66.5608C25.7982 65.5099 25.0878 65.0363 25.0878 65.0363C25.1174 64.9179 26.1682 64.3258 27.0859 64.7551C28.0184 65.1695 28.5364 66.3536 28.5364 66.3536Z" fill="white"/>
<path d="M68.4848 110.047C68.4848 110.047 68.396 110.165 68.248 110.358C68.5884 110.609 68.7956 110.728 68.7956 110.728C68.7956 110.728 71.1934 103.179 67.9076 99.5527C64.0148 95.2752 61.9871 91.4417 61.9871 91.4417C61.6467 91.6637 60.6846 98.1022 62.7123 103.194C63.334 104.763 64.1629 106.095 64.9917 107.161C67.1083 108.419 68.4848 110.047 68.4848 110.047ZM67.6855 108.271C67.6855 108.271 65.7614 107.116 64.7993 104.704C63.8372 102.291 64.2961 99.2419 64.4589 99.1383C64.4589 99.1383 65.421 100.959 67.2563 102.987C68.8252 104.689 67.6855 108.271 67.6855 108.271Z" fill="white"/>
<path d="M68.4848 110.047C68.4848 110.047 68.396 110.165 68.248 110.358C67.5375 109.84 66.2498 108.789 64.9917 107.161C67.1083 108.419 68.4848 110.047 68.4848 110.047Z" fill="white"/>
<path d="M59.5744 101.418C59.5744 101.418 61.2617 93.5287 57.6651 90.4797C53.4171 86.8682 51.0489 83.3899 51.0489 83.3899C50.7381 83.6711 50.3681 90.2132 52.8547 94.9348C55.3265 99.6712 59.5744 101.418 59.5744 101.418ZM58.2423 99.0051C58.2423 99.0051 56.2293 98.1763 55.0601 95.9265C53.8908 93.6915 54.0536 90.5833 54.2016 90.4649C54.2016 90.4649 55.3265 92.1078 57.3394 93.8247C59.0416 95.2752 58.2423 99.0051 58.2423 99.0051Z" fill="white"/>
<path d="M46.727 92.5813C47.6891 93.2474 48.4143 93.9579 48.7992 94.3575C49.3172 93.0994 50.8417 88.8811 48.9916 86.202C46.3866 82.4573 45.1877 79.3047 45.1877 79.3047C44.9065 79.4231 43.5744 84.1299 44.6548 88.2298C45.1285 90.0207 45.9573 91.4861 46.727 92.5813ZM48.3699 92.4925C48.3699 92.4925 46.9934 91.3676 46.4754 89.4139C45.9573 87.4749 46.5938 85.24 46.727 85.1808C46.727 85.1808 47.3043 86.6757 48.5328 88.4518C49.5836 89.9615 48.3699 92.4925 48.3699 92.4925Z" fill="white"/>
<path d="M46.7271 92.5813C47.6891 93.2474 48.4144 93.9578 48.7992 94.3574C48.6956 94.5943 48.6364 94.7127 48.6364 94.7127C48.6364 94.7127 47.7187 93.9578 46.7271 92.5813Z" fill="white"/>
<path d="M39.4597 85.0328C40.4218 85.7137 41.1174 86.4389 41.4135 86.7646C42.4199 85.3288 44.0925 82.3686 43.086 79.4824C41.4431 74.7312 41.0138 71.1345 41.0138 71.1345C40.703 71.1345 38.2904 75.1752 38.3792 79.6304C38.4088 81.7322 38.9269 83.6267 39.4597 85.0328ZM40.6586 84.7812C40.6586 84.7812 39.5781 83.1087 39.5485 80.9921C39.5041 78.8755 40.6586 76.9662 40.7918 76.9662C40.7918 76.9662 40.999 78.6683 41.7687 80.9181C42.4347 82.8126 40.6586 84.7812 40.6586 84.7812Z" fill="white"/>
<path d="M39.4596 85.0327C40.4217 85.7136 41.1173 86.4388 41.4133 86.7645C41.0137 87.3269 40.7177 87.6525 40.7177 87.6525C40.7177 87.6525 40.0812 86.646 39.4596 85.0327Z" fill="white"/>
<path d="M35.1231 79.2455C35.6115 79.7339 35.952 80.1779 36.1444 80.4296C37.0769 79.5267 39.075 77.2029 38.483 74.4055C37.5653 70.1427 37.5653 67.0641 37.5653 67.0641C37.3137 67.0049 34.8863 69.9651 34.5163 73.7246C34.2942 75.8856 34.7235 77.9134 35.1231 79.2455ZM35.9816 78.7718C35.9816 78.7718 35.2415 77.1733 35.4191 75.3972C35.5967 73.621 36.7364 72.2149 36.8548 72.2445C36.8548 72.2445 36.8548 73.7098 37.2841 75.7228C37.6689 77.4249 35.9816 78.7718 35.9816 78.7718Z" fill="white"/>
<path d="M35.7003 80.8439C35.7003 80.8439 35.4191 80.237 35.123 79.2454C35.6115 79.7338 35.9519 80.1778 36.1443 80.4295C35.8779 80.6959 35.7003 80.8439 35.7003 80.8439Z" fill="white"/>
<path d="M32.4587 73.991C33.332 73.2362 34.9453 71.4896 34.5901 69.1954C34.0128 65.5099 34.1608 62.9049 34.1608 62.9049C33.9388 62.8457 31.763 65.1399 31.2746 68.2778C31.0526 69.7283 31.171 71.1492 31.3782 72.2445C31.9406 73.0141 32.3107 73.7098 32.4587 73.991ZM32.6215 72.2741C32.6215 72.2741 32.0738 70.868 32.3107 69.373C32.5475 67.8781 33.5836 66.7976 33.6724 66.8272C33.6724 66.8272 33.5984 68.0557 33.8796 69.8023C34.1164 71.2824 32.6215 72.2741 32.6215 72.2741Z" fill="white"/>
<path d="M31.3634 72.2593C31.9406 73.0141 32.3107 73.7098 32.4587 73.991C32.1479 74.2574 31.9258 74.4054 31.9258 74.4054C31.9258 74.4054 31.5854 73.547 31.3634 72.2593Z" fill="white"/>
<path d="M32.0593 63.1566C31.7781 60.1075 32.0593 58.0206 32.0593 58.0206C31.8817 57.9466 29.8835 59.5155 29.2915 61.9873C28.951 63.3786 29.0694 64.7847 29.2175 65.7616C29.5431 66.2648 29.7651 66.6793 29.8391 66.8421C30.5792 66.398 32.2369 65.1695 32.0593 63.1566ZM29.7947 65.4508C29.7947 65.4508 29.4099 64.2371 29.6911 63.0678C29.9723 61.8985 30.9196 61.1436 31.0084 61.188C31.0084 61.188 30.8752 62.1797 31.0084 63.6302C31.112 64.8439 29.7947 65.4508 29.7947 65.4508Z" fill="white"/>
<path d="M29.8388 66.8273C29.6316 66.9457 29.4984 67.0049 29.4984 67.0049C29.4984 67.0049 29.3356 66.5165 29.2172 65.7468C29.5576 66.2501 29.7648 66.6793 29.8388 66.8273Z" fill="white"/>
<path d="M28.4034 62.8309C28.4034 62.8309 28.8771 58.509 27.3969 56.5256C25.6504 54.187 25.31 53.0029 25.31 53.0029C25.162 53.0917 24.7475 56.1556 25.6652 58.7754C26.5829 61.3804 28.4034 62.8309 28.4034 62.8309ZM26.272 58.3166C25.8428 57.0733 26.0352 55.6227 26.1092 55.5783C26.1092 55.5783 26.272 56.1408 27.1009 57.2509C27.7966 58.1833 27.5745 60.2407 27.5745 60.2407C27.5745 60.2407 26.7161 59.5599 26.272 58.3166Z" fill="white"/>
<path d="M20.8546 25.9169H21.4911C21.5651 26.5089 21.7279 27.0269 21.9499 27.5006C22.1719 27.9742 22.4531 28.3739 22.7936 28.6995C23.134 29.0251 23.5336 29.2767 23.9777 29.4543C24.4217 29.632 24.9101 29.7208 25.4282 29.7208C26.2866 29.7208 26.9527 29.4987 27.4559 29.0399C27.9592 28.5811 28.196 27.9594 28.196 27.1898C28.196 26.8641 28.1516 26.5681 28.048 26.2869C27.9444 26.0205 27.7816 25.754 27.5595 25.5024C27.3227 25.2508 27.0267 24.9992 26.6271 24.7476C26.2274 24.4959 25.7538 24.1999 25.1618 23.9187C24.4513 23.5635 23.8445 23.223 23.356 22.8974C22.8676 22.5718 22.4827 22.2314 22.2015 21.8761C21.9055 21.5209 21.7131 21.1509 21.5799 20.7512C21.4615 20.3516 21.4023 19.9076 21.4023 19.3895C21.4023 18.7975 21.4911 18.235 21.6835 17.7318C21.8759 17.2286 22.1423 16.7845 22.4827 16.4145C22.8232 16.0445 23.2376 15.7632 23.7112 15.556C24.1849 15.3488 24.7029 15.26 25.2654 15.26C25.7686 15.26 26.2422 15.3488 26.6863 15.5264C27.1303 15.704 27.5743 16.0001 28.0184 16.3997L28.4624 15.5264H28.8621L29.0545 19.4191H28.418C28.1368 18.3535 27.7372 17.5542 27.2191 17.0362C26.7011 16.5181 26.0646 16.2517 25.3246 16.2517C24.6141 16.2517 24.0665 16.4441 23.6372 16.8437C23.2228 17.2286 23.0156 17.7614 23.0156 18.4275C23.0156 18.7383 23.06 19.0195 23.1488 19.2711C23.2376 19.5227 23.3856 19.7596 23.5928 19.9964C23.8 20.2184 24.0665 20.4552 24.4069 20.6772C24.7473 20.8993 25.1618 21.1361 25.6502 21.3877C26.5087 21.8169 27.2191 22.2166 27.7816 22.5866C28.344 22.9566 28.8028 23.3267 29.1285 23.6967C29.4689 24.0667 29.7057 24.4515 29.8389 24.866C29.9721 25.2804 30.0461 25.7392 30.0461 26.2425C30.0461 26.8937 29.9277 27.5006 29.7057 28.0334C29.4689 28.5811 29.1581 29.0547 28.7288 29.4395C28.3144 29.8244 27.8112 30.1352 27.2339 30.3424C26.6567 30.5644 26.0202 30.668 25.3246 30.668C24.6733 30.668 24.0813 30.5644 23.5484 30.3572C23.0304 30.15 22.4827 29.7948 21.9499 29.3063L21.4615 30.2684H21.0618L20.8546 25.9169Z" fill="white"/>
<path d="M44.344 15.4525H44.8325L44.9953 19.9521H44.3588C44.1072 18.8124 43.6188 17.9095 42.8935 17.2583C42.1386 16.607 41.2654 16.2814 40.2441 16.2814C39.5336 16.2814 38.912 16.4442 38.3495 16.755C37.8019 17.0658 37.3283 17.5099 36.9434 18.1019C36.5586 18.694 36.2774 19.4044 36.0702 20.2481C35.8629 21.0918 35.7741 22.0538 35.7741 23.1195C35.7741 25.2213 36.159 26.8346 36.9286 27.9595C37.6983 29.0844 38.8232 29.6468 40.2885 29.6468C42.5235 29.6468 43.9444 28.3147 44.5808 25.6357H45.2913V30.5053H44.6844L44.2848 28.966C43.0711 30.1205 41.6058 30.7125 39.8889 30.7125C38.912 30.7125 38.0239 30.5349 37.2246 30.1797C36.4402 29.8245 35.7593 29.336 35.1969 28.6848C34.6344 28.0335 34.2052 27.2491 33.8944 26.3314C33.5836 25.3989 33.4355 24.3776 33.4355 23.2379C33.4355 22.0538 33.5984 20.9734 33.924 19.9965C34.2496 19.0196 34.6936 18.1759 35.2857 17.4803C35.8629 16.7698 36.5734 16.237 37.3875 15.8521C38.2015 15.4673 39.1044 15.2749 40.0813 15.2749C40.7769 15.2749 41.4282 15.3785 42.035 15.6005C42.6419 15.8225 43.3079 16.1778 44.0332 16.681L44.344 15.4525Z" fill="white"/>
<path d="M149.595 19.2267C149.595 19.9223 149.492 20.5292 149.299 21.0768C149.107 21.6245 148.796 22.0833 148.367 22.4682C147.952 22.853 147.39 23.1342 146.724 23.3414C146.043 23.5486 145.229 23.6522 144.252 23.6522H142.698V27.4265C142.698 27.915 142.727 28.2998 142.772 28.6106C142.831 28.9215 142.935 29.1583 143.097 29.3211C143.26 29.4839 143.512 29.6023 143.823 29.6615C144.133 29.7207 144.563 29.7503 145.081 29.7503V30.4904H138.983V29.7503C139.382 29.7355 139.708 29.6911 139.96 29.6319C140.211 29.5727 140.404 29.4543 140.537 29.3063C140.67 29.1435 140.774 28.9363 140.818 28.6402C140.862 28.359 140.892 27.989 140.892 27.5302V18.4274C140.892 17.9686 140.877 17.5986 140.833 17.3173C140.788 17.0361 140.714 16.8141 140.596 16.6513C140.478 16.4885 140.3 16.3849 140.063 16.3257C139.826 16.2665 139.53 16.2221 139.16 16.1925V15.4524H144.607C146.206 15.4524 147.434 15.778 148.307 16.4441C149.166 17.1249 149.595 18.0426 149.595 19.2267ZM142.698 22.6902H143.926C145.081 22.6902 145.939 22.4385 146.502 21.9353C147.064 21.4321 147.345 20.6032 147.345 19.4635C147.345 18.3534 147.123 17.569 146.679 17.0953C146.235 16.6217 145.54 16.3849 144.592 16.3849H142.994C142.801 16.3849 142.698 16.4885 142.698 16.7105V22.6902Z" fill="white"/>
<path d="M162.887 19.2268C162.887 20.2629 162.605 21.1361 162.058 21.8318C161.51 22.5274 160.622 22.9863 159.408 23.2231L163.242 28.4183C163.553 28.8476 163.893 29.1584 164.278 29.3508C164.648 29.5432 165.107 29.6764 165.625 29.7652V30.5053H162.28L158.032 24.3628C157.884 24.1408 157.736 23.9632 157.603 23.83C157.469 23.6967 157.336 23.5931 157.188 23.5339C157.04 23.4599 156.877 23.4155 156.685 23.4007C156.493 23.3859 156.27 23.3711 156.004 23.3711V27.4414C156.004 27.9299 156.034 28.3147 156.078 28.6255C156.137 28.9364 156.241 29.1732 156.404 29.336C156.567 29.4988 156.818 29.6172 157.129 29.6764C157.44 29.7356 157.869 29.7652 158.387 29.7652V30.5053H152.274V29.7652C152.674 29.7504 152.999 29.706 153.251 29.6468C153.503 29.5876 153.695 29.4692 153.828 29.3212C153.962 29.1584 154.065 28.9512 154.11 28.6551C154.154 28.3739 154.184 28.0039 154.184 27.545V18.4423C154.184 17.9835 154.169 17.6135 154.124 17.3322C154.08 17.051 154.006 16.829 153.888 16.6662C153.769 16.5034 153.591 16.3998 153.355 16.3406C153.118 16.2814 152.822 16.2369 152.452 16.2073V15.4673H157.899C159.497 15.4673 160.726 15.7929 161.599 16.459C162.443 17.125 162.887 18.0427 162.887 19.2268ZM155.989 22.3942H157.218C158.372 22.3942 159.231 22.1574 159.793 21.6838C160.356 21.2101 160.637 20.4257 160.637 19.3304C160.637 18.2795 160.415 17.5246 159.971 17.0658C159.527 16.607 158.831 16.385 157.884 16.385H156.285C156.093 16.385 155.989 16.4886 155.989 16.7106V22.3942Z" fill="white"/>
<path d="M105.162 30.3276C102.75 23.149 99.7893 16.1629 96.8439 9.16193C96.0002 6.2313 95.1713 3.24146 94.2389 0.888071C94.0464 0.384831 93.78 0 93.0844 0C92.3887 0 92.1075 0.370029 91.9003 0.87327C91.1602 2.73822 90.4498 4.9584 89.7541 7.23778C87.6079 11.915 85.4618 16.5921 83.1972 21.2249C78.8456 30.1648 80.3258 38.9419 84.3073 47.9558C86.9271 53.8911 88.7772 63.0086 91.1602 69.0475C91.4266 69.7284 91.7967 70.2464 92.7291 70.2464C93.6616 70.2464 94.0613 69.7432 94.3277 69.0771C96.7995 62.8606 98.9752 53.6839 101.403 47.4378C103.564 41.8873 107.086 36.0409 105.162 30.3276ZM100.367 44.3739C98.62 48.9919 96.9179 55.2084 95.275 62.7126C95.1565 63.2306 94.8013 63.5859 94.1205 63.5859C93.4396 63.5859 93.188 63.201 92.9808 62.6978C91.2638 58.213 89.9317 49.1695 88.0372 44.7736C85.1657 38.0982 84.1001 31.6005 87.2379 24.9844C88.866 21.5505 90.4054 18.087 91.9595 14.6236C92.4627 12.9362 92.966 11.2785 93.4988 9.90199C93.6468 9.53196 93.854 9.25074 94.3425 9.26554C94.8457 9.26554 95.0381 9.54676 95.1861 9.93159C95.8522 11.6781 96.4442 13.8835 97.0659 16.0593C99.1825 21.2397 101.329 26.4201 103.06 31.7337C104.437 35.9373 101.906 40.274 100.367 44.3739Z" fill="white"/>
<path d="M110.076 79.438C110.15 82.6202 108.848 84.9736 105.799 85.4325C102.542 85.9209 98.8274 84.8404 97.7321 82.2946C97.4509 81.6582 97.3473 81.1401 96.6664 81.2585H96.6516C96.7552 87.0014 98.9902 90.5093 103.105 91.6934C106.45 92.6554 109.721 91.6046 111.305 89.0736C113.17 86.0985 112.755 82.4574 110.076 79.438ZM102.883 90.9829C99.1826 90.2577 96.992 84.9736 97.2141 82.7683C97.2141 82.7683 97.9985 85.1512 98.8126 86.1725C99.9375 87.5638 103.49 88.6887 106.406 88.4667C108.715 88.2891 110.535 86.0541 111.098 84.2484C112.43 87.0902 110.224 92.4334 102.883 90.9829Z" fill="white"/>
<path d="M89.0587 81.2436C88.3778 81.1252 88.2594 81.6285 87.993 82.2797C86.8977 84.8255 83.1826 85.906 79.9264 85.4176C76.8921 84.9587 75.5748 82.6053 75.6488 79.4231C72.955 82.4425 72.5554 86.0836 74.4203 89.0735C76.0041 91.6045 79.2751 92.6554 82.6202 91.6933C86.7497 90.5092 88.9847 87.0013 89.0735 81.2584L89.0587 81.2436ZM82.6942 90.9384C75.3528 92.3889 73.1474 87.0457 74.4647 84.2039C75.042 86.0096 76.8477 88.2446 79.1567 88.4222C82.0725 88.6442 85.6248 87.5341 86.7497 86.128C87.5638 85.1067 88.3482 82.7238 88.3482 82.7238C88.5999 84.9291 86.3945 90.1984 82.6942 90.9384Z" fill="white"/>
<path d="M127.482 42.1389C121.666 38.853 115.612 39.5931 110.328 43.4414C102.528 49.1398 99.1678 60.3443 97.7173 69.9503C99.1974 69.595 99.8635 66.324 100.382 65.2583C102.809 60.2999 108.034 57.7541 113.14 56.644C120.644 55.0159 125.78 60.3887 123.93 67.7597C123.782 68.3665 123.516 68.9586 123.264 69.6839C129.658 68.4554 134.824 62.7125 135.12 56.644C135.445 50.3239 132.944 45.2323 127.482 42.1389ZM124.774 67.1973C125.025 66.62 125.247 65.6875 125.395 65.2139C127.186 59.3674 121.207 53.8318 113.969 55.1195C109.055 55.9928 104.097 58.6866 101.284 62.4165C100.692 63.2009 99.9671 64.5034 98.9606 66.9456C100.87 59.175 104.659 51.138 112.74 47.7189C124.537 42.7161 131.079 50.6051 131.05 55.6375C131.035 57.2953 130.724 62.3869 124.774 67.1973Z" fill="white"/>
<path d="M75.4711 43.4711C70.2019 39.6228 64.1334 38.8828 58.3165 42.1686C52.8549 45.2621 50.3535 50.3537 50.6643 56.6886C50.9751 62.7423 56.1259 68.4851 62.52 69.7284C62.2684 69.0032 62.002 68.4111 61.854 67.8043C60.0038 60.4333 65.1398 55.0605 72.644 56.6886C77.7505 57.7987 82.9753 60.3593 85.4027 65.3029C85.9207 66.3686 86.5868 69.6396 88.0669 69.9949C86.6312 60.3889 83.2713 49.1696 75.4711 43.4711ZM84.4998 62.4463C81.6876 58.7016 76.7292 56.0225 71.8152 55.1493C64.5774 53.8616 58.6125 59.3972 60.3887 65.2437C60.5367 65.7321 60.7587 66.6646 61.0103 67.227C55.0602 62.4315 54.7494 57.3398 54.7346 55.6525C54.705 50.6201 61.2323 42.7311 73.0437 47.7339C81.1251 51.1678 84.5146 59.0568 86.8236 66.9606C85.8171 64.5332 85.0918 63.2307 84.4998 62.4463Z" fill="white"/>
<path d="M101.773 95.8819C101.639 95.2898 101.24 95.5562 100.737 95.3934C99.7745 95.0974 99.2861 94.7126 98.9013 94.1501C97.1991 90.139 95.3194 86.3647 93.6764 82.4572C93.558 82.0428 93.4396 81.6579 93.3212 81.3027C93.2176 81.0067 93.0844 80.7847 92.7292 80.7847C92.3739 80.7847 92.2407 80.9919 92.1371 81.2879C92.0335 81.6135 91.9151 81.954 91.8115 82.2944C90.9974 84.0705 89.1473 88.1261 87.5931 91.6931C86.6903 93.3065 86.5571 94.1501 84.7957 94.683C84.2925 94.831 83.8781 94.5794 83.7596 95.1714V95.1862C86.261 96.4147 88.2592 96.0003 89.9613 95.0234C90.7458 97.4064 91.5747 99.893 92.6107 103.001C93.4988 100.914 94.1501 99.6266 94.6089 98.2649C94.9049 97.3768 95.2158 96.3259 95.4082 95.4378C97.1695 96.5331 99.1529 97.1992 101.802 95.8967L101.773 95.8819ZM97.6876 95.1714C96.8735 95.0382 95.7338 94.1797 94.8161 93.4693C94.3573 94.6978 93.8837 96.992 93.2768 98.7237C93.2176 98.8865 92.9216 98.8717 92.8624 98.7089C92.4183 97.5544 91.8707 96.2519 91.6191 95.571C91.4415 95.0678 90.9234 94.1353 90.5534 93.4841C89.2361 95.1862 86.7939 95.275 86.6755 95.0234C86.6755 95.0234 87.4599 94.6238 88.052 94.1797C89.0585 93.4101 89.9317 91.0271 90.5978 89.4434C91.3082 87.7708 92.5811 84.8106 93.0548 84.8106C93.5136 84.8106 94.6089 87.9632 95.423 90.1982C95.6154 90.7163 96.4442 92.3592 96.7107 92.8328C97.0807 93.5137 97.6136 94.5202 98.1316 94.9198C98.4128 95.1418 98.1612 95.2454 97.6876 95.1714Z" fill="white"/>
<path d="M157.647 60.833C157.233 62.6832 156.745 64.4889 156.197 66.265C155.649 68.0412 155.013 69.7729 154.332 71.4455C152.985 74.8053 151.298 77.958 149.388 80.8146C148.441 82.2355 147.435 83.5972 146.369 84.8701C143.201 88.6592 139.486 91.7971 135.756 94.5945C133.24 96.4743 130.65 98.2208 128.089 100.041C127.764 100.263 127.453 100.5 127.127 100.737C124.878 102.38 122.672 104.141 120.615 106.169C119.431 107.324 118.617 108.567 117.196 109.573C112.785 112.756 106.406 115.375 97.4214 118.602C97.5102 118.72 98.6055 118.839 98.7535 118.794C102.498 117.551 106.258 116.663 108.877 115.79C110.831 115.139 117.003 112.578 118.128 111.423C119.253 110.269 120.408 109.114 121.607 108.078C122.791 107.013 124.004 105.991 125.218 105L126.136 104.26L127.068 103.52C127.69 103.031 128.311 102.543 128.933 102.054C131.42 100.101 133.951 98.1912 136.452 96.2078C138.332 94.7129 140.197 93.144 141.973 91.4567L142.417 91.0274C143.764 89.7397 145.037 88.3484 146.265 86.8831L147.065 85.847C148.115 84.4853 149.122 83.0496 150.054 81.5547C152.822 77.0403 155.042 71.9043 156.537 66.4279C157.041 64.6073 157.455 62.7572 157.81 60.8774L157.647 60.833Z" fill="white"/>
<path d="M124.967 105.725C123.413 105.858 121.992 106.45 120.808 107.161C119.55 108.789 118.247 109.84 117.552 110.358C118.484 111.557 122.066 115.686 125.352 113.51C129.881 110.535 133.33 109.632 133.33 109.632C133.33 109.129 129.304 105.355 124.967 105.725ZM123.738 111.261C121.933 112.459 119.935 109.618 119.935 109.618C119.935 109.618 121.503 107.753 123.561 107.575C125.603 107.397 127.513 109.188 127.528 109.425C127.528 109.425 125.885 109.854 123.738 111.261Z" fill="white"/>
<path d="M134.232 97.6435C129.91 98.0283 126.58 101.951 126.58 101.951C126.58 101.951 130.798 107.945 134.617 105.414C139.146 102.439 142.595 101.536 142.595 101.536C142.595 101.033 138.569 97.2586 134.232 97.6435ZM133.181 103.357C131.376 104.556 129.377 101.714 129.377 101.714C129.377 101.714 130.946 99.8488 133.004 99.6712C135.046 99.4936 136.956 101.285 136.97 101.521C136.97 101.521 135.327 101.951 133.181 103.357Z" fill="white"/>
<path d="M143.039 91.0125C141.515 91.1457 140.153 91.8266 139.072 92.5666C138.081 93.9579 137.163 94.7128 137.163 94.7128C137.163 94.7128 137.104 94.5796 137 94.3576C136.793 94.5796 136.689 94.7128 136.689 94.7128C136.689 94.7128 140.197 99.8784 143.38 97.7174C147.139 95.1716 150.011 94.402 150.011 94.402C149.981 93.9727 146.636 90.7017 143.039 91.0125ZM142.181 96.2521C140.671 97.2734 139.013 94.8312 139.013 94.8312C139.013 94.8312 140.316 93.2327 142.018 93.0846C143.72 92.9366 145.304 94.476 145.319 94.6832C145.319 94.6832 143.957 95.0384 142.181 96.2521Z" fill="white"/>
<path d="M150.159 83.4936C148.678 83.6268 147.361 84.3077 146.34 85.033C145.733 86.6463 145.082 87.6528 145.082 87.6528C145.082 87.6528 144.786 87.3271 144.386 86.7647C144.282 86.8831 144.223 86.9423 144.223 86.9423C144.223 86.9423 147.494 91.7675 150.469 89.7545C153.977 87.3715 156.656 86.6611 156.656 86.6611C156.641 86.2615 153.518 83.2124 150.159 83.4936ZM149.004 88.4816C147.598 89.4437 146.044 87.1495 146.044 87.1495C146.044 87.1495 147.258 85.6546 148.856 85.5214C150.44 85.3882 151.935 86.8239 151.935 87.0163C151.935 87.0163 150.662 87.3567 149.004 88.4816Z" fill="white"/>
<path d="M154.258 77.055C152.778 77.3954 151.535 78.3871 150.677 79.2456C150.381 80.2373 150.099 80.8441 150.099 80.8441C150.099 80.8441 149.922 80.6961 149.655 80.4445C149.552 80.5925 149.492 80.6813 149.492 80.6813C149.492 80.6813 152.586 84.352 154.939 82.2946C157.722 79.8672 159.942 78.9496 159.942 78.9496C159.912 78.5943 157.071 76.4038 154.258 77.055ZM153.992 81.1105C152.867 82.0874 151.417 80.3409 151.417 80.3409C151.417 80.3409 152.349 78.9348 153.666 78.6239C154.998 78.3131 156.345 79.3492 156.36 79.512C156.36 79.512 155.309 79.9561 153.992 81.1105Z" fill="white"/>
<path d="M156.864 70.1725C155.857 70.6609 155.043 71.4898 154.436 72.2594C154.199 73.5471 153.874 74.4056 153.874 74.4056C153.874 74.4056 153.652 74.2576 153.341 73.9912C153.296 74.08 153.282 74.1244 153.282 74.1244C153.282 74.1244 156.271 76.5962 158.003 74.4204C160.061 71.845 161.807 70.6461 161.807 70.6461C161.748 70.3649 159.128 69.092 156.864 70.1725ZM156.938 73.5916C156.109 74.6276 154.703 73.4583 154.703 73.4583C154.703 73.4583 155.324 72.1114 156.39 71.5934C157.47 71.0754 158.699 71.6822 158.743 71.8154C158.743 71.8154 157.914 72.3779 156.938 73.5916Z" fill="white"/>
<path d="M155.961 66.8275C155.946 66.8719 155.931 66.9015 155.931 66.9015C155.931 66.9015 158.477 69.2105 159.957 67.3456C161.704 65.1402 163.199 64.1337 163.199 64.1337C163.139 63.8821 160.904 62.6536 158.98 63.5269C157.915 64.0153 157.1 64.9774 156.597 65.7619C156.479 66.5315 156.316 67.02 156.316 67.02C156.316 67.02 156.168 66.9607 155.961 66.8275ZM158.699 64.7554C159.617 64.3409 160.668 64.9182 160.697 65.0366C160.697 65.0366 159.987 65.5102 159.158 66.5611C158.462 67.4492 157.248 66.3539 157.248 66.3539C157.248 66.3539 157.781 65.1698 158.699 64.7554Z" fill="white"/>
<path d="M120.822 107.161C121.651 106.08 122.48 104.763 123.102 103.194C125.13 98.1024 124.168 91.6639 123.827 91.4419C123.827 91.4419 121.799 95.2754 117.907 99.5529C114.621 103.164 117.019 110.728 117.019 110.728C117.019 110.728 117.226 110.609 117.566 110.358C117.418 110.165 117.329 110.047 117.329 110.047C117.329 110.047 118.691 108.419 120.822 107.161ZM118.528 102.972C120.364 100.944 121.326 99.1237 121.326 99.1237C121.488 99.2273 121.947 102.276 120.985 104.689C120.023 107.102 118.099 108.256 118.099 108.256C118.099 108.256 116.974 104.689 118.528 102.972Z" fill="white"/>
<path d="M117.315 110.047C117.315 110.047 117.403 110.165 117.552 110.358C118.262 109.84 119.55 108.789 120.808 107.161C118.691 108.419 117.315 110.047 117.315 110.047Z" fill="white"/>
<path d="M132.96 94.9351C135.431 90.2135 135.076 83.6714 134.765 83.3901C134.765 83.3901 132.397 86.8684 128.149 90.4799C124.553 93.5289 126.24 101.418 126.24 101.418C126.24 101.418 130.488 99.6714 132.96 94.9351ZM128.46 93.825C130.473 92.108 131.598 90.4651 131.598 90.4651C131.746 90.5983 131.924 93.6918 130.739 95.9267C129.57 98.1617 127.557 99.0054 127.557 99.0054C127.557 99.0054 126.758 95.2755 128.46 93.825Z" fill="white"/>
<path d="M141.144 88.23C142.225 84.1301 140.893 79.4233 140.612 79.3049C140.612 79.3049 139.413 82.4724 136.808 86.2023C134.958 88.8813 136.482 93.0996 137 94.3577C137.385 93.9433 138.11 93.2328 139.072 92.5816C139.857 91.4863 140.671 90.021 141.144 88.23ZM137.267 88.4521C138.495 86.6759 139.072 85.181 139.072 85.181C139.205 85.2402 139.842 87.4604 139.324 89.4141C138.806 91.3531 137.429 92.4928 137.429 92.4928C137.429 92.4928 136.216 89.9618 137.267 88.4521Z" fill="white"/>
<path d="M139.072 92.5815C138.11 93.2476 137.385 93.9581 137 94.3577C137.104 94.5945 137.163 94.7129 137.163 94.7129C137.163 94.7129 138.081 93.9581 139.072 92.5815Z" fill="white"/>
<path d="M147.435 79.6453C147.524 75.1753 145.096 71.1494 144.8 71.1494C144.8 71.1494 144.371 74.7461 142.728 79.4973C141.722 82.3835 143.379 85.3437 144.401 86.7795C144.697 86.4538 145.392 85.7286 146.355 85.0477C146.873 83.6268 147.391 81.7323 147.435 79.6453ZM144.016 80.9182C144.8 78.6684 144.993 76.9663 144.993 76.9663C145.141 76.9663 146.281 78.8756 146.251 80.9922C146.207 83.1088 145.141 84.7813 145.141 84.7813C145.141 84.7813 143.365 82.8127 144.016 80.9182Z" fill="white"/>
<path d="M146.339 85.033C145.377 85.7138 144.682 86.4391 144.386 86.7647C144.785 87.3271 145.081 87.6528 145.081 87.6528C145.081 87.6528 145.718 86.6463 146.339 85.033Z" fill="white"/>
<path d="M151.298 73.7249C150.928 69.9654 148.515 67.0051 148.249 67.0643C148.249 67.0643 148.249 70.143 147.331 74.4057C146.724 77.2032 148.737 79.5269 149.67 80.4298C149.862 80.1782 150.217 79.7342 150.691 79.2457C151.076 77.9136 151.505 75.8859 151.298 73.7249ZM148.501 75.723C148.93 73.7101 148.93 72.2448 148.93 72.2448C149.048 72.2152 150.203 73.6213 150.365 75.3974C150.543 77.1736 149.803 78.7721 149.803 78.7721C149.803 78.7721 148.131 77.4252 148.501 75.723Z" fill="white"/>
<path d="M150.114 80.8441C150.114 80.8441 150.396 80.2373 150.692 79.2456C150.203 79.734 149.863 80.1781 149.67 80.4297C149.922 80.6961 150.114 80.8441 150.114 80.8441Z" fill="white"/>
<path d="M154.436 72.2595C154.628 71.1494 154.762 69.7433 154.54 68.2928C154.051 65.1549 151.861 62.8459 151.653 62.9199C151.653 62.9199 151.801 65.525 151.224 69.2104C150.869 71.5046 152.482 73.2512 153.355 74.006C153.489 73.71 153.859 73.0143 154.436 72.2595ZM151.92 69.8173C152.186 68.0708 152.127 66.8423 152.127 66.8423C152.231 66.8127 153.267 67.8931 153.489 69.3881C153.726 70.883 153.178 72.2891 153.178 72.2891C153.178 72.2891 151.683 71.2826 151.92 69.8173Z" fill="white"/>
<path d="M154.436 72.2595C153.859 73.0144 153.489 73.71 153.341 73.9913C153.651 74.2577 153.873 74.4057 153.873 74.4057C153.873 74.4057 154.214 73.5472 154.436 72.2595Z" fill="white"/>
<path d="M155.96 66.8274C156.034 66.6646 156.242 66.2502 156.582 65.7469C156.745 64.7701 156.849 63.364 156.508 61.9726C155.916 59.5008 153.918 57.9319 153.74 58.0059C153.74 58.0059 154.007 60.0929 153.74 63.1419C153.563 65.1697 155.235 66.3982 155.96 66.8274ZM154.791 63.6304C154.924 62.1799 154.791 61.1882 154.791 61.1882C154.88 61.1438 155.812 61.8986 156.108 63.0679C156.39 64.2372 156.005 65.4509 156.005 65.4509C156.005 65.4509 154.688 64.8441 154.791 63.6304Z" fill="white"/>
<path d="M155.961 66.8276C156.168 66.946 156.301 67.0052 156.301 67.0052C156.301 67.0052 156.464 66.5167 156.582 65.7471C156.257 66.2503 156.035 66.6795 155.961 66.8276Z" fill="white"/>
<path d="M160.135 58.7756C161.052 56.1706 160.638 53.092 160.49 53.0032C160.49 53.0032 160.149 54.2021 158.403 56.5259C156.923 58.4944 157.396 62.8312 157.396 62.8312C157.396 62.8312 159.217 61.3806 160.135 58.7756ZM158.225 60.241C158.225 60.241 158.003 58.1984 158.699 57.2511C159.528 56.141 159.691 55.5786 159.691 55.5786C159.765 55.623 159.957 57.0735 159.528 58.3168C159.099 59.5601 158.225 60.241 158.225 60.241Z" fill="white"/>
<path d="M28.1518 60.8328C28.5663 62.6829 29.0547 64.4887 29.6023 66.2648C30.15 68.0409 30.7864 69.7727 31.4673 71.4452C32.8142 74.8051 34.5015 77.9577 36.4109 80.8144C37.3582 82.2353 38.3646 83.597 39.4303 84.8699C42.5978 88.659 46.3129 91.7968 50.0428 94.5943C52.559 96.474 55.1492 98.2205 57.7098 100.041C58.0354 100.263 58.3462 100.5 58.6719 100.737C60.9216 102.38 63.127 104.141 65.1844 106.169C66.3685 107.323 67.1825 108.567 68.6035 109.573C73.0142 112.755 79.3935 115.375 88.3778 118.602C88.289 118.72 87.1937 118.839 87.0457 118.794C83.301 117.551 79.5415 116.663 76.9217 115.79C74.968 115.138 68.7959 112.578 67.671 111.423C66.5461 110.269 65.3916 109.114 64.1927 108.078C63.0086 107.012 61.7949 105.991 60.5812 104.999L59.6635 104.259L58.7311 103.519C58.1094 103.031 57.4878 102.542 56.8661 102.054C54.3795 100.1 51.8485 98.1909 49.3471 96.2076C47.4674 94.7127 45.6024 93.1437 43.8263 91.4564L43.3822 91.0272C42.0353 89.7395 40.7624 88.3482 39.5339 86.8828L38.7347 85.8468C37.6838 84.4851 36.6773 83.0493 35.7448 81.5544C32.977 77.0401 30.7568 71.9041 29.2619 66.4276C28.7587 64.6071 28.3442 62.7569 27.989 60.8772L28.1518 60.8328Z" fill="white"/>
<path d="M52.4551 109.632C52.4551 109.632 55.9186 110.535 60.4329 113.51C63.7188 115.671 67.3007 111.556 68.2331 110.357C67.5227 109.839 66.235 108.789 64.9769 107.16C63.7928 106.45 62.3719 105.858 60.8177 105.725C56.5106 105.355 52.4699 109.129 52.4551 109.632ZM58.2867 109.425C58.3015 109.188 60.1961 107.397 62.2535 107.575C64.296 107.752 65.8797 109.617 65.8797 109.617C65.8797 109.617 63.8816 112.459 62.0758 111.26C59.9149 109.854 58.2867 109.425 58.2867 109.425Z" fill="white"/>
<path d="M43.1897 101.551C43.1897 101.551 46.6532 102.454 51.1675 105.429C55.001 107.945 59.2046 101.965 59.2046 101.965C59.2046 101.965 55.8743 98.0283 51.5524 97.6582C47.2452 97.2586 43.2045 101.033 43.1897 101.551ZM48.8289 101.521C48.8437 101.285 50.7383 99.4936 52.7957 99.6712C54.8382 99.8488 56.4219 101.714 56.4219 101.714C56.4219 101.714 54.4238 104.556 52.618 103.357C50.4719 101.951 48.8289 101.521 48.8289 101.521Z" fill="white"/>
<path d="M35.8038 94.402C35.8038 94.402 38.6753 95.1716 42.4348 97.7174C45.617 99.8784 49.1249 94.7128 49.1249 94.7128C49.1249 94.7128 49.0065 94.5796 48.8141 94.3576C48.7105 94.5944 48.6513 94.7128 48.6513 94.7128C48.6513 94.7128 47.7336 93.9579 46.7419 92.5666C45.6614 91.8266 44.2997 91.1457 42.7752 91.0125C39.1785 90.7017 35.8186 93.9727 35.8038 94.402ZM40.481 94.6832C40.481 94.476 42.0795 92.9218 43.7817 93.0846C45.4838 93.2327 46.7863 94.8312 46.7863 94.8312C46.7863 94.8312 45.1286 97.2734 43.6189 96.2521C41.8427 95.0384 40.481 94.6832 40.481 94.6832Z" fill="white"/>
<path d="M29.1432 86.6608C29.1432 86.6608 31.8222 87.3713 35.3301 89.7543C38.2903 91.7672 41.5762 86.9421 41.5762 86.9421C41.5762 86.9421 41.517 86.8681 41.4134 86.7644C41.0137 87.3269 40.7177 87.6525 40.7177 87.6525C40.7177 87.6525 40.0813 86.646 39.4596 85.0327C38.4383 84.3075 37.121 83.6266 35.6409 83.4934C32.2958 83.2122 29.158 86.2612 29.1432 86.6608ZM33.8648 87.0161C33.8648 86.8237 35.3597 85.3731 36.9434 85.5211C38.5271 85.6544 39.7556 87.1493 39.7556 87.1493C39.7556 87.1493 38.2015 89.4287 36.7954 88.4814C35.1377 87.3565 33.8648 87.0161 33.8648 87.0161Z" fill="white"/>
<path d="M25.8573 78.9346C25.8573 78.9346 28.0775 79.8523 30.8601 82.2797C33.2283 84.3371 36.3069 80.6664 36.3069 80.6664C36.3069 80.6664 36.2477 80.5776 36.1441 80.4296C35.8777 80.696 35.7001 80.8292 35.7001 80.8292C35.7001 80.8292 35.4189 80.2223 35.1228 79.2307C34.2792 78.3722 33.0359 77.3805 31.541 77.0401C28.7435 76.4036 25.8869 78.5942 25.8573 78.9346ZM29.4392 79.5119C29.454 79.3491 30.8009 78.313 32.133 78.6238C33.4651 78.9346 34.3828 80.3408 34.3828 80.3408C34.3828 80.3408 32.9175 82.0873 31.8074 81.1104C30.4901 79.9559 29.4392 79.5119 29.4392 79.5119Z" fill="white"/>
<path d="M23.9775 70.6461C23.9775 70.6461 25.7241 71.845 27.7814 74.4204C29.528 76.5962 32.503 74.1244 32.503 74.1244C32.503 74.1244 32.4882 74.08 32.4438 73.9912C32.133 74.2576 31.911 74.4056 31.911 74.4056C31.911 74.4056 31.5853 73.5471 31.3485 72.2594C30.7565 71.4898 29.9276 70.6609 28.9211 70.1725C26.6714 69.092 24.0515 70.3649 23.9775 70.6461ZM27.0562 71.8154C27.0858 71.6822 28.3291 71.0754 29.4096 71.5934C30.4901 72.1114 31.0969 73.4583 31.0969 73.4583C31.0969 73.4583 29.6908 74.6276 28.8619 73.5916C27.885 72.3779 27.0562 71.8154 27.0562 71.8154Z" fill="white"/>
<path d="M29.4985 67.0197C29.4985 67.0197 29.3357 66.5312 29.2173 65.7616C28.6993 64.9919 27.8852 64.015 26.8343 63.5266C24.8953 62.6385 22.6752 63.8818 22.616 64.1334C22.616 64.1334 24.0961 65.1399 25.8574 67.3453C27.3375 69.2102 29.8833 66.9012 29.8833 66.9012C29.8833 66.9012 29.8685 66.8716 29.8537 66.8272C29.6317 66.9605 29.4985 67.0197 29.4985 67.0197ZM28.5364 66.3536C28.5364 66.3536 27.3375 67.4489 26.6271 66.5608C25.7982 65.5099 25.0878 65.0363 25.0878 65.0363C25.1174 64.9179 26.1682 64.3258 27.0859 64.7551C28.0184 65.1695 28.5364 66.3536 28.5364 66.3536Z" fill="white"/>
<path d="M68.4848 110.047C68.4848 110.047 68.396 110.165 68.248 110.358C68.5884 110.609 68.7956 110.728 68.7956 110.728C68.7956 110.728 71.1934 103.179 67.9076 99.5527C64.0148 95.2752 61.9871 91.4417 61.9871 91.4417C61.6467 91.6637 60.6846 98.1022 62.7123 103.194C63.334 104.763 64.1629 106.095 64.9917 107.161C67.1083 108.419 68.4848 110.047 68.4848 110.047ZM67.6855 108.271C67.6855 108.271 65.7614 107.116 64.7993 104.704C63.8372 102.291 64.2961 99.2419 64.4589 99.1383C64.4589 99.1383 65.421 100.959 67.2563 102.987C68.8252 104.689 67.6855 108.271 67.6855 108.271Z" fill="white"/>
<path d="M68.4848 110.047C68.4848 110.047 68.396 110.165 68.248 110.358C67.5375 109.84 66.2498 108.789 64.9917 107.161C67.1083 108.419 68.4848 110.047 68.4848 110.047Z" fill="white"/>
<path d="M59.5744 101.418C59.5744 101.418 61.2617 93.5287 57.6651 90.4797C53.4171 86.8682 51.0489 83.3899 51.0489 83.3899C50.7381 83.6711 50.3681 90.2132 52.8547 94.9348C55.3265 99.6712 59.5744 101.418 59.5744 101.418ZM58.2423 99.0051C58.2423 99.0051 56.2293 98.1763 55.0601 95.9265C53.8908 93.6915 54.0536 90.5833 54.2016 90.4649C54.2016 90.4649 55.3265 92.1078 57.3394 93.8247C59.0416 95.2752 58.2423 99.0051 58.2423 99.0051Z" fill="white"/>
<path d="M46.727 92.5813C47.6891 93.2474 48.4143 93.9579 48.7992 94.3575C49.3172 93.0994 50.8417 88.8811 48.9916 86.202C46.3866 82.4573 45.1877 79.3047 45.1877 79.3047C44.9065 79.4231 43.5744 84.1299 44.6548 88.2298C45.1285 90.0207 45.9573 91.4861 46.727 92.5813ZM48.3699 92.4925C48.3699 92.4925 46.9934 91.3676 46.4754 89.4139C45.9573 87.4749 46.5938 85.24 46.727 85.1808C46.727 85.1808 47.3043 86.6757 48.5328 88.4518C49.5836 89.9615 48.3699 92.4925 48.3699 92.4925Z" fill="white"/>
<path d="M46.7271 92.5813C47.6891 93.2474 48.4144 93.9578 48.7992 94.3574C48.6956 94.5943 48.6364 94.7127 48.6364 94.7127C48.6364 94.7127 47.7187 93.9578 46.7271 92.5813Z" fill="white"/>
<path d="M39.4597 85.0328C40.4218 85.7137 41.1174 86.4389 41.4135 86.7646C42.4199 85.3288 44.0925 82.3686 43.086 79.4824C41.4431 74.7312 41.0138 71.1345 41.0138 71.1345C40.703 71.1345 38.2904 75.1752 38.3792 79.6304C38.4088 81.7322 38.9269 83.6267 39.4597 85.0328ZM40.6586 84.7812C40.6586 84.7812 39.5781 83.1087 39.5485 80.9921C39.5041 78.8755 40.6586 76.9662 40.7918 76.9662C40.7918 76.9662 40.999 78.6683 41.7687 80.9181C42.4347 82.8126 40.6586 84.7812 40.6586 84.7812Z" fill="white"/>
<path d="M39.4596 85.0327C40.4217 85.7136 41.1173 86.4388 41.4133 86.7645C41.0137 87.3269 40.7177 87.6525 40.7177 87.6525C40.7177 87.6525 40.0812 86.646 39.4596 85.0327Z" fill="white"/>
<path d="M35.1231 79.2455C35.6115 79.7339 35.952 80.1779 36.1444 80.4296C37.0769 79.5267 39.075 77.2029 38.483 74.4055C37.5653 70.1427 37.5653 67.0641 37.5653 67.0641C37.3137 67.0049 34.8863 69.9651 34.5163 73.7246C34.2942 75.8856 34.7235 77.9134 35.1231 79.2455ZM35.9816 78.7718C35.9816 78.7718 35.2415 77.1733 35.4191 75.3972C35.5967 73.621 36.7364 72.2149 36.8548 72.2445C36.8548 72.2445 36.8548 73.7098 37.2841 75.7228C37.6689 77.4249 35.9816 78.7718 35.9816 78.7718Z" fill="white"/>
<path d="M35.7003 80.8439C35.7003 80.8439 35.4191 80.237 35.123 79.2454C35.6115 79.7338 35.9519 80.1778 36.1443 80.4295C35.8779 80.6959 35.7003 80.8439 35.7003 80.8439Z" fill="white"/>
<path d="M32.4587 73.991C33.332 73.2362 34.9453 71.4896 34.5901 69.1954C34.0128 65.5099 34.1608 62.9049 34.1608 62.9049C33.9388 62.8457 31.763 65.1399 31.2746 68.2778C31.0526 69.7283 31.171 71.1492 31.3782 72.2445C31.9406 73.0141 32.3107 73.7098 32.4587 73.991ZM32.6215 72.2741C32.6215 72.2741 32.0738 70.868 32.3107 69.373C32.5475 67.8781 33.5836 66.7976 33.6724 66.8272C33.6724 66.8272 33.5984 68.0557 33.8796 69.8023C34.1164 71.2824 32.6215 72.2741 32.6215 72.2741Z" fill="white"/>
<path d="M31.3634 72.2593C31.9406 73.0141 32.3107 73.7098 32.4587 73.991C32.1479 74.2574 31.9258 74.4054 31.9258 74.4054C31.9258 74.4054 31.5854 73.547 31.3634 72.2593Z" fill="white"/>
<path d="M32.0593 63.1566C31.7781 60.1075 32.0593 58.0206 32.0593 58.0206C31.8817 57.9466 29.8835 59.5155 29.2915 61.9873C28.951 63.3786 29.0694 64.7847 29.2175 65.7616C29.5431 66.2648 29.7651 66.6793 29.8391 66.8421C30.5792 66.398 32.2369 65.1695 32.0593 63.1566ZM29.7947 65.4508C29.7947 65.4508 29.4099 64.2371 29.6911 63.0678C29.9723 61.8985 30.9196 61.1436 31.0084 61.188C31.0084 61.188 30.8752 62.1797 31.0084 63.6302C31.112 64.8439 29.7947 65.4508 29.7947 65.4508Z" fill="white"/>
<path d="M29.8388 66.8273C29.6316 66.9457 29.4984 67.0049 29.4984 67.0049C29.4984 67.0049 29.3356 66.5165 29.2172 65.7468C29.5576 66.2501 29.7648 66.6793 29.8388 66.8273Z" fill="white"/>
<path d="M28.4034 62.8309C28.4034 62.8309 28.8771 58.509 27.3969 56.5256C25.6504 54.187 25.31 53.0029 25.31 53.0029C25.162 53.0917 24.7475 56.1556 25.6652 58.7754C26.5829 61.3804 28.4034 62.8309 28.4034 62.8309ZM26.272 58.3166C25.8428 57.0733 26.0352 55.6227 26.1092 55.5783C26.1092 55.5783 26.272 56.1408 27.1009 57.2509C27.7966 58.1833 27.5745 60.2407 27.5745 60.2407C27.5745 60.2407 26.7161 59.5599 26.272 58.3166Z" fill="white"/>
<path d="M37.5359 169.104V163.346H38.9568V165.655H41.2806V163.346H42.7015V169.104H41.2806V166.795H38.9568V169.104H37.5359Z" fill="white"/>
<path d="M51.4488 166.232C51.4488 166.868 51.3304 167.401 51.0788 167.845C50.8272 168.289 50.4867 168.615 50.0575 168.852C49.6283 169.074 49.1546 169.192 48.6218 169.192C48.0889 169.192 47.6153 169.074 47.1861 168.852C46.7568 168.63 46.4312 168.289 46.1796 167.845C45.928 167.401 45.8096 166.868 45.8096 166.232C45.8096 165.596 45.928 165.063 46.1796 164.619C46.4312 164.175 46.7716 163.849 47.1861 163.612C47.6153 163.39 48.0889 163.272 48.6218 163.272C49.1546 163.272 49.6283 163.39 50.0575 163.612C50.4867 163.834 50.8272 164.175 51.0788 164.619C51.3304 165.063 51.4488 165.596 51.4488 166.232ZM49.9983 166.232C49.9983 165.862 49.9391 165.536 49.8355 165.285C49.7319 165.033 49.5691 164.826 49.3619 164.693C49.1546 164.559 48.9178 164.5 48.6366 164.5C48.3554 164.5 48.1038 164.559 47.9113 164.693C47.7189 164.826 47.5561 165.018 47.4377 165.285C47.3193 165.551 47.2749 165.862 47.2749 166.232C47.2749 166.602 47.3341 166.928 47.4377 167.179C47.5413 167.431 47.7041 167.638 47.9113 167.771C48.1186 167.904 48.3554 167.979 48.6366 167.979C48.9178 167.979 49.1694 167.904 49.3619 167.771C49.5691 167.638 49.7171 167.446 49.8355 167.179C49.9539 166.913 49.9983 166.602 49.9983 166.232Z" fill="white"/>
<path d="M54.0981 164.485V163.361H59.0861V164.485H57.2952V169.118H55.8891V164.485H54.0981Z" fill="white"/>
<path d="M62.0614 169.104V163.346H66.1761V164.471H63.4823V165.655H65.9689V166.795H63.4823V167.979H66.1761V169.104H62.0614Z" fill="white"/>
<path d="M69.3434 169.104V163.346H70.7643V167.979H73.2213V169.104H69.3434Z" fill="white"/>
<path d="M82.4572 169.104H80.2666V163.346H82.4424C83.0492 163.346 83.5673 163.464 83.9965 163.686C84.4257 163.908 84.7662 164.249 85.003 164.678C85.2398 165.107 85.3582 165.625 85.3582 166.217C85.3582 166.824 85.2398 167.327 85.003 167.757C84.7662 168.186 84.4257 168.512 83.9965 168.748C83.5673 168.985 83.0492 169.104 82.4572 169.104ZM81.6875 167.92H82.3832C82.7088 167.92 82.99 167.86 83.2268 167.757C83.4637 167.653 83.6265 167.461 83.7449 167.224C83.8633 166.972 83.9225 166.647 83.9225 166.232C83.9225 165.818 83.8633 165.492 83.7449 165.24C83.6265 164.989 83.4489 164.811 83.212 164.708C82.9752 164.604 82.694 164.545 82.3536 164.545H81.6727V167.92H81.6875Z" fill="white"/>
<path d="M88.4667 169.104V163.346H92.5814V164.471H89.8876V165.655H92.3742V166.795H89.8876V167.979H92.5814V169.104H88.4667Z" fill="white"/>
<path d="M105.133 165.433H103.697C103.682 165.285 103.638 165.151 103.579 165.048C103.52 164.929 103.446 164.826 103.342 164.752C103.238 164.663 103.135 164.604 103.002 164.559C102.868 164.515 102.72 164.5 102.558 164.5C102.276 164.5 102.025 164.574 101.817 164.707C101.61 164.841 101.447 165.048 101.344 165.299C101.225 165.551 101.181 165.877 101.181 166.232C101.181 166.617 101.24 166.928 101.344 167.194C101.462 167.446 101.61 167.653 101.817 167.771C102.025 167.89 102.261 167.964 102.543 167.964C102.706 167.964 102.839 167.949 102.972 167.905C103.105 167.86 103.224 167.801 103.312 167.727C103.416 167.653 103.49 167.564 103.564 167.446C103.623 167.342 103.668 167.209 103.697 167.076L105.133 167.09C105.103 167.342 105.029 167.594 104.911 167.845C104.792 168.097 104.615 168.319 104.393 168.526C104.171 168.733 103.904 168.896 103.594 169.015C103.283 169.133 102.913 169.192 102.513 169.192C101.98 169.192 101.507 169.074 101.077 168.852C100.648 168.63 100.323 168.289 100.086 167.845C99.8341 167.401 99.7157 166.868 99.7157 166.232C99.7157 165.596 99.8341 165.063 100.086 164.619C100.337 164.175 100.663 163.849 101.092 163.612C101.521 163.39 101.995 163.272 102.513 163.272C102.868 163.272 103.194 163.316 103.505 163.42C103.816 163.523 104.082 163.657 104.304 163.849C104.541 164.027 104.718 164.263 104.867 164.53C105.015 164.796 105.103 165.092 105.133 165.433Z" fill="white"/>
<path d="M108.226 169.104V163.346H109.647V165.655H111.971V163.346H113.392V169.104H111.971V166.795H109.647V169.104H108.226Z" fill="white"/>
<path d="M117.847 169.104H116.307L118.306 163.346H120.2L122.198 169.104H120.659L119.268 164.796H119.223L117.847 169.104ZM117.64 166.839H120.851V167.89H117.64V166.839Z" fill="white"/>
<path d="M125.114 169.104V163.346H127.557C128.001 163.346 128.385 163.42 128.696 163.583C129.022 163.731 129.274 163.953 129.436 164.249C129.599 164.545 129.703 164.87 129.703 165.27C129.703 165.67 129.614 166.01 129.436 166.291C129.259 166.573 129.007 166.78 128.681 166.928C128.356 167.076 127.971 167.15 127.512 167.15H125.973V166.055H127.246C127.468 166.055 127.645 166.025 127.793 165.966C127.941 165.907 128.045 165.833 128.119 165.714C128.193 165.596 128.237 165.448 128.237 165.27C128.237 165.092 128.193 164.944 128.119 164.826C128.045 164.708 127.927 164.619 127.793 164.56C127.645 164.5 127.468 164.471 127.261 164.471H126.55V169.104H125.114ZM128.445 166.469L129.91 169.104H128.356L126.92 166.469H128.445Z" fill="white"/>
<path d="M132.767 163.346H134.528L136.023 166.913H136.097L137.592 163.346H139.353V169.104H137.962V165.566H137.918L136.497 169.059H135.609L134.188 165.537H134.143V169.089H132.767V163.346Z" fill="white"/>
<path d="M142.535 169.104V163.346H146.65V164.471H143.956V165.655H146.443V166.795H143.956V167.979H146.65V169.104H142.535Z" fill="white"/>
</svg>
