<svg xmlns="http://www.w3.org/2000/svg" xmlns:xlink="http://www.w3.org/1999/xlink" viewBox="0,0,256,256" width="100px" height="100px" fill-rule="nonzero"><g fill="none" fill-rule="nonzero" stroke="none" stroke-width="1" stroke-linecap="butt" stroke-linejoin="miter" stroke-miterlimit="10" stroke-dasharray="" stroke-dashoffset="0" font-family="none" font-weight="none" font-size="none" text-anchor="none" style="mix-blend-mode: normal"><g transform="scale(2.56,2.56)"><path d="M87.214,55.677c0.3,-0.616 0.566,-1.264 0.796,-1.943c2.633,-7.77 -1.349,-17.078 -9.733,-19.325c-0.907,-11.383 -8.907,-19.193 -17.942,-20.525c-10.341,-1.525 -19.814,5.044 -22.966,15.485c-3.799,-1.346 -7.501,-1.182 -10.99,0.857c-1.583,0.732 -3.031,1.812 -4.33,3.233c-1.907,2.086 -3.147,4.719 -3.652,7.495c-0.748,0.118 -1.483,0.236 -2.176,0.484c-4.04,1.449 -6.589,4.431 -7.288,8.923c-0.435,2.797 0.443,5.587 0.933,6.714c1.935,4.455 6.422,6.98 10.981,6.312c0.227,-0.033 0.557,0.069 0.752,0.233c0.241,7.12 3.698,13.417 8.884,17.014c8.321,5.772 19.027,3.994 25.781,-3.921c2.894,2.96 6.338,4.398 10.384,3.876c4.023,-0.519 7.147,-2.739 9.426,-6.349c1.053,0.283 2.051,0.691 3.083,0.804c4.042,0.442 7.297,-1.184 9.732,-4.8c0.083,-0.124 0.203,-0.219 0.306,-0.328c0.348,-0.798 0.696,-1.596 1.044,-2.394c0.155,-1.211 0.429,-2.423 0.443,-3.632c0.04,-3.256 -1.292,-6.223 -3.468,-8.213z" fill="#c8ede6"></path><path d="M46.182,61.349c1.883,0 3.517,0 3.54,0c2.11,0 3.821,-1.674 3.821,-3.739c0,-1.802 -1.302,-3.305 -3.035,-3.66c0.02,-0.158 0.034,-0.317 0.034,-0.48c0,-2.139 -1.772,-3.873 -3.957,-3.873c-1.29,0 -2.433,0.607 -3.155,1.543c-0.185,-2.381 -2.358,-4.218 -4.9,-3.913c-1.859,0.223 -3.397,1.629 -3.739,3.431c-0.11,0.578 -0.098,1.139 0.011,1.665c-0.498,-0.525 -1.208,-0.856 -1.998,-0.856c-1.446,0 -2.627,1.102 -2.72,2.494c-0.657,-0.142 -1.371,-0.133 -2.123,0.143c-1.438,0.528 -2.462,1.853 -2.522,3.356c-0.085,2.133 1.657,3.889 3.818,3.889c0.164,0 0.741,0 0.874,0h7.934M39.705,61.349h0.36" fill="#fdfcef"></path><path d="M49.722,61.849h-3.54c-0.276,0 -0.5,-0.224 -0.5,-0.5c0,-0.276 0.224,-0.5 0.5,-0.5h3.54c1.831,0 3.321,-1.453 3.321,-3.239c0,-1.524 -1.108,-2.857 -2.637,-3.17c-0.257,-0.052 -0.429,-0.294 -0.396,-0.554c0.018,-0.137 0.03,-0.275 0.03,-0.416c0,-1.86 -1.551,-3.373 -3.457,-3.373c-1.092,0 -2.098,0.492 -2.76,1.349c-0.126,0.164 -0.341,0.232 -0.538,0.173c-0.198,-0.059 -0.34,-0.234 -0.355,-0.44c-0.079,-1.019 -0.565,-1.943 -1.369,-2.603c-0.829,-0.68 -1.885,-0.983 -2.974,-0.853c-1.646,0.197 -3.006,1.442 -3.307,3.028c-0.094,0.494 -0.091,0.988 0.009,1.471c0.046,0.219 -0.06,0.441 -0.258,0.544c-0.197,0.104 -0.439,0.064 -0.595,-0.099c-0.428,-0.451 -1.008,-0.7 -1.635,-0.7c-1.17,0 -2.146,0.891 -2.221,2.027c-0.01,0.145 -0.082,0.279 -0.198,0.366c-0.115,0.087 -0.264,0.12 -0.406,0.089c-0.64,-0.139 -1.242,-0.098 -1.847,0.124c-1.262,0.464 -2.144,1.632 -2.193,2.906c-0.035,0.875 0.282,1.708 0.895,2.345c0.635,0.661 1.495,1.024 2.423,1.024h8.808c0.276,0 0.5,0.224 0.5,0.5c0,0.276 -0.224,0.5 -0.5,0.5h-8.808c-1.185,0 -2.331,-0.485 -3.144,-1.332c-0.803,-0.835 -1.219,-1.928 -1.174,-3.078c0.066,-1.674 1.212,-3.203 2.849,-3.805c0.611,-0.225 1.245,-0.307 1.881,-0.245c0.344,-1.396 1.629,-2.424 3.136,-2.424c0.493,0 0.977,0.113 1.413,0.323c0.01,-0.242 0.037,-0.484 0.083,-0.726c0.381,-2.009 2.096,-3.585 4.17,-3.834c1.365,-0.162 2.686,0.218 3.727,1.073c0.748,0.613 1.278,1.409 1.546,2.302c0.791,-0.648 1.786,-1.007 2.843,-1.007c2.458,0 4.457,1.962 4.457,4.373c0,0.034 -0.001,0.068 -0.002,0.103c1.765,0.555 3.004,2.188 3.004,4.038c0,2.338 -1.938,4.24 -4.321,4.24zM40.065,61.849h-0.36c-0.276,0 -0.5,-0.224 -0.5,-0.5c0,-0.276 0.224,-0.5 0.5,-0.5h0.36c0.276,0 0.5,0.224 0.5,0.5c0,0.276 -0.224,0.5 -0.5,0.5z" fill="#05161d"></path><path d="M48.015,56.046c-0.018,0 -0.036,-0.002 -0.055,-0.006c-0.135,-0.03 -0.22,-0.164 -0.189,-0.299c0.037,-0.164 0.094,-0.325 0.169,-0.479c0.605,-1.225 2.274,-1.676 3.722,-1.007c0.126,0.058 0.181,0.207 0.122,0.332c-0.058,0.125 -0.208,0.18 -0.331,0.122c-1.206,-0.557 -2.579,-0.209 -3.063,0.774c-0.059,0.118 -0.102,0.241 -0.13,0.367c-0.027,0.117 -0.131,0.196 -0.245,0.196zM42.856,61.849h-1.106c-0.276,0 -0.5,-0.224 -0.5,-0.5c0,-0.276 0.224,-0.5 0.5,-0.5h1.106c0.276,0 0.5,0.224 0.5,0.5c0,0.276 -0.224,0.5 -0.5,0.5z" fill="#05161d"></path><path d="M68.858,55.094h10.151c0.171,0 0.908,0 1.118,0c2.765,0 4.993,-2.295 4.885,-5.085c-0.077,-1.964 -1.387,-3.696 -3.227,-4.387c-0.963,-0.361 -1.877,-0.373 -2.717,-0.188c-0.119,-1.82 -1.63,-3.261 -3.48,-3.261c-1.011,0 -1.919,0.432 -2.557,1.119c0.14,-0.688 0.155,-1.422 0.014,-2.177c-0.438,-2.356 -2.405,-4.195 -4.784,-4.486c-3.253,-0.398 -6.033,2.004 -6.27,5.116c-0.924,-1.223 -2.386,-2.017 -4.037,-2.017c-2.796,0 -5.063,2.267 -5.063,5.063c0,0.213 0.017,0.422 0.043,0.628c-2.218,0.463 -3.884,2.429 -3.884,4.784c0,2.7 2.189,4.889 4.888,4.889c0.071,0 11.762,0 11.762,0" fill="#fdfcef"></path><path d="M80.127,55.594h-11.27c-0.276,0 -0.5,-0.224 -0.5,-0.5c0,-0.276 0.224,-0.5 0.5,-0.5h11.27c1.204,0 2.328,-0.478 3.163,-1.347c0.835,-0.868 1.269,-2.011 1.222,-3.218c-0.067,-1.729 -1.234,-3.312 -2.903,-3.938c-0.796,-0.298 -1.59,-0.354 -2.433,-0.167c-0.143,0.032 -0.292,0 -0.408,-0.088c-0.117,-0.087 -0.189,-0.222 -0.199,-0.367c-0.103,-1.567 -1.412,-2.794 -2.98,-2.794c-0.838,0 -1.615,0.341 -2.19,0.959c-0.152,0.165 -0.397,0.206 -0.595,0.104c-0.199,-0.103 -0.306,-0.325 -0.262,-0.544c0.133,-0.651 0.137,-1.319 0.013,-1.986c-0.397,-2.138 -2.188,-3.816 -4.353,-4.081c-1.409,-0.173 -2.778,0.223 -3.86,1.109c-1.071,0.878 -1.745,2.171 -1.85,3.549c-0.017,0.207 -0.158,0.383 -0.358,0.441c-0.197,0.059 -0.414,-0.012 -0.539,-0.178c-0.874,-1.156 -2.2,-1.818 -3.639,-1.818c-2.517,0 -4.563,2.047 -4.563,4.563c0,0.192 0.017,0.381 0.039,0.567c0.032,0.258 -0.14,0.497 -0.394,0.55c-2.021,0.422 -3.486,2.229 -3.486,4.295c0,2.42 1.969,4.389 4.389,4.389h11.762c0.276,0 0.5,0.224 0.5,0.5c0,0.276 -0.224,0.5 -0.5,0.5h-11.763c-2.972,0 -5.389,-2.417 -5.389,-5.389c0,-2.387 1.594,-4.491 3.848,-5.164c-0.005,-0.083 -0.007,-0.165 -0.007,-0.249c0,-3.068 2.496,-5.563 5.563,-5.563c1.395,0 2.701,0.51 3.714,1.426c0.321,-1.243 1.034,-2.37 2.038,-3.193c1.295,-1.062 2.936,-1.533 4.615,-1.328c2.595,0.317 4.738,2.329 5.214,4.891c0.072,0.387 0.108,0.774 0.107,1.159c0.59,-0.33 1.26,-0.51 1.944,-0.51c1.907,0 3.527,1.359 3.904,3.182c0.84,-0.1 1.667,-0.001 2.468,0.299c2.041,0.766 3.468,2.709 3.552,4.835c0.058,1.481 -0.476,2.885 -1.501,3.951c-1.025,1.066 -2.404,1.653 -3.883,1.653z" fill="#05161d"></path><path d="M68.535,44.325c1.808,-0.119 3.365,1.13 3.476,2.789c0.014,0.206 0.005,0.409 -0.025,0.606c0.349,-0.394 0.865,-0.661 1.458,-0.7c1.085,-0.071 2.022,0.645 2.158,1.62c0.197,-0.054 0.403,-0.09 0.616,-0.104c1.582,-0.104 2.944,0.989 3.042,2.441" fill="#fdfcef"></path><path d="M79.259,51.226c-0.131,0 -0.24,-0.101 -0.249,-0.233c-0.089,-1.312 -1.35,-2.309 -2.775,-2.208c-0.188,0.012 -0.379,0.044 -0.568,0.096c-0.068,0.019 -0.144,0.007 -0.203,-0.033c-0.06,-0.04 -0.1,-0.103 -0.11,-0.174c-0.118,-0.849 -0.96,-1.471 -1.893,-1.405c-0.5,0.033 -0.97,0.258 -1.287,0.617c-0.074,0.083 -0.194,0.106 -0.294,0.061c-0.101,-0.047 -0.157,-0.155 -0.141,-0.265c0.027,-0.18 0.035,-0.365 0.023,-0.551c-0.102,-1.52 -1.563,-2.666 -3.211,-2.557c-0.006,0 -0.012,0 -0.017,0c-0.131,0 -0.241,-0.102 -0.249,-0.233c-0.01,-0.138 0.095,-0.257 0.232,-0.266c1.943,-0.122 3.623,1.228 3.742,3.022c0.002,0.019 0.003,0.037 0.004,0.055c0.34,-0.222 0.738,-0.354 1.163,-0.382c1.11,-0.072 2.091,0.601 2.365,1.568c0.137,-0.026 0.274,-0.044 0.41,-0.053c1.713,-0.118 3.199,1.087 3.306,2.673c0.01,0.138 -0.095,0.257 -0.232,0.266c-0.005,0.002 -0.01,0.002 -0.016,0.002z" fill="#05161d"></path><path d="M51.96,45.994c1.699,-0.801 3.664,-0.234 4.389,1.267c0.09,0.186 0.157,0.379 0.201,0.574" fill="#fdfcef"></path><path d="M56.55,48.084c-0.114,0 -0.217,-0.078 -0.243,-0.194c-0.042,-0.181 -0.104,-0.356 -0.184,-0.521c-0.664,-1.374 -2.481,-1.89 -4.057,-1.149c-0.122,0.059 -0.273,0.006 -0.333,-0.12c-0.059,-0.125 -0.005,-0.273 0.12,-0.333c1.82,-0.857 3.937,-0.238 4.721,1.384c0.096,0.199 0.169,0.41 0.219,0.626c0.031,0.135 -0.053,0.269 -0.187,0.3c-0.019,0.005 -0.037,0.007 -0.056,0.007z" fill="#05161d"></path><path d="M84.361,68.759h-10.03c-0.276,0 -0.5,-0.224 -0.5,-0.5c0,-0.276 0.224,-0.5 0.5,-0.5h10.03c0.276,0 0.5,0.224 0.5,0.5c0,0.276 -0.224,0.5 -0.5,0.5zM87.242,68.759h-1.445c-0.276,0 -0.5,-0.224 -0.5,-0.5c0,-0.276 0.224,-0.5 0.5,-0.5h1.445c0.276,0 0.5,0.224 0.5,0.5c0,0.276 -0.224,0.5 -0.5,0.5zM91.296,68.759h-2.546c-0.276,0 -0.5,-0.224 -0.5,-0.5c0,-0.276 0.224,-0.5 0.5,-0.5h2.546c0.276,0 0.5,0.224 0.5,0.5c0,0.276 -0.223,0.5 -0.5,0.5zM91.296,70.624h-9.616c-0.276,0 -0.5,-0.224 -0.5,-0.5c0,-0.276 0.224,-0.5 0.5,-0.5h9.616c0.276,0 0.5,0.224 0.5,0.5c0,0.276 -0.223,0.5 -0.5,0.5zM79.949,70.624h-0.58c-0.276,0 -0.5,-0.224 -0.5,-0.5c0,-0.276 0.224,-0.5 0.5,-0.5h0.58c0.276,0 0.5,0.224 0.5,0.5c0,0.276 -0.224,0.5 -0.5,0.5zM77.572,70.624h-1.456c-0.276,0 -0.5,-0.224 -0.5,-0.5c0,-0.276 0.224,-0.5 0.5,-0.5h1.456c0.276,0 0.5,0.224 0.5,0.5c0,0.276 -0.224,0.5 -0.5,0.5zM86.708,66.894h-5.028c-0.276,0 -0.5,-0.224 -0.5,-0.5c0,-0.276 0.224,-0.5 0.5,-0.5h5.027c0.276,0 0.5,0.224 0.5,0.5c0,0.276 -0.223,0.5 -0.499,0.5zM86.708,65.029h-1.257c-0.276,0 -0.5,-0.224 -0.5,-0.5c0,-0.276 0.224,-0.5 0.5,-0.5h1.257c0.276,0 0.5,0.224 0.5,0.5c0,0.276 -0.224,0.5 -0.5,0.5zM83.439,72.489h-1.759c-0.276,0 -0.5,-0.224 -0.5,-0.5c0,-0.276 0.224,-0.5 0.5,-0.5h1.759c0.276,0 0.5,0.224 0.5,0.5c0,0.276 -0.224,0.5 -0.5,0.5zM18.359,51.211h-10.03c-0.276,0 -0.5,-0.224 -0.5,-0.5c0,-0.276 0.224,-0.5 0.5,-0.5h10.03c0.276,0 0.5,0.224 0.5,0.5c0,0.276 -0.224,0.5 -0.5,0.5zM21.24,51.211h-1.445c-0.276,0 -0.5,-0.224 -0.5,-0.5c0,-0.276 0.224,-0.5 0.5,-0.5h1.445c0.276,0 0.5,0.224 0.5,0.5c0,0.276 -0.224,0.5 -0.5,0.5zM25.294,51.211h-2.546c-0.276,0 -0.5,-0.224 -0.5,-0.5c0,-0.276 0.224,-0.5 0.5,-0.5h2.546c0.276,0 0.5,0.224 0.5,0.5c0,0.276 -0.223,0.5 -0.5,0.5zM23.269,47.481h-9.616c-0.276,0 -0.5,-0.224 -0.5,-0.5c0,-0.276 0.224,-0.5 0.5,-0.5h9.616c0.276,0 0.5,0.224 0.5,0.5c0,0.276 -0.224,0.5 -0.5,0.5zM11.921,47.481h-0.58c-0.276,0 -0.5,-0.224 -0.5,-0.5c0,-0.276 0.224,-0.5 0.5,-0.5h0.58c0.276,0 0.5,0.224 0.5,0.5c0,0.276 -0.223,0.5 -0.5,0.5zM9.544,47.481h-1.456c-0.276,0 -0.5,-0.224 -0.5,-0.5c0,-0.276 0.224,-0.5 0.5,-0.5h1.456c0.276,0 0.5,0.224 0.5,0.5c0,0.276 -0.223,0.5 -0.5,0.5zM20.706,49.346h-5.027c-0.276,0 -0.5,-0.224 -0.5,-0.5c0,-0.276 0.224,-0.5 0.5,-0.5h5.027c0.276,0 0.5,0.224 0.5,0.5c0,0.276 -0.224,0.5 -0.5,0.5z" fill="#ffffff"></path><path d="M20.706,47.481h-1.257c-0.276,0 -0.5,-0.224 -0.5,-0.5c0,-0.276 0.224,-0.5 0.5,-0.5h1.257c0.276,0 0.5,0.224 0.5,0.5c0,0.276 -0.224,0.5 -0.5,0.5zM14.223,49.346h-1.759c-0.276,0 -0.5,-0.224 -0.5,-0.5c0,-0.276 0.224,-0.5 0.5,-0.5h1.759c0.276,0 0.5,0.224 0.5,0.5c0,0.276 -0.223,0.5 -0.5,0.5z" fill="#ffffff"></path><path d="M56.863,29.992c-6.263,-3.796 -14.417,-1.796 -18.213,4.467c-3.796,6.263 -1.796,14.417 4.467,18.213c6.263,3.796 14.417,1.796 18.213,-4.467c3.796,-6.262 1.796,-14.417 -4.467,-18.213zM48.725,37.893l-4.301,0.091c-0.917,0.11 -1.188,0 -2.104,0v0c-4.056,0.152 -2.375,-3.397 -1.29,-3.397l7.477,0.027c1.146,-0.027 1.163,0.59 1.32,1.042c0.299,0.864 0,2.062 -1.102,2.237z" fill="#1b4b63"></path><path d="M49.964,55.298c-2.52,0 -5,-0.688 -7.211,-2.027c-6.582,-3.99 -8.692,-12.592 -4.702,-19.174c3.99,-6.582 12.59,-8.693 19.175,-4.703c6.582,3.99 8.692,12.592 4.702,19.174c-1.933,3.189 -4.991,5.435 -8.613,6.323c-1.111,0.272 -2.234,0.407 -3.351,0.407zM50.01,28.775c-4.25,0 -8.402,2.154 -10.762,6.047c-3.59,5.923 -1.691,13.662 4.231,17.251c2.869,1.74 6.244,2.258 9.502,1.458c3.258,-0.799 6.01,-2.819 7.749,-5.688c3.59,-5.923 1.691,-13.662 -4.231,-17.251c-2.029,-1.231 -4.272,-1.817 -6.489,-1.817z" fill="#05161d"></path><path d="M60.7,47.721l-9.729,6.663c0,0 -0.376,0.924 0.007,1.484c0.383,0.56 1.227,0.815 1.781,0.428l2.154,-1.475l4.621,6.747l1.651,0.14l-0.391,1.566l2.038,0.533l-0.447,1.793l1.855,0.457l-0.264,1.869l1.587,0.202l-0.2,1.538l5.461,2.264l0.331,-4.844l-10.857,-15.953l1.59,-1.087c0.549,-0.375 0.83,-1.087 0.571,-1.699c-0.316,-0.749 -1.179,-1.023 -1.759,-0.626z" fill="#ce942b"></path><path d="M70.823,72.43c-0.064,0 -0.13,-0.013 -0.191,-0.038l-5.46,-2.264c-0.209,-0.086 -0.334,-0.302 -0.305,-0.526l0.136,-1.041l-1.09,-0.139c-0.133,-0.017 -0.253,-0.086 -0.334,-0.193c-0.081,-0.107 -0.116,-0.241 -0.098,-0.373l0.2,-1.422l-1.416,-0.349c-0.129,-0.032 -0.239,-0.113 -0.309,-0.227c-0.068,-0.114 -0.089,-0.25 -0.057,-0.379l0.328,-1.314l-1.561,-0.408c-0.265,-0.069 -0.425,-0.339 -0.358,-0.605l0.249,-0.996l-1.066,-0.091c-0.149,-0.013 -0.286,-0.092 -0.37,-0.215l-4.338,-6.335l-1.742,1.193c-0.34,0.237 -0.771,0.325 -1.227,0.243c-0.502,-0.092 -0.97,-0.392 -1.25,-0.801c-0.52,-0.759 -0.105,-1.834 -0.057,-1.955c0.037,-0.091 0.1,-0.168 0.181,-0.224l9.729,-6.663v0c0.388,-0.266 0.879,-0.336 1.349,-0.2c0.517,0.152 0.937,0.533 1.153,1.045c0.34,0.807 0.024,1.776 -0.75,2.306l-1.179,0.806l10.576,15.54c0.063,0.093 0.094,0.204 0.086,0.315l-0.332,4.844c-0.011,0.161 -0.099,0.306 -0.235,0.391c-0.079,0.05 -0.17,0.075 -0.262,0.075zM65.908,69.351l4.464,1.851l0.272,-3.978l-10.76,-15.81c-0.155,-0.228 -0.097,-0.539 0.131,-0.694l1.591,-1.087c0.377,-0.258 0.546,-0.728 0.393,-1.093c-0.099,-0.234 -0.286,-0.407 -0.514,-0.474c-0.183,-0.052 -0.36,-0.03 -0.502,0.066l-9.593,6.569c-0.077,0.26 -0.144,0.672 0.001,0.882c0.131,0.191 0.362,0.337 0.604,0.382c0.105,0.02 0.311,0.036 0.478,-0.082l2.158,-1.478c0.108,-0.075 0.241,-0.104 0.374,-0.079c0.131,0.024 0.246,0.1 0.32,0.209l4.486,6.552l1.415,0.12c0.146,0.012 0.279,0.088 0.364,0.207c0.086,0.119 0.114,0.27 0.079,0.412l-0.271,1.086l1.561,0.408c0.265,0.069 0.425,0.339 0.358,0.605l-0.326,1.307l1.368,0.337c0.249,0.061 0.411,0.301 0.375,0.555l-0.193,1.368l1.085,0.138c0.132,0.017 0.251,0.085 0.332,0.19c0.081,0.105 0.117,0.238 0.101,0.37z" fill="#05161d"></path><path d="M60.425,48.515l-3.269,2.239l13.29,19.634l0.223,-3.161l-10.884,-16.11l1.441,-1.008c0.472,-0.323 1.225,-0.993 0.795,-1.62c-0.514,-0.751 -0.933,-0.485 -1.596,0.026z" fill="#e2ad17"></path><path d="M67.289,65.744c-0.079,0 -0.158,-0.038 -0.206,-0.109l-0.771,-1.125c-0.078,-0.114 -0.049,-0.27 0.064,-0.347c0.116,-0.077 0.271,-0.049 0.348,0.065l0.771,1.125c0.078,0.114 0.049,0.27 -0.064,0.347c-0.045,0.03 -0.094,0.044 -0.142,0.044zM65.559,63.218c-0.079,0 -0.158,-0.038 -0.206,-0.109l-1.155,-1.687c-0.078,-0.114 -0.049,-0.27 0.064,-0.347c0.115,-0.077 0.271,-0.049 0.348,0.065l1.155,1.687c0.078,0.114 0.049,0.27 -0.064,0.347c-0.044,0.03 -0.093,0.044 -0.142,0.044zM63.297,59.915c-0.079,0 -0.158,-0.038 -0.206,-0.109l-4.753,-6.939c-0.078,-0.114 -0.049,-0.27 0.064,-0.347c0.115,-0.077 0.271,-0.049 0.348,0.065l4.753,6.939c0.078,0.114 0.049,0.27 -0.064,0.347c-0.044,0.03 -0.093,0.044 -0.142,0.044zM51.887,56.337c-0.069,0 -0.125,-0.056 -0.125,-0.125v-2.098c0,-0.069 0.056,-0.125 0.125,-0.125c0.069,0 0.125,0.056 0.125,0.125v2.098c0,0.069 -0.055,0.125 -0.125,0.125zM52.582,55.932c-0.069,0 -0.125,-0.056 -0.125,-0.125v-2.098c0,-0.069 0.056,-0.125 0.125,-0.125c0.069,0 0.125,0.056 0.125,0.125v2.098c0,0.069 -0.056,0.125 -0.125,0.125zM53.276,55.526c-0.069,0 -0.125,-0.056 -0.125,-0.125v-2.098c0,-0.069 0.056,-0.125 0.125,-0.125c0.069,0 0.125,0.056 0.125,0.125v2.098c0,0.069 -0.056,0.125 -0.125,0.125zM53.97,55.12c-0.069,0 -0.125,-0.056 -0.125,-0.125v-2.098c0,-0.069 0.056,-0.125 0.125,-0.125c0.069,0 0.125,0.056 0.125,0.125v2.098c0,0.069 -0.055,0.125 -0.125,0.125zM54.609,54.065c-0.069,0 -0.125,-0.056 -0.125,-0.125v-1.692c0,-0.069 0.056,-0.125 0.125,-0.125c0.069,0 0.125,0.056 0.125,0.125v1.692c0,0.069 -0.056,0.125 -0.125,0.125zM55.303,53.016c-0.069,0 -0.125,-0.056 -0.125,-0.125v-1.049c0,-0.069 0.056,-0.125 0.125,-0.125c0.069,0 0.125,0.056 0.125,0.125v1.049c0,0.069 -0.055,0.125 -0.125,0.125z" fill="#05161d"></path><path d="M57.209,37.476c-3.023,-6.671 -10.88,-9.628 -17.551,-6.605c-6.671,3.023 -9.628,10.88 -6.605,17.551c3.023,6.671 10.88,9.628 17.551,6.605c6.67,-3.023 9.627,-10.881 6.605,-17.551zM48.184,37.841l-6.746,-0.005c-0.896,-0.001 -1.629,-0.735 -1.629,-1.631v0c0.001,-0.896 0.735,-1.629 1.631,-1.629l6.746,0.005c0.896,0.001 1.629,0.735 1.629,1.631c0,0.897 -0.734,1.63 -1.631,1.629z" fill="#0f2b39"></path><path d="M45.152,56.908c-5.315,0 -10.404,-3.05 -12.737,-8.198c-3.177,-7.011 -0.058,-15.3 6.954,-18.478c7.011,-3.178 15.3,-0.058 18.478,6.954v0c3.177,7.011 0.058,15.3 -6.953,18.478c-1.864,0.845 -3.818,1.244 -5.742,1.244zM45.112,30.389c-1.731,0 -3.488,0.359 -5.165,1.119c-6.309,2.858 -9.115,10.316 -6.257,16.624c2.858,6.308 10.317,9.115 16.625,6.257c6.308,-2.858 9.114,-10.316 6.256,-16.625c-2.099,-4.63 -6.677,-7.375 -11.459,-7.375z" fill="#05161d"></path><path d="M51.693,43.321l0.013,-0.025c-0.613,-1.089 -1.677,-1.891 -2.932,-2.171c-0.062,-0.014 -0.125,-0.028 -0.188,-0.039c-0.092,-0.017 -0.185,-0.032 -0.279,-0.043c-0.141,-0.017 -0.284,-0.026 -0.429,-0.03c-0.026,0 -0.05,-0.005 -0.076,-0.005h-0.027h-5.281h-0.028c-2.448,0 -4.451,2.003 -4.451,4.451v0.803c0,0.774 0.202,1.502 0.555,2.138l-0.013,0.024c0.613,1.089 1.677,1.891 2.932,2.171c0.062,0.014 0.125,0.028 0.188,0.039c0.092,0.017 0.185,0.032 0.279,0.043c0.141,0.017 0.284,0.026 0.429,0.03c0.026,0 0.05,0.005 0.076,0.005h0.027h5.281h0.028c2.448,0 4.451,-2.003 4.451,-4.451v-0.803c0,-0.773 -0.202,-1.502 -0.555,-2.137z" fill="#1b4b63"></path><path d="M50.358,54.271h-11.792c0,0 -0.832,0.55 -0.833,1.228c0,0.678 0.552,1.365 1.228,1.36h2.611v8.178l1.283,1.048l-1.207,1.071l1.381,1.591l-1.382,1.227l1.272,1.425l-1.274,1.393l1.195,1.064l-1.034,1.155l3.226,4.953l3.01,-3.81l0.056,-19.296l1.926,0.001c0.665,0.001 1.299,-0.428 1.431,-1.079c0.163,-0.795 -0.394,-1.508 -1.097,-1.509z" fill="#f1bc19"></path><path d="M45.032,80.465c-0.008,0 -0.016,0 -0.022,0c-0.161,-0.007 -0.309,-0.092 -0.396,-0.227l-3.227,-4.953c-0.123,-0.189 -0.104,-0.438 0.046,-0.606l0.7,-0.782l-0.82,-0.73c-0.101,-0.089 -0.16,-0.214 -0.167,-0.348c-0.007,-0.134 0.04,-0.265 0.13,-0.363l0.97,-1.06l-0.972,-1.088c-0.089,-0.099 -0.134,-0.229 -0.126,-0.362c0.008,-0.133 0.067,-0.257 0.167,-0.345l1.013,-0.899l-1.057,-1.218c-0.18,-0.207 -0.159,-0.52 0.046,-0.702l0.769,-0.682l-0.828,-0.676c-0.116,-0.095 -0.184,-0.237 -0.184,-0.387v-7.678h-2.111c-0.004,0 -0.008,0 -0.012,0c-0.412,0 -0.817,-0.175 -1.138,-0.494c-0.362,-0.36 -0.579,-0.871 -0.578,-1.367c0,-0.92 0.949,-1.573 1.058,-1.645c0.082,-0.054 0.178,-0.083 0.275,-0.083h11.791v0c0.47,0 0.917,0.218 1.227,0.597c0.341,0.417 0.472,0.969 0.361,1.514c-0.175,0.857 -0.982,1.479 -1.921,1.479h-0.001l-1.427,-0.001l-0.055,18.797c0,0.112 -0.038,0.221 -0.107,0.309l-3.011,3.81c-0.096,0.12 -0.241,0.19 -0.393,0.19zM42.433,75.06l2.638,4.049l2.473,-3.128l0.055,-19.124c0.001,-0.275 0.225,-0.499 0.5,-0.499v0l1.926,0.001c0.001,0 0.001,0 0.001,0c0.457,0 0.861,-0.292 0.94,-0.679c0.051,-0.25 -0.006,-0.498 -0.155,-0.681c-0.121,-0.148 -0.281,-0.229 -0.452,-0.229h-11.627c-0.211,0.17 -0.498,0.474 -0.498,0.728c0,0.232 0.108,0.483 0.283,0.657c0.076,0.076 0.234,0.203 0.437,0.203c0.001,0 0.003,0 0.004,0h2.615c0.276,0 0.5,0.224 0.5,0.5v7.942l1.099,0.898c0.113,0.093 0.181,0.23 0.184,0.377c0.003,0.147 -0.059,0.287 -0.168,0.384l-0.837,0.743l1.057,1.218c0.18,0.207 0.159,0.52 -0.046,0.702l-1.008,0.894l0.938,1.051c0.171,0.191 0.169,0.481 -0.004,0.67l-0.933,1.019l0.816,0.727c0.1,0.088 0.159,0.212 0.167,0.345c0.008,0.132 -0.038,0.263 -0.126,0.362zM45.585,36.457c-0.03,0 -0.062,0 -0.092,-0.001c-2.72,-0.052 -4.89,-2.347 -4.838,-5.116c0.052,-2.738 2.257,-4.931 4.936,-4.931c0.03,0 0.061,0 0.092,0.001c0.999,0.019 1.956,0.34 2.766,0.927c0.168,0.122 0.205,0.356 0.084,0.524c-0.121,0.168 -0.354,0.205 -0.523,0.083c-0.687,-0.498 -1.495,-0.769 -2.34,-0.785c-0.026,0 -0.053,-0.001 -0.078,-0.001c-2.271,0 -4.142,1.866 -4.186,4.195c-0.044,2.355 1.796,4.308 4.102,4.352c0.026,0 0.053,0.001 0.078,0.001c1.022,0 2.004,-0.379 2.771,-1.072c0.153,-0.139 0.39,-0.127 0.529,0.027c0.139,0.154 0.127,0.391 -0.027,0.53c-0.905,0.818 -2.066,1.266 -3.274,1.266z" fill="#05161d"></path><g><path d="M52.248,45.537v0.731c0,0.82 -0.225,1.589 -0.615,2.251" fill="#ffffff"></path><path d="M51.632,48.769c-0.044,0 -0.087,-0.011 -0.127,-0.035c-0.119,-0.07 -0.158,-0.224 -0.088,-0.342c0.379,-0.643 0.58,-1.377 0.58,-2.124v-0.731c0,-0.138 0.112,-0.25 0.25,-0.25c0.138,0 0.25,0.112 0.25,0.25v0.731c0,0.836 -0.225,1.658 -0.65,2.377c-0.046,0.08 -0.13,0.124 -0.215,0.124z" fill="#05161d"></path></g><path d="M47.718,50.963h-5.254c-2.592,0 -4.7,-2.109 -4.7,-4.701v-0.803c0,-2.592 2.108,-4.701 4.7,-4.701h5.286c1.696,0 3.269,0.926 4.103,2.416c0.067,0.121 0.024,0.273 -0.096,0.34c-0.12,0.066 -0.271,0.025 -0.34,-0.096c-0.746,-1.333 -2.151,-2.16 -3.667,-2.16h-5.286c-2.316,0 -4.2,1.884 -4.2,4.201v0.803c0,2.316 1.884,4.201 4.2,4.201h5.254c0.138,0 0.25,0.112 0.25,0.25c0,0.138 -0.112,0.25 -0.25,0.25z" fill="#05161d"></path><g fill="#fbcd59"><path d="M49.701,54.727h-3.962l-0.128,23.809l1.97,-2.493l0.122,-19.524l1.758,-0.017c0.572,0 1.572,-0.127 1.572,-0.892c0,-0.913 -0.528,-0.883 -1.332,-0.883z"></path></g><g fill="#05161d"><path d="M45.751,72.908c-0.138,0 -0.25,-0.112 -0.25,-0.25v-1.363c0,-0.138 0.112,-0.25 0.25,-0.25c0.138,0 0.25,0.112 0.25,0.25v1.363c0,0.138 -0.112,0.25 -0.25,0.25zM45.751,69.847c-0.138,0 -0.25,-0.112 -0.25,-0.25v-2.045c0,-0.138 0.112,-0.25 0.25,-0.25c0.138,0 0.25,0.112 0.25,0.25v2.045c0,0.139 -0.112,0.25 -0.25,0.25zM45.751,65.844c-0.138,0 -0.25,-0.112 -0.25,-0.25v-8.411c0,-0.138 0.112,-0.25 0.25,-0.25c0.138,0 0.25,0.112 0.25,0.25v8.411c0,0.138 -0.112,0.25 -0.25,0.25z"></path></g><path d="M48.199,38.359c-0.001,0 -0.002,0 -0.002,0l-6.746,-0.004c-0.534,0 -1.037,-0.21 -1.416,-0.59c-0.38,-0.38 -0.589,-0.883 -0.588,-1.417c0.001,-1.105 0.9,-2.003 2.005,-2.003h0.001l6.746,0.005c1.105,0 2.004,0.901 2.004,2.006c-0.001,1.105 -0.901,2.003 -2.004,2.003zM41.452,35.094c-0.691,0 -1.254,0.562 -1.255,1.254c0,0.333 0.131,0.648 0.368,0.886c0.238,0.238 0.553,0.37 0.886,0.37l6.746,0.004v0c0.001,0 0.001,0 0.002,0c0.69,0 1.253,-0.562 1.254,-1.254c0,-0.692 -0.562,-1.255 -1.254,-1.256l-6.747,-0.004z" fill="#05161d"></path></g></g></svg>