<svg width="80" height="61" viewBox="0 0 80 61" fill="none" xmlns="http://www.w3.org/2000/svg">
<rect x="31.0078" width="48.9922" height="48.19" rx="18.8095" fill="#1B4B63"/>
<path d="M13.174 15.6313C20.8389 15.6313 27.1938 21.1485 28.3579 28.3659C30.9389 25.8369 34.4998 24.273 38.4322 24.273H48.316V29.674C48.316 37.4297 41.9243 43.7167 34.0395 43.7167H28.5485V54.5188H24.1558V37.2355H19.7631C11.2719 37.2355 4.38843 30.4647 4.38843 22.1125V15.6313H13.174ZM43.9232 28.5938H38.4322C32.9738 28.5938 28.5485 32.9464 28.5485 38.3157V39.3959H34.0395C39.4982 39.3959 43.9232 35.0433 43.9232 29.674V28.5938ZM13.174 19.9521H8.78119V22.1125C8.78119 28.0784 13.6979 32.9146 19.7631 32.9146H24.1558V30.7542C24.1558 24.7884 19.2391 19.9521 13.174 19.9521Z" fill="#0F2B39"/>
</svg>
