<svg width="30" height="30" viewBox="0 0 30 30" fill="none" xmlns="http://www.w3.org/2000/svg">
<path fill-rule="evenodd" clip-rule="evenodd" d="M24.9747 4.2689C22.2266 1.51751 18.5717 0.00161361 14.6781 0C6.65484 0 0.12508 6.52958 0.121853 14.555C0.120777 17.1204 0.790964 19.6248 2.06482 21.8322L-0.000244141 29.3749L7.71624 27.3507C9.84244 28.5106 12.2361 29.1218 14.6722 29.1225H14.6783C22.7006 29.1225 29.2311 22.5924 29.2341 14.5666C29.2357 10.6771 27.7231 7.02012 24.9747 4.2689ZM14.6781 26.6642H14.6731C12.5022 26.6633 10.3731 26.0799 8.51533 24.9778L8.07374 24.7155L3.49466 25.9168L4.71689 21.4523L4.42913 20.9945C3.21802 19.0683 2.57849 16.8418 2.57957 14.5559C2.58208 7.88537 8.00955 2.45843 14.6829 2.45843C17.9145 2.45951 20.9522 3.71956 23.2363 6.00641C25.5205 8.29326 26.7777 11.3329 26.7766 14.5657C26.7737 21.2368 21.3466 26.6642 14.6781 26.6642ZM21.3143 17.6031C20.9507 17.4209 19.1625 16.5413 18.829 16.4198C18.4959 16.2984 18.2531 16.238 18.0109 16.6019C17.7683 16.9659 17.0714 17.7852 16.8591 18.0278C16.6469 18.2706 16.4349 18.3011 16.0712 18.1189C15.7074 17.9369 14.5355 17.5527 13.1462 16.3136C12.0651 15.3492 11.3352 14.1582 11.1229 13.7942C10.911 13.4299 11.1211 13.2521 11.2825 13.052C11.6762 12.5631 12.0705 12.0505 12.1917 11.8079C12.3131 11.5651 12.2523 11.3527 12.1612 11.1707C12.0705 10.9887 11.3431 9.19849 11.0401 8.47004C10.7446 7.76112 10.445 7.85686 10.2216 7.84575C10.0097 7.83517 9.76714 7.83302 9.52456 7.83302C9.28216 7.83302 8.88808 7.92392 8.5546 8.28824C8.2213 8.65238 7.28182 9.53215 7.28182 11.3224C7.28182 13.1126 8.58508 14.842 8.76688 15.0848C8.94868 15.3275 11.3316 19.0012 14.98 20.5764C15.8478 20.9515 16.5251 21.1751 17.0535 21.3427C17.9249 21.6196 18.7175 21.5805 19.3443 21.4869C20.0432 21.3824 21.496 20.6069 21.7993 19.7574C22.1023 18.9078 22.1023 18.1797 22.0112 18.0278C21.9205 17.8761 21.6779 17.7852 21.3143 17.6031Z" fill="white"/>
</svg>
